<svg xmlns="http://www.w3.org/2000/svg" xmlns:xlink="http://www.w3.org/1999/xlink" width="932.404" height="353.101" viewBox="0 0 699.303 264.826"><defs><symbol id="b" overflow="visible"><path d="M1.484-1h1.938v-6.656l-2.11.422v-1.078l2.094-.422h1.188V-1h1.922v1H1.484Zm0 0" style="stroke:none"/></symbol><symbol id="c" overflow="visible"><path d="M3.813-7.953c-.618 0-1.075.305-1.376.906q-.454.893-.453 2.688-.002 1.8.454 2.703.45.89 1.374.89.919 0 1.376-.89.452-.904.453-2.703-.002-1.795-.453-2.688c-.305-.601-.762-.906-1.375-.906m0-.938q1.465.001 2.234 1.157.78 1.16.781 3.375-.001 2.202-.781 3.375Q5.278.174 3.813.172 2.342.174 1.563-.984.796-2.157.797-4.36q-.001-2.216.766-3.375.779-1.156 2.25-1.157m0 0" style="stroke:none"/></symbol><symbol id="d" overflow="visible"><path d="M1.297-8.734h4.64v1H2.376v2.14q.264-.094.516-.14.246-.047.515-.047 1.467.002 2.313.812c.57.532.86 1.258.86 2.172Q6.577-1.39 5.702-.609C5.117-.086 4.29.17 3.22.17q-.55 0-1.125-.093a9 9 0 0 1-1.173-.28v-1.188a4.7 4.7 0 0 0 1.094.422q.562.14 1.187.14 1.014.001 1.594-.53.592-.528.594-1.438-.002-.92-.594-1.453-.58-.53-1.594-.531a4.4 4.4 0 0 0-.953.11 5.3 5.3 0 0 0-.953.327Zm0 0" style="stroke:none"/></symbol><symbol id="e" overflow="visible"><path d="M1.406-1.484h1.235v1L1.67 1.39H.92l.485-1.875Zm0 0" style="stroke:none"/></symbol><symbol id="aT" overflow="visible"><path d="M4.719-7.937q-1.285.001-2.047.968-.75.956-.75 2.61 0 1.659.75 2.609.763.954 2.047.953 1.296.001 2.047-.953.75-.95.75-2.61 0-1.652-.75-2.609-.751-.967-2.047-.968m0-.954q1.84.002 2.937 1.235c.739.812 1.11 1.914 1.11 3.297q0 2.064-1.11 3.297Q6.56.173 4.72.172q-1.845 0-2.953-1.219Q.672-2.278.672-4.359c0-1.383.363-2.485 1.094-3.297.738-.82 1.722-1.235 2.953-1.235m0 0" style="stroke:none"/></symbol><symbol id="aU" overflow="visible"><path d="M1.016-2.594v-3.953h1.078v3.922c0 .617.117 1.078.36 1.39q.373.47 1.093.47.872.002 1.375-.547c.344-.375.516-.883.516-1.532v-3.703H6.5V0H5.438v-1q-.41.597-.922.89-.517.282-1.203.282-1.126 0-1.72-.703-.578-.703-.577-2.063m2.718-4.125" style="stroke:none"/></symbol><symbol id="aV" overflow="visible"><path d="M4.922-5.547a1.3 1.3 0 0 0-.39-.156 2.3 2.3 0 0 0-.47-.047q-.925.002-1.406.594-.485.596-.484 1.703V0H1.094v-6.547h1.078v1.016q.34-.593.875-.89.544-.296 1.328-.298.105.002.234.016.14.017.313.047Zm0 0" style="stroke:none"/></symbol><symbol id="aW" overflow="visible"><path d="M5.313-6.36v1.016a4.3 4.3 0 0 0-.954-.343 4 4 0 0 0-1.015-.125q-.798.001-1.203.25a.81.81 0 0 0-.407.734q0 .377.282.594.294.205 1.156.406l.375.078q1.137.252 1.625.703.482.438.484 1.235-.002.925-.718 1.453-.72.531-1.985.53Q2.42.17 1.843.063A8 8 0 0 1 .657-.233V-1.36q.592.316 1.172.468a4.3 4.3 0 0 0 1.14.157q.763.001 1.173-.25a.83.83 0 0 0 .406-.735c0-.3-.102-.531-.297-.687-.187-.156-.617-.301-1.281-.438l-.375-.094q-1.02-.2-1.453-.64-.439-.436-.438-1.203-.002-.92.64-1.422Q2-6.72 3.22-6.72q.592 0 1.11.094.526.095.984.266m0 0" style="stroke:none"/></symbol><symbol id="aZ" overflow="visible"><path d="M1.172-8.734h1.187v3.578h4.297v-3.578h1.172V0H6.656v-4.156H2.36V0H1.172Zm0 0" style="stroke:none"/></symbol><symbol id="ba" overflow="visible"><path d="M4.11-3.297c-.876 0-1.481.102-1.813.297-.336.2-.5.54-.5 1.016q0 .58.375.922.375.327 1.031.328.89.001 1.422-.625.546-.64.547-1.688v-.25Zm2.14-.437V0H5.172v-1q-.361.61-.922.89-.55.282-1.328.282-1.019 0-1.61-.563Q.718-.953.72-1.906c0-.739.242-1.297.734-1.672q.749-.563 2.219-.563h1.5v-.109q-.002-.731-.484-1.14-.487-.406-1.375-.407-.566 0-1.094.14a4 4 0 0 0-1.016.391v-.984q.592-.233 1.14-.344a5 5 0 0 1 1.079-.125q1.42 0 2.125.75.703.737.703 2.235m0 0" style="stroke:none"/></symbol><symbol id="bb" overflow="visible"><path d="M6.578-3.953V0H5.5v-3.922q0-.92-.36-1.39-.362-.47-1.093-.47-.878 0-1.375.563c-.336.375-.5.883-.5 1.516V0H1.094v-6.547h1.078v1.016a2.7 2.7 0 0 1 .906-.89 2.47 2.47 0 0 1 1.219-.298q1.124 0 1.703.703.576.704.578 2.063m0 0" style="stroke:none"/></symbol><symbol id="bc" overflow="visible"><path d="M5.438-5.562V-9.11h1.078V0H5.438v-.984a2.1 2.1 0 0 1-.86.875c-.344.187-.758.28-1.234.28q-1.189 0-1.938-.937-.75-.95-.75-2.5 0-1.545.75-2.5c.5-.632 1.145-.953 1.938-.953.476 0 .89.102 1.234.297q.529.284.86.86M1.765-3.266q-.001 1.19.484 1.86.498.673 1.36.672.842 0 1.328-.672.499-.67.5-1.86-.001-1.184-.5-1.859a1.54 1.54 0 0 0-1.329-.687q-.861 0-1.359.687-.485.675-.484 1.86m0 0" style="stroke:none"/></symbol><symbol id="bd" overflow="visible"><path d="M5.844-6.297v1a4.4 4.4 0 0 0-.922-.375A3.5 3.5 0 0 0 4-5.797c-.7 0-1.242.227-1.625.672q-.58.658-.578 1.86-.001 1.189.578 1.859Q2.951-.75 4-.75c.313 0 .617-.04.922-.125q.466-.123.922-.375v1a4.8 4.8 0 0 1-.938.313q-.47.107-1.015.109Q2.403.174 1.53-.75C.945-1.375.656-2.21.656-3.266q-.001-1.606.875-2.53.89-.922 2.422-.923c.332 0 .656.04.969.11q.481.112.922.312m0 0" style="stroke:none"/></symbol><symbol id="be" overflow="visible"><path d="M3.672-5.797c-.586 0-1.043.227-1.375.672-.336.45-.5 1.07-.5 1.86 0 .78.164 1.398.5 1.843q.497.673 1.375.672.855 0 1.36-.672.498-.67.5-1.844-.002-1.17-.5-1.843a1.6 1.6 0 0 0-1.36-.688m0-.922q1.406.001 2.203.922.797.91.797 2.531 0 1.612-.797 2.532-.797.907-2.203.906-1.409.002-2.219-.906-.797-.92-.797-2.532 0-1.623.797-2.53.811-.922 2.219-.923m0 0" style="stroke:none"/></symbol><symbol id="bf" overflow="visible"><path d="M6.734-3.547v.531H1.781q.076 1.114.672 1.688.593.58 1.672.578.622 0 1.203-.14a5.2 5.2 0 0 0 1.156-.47v1.032a6.7 6.7 0 0 1-1.187.36c-.406.093-.82.14-1.234.14Q2.498.174 1.578-.734.654-1.654.656-3.22c0-1.07.29-1.922.875-2.547.582-.632 1.364-.953 2.344-.953.883 0 1.582.29 2.094.86.508.562.765 1.336.765 2.312M5.656-3.86q-.018-.891-.5-1.407-.468-.528-1.265-.53-.909 0-1.453.515-.533.502-.626 1.422Zm0 0" style="stroke:none"/></symbol><symbol id="bh" overflow="visible"><path d="M1.172-8.734h1.187V-.61q0 1.575-.609 2.297-.598.716-1.922.718h-.453v-1h.375Q.529 1.404.844.97q.328-.44.328-1.578Zm0 0" style="stroke:none"/></symbol><symbol id="bi" overflow="visible"><path d="M4.094-7.578 2.5-3.218h3.203Zm-.672-1.156h1.344L8.094 0H6.875l-.797-2.234H2.141L1.344 0H.094Zm0 0" style="stroke:none"/></symbol><symbol id="bj" overflow="visible"><path d="M.75-8.734h1.281l2.172 3.25 2.172-3.25h1.266L4.844-4.547 7.828 0H6.562L4.11-3.719 1.625 0H.359l3.11-4.656Zm0 0" style="stroke:none"/></symbol><symbol id="bm" overflow="visible"><path d="M1.172-8.734h1.594L6.64-1.422v-7.312h1.14V0H6.203L2.328-7.312V0H1.172Zm0 0" style="stroke:none"/></symbol><symbol id="bn" overflow="visible"><path d="M6.234-5.297q.406-.715.97-1.062.562-.36 1.312-.36c.687 0 1.21.242 1.578.719q.562.721.562 2.047V0H9.578v-3.922q-.002-.936-.344-1.39-.328-.47-1.015-.47-.831 0-1.328.563-.486.565-.485 1.516V0H5.328v-3.922q-.002-.949-.344-1.406-.328-.452-1.015-.453-.832 0-1.313.562-.485.565-.484 1.516V0H1.094v-6.547h1.078v1.016q.373-.61.875-.89.515-.296 1.234-.298c.469 0 .867.125 1.203.375q.516.362.75 1.047m0 0" style="stroke:none"/></symbol><symbol id="bo" overflow="visible"><path d="M2.36-7.766v3.282h1.484q.824 0 1.281-.422.452-.435.453-1.219 0-.78-.453-1.203-.456-.437-1.281-.438Zm-1.188-.968h2.672c.976 0 1.719.226 2.219.672q.75.657.75 1.937 0 1.299-.75 1.953c-.5.438-1.243.656-2.22.656H2.36V0H1.172Zm0 0" style="stroke:none"/></symbol><symbol id="bp" overflow="visible"><path d="M3.86.61q-.457 1.168-.891 1.53-.44.36-1.156.36h-.86v-.906h.625q.451 0 .688-.219.247-.206.547-.984L3-.11.36-6.547H1.5l2.047 5.125 2.047-5.125h1.14Zm0 0" style="stroke:none"/></symbol><symbol id="bu" overflow="visible"><path d="M7.14-1.25v-2.344H5.204v-.969h3.094v3.75q-.675.488-1.5.735c-.555.164-1.14.25-1.766.25q-2.05 0-3.203-1.188Q.67-2.216.672-4.359.67-6.5 1.828-7.687 2.982-8.89 5.031-8.891q.857.001 1.625.22c.508.136.985.339 1.422.608v1.25a5 5 0 0 0-1.39-.828 4.4 4.4 0 0 0-1.563-.28c-1.062 0-1.867.304-2.406.905q-.797.891-.797 2.657 0 1.77.797 2.672c.539.593 1.344.89 2.406.89q.638.001 1.125-.11c.32-.07.617-.187.89-.343m0 0" style="stroke:none"/></symbol><symbol id="bv" overflow="visible"><path d="M1.281-1.484h1.235V0H1.28Zm0 0" style="stroke:none"/></symbol><symbol id="bw" overflow="visible"><path d="M1.125-6.547h1.078V.11c0 .844-.164 1.454-.484 1.829Q1.249 2.5.188 2.5H-.22v-.922h.282q.621 0 .843-.281.218-.284.219-1.188Zm0-2.562h1.078v1.375H1.125Zm0 0" style="stroke:none"/></symbol><symbol id="bx" overflow="visible"><path d="M1.125-9.11h1.078V0H1.125Zm0 0" style="stroke:none"/></symbol><symbol id="bA" overflow="visible"><path d="M-.031-8.734h7.39v1H4.25V0H3.063v-7.734H-.031Zm0 0" style="stroke:none"/></symbol><symbol id="bB" overflow="visible"><path d="M6.578-3.953V0H5.5v-3.922q0-.92-.36-1.39-.362-.47-1.093-.47-.878 0-1.375.563c-.336.375-.5.883-.5 1.516V0H1.094v-9.11h1.078v3.579a2.7 2.7 0 0 1 .906-.89 2.47 2.47 0 0 1 1.219-.298q1.124 0 1.703.703.576.704.578 2.063m0 0" style="stroke:none"/></symbol><symbol id="f" overflow="visible"><path d="M5.266 1.844H3.25Q2.2.157 1.703-1.36a9.5 9.5 0 0 1-.5-3.016c0-1 .164-2.008.5-3.031q.498-1.529 1.547-3.203h2.016Q4.386-9 3.953-7.453a11.2 11.2 0 0 0-.437 3.062q-.001 1.517.437 3.063.435 1.545 1.313 3.172m0 0" style="stroke:none"/></symbol><symbol id="g" overflow="visible"><path d="M1.281-10.187h2.625v3.874h3.89v-3.875h2.626V0H7.797v-4.328h-3.89V0H1.28Zm0 0" style="stroke:none"/></symbol><symbol id="h" overflow="visible"><path d="M1.281-10.187h3.344l2.328 5.453 2.328-5.453h3.344V0h-2.484v-7.453l-2.344 5.5H6.125l-2.344-5.5V0h-2.5Zm0 0" style="stroke:none"/></symbol><symbol id="i" overflow="visible"><path d="M9.375-.562Q8.638-.187 7.859 0a6.7 6.7 0 0 1-1.64.203q-2.55 0-4.032-1.422Q.702-2.655.704-5.094c.002-2.439.492-2.91 1.485-3.86.988-.944 2.332-1.421 4.03-1.421q.857 0 1.641.188.779.187 1.516.562v2.11a5.6 5.6 0 0 0-1.453-.72 4.7 4.7 0 0 0-1.484-.234c-.938 0-1.68.305-2.22.906q-.796.892-.796 2.47 0 1.581.797 2.484.81.907 2.218.906.78 0 1.485-.234a5.8 5.8 0 0 0 1.453-.735Zm0 0" style="stroke:none"/></symbol><symbol id="j" overflow="visible"><path d="M1.125 1.844c.582-1.086 1.02-2.14 1.313-3.172q.435-1.545.437-3.063a11.3 11.3 0 0 0-.437-3.062 15.6 15.6 0 0 0-1.313-3.156h2.016q1.042 1.674 1.547 3.203.499 1.533.5 3.031c0 1-.168 2.008-.5 3.016Q4.184.157 3.14 1.844Zm0 0" style="stroke:none"/></symbol><symbol id="l" overflow="visible"><path d="M8.86-4.656V0H6.405v-3.547c0-.664-.015-1.125-.047-1.375-.03-.258-.086-.445-.156-.562a.96.96 0 0 0-.39-.36 1.1 1.1 0 0 0-.563-.14q-.752.001-1.187.593-.439.582-.438 1.625V0H1.172v-10.625h2.453v4.094q.545-.669 1.172-.985a3.04 3.04 0 0 1 1.375-.312q1.31.002 2 .812.686.814.687 2.36m0 0" style="stroke:none"/></symbol><symbol id="m" overflow="visible"><path d="M4.61-3.437q-.77.001-1.157.265-.391.252-.39.75c0 .313.101.559.312.735.207.18.492.265.86.265.468 0 .859-.164 1.171-.5q.47-.497.469-1.234v-.281Zm3.734-.922V0H5.875v-1.14c-.336.468-.703.812-1.11 1.03q-.609.313-1.5.313c-.792 0-1.437-.226-1.937-.687-.492-.47-.734-1.07-.734-1.813 0-.894.304-1.55.922-1.969.625-.414 1.597-.625 2.922-.625h1.437v-.203q0-.574-.469-.843-.455-.265-1.422-.266c-.523 0-1.011.055-1.468.156q-.676.159-1.25.469v-1.86a13 13 0 0 1 1.578-.296 14 14 0 0 1 1.594-.094q2.06.002 2.984.812.92.816.922 2.657m0 0" style="stroke:none"/></symbol><symbol id="n" overflow="visible"><path d="M1.172-7.64h2.453V0H1.172Zm0-2.985h2.453v2H1.172Zm0 0" style="stroke:none"/></symbol><symbol id="o" overflow="visible"><path d="M8.86-4.656V0H6.405v-3.562q0-.985-.047-1.36c-.03-.258-.086-.445-.156-.562a.96.96 0 0 0-.39-.36 1.1 1.1 0 0 0-.563-.14q-.752.001-1.187.593-.439.582-.438 1.625V0H1.172v-7.64h2.453v1.109q.545-.669 1.172-.985a3.04 3.04 0 0 1 1.375-.312q1.31.002 2 .812.686.814.687 2.36m0 0" style="stroke:none"/></symbol><symbol id="p" overflow="visible"><path d="M1.281-10.187h2.625v8.203h4.625V0h-7.25Zm0 0" style="stroke:none"/></symbol><symbol id="q" overflow="visible"><path d="M8.813-3.844v.703h-5.72q.093.863.626 1.297.527.423 1.484.422.763 0 1.578-.234a8.8 8.8 0 0 0 1.672-.688v1.875q-.878.33-1.75.5a9 9 0 0 1-1.719.172Q2.905.203 1.75-.844.592-1.904.594-3.812q0-1.873 1.125-2.938 1.137-1.078 3.125-1.078c1.195 0 2.156.367 2.875 1.094.726.718 1.093 1.683 1.093 2.89m-2.516-.812q-.001-.703-.406-1.125c-.274-.282-.625-.422-1.063-.422q-.704.001-1.156.406-.44.391-.547 1.14Zm0 0" style="stroke:none"/></symbol><symbol id="r" overflow="visible"><path d="M6.375-1.297c-.336.45-.703.777-1.11.984Q4.657.003 3.86 0 2.453.001 1.531-1.094.624-2.202.625-3.906q-.001-1.717.906-2.813.921-1.091 2.328-1.093.797 0 1.407.312c.406.21.773.54 1.109.984V-7.64h2.453v6.875q0 1.84-1.172 2.813c-.773.644-1.89.969-3.36.969-.48 0-.944-.04-1.39-.11a9 9 0 0 1-1.344-.328V.672q.64.358 1.25.547a4.3 4.3 0 0 0 1.25.187c.79 0 1.375-.18 1.75-.531.375-.355.563-.898.563-1.64Zm-1.61-4.765q-.752 0-1.187.562-.422.562-.422 1.594-.002 1.048.406 1.594c.282.355.68.53 1.204.53.507 0 .906-.179 1.187-.546q.422-.561.422-1.578 0-1.032-.422-1.594c-.281-.375-.68-.562-1.187-.562m0 0" style="stroke:none"/></symbol><symbol id="s" overflow="visible"><path d="M3.844-9.812v2.171h2.515v1.735H3.844v3.25q-.001.532.203.719.216.187.844.187h1.265V0H4.063C3.093 0 2.406-.195 2-.594q-.596-.61-.594-2.062v-3.25H.188v-1.735h1.218v-2.171Zm0 0" style="stroke:none"/></symbol><symbol id="t" overflow="visible"><path d="M2.672-5.578c-.43 0-.75.215-.969.64q-.313.626-.312 1.891c0 .836.101 1.465.312 1.89q.327.627.969.626.638.001.953-.625.328-.638.328-1.89 0-1.266-.328-1.892-.314-.639-.953-.64m0-.656q1.03 0 1.562.828.546.813.547 2.36c0 1.03-.183 1.82-.547 2.359q-.532.813-1.562.812-1.033 0-1.578-.812Q.545-1.5.547-3.047q-.002-1.545.547-2.36.545-.826 1.578-.827m0 0" style="stroke:none"/></symbol><symbol id="u" overflow="visible"><path d="M1.61-.703H4.5V0H.61v-.703Q1.077-1.184 1.89-2q.827-.826 1.032-1.062.388-.452.547-.75.17-.311.172-.61c0-.332-.118-.598-.344-.797q-.345-.311-.89-.312-.394 0-.829.14a4 4 0 0 0-.922.407v-.844q.498-.187.938-.297c.289-.07.554-.11.797-.11.625 0 1.125.165 1.5.485.382.313.578.734.578 1.266q0 .377-.14.718-.142.345-.516.797-.112.127-.657.688zm0 0" style="stroke:none"/></symbol><symbol id="v" overflow="visible"><path d="M3.172-5.39 1.078-2.126h2.094Zm-.219-.72H4v3.985h.875v.688H4V0h-.828v-1.437H.406v-.797Zm0 0" style="stroke:none"/></symbol><symbol id="w" overflow="visible"><path d="M2.766-3.39q-.55.002-.875.39-.329.375-.328 1.031 0 .676.328 1.063.325.375.875.375.563 0 .89-.375.328-.388.328-1.063 0-.656-.328-1.031-.328-.389-.89-.39m1.64-2.594v.75a4 4 0 0 0-.625-.22 2.7 2.7 0 0 0-.625-.077q-.831 0-1.265.562-.425.55-.485 1.657a1.7 1.7 0 0 1 .61-.532q.357-.201.797-.203.92 0 1.453.563.546.564.547 1.515 0 .957-.563 1.532-.55.562-1.484.562-1.064 0-1.625-.812Q.578-1.5.578-3.047q-.002-1.452.688-2.312.7-.874 1.859-.875.31.002.625.062.31.065.656.188m0 0" style="stroke:none"/></symbol><symbol id="x" overflow="visible"><path d="M-10.187-.422v-2.515l7.406-1.766-7.406-1.75v-2.531l7.406-1.75-7.406-1.75v-2.5L0-12.578v3.031l-7.75 1.844L0-5.875v3.031Zm0 0" style="stroke:none"/></symbol><symbol id="y" overflow="visible"><path d="M-3.437-4.61q.001.77.265 1.157.252.391.75.39c.313 0 .559-.101.735-.312.18-.207.265-.492.265-.86 0-.468-.164-.859-.5-1.171q-.497-.47-1.234-.469h-.281Zm-.922-3.734H0v2.469h-1.14c.468.336.812.703 1.03 1.11q.313.609.313 1.5c0 .792-.226 1.437-.687 1.937-.47.492-1.07.734-1.813.734-.894 0-1.55-.304-1.969-.922-.414-.625-.625-1.597-.625-2.921v-1.438h-.203q-.574 0-.843.469-.265.455-.266 1.422c0 .523.055 1.011.156 1.468q.159.676.469 1.25h-1.86a13 13 0 0 1-.296-1.578 14 14 0 0 1-.094-1.594q.002-2.06.812-2.984.816-.92 2.657-.922m0 0" style="stroke:none"/></symbol><symbol id="z" overflow="visible"><path d="M-10.625-1.172v-2.453H0v2.453Zm0 0" style="stroke:none"/></symbol><symbol id="B" overflow="visible"><path d="M-7.406-7.36h1.984a4 4 0 0 0-.484 1 3.3 3.3 0 0 0-.172 1.048q.002 1.033.594 1.609.595.562 1.672.562 1.063 0 1.671-.562c.399-.383.594-.922.594-1.61 0-.382-.055-.75-.172-1.093a3.3 3.3 0 0 0-.5-.953h2q.204.58.313 1.172c.07.398.11.792.11 1.187Q.205-2.937-.86-1.766-1.92-.594-3.812-.594q-1.887 0-2.954-1.172Q-7.827-2.936-7.828-5q.002-.608.11-1.187.094-.593.312-1.172m0 0" style="stroke:none"/></symbol><symbol id="C" overflow="visible"><path d="M-6.078-4.812q.002.814.578 1.25.58.42 1.688.421 1.095 0 1.687-.421.58-.436.578-1.25.001-.798-.578-1.22-.592-.42-1.687-.421-1.108 0-1.688.422-.576.422-.578 1.218m-1.75 0c0-1.313.355-2.336 1.062-3.079Q-5.699-8.999-3.812-9-1.937-9-.86-7.89.204-6.78.203-4.814c0 1.325-.351 2.36-1.062 3.11Q-1.938-.591-3.812-.593q-1.887.002-2.954-1.11-1.061-1.124-1.062-3.11m0 0" style="stroke:none"/></symbol><symbol id="D" overflow="visible"><path d="M-10.625-1.172v-2.453h5.781L-7.64-6.437v-2.829l3.5 3.735L0-9.563v2.954l-3.187 2.984H0v2.453Zm0 0" style="stroke:none"/></symbol><symbol id="E" overflow="visible"><path d="M-9.812-3.844h2.171v-2.515h1.735v2.515h3.25q.532.001.719-.203.187-.216.187-.844v-1.265H0v2.093C0-3.093-.195-2.405-.594-2q-.61.596-2.062.594h-3.25v1.219h-1.735v-1.22h-2.171Zm0 0" style="stroke:none"/></symbol><symbol id="F" overflow="visible"><path d="M-7.64-1.172v-2.453H0v2.453Zm-2.985 0v-2.453h2v2.453Zm0 0" style="stroke:none"/></symbol><symbol id="G" overflow="visible"><path d="M-6.375-8.266q-.715-.467-1.078-1.093a2.73 2.73 0 0 1-.375-1.407q.002-1.323.812-2.015.814-.687 2.36-.688H0V-11h-3.984c-.063-.008-.125-.016-.188-.016h-.266q-.809 0-1.171.235c-.25.156-.375.414-.375.765q.002.705.578 1.079c.375.25.93.382 1.656.39H0v2.469h-3.984q-1.264 0-1.625.219-.375.221-.375.765.002.705.578 1.094.58.375 1.64.375H0v2.469h-7.64v-2.469h1.109q-.64-.435-.969-1.016a2.63 2.63 0 0 1-.328-1.296c0-.532.133-1 .39-1.407.25-.406.606-.71 1.063-.922m0 0" style="stroke:none"/></symbol><symbol id="H" overflow="visible"><path d="M-3.844-8.812h.703v5.718q.863-.093 1.297-.625.423-.527.422-1.484 0-.763-.234-1.578a8.8 8.8 0 0 0-.688-1.672h1.875q.33.878.5 1.75.172.862.172 1.719 0 2.079-1.047 3.234-1.06 1.158-2.968 1.156-1.873 0-2.938-1.125-1.078-1.137-1.078-3.125c0-1.195.367-2.156 1.094-2.875.718-.726 1.683-1.093 2.89-1.093m-.812 2.515q-.703.001-1.125.406c-.282.274-.422.625-.422 1.063q.001.704.406 1.156.391.44 1.14.547Zm0 0" style="stroke:none"/></symbol><symbol id="I" overflow="visible"><path d="M1.844-5.266v2.016Q.157-2.2-1.36-1.703a9.5 9.5 0 0 1-3.016.5c-1 0-2.008-.164-3.031-.5q-1.529-.498-3.203-1.547v-2.016q1.61.88 3.156 1.313c1.031.293 2.055.437 3.062.437q1.517.001 3.063-.437 1.545-.435 3.172-1.313m0 0" style="stroke:none"/></symbol><symbol id="J" overflow="visible"><path d="M-7.406-7.156h1.86a9 9 0 0 0-.485 1.531q-.171.72-.172 1.375 0 .691.172 1.031.175.345.531.344.3.001.453-.25.159-.264.234-.937l.063-.422q.235-1.873.781-2.516.549-.656 1.719-.656 1.221.002 1.844.906.61.893.61 2.688Q.201-3.31.077-2.5a14 14 0 0 1-.36 1.656H-2.14c.243-.488.422-.988.547-1.5a7 7 0 0 0 .172-1.562c0-.469-.066-.82-.203-1.063q-.2-.375-.594-.375a.54.54 0 0 0-.484.25c-.102.168-.188.5-.25 1L-3-3.672q-.2 1.641-.75 2.297-.562.657-1.687.656c-.813 0-1.41-.273-1.797-.828q-.593-.841-.594-2.562.002-.67.11-1.422.094-.749.312-1.625m0 0" style="stroke:none"/></symbol><symbol id="K" overflow="visible"><path d="M1.844-1.125c-1.086-.582-2.14-1.02-3.172-1.312a11.3 11.3 0 0 0-3.063-.438 11.3 11.3 0 0 0-3.062.438Q-9-2-10.61-1.125v-2.016q1.674-1.042 3.203-1.546a9.8 9.8 0 0 1 3.031-.5c1 0 2.008.167 3.016.5q1.516.503 3.203 1.546Zm0 0" style="stroke:none"/></symbol><symbol id="ap" overflow="visible"><path d="M1.172-1.297h1.656V-6l-1.703.344v-1.266l1.688-.36h1.796v5.985h1.657V0H1.172Zm0 0" style="stroke:none"/></symbol><symbol id="aq" overflow="visible"><path d="M1.016-1.89H2.78V0H1.016Zm0 0" style="stroke:none"/></symbol><symbol id="ar" overflow="visible"><path d="M2.875-1.375h3.203V0H.797v-1.375l2.656-2.344q.34-.328.516-.625A1.35 1.35 0 0 0 4.14-5c0-.332-.118-.602-.344-.812q-.344-.313-.906-.313-.44 0-.97.188a5.8 5.8 0 0 0-1.108.562v-1.61a10 10 0 0 1 1.25-.312c.414-.07.82-.11 1.218-.11.864 0 1.535.196 2.016.579q.733.562.734 1.594c0 .398-.105.765-.312 1.109-.2.344-.625.805-1.282 1.375Zm0 0" style="stroke:none"/></symbol><symbol id="as" overflow="visible"><path d="M7.125-5.234 5-3.125l2.125 2.11-.828.812-2.11-2.11-2.125 2.11-.812-.813 2.11-2.109-2.11-2.11.813-.827 2.125 2.125 2.109-2.125Zm0 0" style="stroke:none"/></symbol><symbol id="at" overflow="visible"><path d="M1.063-7.281h4.656v1.375H2.547v1.14q.216-.059.437-.093.218-.031.454-.032c.882 0 1.57.227 2.062.672q.75.659.75 1.844-.002 1.19-.812 1.86Q4.639.14 3.203.14 2.577.14 1.97.016a5.8 5.8 0 0 1-1.203-.36v-1.469q.592.33 1.125.5c.363.118.703.172 1.015.172q.686 0 1.078-.328.389-.327.391-.906c0-.383-.133-.687-.39-.906q-.393-.328-1.079-.328c-.273 0-.562.039-.875.109a5.2 5.2 0 0 0-.969.313Zm0 0" style="stroke:none"/></symbol><symbol id="au" overflow="visible"><path d="M3.672-5.734 1.625-2.687h2.047Zm-.313-1.547h2.094v4.594h1.031v1.359h-1.03V0H3.671v-1.328H.453v-1.61Zm0 0" style="stroke:none"/></symbol><symbol id="av" overflow="visible"><path d="M3.469-3.25q-.516 0-.797.281-.281.283-.281.828 0 .535.28.829.282.28.798.28.527 0 .797-.28.28-.294.28-.829 0-.545-.28-.828-.27-.28-.797-.281m-1.36-.625q-.675-.2-1.015-.61-.328-.42-.328-1.046c0-.602.226-1.067.687-1.39q.686-.483 2.016-.485 1.324.002 2.015.484.687.47.688 1.39-.002.627-.344 1.048-.33.41-1 .609.75.205 1.125.672c.25.305.375.687.375 1.156Q6.326-.968 5.61-.407q-.721.55-2.14.548-1.408.002-2.14-.547-.72-.563-.72-1.64c0-.47.125-.852.375-1.157q.375-.468 1.125-.672m.438-1.453q0 .422.234.656.247.234.688.234.451 0 .687-.234.235-.234.235-.656 0-.437-.235-.672-.235-.234-.687-.234-.44 0-.688.234c-.156.156-.234.383-.234.672m0 0" style="stroke:none"/></symbol><symbol id="aw" overflow="visible"><path d="M3.61-3.594q-.488 0-.735.328-.251.316-.25.954c0 .43.082.75.25.968q.247.315.734.313.498.002.75-.313c.164-.218.25-.539.25-.968 0-.426-.086-.743-.25-.954q-.252-.328-.75-.328m2.328-3.5v1.344a4.6 4.6 0 0 0-.875-.312 3.2 3.2 0 0 0-.797-.11q-.844 0-1.313.469-.47.47-.547 1.375.328-.233.703-.344.374-.124.813-.125 1.124 0 1.797.656.686.644.687 1.704c0 .78-.258 1.406-.765 1.874q-.77.704-2.047.704-1.425 0-2.203-.953-.767-.967-.766-2.72-.001-1.81.906-2.843.903-1.03 2.485-1.031.515 0 .984.078.469.082.938.234m0 0" style="stroke:none"/></symbol><symbol id="ax" overflow="visible"><path d="M4.656-3.922q.734.188 1.11.656c.257.313.39.715.39 1.204q0 1.077-.828 1.64-.83.563-2.422.563-.562 0-1.125-.094A6 6 0 0 1 .671-.22v-1.453q.517.268 1.032.406c.352.086.695.125 1.031.125q.75.001 1.141-.25a.85.85 0 0 0 .406-.75.82.82 0 0 0-.406-.734q-.408-.265-1.203-.266h-.75V-4.36h.781c.469 0 .817-.07 1.047-.22q.359-.215.36-.671a.72.72 0 0 0-.344-.64q-.332-.235-.953-.235c-.305 0-.61.04-.922.11a4.5 4.5 0 0 0-.907.296v-1.375q.545-.152 1.094-.234.545-.077 1.078-.078 1.42 0 2.125.468.703.456.703 1.391-.002.643-.343 1.047-.329.409-.985.578m0 0" style="stroke:none"/></symbol><symbol id="ay" overflow="visible"><path d="M3.172-3.453q-.704 0-1.11.375-.39.375-.39 1.031 0 .657.39 1.031.406.375 1.11.375c.469 0 .836-.125 1.11-.375q.405-.375.406-1.03-.001-.657-.407-1.032c-.273-.25-.64-.375-1.11-.375m-.985-.422q-.626-.153-.984-.594-.362-.434-.36-1.062 0-.856.626-1.36.623-.515 1.703-.515c.726 0 1.297.172 1.703.515q.623.504.625 1.36 0 .628-.36 1.062-.345.44-.984.594.716.176 1.11.656.406.469.406 1.172 0 1.064-.656 1.625-.644.563-1.844.563c-.805 0-1.422-.188-1.86-.563-.43-.375-.64-.914-.64-1.625q-.002-.704.406-1.172.405-.48 1.11-.656m-.359-1.562q-.001.58.344.89.356.315 1 .313.638.002 1-.313.359-.31.36-.89-.002-.561-.36-.875-.362-.313-1-.313-.644 0-1 .313-.344.314-.344.875m0 0" style="stroke:none"/></symbol><symbol id="az" overflow="visible"><path d="M1.094-.156v-.89q.375.172.75.265.387.094.75.094.967 0 1.484-.657.515-.655.594-1.984-.284.408-.719.64-.439.222-.953.22-1.096 0-1.734-.657c-.43-.437-.641-1.04-.641-1.812q0-1.124.656-1.797.669-.67 1.782-.672 1.248.001 1.921.968.67.973.672 2.813 0 1.72-.828 2.75C4.285-.195 3.555.141 2.641.141c-.25 0-.508-.028-.766-.078a4 4 0 0 1-.781-.22m1.969-3.078q.655.002 1.046-.453.389-.453.391-1.25c0-.52-.133-.93-.39-1.235q-.392-.452-1.048-.453-.674 0-1.062.453-.375.457-.375 1.234 0 .799.375 1.25.388.456 1.063.454m0 0" style="stroke:none"/></symbol><symbol id="aA" overflow="visible"><path d="M1.063-1.234h1.03V0h-1.03Zm0 0" style="stroke:none"/></symbol><symbol id="aB" overflow="visible"><path d="M3.766-6.422 1.28-2.532h2.485Zm-.25-.86H4.75v4.75h1.047v.813H4.75V0h-.984v-1.719H.484v-.953Zm0 0" style="stroke:none"/></symbol><symbol id="aC" overflow="visible"><path d="M3.172-6.625q-.77 0-1.156.75-.375.738-.375 2.25c0 .992.125 1.734.375 2.234q.387.75 1.156.75.763 0 1.14-.75c.258-.5.391-1.242.391-2.234 0-1.008-.133-1.758-.39-2.25-.25-.5-.633-.75-1.141-.75m0-.781q1.217.001 1.86.968.656.973.656 2.813 0 1.829-.657 2.797c-.43.648-1.047.969-1.86.969-.812 0-1.437-.32-1.874-.97-.43-.644-.64-1.577-.64-2.796 0-1.227.21-2.164.64-2.812q.656-.969 1.875-.97m0 0" style="stroke:none"/></symbol><symbol id="aE" overflow="visible"><path d="M5.188-4.406c.226-.407.5-.703.812-.89a2 2 0 0 1 1.094-.298q.855 0 1.312.61.47.597.469 1.687V0h-.906v-3.266q0-.78-.282-1.156-.27-.388-.843-.39-.69 0-1.094.468-.408.455-.406 1.25V0h-.907v-3.266q0-.796-.28-1.171-.27-.375-.844-.375-.691 0-1.094.468c-.274.313-.406.73-.406 1.25V0H.906v-5.453h.907v.844q.294-.499.718-.735a2.06 2.06 0 0 1 1.031-.25q.594.001 1.016.313.421.3.61.875m0 0" style="stroke:none"/></symbol><symbol id="aF" overflow="visible"><path d="M4.422-5.297v.844a3.5 3.5 0 0 0-.797-.281 3.4 3.4 0 0 0-.844-.11q-.672.002-1 .203-.327.205-.328.625 0 .315.234.485.234.174.954.344l.312.062q.95.204 1.36.578c.269.25.406.602.406 1.047q0 .75-.61 1.203-.596.439-1.656.438-.44 0-.922-.094a6 6 0 0 1-.984-.25v-.922q.48.251.969.39c.32.087.644.126.968.126.414 0 .739-.07.97-.22a.69.69 0 0 0 .343-.608q-.002-.359-.25-.547c-.168-.133-.527-.266-1.078-.391l-.313-.078q-.83-.17-1.203-.531-.375-.357-.375-1c0-.508.18-.907.547-1.188q.545-.422 1.547-.422.498.002.937.078.437.066.813.22m0 0" style="stroke:none"/></symbol><symbol id="aG" overflow="visible"><path d="M7.234-8.453 7-7.297a6 6 0 0 0-1.172-.469 4 4 0 0 0-1.125-.171q-1.065 0-1.687.468-.626.457-.625 1.219c0 .281.07.5.218.656.157.149.555.309 1.204.485l.703.172q1.201.316 1.672.796.468.471.468 1.329Q6.654-1.501 5.61-.656q-1.033.83-2.734.828-.689 0-1.39-.14A8.4 8.4 0 0 1 .062-.392l.25-1.218q.64.41 1.297.61.657.204 1.313.203 1.09.001 1.765-.484c.446-.32.672-.75.672-1.281q-.001-.528-.265-.797c-.18-.188-.563-.352-1.157-.5l-.703-.172c-.804-.219-1.355-.461-1.656-.735q-.438-.405-.437-1.156-.001-1.31 1-2.14.997-.828 2.609-.829c.426 0 .844.04 1.25.11q.608.11 1.234.328m0 0" style="stroke:none"/></symbol><symbol id="aH" overflow="visible"><path d="M10.766-3.953 10 0H8.922l.75-3.922q.045-.246.062-.422c.02-.125.032-.226.032-.312 0-.352-.102-.63-.297-.828q-.284-.295-.813-.297-.785.001-1.406.593-.61.596-.797 1.532L5.734 0H4.656l.782-3.922q.044-.215.062-.39.03-.187.031-.344-.002-.53-.297-.828-.297-.295-.812-.297-.797.001-1.406.593-.61.596-.797 1.532L1.5 0H.422l1.281-6.547h1.078L2.578-5.53a3 3 0 0 1 1.016-.875 2.7 2.7 0 0 1 1.265-.313q.716 0 1.172.375c.313.25.5.602.563 1.047q.48-.685 1.125-1.047.655-.375 1.375-.375.841.001 1.297.5.468.486.468 1.375 0 .188-.03.422a4 4 0 0 1-.063.469m0 0" style="stroke:none"/></symbol><symbol id="aI" overflow="visible"><path d="M6.438-3.734 5.703 0H4.625l.203-1a3.05 3.05 0 0 1-1.078.89 3.2 3.2 0 0 1-1.344.282q-.844 0-1.39-.516Q.483-.859.484-1.656q-.002-1.138.922-1.813c.614-.445 1.457-.672 2.532-.672h1.5l.046-.28a.4.4 0 0 0 .016-.095 1 1 0 0 0 .016-.187.9.9 0 0 0-.438-.797c-.281-.195-.68-.297-1.187-.297q-.516 0-1.078.14a6.4 6.4 0 0 0-1.141.391l.187-.984q.609-.233 1.188-.344a5.6 5.6 0 0 1 1.14-.125q1.154 0 1.75.516.61.504.61 1.453-.001.205-.031.469-.02.253-.079.547m-1.172.437H4.203q-1.33 0-1.969.36-.626.344-.625 1.093-.002.518.313.813.328.28.906.281.874.001 1.531-.625.656-.622.86-1.672Zm0 0" style="stroke:none"/></symbol><symbol id="aJ" overflow="visible"><path d="M2.188-9.11h1.078L1.5 0H.422Zm0 0" style="stroke:none"/></symbol><symbol id="aK" overflow="visible"><path d="M5.766-3.86c.007-.062.015-.124.015-.187q.014-.107.016-.203 0-.716-.422-1.125-.41-.422-1.125-.422-.814 0-1.422.516-.61.502-.937 1.422Zm.937.844H1.688q-.036.222-.047.344a2 2 0 0 0-.016.219c0 .555.164.976.5 1.265q.515.439 1.422.438.702.001 1.328-.156.621-.154 1.156-.453L5.828-.297a5.8 5.8 0 0 1-1.203.344 6.3 6.3 0 0 1-1.25.125q-1.36 0-2.094-.656Q.546-1.14.547-2.328c0-.688.117-1.32.36-1.906q.375-.89 1.077-1.578.468-.437 1.094-.672a3.7 3.7 0 0 1 1.328-.235c.75 0 1.344.227 1.782.672q.656.673.656 1.797 0 .269-.047.578a15 15 0 0 1-.094.656m0 0" style="stroke:none"/></symbol><symbol id="aL" overflow="visible"><path d="M5.344-5.562a2.1 2.1 0 0 0-.828-.172q-.863 0-1.5.656-.644.645-.86 1.734L1.5 0H.422l1.281-6.547h1.078L2.578-5.53a2.8 2.8 0 0 1 1.016-.875 2.7 2.7 0 0 1 1.265-.313q.17.001.344.032a2 2 0 0 1 .344.062Zm0 0" style="stroke:none"/></symbol><symbol id="aN" overflow="visible"><path d="M2.188-9.11h1.078L3-7.733H1.938Zm-.485 2.563h1.078L1.5 0H.422Zm0 0" style="stroke:none"/></symbol><symbol id="aO" overflow="visible"><path d="m6-6.36-.219 1.016a3.5 3.5 0 0 0-.906-.343 3.8 3.8 0 0 0-.969-.125q-.844.002-1.344.296-.485.283-.484.782 0 .58 1.14.89a1 1 0 0 1 .126.031l.344.11q1.076.298 1.437.625.359.328.36.89-.001 1.049-.829 1.704Q3.825.172 2.5.172c-.355 0-.727-.04-1.11-.11Q.829-.03.14-.233L.345-1.36q.592.316 1.156.468.575.158 1.11.157.795 0 1.28-.328.5-.342.5-.875 0-.562-1.296-.907l-.11-.031-.375-.094q-.815-.2-1.203-.562a1.2 1.2 0 0 1-.375-.906c0-.696.258-1.25.782-1.657.53-.414 1.242-.625 2.14-.625q.528 0 1.031.094c.344.063.68.152 1.016.266m0 0" style="stroke:none"/></symbol><symbol id="aP" overflow="visible"><path d="M5.938-4c0-.562-.133-1.004-.391-1.328q-.393-.482-1.078-.484-.504.001-.938.25a2.1 2.1 0 0 0-.75.703q-.346.486-.547 1.125-.187.644-.187 1.28 0 .798.375 1.267.388.454 1.062.453.516 0 .938-.235.435-.234.766-.703.34-.466.546-1.11c.133-.425.204-.831.204-1.218M2.594-5.562q.387-.528.984-.844a2.76 2.76 0 0 1 1.266-.313q.996 0 1.593.688.593.673.594 1.828-.002.954-.343 1.844a4.7 4.7 0 0 1-1 1.578q-.423.457-.97.703c-.366.164-.75.25-1.155.25a2 2 0 0 1-1.094-.297Q1.999-.418 1.703-1l-.187 1H.438l1.765-9.11h1.078Zm0 0" style="stroke:none"/></symbol><symbol id="aQ" overflow="visible"><path d="m5.063-6.547-.157.828H2.75l-.687 3.563A11 11 0 0 1 2-1.812a2 2 0 0 0-.016.203c0 .25.07.433.22.547q.232.157.733.156h1.094L3.844 0H2.813q-.957 0-1.438-.375-.468-.374-.469-1.14-.001-.124.016-.282l.062-.36.688-3.562H.766l.172-.828h.89l.36-1.875h1.078l-.344 1.875Zm0 0" style="stroke:none"/></symbol><clipPath id="a"><path d="M0 .043h698.605v264.562H0Zm0 0"/></clipPath><clipPath id="L"><path d="M84 130h28v57.883H84Zm0 0"/></clipPath><clipPath id="M"><path d="M83 130h29v57.883H83Zm0 0"/></clipPath><clipPath id="N"><path d="M111 128h29v59.883h-29Zm0 0"/></clipPath><clipPath id="O"><path d="M139 125h28v62.883h-28Zm0 0"/></clipPath><clipPath id="P"><path d="M138 124h29v63.883h-29Zm0 0"/></clipPath><clipPath id="Q"><path d="M166 99h29v88.883h-29Zm0 0"/></clipPath><clipPath id="R"><path d="M194 91h28v96.883h-28Zm0 0"/></clipPath><clipPath id="S"><path d="M193 91h29v96.883h-29Zm0 0"/></clipPath><clipPath id="T"><path d="M221 81h28v106.883h-28Zm0 0"/></clipPath><clipPath id="U"><path d="M221 81h29v106.883h-29Zm0 0"/></clipPath><clipPath id="V"><path d="M290 124h28v63.883h-28Zm0 0"/></clipPath><clipPath id="W"><path d="M289 124h29v63.883h-29Zm0 0"/></clipPath><clipPath id="X"><path d="M317 122h29v65.883h-29Zm0 0"/></clipPath><clipPath id="Y"><path d="M345 118h28v69.883h-28Zm0 0"/></clipPath><clipPath id="Z"><path d="M344 118h29v69.883h-29Zm0 0"/></clipPath><clipPath id="aa"><path d="M372 93h28v94.883h-28Zm0 0"/></clipPath><clipPath id="ab"><path d="M372 93h29v94.883h-29Zm0 0"/></clipPath><clipPath id="ac"><path d="M399 84h29v103.883h-29Zm0 0"/></clipPath><clipPath id="ad"><path d="M427 79h28v108.883h-28Zm0 0"/></clipPath><clipPath id="ae"><path d="M427 79h29v108.883h-29Zm0 0"/></clipPath><clipPath id="af"><path d="M495 119h29v68.883h-29Zm0 0"/></clipPath><clipPath id="ag"><path d="M523 117h28v70.883h-28Zm0 0"/></clipPath><clipPath id="ah"><path d="M523 116h29v71.883h-29Zm0 0"/></clipPath><clipPath id="ai"><path d="M550 113h29v74.883h-29Zm0 0"/></clipPath><clipPath id="aj"><path d="M578 87h28v100.883h-28Zm0 0"/></clipPath><clipPath id="ak"><path d="M578 87h29v100.883h-29Zm0 0"/></clipPath><clipPath id="al"><path d="M605 80h29v107.883h-29Zm0 0"/></clipPath><clipPath id="am"><path d="M633 78h28v109.883h-28Zm0 0"/></clipPath><clipPath id="an"><path d="M633 77h28v110.883h-28Zm0 0"/></clipPath><clipPath id="ao"><path d="M55.387 129h634.136v3H55.387Zm0 0"/></clipPath><clipPath id="aR"><path d="M301 224h101v40.605H301Zm0 0"/></clipPath><clipPath id="aS"><path d="M299 222h101v42.605H299Zm0 0"/></clipPath><clipPath id="aX"><path d="M226 224h250v40.605H226Zm0 0"/></clipPath><clipPath id="aY"><path d="M224 222h250v42.605H224Zm0 0"/></clipPath><clipPath id="bk"><path d="M170 224h362v40.605H170Zm0 0"/></clipPath><clipPath id="bl"><path d="M168 222h362v42.605H168Zm0 0"/></clipPath><clipPath id="bq"><path d="M128 224h446v40.605H128Zm0 0"/></clipPath><clipPath id="br"><path d="M126 222h446v42.605H126Zm0 0"/></clipPath><clipPath id="bs"><path d="M82 224h538v40.605H82Zm0 0"/></clipPath><clipPath id="bt"><path d="M80 222h538v42.605H80Zm0 0"/></clipPath><clipPath id="by"><path d="M0 224h698.605v40.605H0Zm0 0"/></clipPath><clipPath id="bz"><path d="M0 222h698.605v42.605H0Zm0 0"/></clipPath></defs><g clip-path="url(#a)"><path d="M0 264.605h698.605V.043H0Zm0 0" style="stroke:none;fill-rule:nonzero;fill:#fff;fill-opacity:1"/></g><path d="M55.387 187.883h634.136V11.984H55.387Zm0 0" style="stroke:none;fill-rule:nonzero;fill:#fff;fill-opacity:1"/><g style="fill:#262626;fill-opacity:1"><use xlink:href="#b" x="155.118" y="203.993"/><use xlink:href="#c" x="162.742" y="203.993"/><use xlink:href="#c" x="170.367" y="203.993"/></g><g style="fill:#262626;fill-opacity:1"><use xlink:href="#d" x="361.006" y="203.993"/><use xlink:href="#c" x="368.631" y="203.993"/><use xlink:href="#c" x="376.255" y="203.993"/></g><g style="fill:#262626;fill-opacity:1"><use xlink:href="#b" x="561.174" y="203.993"/><use xlink:href="#e" x="568.799" y="203.993"/><use xlink:href="#c" x="572.599" y="203.993"/><use xlink:href="#c" x="580.223" y="203.993"/><use xlink:href="#c" x="587.848" y="203.993"/></g><g style="fill:#262626;fill-opacity:1"><use xlink:href="#f" x="293.519" y="221.116"/><use xlink:href="#g" x="299.911" y="221.116"/><use xlink:href="#h" x="311.603" y="221.116"/><use xlink:href="#i" x="325.519" y="221.116"/><use xlink:href="#j" x="335.771" y="221.116"/><use xlink:href="#k" x="342.163" y="221.116"/><use xlink:href="#i" x="347.03" y="221.116"/><use xlink:href="#l" x="357.281" y="221.116"/><use xlink:href="#m" x="367.226" y="221.116"/><use xlink:href="#n" x="376.652" y="221.116"/><use xlink:href="#o" x="381.435" y="221.116"/><use xlink:href="#k" x="391.379" y="221.116"/><use xlink:href="#p" x="396.247" y="221.116"/><use xlink:href="#q" x="405.156" y="221.116"/><use xlink:href="#o" x="414.638" y="221.116"/><use xlink:href="#r" x="424.582" y="221.116"/><use xlink:href="#s" x="434.582" y="221.116"/><use xlink:href="#l" x="441.268" y="221.116"/></g><use xlink:href="#b" x="26.416" y="192.457" style="fill:#262626;fill-opacity:1"/><use xlink:href="#c" x="34.043" y="192.457" style="fill:#262626;fill-opacity:1"/><use xlink:href="#t" x="41.785" y="187.868" style="fill:#262626;fill-opacity:1"/><use xlink:href="#b" x="26.416" y="133.824" style="fill:#262626;fill-opacity:1"/><use xlink:href="#c" x="34.043" y="133.824" style="fill:#262626;fill-opacity:1"/><use xlink:href="#u" x="41.785" y="129.235" style="fill:#262626;fill-opacity:1"/><use xlink:href="#b" x="26.416" y="75.081" style="fill:#262626;fill-opacity:1"/><use xlink:href="#c" x="34.043" y="75.081" style="fill:#262626;fill-opacity:1"/><use xlink:href="#v" x="41.785" y="70.492" style="fill:#262626;fill-opacity:1"/><use xlink:href="#b" x="26.416" y="16.557" style="fill:#262626;fill-opacity:1"/><use xlink:href="#c" x="34.043" y="16.557" style="fill:#262626;fill-opacity:1"/><use xlink:href="#w" x="41.785" y="11.967" style="fill:#262626;fill-opacity:1"/><use xlink:href="#x" x="19.517" y="179.979" style="fill:#262626;fill-opacity:1"/><g style="fill:#262626;fill-opacity:1"><use xlink:href="#y" x="19.517" y="165.051"/><use xlink:href="#z" x="19.517" y="155.625"/><use xlink:href="#z" x="19.517" y="150.842"/><use xlink:href="#A" x="19.517" y="146.058"/><use xlink:href="#B" x="19.517" y="141.191"/><use xlink:href="#z" x="19.517" y="132.912"/><use xlink:href="#C" x="19.517" y="128.128"/><use xlink:href="#B" x="19.517" y="118.52"/><use xlink:href="#D" x="19.517" y="110.24"/><use xlink:href="#A" x="19.517" y="100.939"/><use xlink:href="#E" x="19.517" y="96.072"/><use xlink:href="#F" x="19.517" y="89.387"/><use xlink:href="#G" x="19.517" y="84.604"/><use xlink:href="#H" x="19.517" y="70.044"/><use xlink:href="#A" x="19.517" y="60.562"/><use xlink:href="#I" x="19.517" y="55.694"/><use xlink:href="#G" x="19.517" y="49.303"/><use xlink:href="#J" x="19.517" y="34.743"/><use xlink:href="#K" x="19.517" y="26.422"/></g><g clip-path="url(#L)"><path d="M84.21 29504.668h27.454V130.676H84.211Zm0 0" style="stroke:none;fill-rule:nonzero;fill:gold;fill-opacity:.9"/></g><g clip-path="url(#M)"><path d="M84.295-29269.2h27.48V134.066h-27.48Zm0 0" style="fill:none;stroke-width:.5;stroke-linecap:butt;stroke-linejoin:miter;stroke:#000;stroke-opacity:.9;stroke-miterlimit:10" transform="matrix(.999 0 0 -.999 0 264.607)"/></g><g clip-path="url(#N)"><path d="M111.775-29269.2h27.48V136.064h-27.48Zm0 0" style="fill-rule:nonzero;fill:#00bfff;fill-opacity:.9;stroke-width:.5;stroke-linecap:butt;stroke-linejoin:miter;stroke:#000;stroke-opacity:.9;stroke-miterlimit:10" transform="matrix(.999 0 0 -.999 0 264.607)"/></g><g clip-path="url(#O)"><path d="M139.117 29504.668h27.45V125.223h-27.45Zm0 0" style="stroke:none;fill-rule:nonzero;fill:coral;fill-opacity:.9"/></g><g clip-path="url(#P)"><path d="M139.256-29269.2h27.476V139.525h-27.476Zm0 0" style="fill:none;stroke-width:.5;stroke-linecap:butt;stroke-linejoin:miter;stroke:#000;stroke-opacity:.9;stroke-miterlimit:10" transform="matrix(.999 0 0 -.999 0 264.607)"/></g><g clip-path="url(#Q)"><path d="M166.732-29269.2h27.48V164.98h-27.48Zm0 0" style="fill-rule:nonzero;fill:#2f4f4f;fill-opacity:.9;stroke-width:.5;stroke-linecap:butt;stroke-linejoin:miter;stroke:#000;stroke-opacity:.9;stroke-miterlimit:10" transform="matrix(.999 0 0 -.999 0 264.607)"/></g><g clip-path="url(#R)"><path d="M194.02 29504.668h27.453V91.766H194.02Zm0 0" style="stroke:none;fill-rule:nonzero;fill:#00008b;fill-opacity:.9"/></g><g clip-path="url(#S)"><path d="M194.213-29269.2h27.48V173.015h-27.48Zm0 0" style="fill:none;stroke-width:.5;stroke-linecap:butt;stroke-linejoin:miter;stroke:#000;stroke-opacity:.9;stroke-miterlimit:10" transform="matrix(.999 0 0 -.999 0 264.607)"/></g><g clip-path="url(#T)"><path d="M221.473 29504.668h27.449V81.258h-27.45Zm0 0" style="stroke:none;fill-rule:nonzero;fill:#3cb371;fill-opacity:.9"/></g><g clip-path="url(#U)"><path d="M221.693-29269.2h27.477V183.533h-27.477Zm0 0" style="fill:none;stroke-width:.5;stroke-linecap:butt;stroke-linejoin:miter;stroke:#000;stroke-opacity:.9;stroke-miterlimit:10" transform="matrix(.999 0 0 -.999 0 264.607)"/></g><g clip-path="url(#V)"><path d="M290.102 29504.668h27.449V124.531H290.1Zm0 0" style="stroke:none;fill-rule:nonzero;fill:gold;fill-opacity:.9"/></g><g clip-path="url(#W)"><path d="M290.39-29269.2h27.477V140.217h-27.476Zm0 0" style="fill:none;stroke-width:.5;stroke-linecap:butt;stroke-linejoin:miter;stroke:#000;stroke-opacity:.9;stroke-miterlimit:10" transform="matrix(.999 0 0 -.999 0 264.607)"/></g><g clip-path="url(#X)"><path d="M317.867-29269.2h27.48V142.44h-27.48Zm0 0" style="fill-rule:nonzero;fill:#00bfff;fill-opacity:.9;stroke-width:.5;stroke-linecap:butt;stroke-linejoin:miter;stroke:#000;stroke-opacity:.9;stroke-miterlimit:10" transform="matrix(.999 0 0 -.999 0 264.607)"/></g><g clip-path="url(#Y)"><path d="M345.004 29504.668h27.453V118.785h-27.453Zm0 0" style="stroke:none;fill-rule:nonzero;fill:coral;fill-opacity:.9"/></g><g clip-path="url(#Z)"><path d="M345.348-29269.2h27.48V145.968h-27.48Zm0 0" style="fill:none;stroke-width:.5;stroke-linecap:butt;stroke-linejoin:miter;stroke:#000;stroke-opacity:.9;stroke-miterlimit:10" transform="matrix(.999 0 0 -.999 0 264.607)"/></g><g clip-path="url(#aa)"><path d="M372.457 29504.668h27.45V93.368h-27.45Zm0 0" style="stroke:none;fill-rule:nonzero;fill:#2f4f4f;fill-opacity:.9"/></g><g clip-path="url(#ab)"><path d="M372.828-29269.2h27.477V171.41h-27.477Zm0 0" style="fill:none;stroke-width:.5;stroke-linecap:butt;stroke-linejoin:miter;stroke:#000;stroke-opacity:.9;stroke-miterlimit:10" transform="matrix(.999 0 0 -.999 0 264.607)"/></g><g clip-path="url(#ac)"><path d="M400.305-29269.2h27.48V180.06h-27.48Zm0 0" style="fill-rule:nonzero;fill:#00008b;fill-opacity:.9;stroke-width:.5;stroke-linecap:butt;stroke-linejoin:miter;stroke:#000;stroke-opacity:.9;stroke-miterlimit:10" transform="matrix(.999 0 0 -.999 0 264.607)"/></g><g clip-path="url(#ad)"><path d="M427.36 29504.668h27.452V79.621H427.36Zm0 0" style="stroke:none;fill-rule:nonzero;fill:#3cb371;fill-opacity:.9"/></g><g clip-path="url(#ae)"><path d="M427.785-29269.2h27.48V185.17h-27.48Zm0 0" style="fill:none;stroke-width:.5;stroke-linecap:butt;stroke-linejoin:miter;stroke:#000;stroke-opacity:.9;stroke-miterlimit:10" transform="matrix(.999 0 0 -.999 0 264.607)"/></g><g clip-path="url(#af)"><path d="M496.483-29269.2h27.48V144.784h-27.48Zm0 0" style="fill-rule:nonzero;fill:gold;fill-opacity:.9;stroke-width:.5;stroke-linecap:butt;stroke-linejoin:miter;stroke:#000;stroke-opacity:.9;stroke-miterlimit:10" transform="matrix(.999 0 0 -.999 0 264.607)"/></g><g clip-path="url(#ag)"><path d="M523.441 29504.668h27.454V117.148H523.44Zm0 0" style="stroke:none;fill-rule:nonzero;fill:#00bfff;fill-opacity:.9"/></g><g clip-path="url(#ah)"><path d="M523.963-29269.2h27.48V147.607h-27.48Zm0 0" style="fill:none;stroke-width:.5;stroke-linecap:butt;stroke-linejoin:miter;stroke:#000;stroke-opacity:.9;stroke-miterlimit:10" transform="matrix(.999 0 0 -.999 0 264.607)"/></g><g clip-path="url(#ai)"><path d="M551.444-29269.2h27.476V151.087h-27.476Zm0 0" style="fill-rule:nonzero;fill:coral;fill-opacity:.9;stroke-width:.5;stroke-linecap:butt;stroke-linejoin:miter;stroke:#000;stroke-opacity:.9;stroke-miterlimit:10" transform="matrix(.999 0 0 -.999 0 264.607)"/></g><g clip-path="url(#aj)"><path d="M578.344 29504.668h27.453V87.895h-27.453Zm0 0" style="stroke:none;fill-rule:nonzero;fill:#2f4f4f;fill-opacity:.9"/></g><g clip-path="url(#ak)"><path d="M578.92-29269.2h27.48V176.89h-27.48Zm0 0" style="fill:none;stroke-width:.5;stroke-linecap:butt;stroke-linejoin:miter;stroke:#000;stroke-opacity:.9;stroke-miterlimit:10" transform="matrix(.999 0 0 -.999 0 264.607)"/></g><g clip-path="url(#al)"><path d="M606.4-29269.2h27.481V184.534h-27.48Zm0 0" style="fill-rule:nonzero;fill:#00008b;fill-opacity:.9;stroke-width:.5;stroke-linecap:butt;stroke-linejoin:miter;stroke:#000;stroke-opacity:.9;stroke-miterlimit:10" transform="matrix(.999 0 0 -.999 0 264.607)"/></g><g clip-path="url(#am)"><path d="M633.25 29504.668h27.45V78.203h-27.45Zm0 0" style="stroke:none;fill-rule:nonzero;fill:#3cb371;fill-opacity:.9"/></g><g clip-path="url(#an)"><path d="M633.881-29269.2h27.477V186.59H633.88Zm0 0" style="fill:none;stroke-width:.5;stroke-linecap:butt;stroke-linejoin:miter;stroke:#000;stroke-opacity:.9;stroke-miterlimit:10" transform="matrix(.999 0 0 -.999 0 264.607)"/></g><g clip-path="url(#ao)"><path d="M55.442 134.065H690.21" style="fill:none;stroke-width:1.5;stroke-linecap:butt;stroke-linejoin:round;stroke:gray;stroke-opacity:.6;stroke-dasharray:1.5,2.475;stroke-miterlimit:10" transform="matrix(.999 0 0 -.999 0 264.607)"/></g><path d="M55.442 76.8v176.075m0-176.075H690.21" style="fill:none;stroke-width:.8;stroke-linecap:square;stroke-linejoin:miter;stroke:#262626;stroke-opacity:1;stroke-miterlimit:10" transform="matrix(.999 0 0 -.999 0 264.607)"/><g style="fill:#262626;fill-opacity:1"><use xlink:href="#ap" x="112.364" y="123.608"/><use xlink:href="#aq" x="119.307" y="123.608"/><use xlink:href="#ar" x="123.093" y="123.608"/><use xlink:href="#as" x="130.036" y="123.608"/></g><g style="fill:#262626;fill-opacity:1"><use xlink:href="#ap" x="139.815" y="120.149"/><use xlink:href="#aq" x="146.758" y="120.149"/><use xlink:href="#at" x="150.545" y="120.149"/><use xlink:href="#as" x="157.488" y="120.149"/></g><g style="fill:#262626;fill-opacity:1"><use xlink:href="#ap" x="169.164" y="94.719"/><use xlink:href="#ap" x="176.107" y="94.719"/><use xlink:href="#as" x="183.05" y="94.719"/></g><g style="fill:#262626;fill-opacity:1"><use xlink:href="#ar" x="196.616" y="86.692"/><use xlink:href="#ap" x="203.559" y="86.692"/><use xlink:href="#as" x="210.502" y="86.692"/></g><g style="fill:#262626;fill-opacity:1"><use xlink:href="#au" x="224.067" y="76.183"/><use xlink:href="#av" x="231.01" y="76.183"/><use xlink:href="#as" x="237.953" y="76.183"/></g><g style="fill:#262626;fill-opacity:1"><use xlink:href="#ap" x="318.252" y="117.236"/><use xlink:href="#aq" x="325.195" y="117.236"/><use xlink:href="#ar" x="328.981" y="117.236"/><use xlink:href="#as" x="335.925" y="117.236"/></g><g style="fill:#262626;fill-opacity:1"><use xlink:href="#ap" x="345.704" y="113.711"/><use xlink:href="#aq" x="352.647" y="113.711"/><use xlink:href="#aw" x="356.433" y="113.711"/><use xlink:href="#as" x="363.376" y="113.711"/></g><g style="fill:#262626;fill-opacity:1"><use xlink:href="#ap" x="375.052" y="88.293"/><use xlink:href="#ap" x="381.995" y="88.293"/><use xlink:href="#as" x="388.938" y="88.293"/></g><g style="fill:#262626;fill-opacity:1"><use xlink:href="#ar" x="402.504" y="79.653"/><use xlink:href="#ar" x="409.447" y="79.653"/><use xlink:href="#as" x="416.39" y="79.653"/></g><g style="fill:#262626;fill-opacity:1"><use xlink:href="#ax" x="429.956" y="74.55"/><use xlink:href="#au" x="436.899" y="74.55"/><use xlink:href="#as" x="443.842" y="74.55"/></g><g style="fill:#262626;fill-opacity:1"><use xlink:href="#ap" x="524.141" y="112.077"/><use xlink:href="#aq" x="531.084" y="112.077"/><use xlink:href="#ar" x="534.87" y="112.077"/><use xlink:href="#as" x="541.813" y="112.077"/></g><g style="fill:#262626;fill-opacity:1"><use xlink:href="#ap" x="551.593" y="108.6"/><use xlink:href="#aq" x="558.536" y="108.6"/><use xlink:href="#aw" x="562.322" y="108.6"/><use xlink:href="#as" x="569.265" y="108.6"/></g><g style="fill:#262626;fill-opacity:1"><use xlink:href="#ap" x="580.941" y="82.821"/><use xlink:href="#ar" x="587.884" y="82.821"/><use xlink:href="#as" x="594.827" y="82.821"/></g><g style="fill:#262626;fill-opacity:1"><use xlink:href="#ar" x="608.393" y="75.183"/><use xlink:href="#ar" x="615.336" y="75.183"/><use xlink:href="#as" x="622.279" y="75.183"/></g><g style="fill:#262626;fill-opacity:1"><use xlink:href="#ar" x="635.845" y="73.131"/><use xlink:href="#aw" x="642.788" y="73.131"/><use xlink:href="#as" x="649.731" y="73.131"/></g><g style="fill:gray;fill-opacity:.8"><use xlink:href="#ay" x="61.729" y="126.603"/><use xlink:href="#az" x="68.082" y="126.603"/><use xlink:href="#aA" x="74.436" y="126.603"/><use xlink:href="#aB" x="77.603" y="126.603"/><use xlink:href="#aC" x="83.957" y="126.603"/><use xlink:href="#aD" x="90.31" y="126.603"/><use xlink:href="#aE" x="93.477" y="126.603"/><use xlink:href="#aF" x="103.207" y="126.603"/></g><g style="fill:#262626;fill-opacity:.7"><use xlink:href="#aG" x="68.07" y="24.617"/><use xlink:href="#aH" x="75.671" y="24.617"/><use xlink:href="#aI" x="87.347" y="24.617"/><use xlink:href="#aJ" x="94.684" y="24.617"/><use xlink:href="#aJ" x="98.004" y="24.617"/><use xlink:href="#aK" x="101.325" y="24.617"/><use xlink:href="#aL" x="108.698" y="24.617"/><use xlink:href="#aM" x="113.625" y="24.617"/><use xlink:href="#aN" x="117.425" y="24.617"/><use xlink:href="#aO" x="120.746" y="24.617"/><use xlink:href="#aM" x="126.979" y="24.617"/><use xlink:href="#aP" x="130.78" y="24.617"/><use xlink:href="#aK" x="138.38" y="24.617"/><use xlink:href="#aQ" x="145.753" y="24.617"/><use xlink:href="#aQ" x="150.452" y="24.617"/><use xlink:href="#aK" x="155.151" y="24.617"/><use xlink:href="#aL" x="162.524" y="24.617"/></g><path d="m125.516 113.216-1.588-4.884h-5.138l4.157-3.022-1.588-4.884 4.157 3.019 4.156-3.019-1.587 4.884 4.156 3.022h-5.138Zm206.091 0-1.587-4.884h-5.138l4.157-3.022-1.588-4.884 4.156 3.019 4.157-3.019-1.588 4.884 4.157 3.022h-5.138Zm206.096 0-1.587-4.884h-5.138l4.156-3.022-1.587-4.884 4.156 3.019 4.157-3.019-1.588 4.884 4.157 3.022h-5.138Zm0 0" style="fill-rule:nonzero;fill:gold;fill-opacity:1;stroke-width:1.5;stroke-linecap:butt;stroke-linejoin:round;stroke:#b8860b;stroke-opacity:1;stroke-miterlimit:10" transform="matrix(.999 0 0 -.999 0 264.607)"/><path d="M318.008 259.414h66.586q2.397 0 2.398-2.398v-16.41q0-2.398-2.398-2.399h-66.586q-2.396 0-2.395 2.398v16.41q-.001 2.399 2.395 2.4m0 0" style="stroke:none;fill-rule:nonzero;fill:#4c4c4c;fill-opacity:.5"/><g clip-path="url(#aR)"><path d="M318.325 5.198h66.652q2.4.001 2.4 2.401v16.427q0 2.4-2.4 2.4h-66.652q-2.399 0-2.397-2.4V7.599q-.002-2.4 2.397-2.4Zm0 0" style="fill:none;stroke-width:1;stroke-linecap:butt;stroke-linejoin:miter;stroke:#4c4c4c;stroke-opacity:.5;stroke-miterlimit:10" transform="matrix(.999 0 0 -.999 0 264.607)"/></g><path d="M316.012 257.414h66.582q2.4 0 2.398-2.398v-16.407q.002-2.397-2.398-2.398h-66.582q-2.398 0-2.399 2.398v16.407q.001 2.397 2.399 2.398m0 0" style="stroke:none;fill-rule:nonzero;fill:#fff;fill-opacity:1"/><g clip-path="url(#aS)"><path d="M316.327 7.2h66.648c1.603 0 2.4.802 2.4 2.401v16.423c0 1.599-.797 2.4-2.4 2.4h-66.648q-2.4 0-2.401-2.4V9.6q0-2.4 2.4-2.4Zm0 0" style="fill:none;stroke-width:1;stroke-linecap:butt;stroke-linejoin:miter;stroke:#ccc;stroke-opacity:1;stroke-miterlimit:10" transform="matrix(.999 0 0 -.999 0 264.607)"/></g><path d="M318.727 14.5h12v8.4h-12Zm0 0" style="fill-rule:nonzero;fill:#00bfff;fill-opacity:.9;stroke-width:.5;stroke-linecap:butt;stroke-linejoin:miter;stroke:#000;stroke-opacity:.9;stroke-miterlimit:10" transform="matrix(.999 0 0 -.999 0 264.607)"/><path d="m336.726 23.701-1.122-3.456h-3.633l2.94-2.135-1.122-3.457 2.937 2.139 2.94-2.139-1.122 3.457 2.937 2.135h-3.633Zm0 0" style="fill-rule:nonzero;fill:gold;fill-opacity:1;stroke-width:1;stroke-linecap:butt;stroke-linejoin:bevel;stroke:#b8860b;stroke-opacity:1;stroke-miterlimit:10" transform="matrix(.999 0 0 -.999 0 264.607)"/><g style="fill:#262626;fill-opacity:1"><use xlink:href="#aT" x="351.976" y="250.122"/><use xlink:href="#aU" x="361.41" y="250.122"/><use xlink:href="#aV" x="368.999" y="250.122"/><use xlink:href="#aW" x="373.926" y="250.122"/></g><path d="M243.418 259.414h215.77q2.395 0 2.394-2.398v-16.41q0-2.398-2.394-2.399h-215.77q-2.398 0-2.398 2.398v16.41q0 2.399 2.398 2.4m0 0" style="stroke:none;fill-rule:nonzero;fill:#4c4c4c;fill-opacity:.5"/><g clip-path="url(#aX)"><path d="M243.66 5.198h215.985q2.399.001 2.397 2.401v16.427q0 2.4-2.397 2.4H243.661q-2.4 0-2.401-2.4V7.599q0-2.4 2.4-2.4Zm0 0" style="fill:none;stroke-width:1;stroke-linecap:butt;stroke-linejoin:miter;stroke:#4c4c4c;stroke-opacity:.5;stroke-miterlimit:10" transform="matrix(.999 0 0 -.999 0 264.607)"/></g><path d="M241.418 257.414h215.77q2.397 0 2.398-2.398v-16.407q0-2.397-2.399-2.398H241.419q-2.398 0-2.398 2.398v16.407q0 2.397 2.398 2.398m0 0" style="stroke:none;fill-rule:nonzero;fill:#fff;fill-opacity:1"/><g clip-path="url(#aY)"><path d="M241.659 7.2h215.984q2.4.001 2.4 2.401v16.423q0 2.4-2.4 2.4H241.66q-2.4 0-2.401-2.4V9.6q0-2.4 2.4-2.4Zm0 0" style="fill:none;stroke-width:1;stroke-linecap:butt;stroke-linejoin:miter;stroke:#ccc;stroke-opacity:1;stroke-miterlimit:10" transform="matrix(.999 0 0 -.999 0 264.607)"/></g><path d="M244.06 14.5h12v8.4h-12Zm0 0" style="fill-rule:nonzero;fill:#00bfff;fill-opacity:.9;stroke-width:.5;stroke-linecap:butt;stroke-linejoin:miter;stroke:#000;stroke-opacity:.9;stroke-miterlimit:10" transform="matrix(.999 0 0 -.999 0 264.607)"/><path d="m262.058 23.701-1.122-3.456h-3.633l2.94-2.135-1.122-3.457 2.937 2.139 2.94-2.139-1.122 3.457 2.94 2.135h-3.632Zm0 0" style="fill-rule:nonzero;fill:gold;fill-opacity:1;stroke-width:1;stroke-linecap:butt;stroke-linejoin:bevel;stroke:#b8860b;stroke-opacity:1;stroke-miterlimit:10" transform="matrix(.999 0 0 -.999 0 264.607)"/><g style="fill:#262626;fill-opacity:1"><use xlink:href="#aT" x="277.383" y="250.122"/><use xlink:href="#aU" x="286.818" y="250.122"/><use xlink:href="#aV" x="294.406" y="250.122"/><use xlink:href="#aW" x="299.333" y="250.122"/></g><path d="M329.91 14.5h24v8.4h-24Zm0 0" style="fill-rule:nonzero;fill:gold;fill-opacity:.9;stroke-width:.5;stroke-linecap:butt;stroke-linejoin:miter;stroke:#000;stroke-opacity:.9;stroke-miterlimit:10" transform="matrix(.999 0 0 -.999 0 264.607)"/><g style="fill:#262626;fill-opacity:1"><use xlink:href="#aZ" x="363.147" y="250.122"/><use xlink:href="#ba" x="372.151" y="250.122"/><use xlink:href="#bb" x="379.487" y="250.122"/><use xlink:href="#bc" x="387.076" y="250.122"/><use xlink:href="#bd" x="394.676" y="250.122"/><use xlink:href="#be" x="401.258" y="250.122"/><use xlink:href="#bc" x="408.582" y="250.122"/><use xlink:href="#bf" x="416.183" y="250.122"/><use xlink:href="#bc" x="423.555" y="250.122"/><use xlink:href="#bg" x="431.156" y="250.122"/><use xlink:href="#bh" x="434.956" y="250.122"/></g><g style="fill:#262626;fill-opacity:1"><use xlink:href="#bi" x="438.277" y="250.122"/><use xlink:href="#bj" x="446.477" y="250.122"/></g><path d="M187.344 259.414h327.914q2.397 0 2.398-2.398v-16.41q0-2.398-2.398-2.399H187.344q-2.398 0-2.399 2.398v16.41q.001 2.399 2.399 2.4m0 0" style="stroke:none;fill-rule:nonzero;fill:#4c4c4c;fill-opacity:.5"/><g clip-path="url(#bk)"><path d="M187.53 5.198h328.241q2.4.001 2.401 2.401v16.427q0 2.4-2.4 2.4H187.53q-2.4 0-2.4-2.4V7.599q0-2.4 2.4-2.4Zm0 0" style="fill:none;stroke-width:1;stroke-linecap:butt;stroke-linejoin:miter;stroke:#4c4c4c;stroke-opacity:.5;stroke-miterlimit:10" transform="matrix(.999 0 0 -.999 0 264.607)"/></g><path d="M185.348 257.414h327.914q2.395 0 2.394-2.398v-16.407q0-2.397-2.394-2.398H185.348q-2.398 0-2.399 2.398v16.407q.001 2.397 2.399 2.398m0 0" style="stroke:none;fill-rule:nonzero;fill:#fff;fill-opacity:1"/><g clip-path="url(#bl)"><path d="M185.532 7.2h328.241q2.399.001 2.397 2.401v16.423q0 2.4-2.397 2.4h-328.24q-2.4 0-2.401-2.4V9.6q0-2.4 2.4-2.4Zm0 0" style="fill:none;stroke-width:1;stroke-linecap:butt;stroke-linejoin:miter;stroke:#ccc;stroke-opacity:1;stroke-miterlimit:10" transform="matrix(.999 0 0 -.999 0 264.607)"/></g><path d="M187.933 14.5h11.997v8.4h-11.997Zm0 0" style="fill-rule:nonzero;fill:#00bfff;fill-opacity:.9;stroke-width:.5;stroke-linecap:butt;stroke-linejoin:miter;stroke:#000;stroke-opacity:.9;stroke-miterlimit:10" transform="matrix(.999 0 0 -.999 0 264.607)"/><path d="m205.932 23.701-1.123-3.456h-3.632l2.936-2.135-1.122-3.457 2.94 2.139 2.941-2.139-1.126 3.457 2.94 2.135h-3.632Zm0 0" style="fill-rule:nonzero;fill:gold;fill-opacity:1;stroke-width:1;stroke-linecap:butt;stroke-linejoin:bevel;stroke:#b8860b;stroke-opacity:1;stroke-miterlimit:10" transform="matrix(.999 0 0 -.999 0 264.607)"/><g style="fill:#262626;fill-opacity:1"><use xlink:href="#aT" x="221.311" y="250.122"/><use xlink:href="#aU" x="230.745" y="250.122"/><use xlink:href="#aV" x="238.334" y="250.122"/><use xlink:href="#aW" x="243.261" y="250.122"/></g><path d="M273.78 14.5h24v8.4h-24Zm0 0" style="fill-rule:nonzero;fill:gold;fill-opacity:.9;stroke-width:.5;stroke-linecap:butt;stroke-linejoin:miter;stroke:#000;stroke-opacity:.9;stroke-miterlimit:10" transform="matrix(.999 0 0 -.999 0 264.607)"/><g style="fill:#262626;fill-opacity:1"><use xlink:href="#aZ" x="307.075" y="250.122"/><use xlink:href="#ba" x="316.078" y="250.122"/><use xlink:href="#bb" x="323.415" y="250.122"/><use xlink:href="#bc" x="331.003" y="250.122"/><use xlink:href="#bd" x="338.604" y="250.122"/><use xlink:href="#be" x="345.185" y="250.122"/><use xlink:href="#bc" x="352.51" y="250.122"/><use xlink:href="#bf" x="360.11" y="250.122"/><use xlink:href="#bc" x="367.483" y="250.122"/><use xlink:href="#bg" x="375.083" y="250.122"/><use xlink:href="#bh" x="378.884" y="250.122"/></g><g style="fill:#262626;fill-opacity:1"><use xlink:href="#bi" x="382.205" y="250.122"/><use xlink:href="#bj" x="390.405" y="250.122"/></g><path d="M423.117 14.5h24v8.4h-24Zm0 0" style="fill-rule:nonzero;fill:coral;fill-opacity:.9;stroke-width:.5;stroke-linecap:butt;stroke-linejoin:miter;stroke:#000;stroke-opacity:.9;stroke-miterlimit:10" transform="matrix(.999 0 0 -.999 0 264.607)"/><g style="fill:#262626;fill-opacity:1"><use xlink:href="#bm" x="456.261" y="250.122"/><use xlink:href="#aU" x="465.228" y="250.122"/><use xlink:href="#bn" x="472.816" y="250.122"/><use xlink:href="#bo" x="484.493" y="250.122"/><use xlink:href="#bp" x="491.722" y="250.122"/><use xlink:href="#aV" x="498.807" y="250.122"/></g><use xlink:href="#be" x="503.484" y="250.122" style="fill:#262626;fill-opacity:1"/><path d="M145.398 259.414h411.805q2.398 0 2.399-2.398v-16.41q-.001-2.398-2.399-2.399H145.398q-2.397 0-2.398 2.398v16.41q0 2.399 2.398 2.4m0 0" style="stroke:none;fill-rule:nonzero;fill:#4c4c4c;fill-opacity:.5"/><g clip-path="url(#bq)"><path d="M145.543 5.198h412.215q2.4.001 2.401 2.401v16.427q0 2.4-2.4 2.4H145.542q-2.4 0-2.4-2.4V7.599q0-2.4 2.4-2.4Zm0 0" style="fill:none;stroke-width:1;stroke-linecap:butt;stroke-linejoin:miter;stroke:#4c4c4c;stroke-opacity:.5;stroke-miterlimit:10" transform="matrix(.999 0 0 -.999 0 264.607)"/></g><path d="M143.402 257.414h411.805q2.398 0 2.398-2.398v-16.407q0-2.397-2.398-2.398H143.402q-2.4 0-2.398 2.398v16.407q-.002 2.397 2.398 2.398m0 0" style="stroke:none;fill-rule:nonzero;fill:#fff;fill-opacity:1"/><g clip-path="url(#br)"><path d="M143.545 7.2H555.76q2.4.001 2.401 2.401v16.423q0 2.4-2.4 2.4H143.544c-1.603 0-2.4-.801-2.4-2.4V9.6c0-1.599.797-2.4 2.4-2.4Zm0 0" style="fill:none;stroke-width:1;stroke-linecap:butt;stroke-linejoin:miter;stroke:#ccc;stroke-opacity:1;stroke-miterlimit:10" transform="matrix(.999 0 0 -.999 0 264.607)"/></g><path d="M145.942 14.5h12v8.4h-12Zm0 0" style="fill-rule:nonzero;fill:#00bfff;fill-opacity:.9;stroke-width:.5;stroke-linecap:butt;stroke-linejoin:miter;stroke:#000;stroke-opacity:.9;stroke-miterlimit:10" transform="matrix(.999 0 0 -.999 0 264.607)"/><path d="m163.944 23.701-1.122-3.456h-3.632l2.936-2.135-1.122-3.457 2.94 2.139 2.937-2.139-1.122 3.457 2.94 2.135h-3.632Zm0 0" style="fill-rule:nonzero;fill:gold;fill-opacity:1;stroke-width:1;stroke-linecap:butt;stroke-linejoin:bevel;stroke:#b8860b;stroke-opacity:1;stroke-miterlimit:10" transform="matrix(.999 0 0 -.999 0 264.607)"/><g style="fill:#262626;fill-opacity:1"><use xlink:href="#aT" x="179.365" y="250.122"/><use xlink:href="#aU" x="188.8" y="250.122"/><use xlink:href="#aV" x="196.388" y="250.122"/><use xlink:href="#aW" x="201.315" y="250.122"/></g><path d="M231.793 14.5h24v8.4h-24Zm0 0" style="fill-rule:nonzero;fill:gold;fill-opacity:.9;stroke-width:.5;stroke-linecap:butt;stroke-linejoin:miter;stroke:#000;stroke-opacity:.9;stroke-miterlimit:10" transform="matrix(.999 0 0 -.999 0 264.607)"/><g style="fill:#262626;fill-opacity:1"><use xlink:href="#aZ" x="265.13" y="250.122"/><use xlink:href="#ba" x="274.133" y="250.122"/><use xlink:href="#bb" x="281.469" y="250.122"/><use xlink:href="#bc" x="289.058" y="250.122"/><use xlink:href="#bd" x="296.658" y="250.122"/><use xlink:href="#be" x="303.24" y="250.122"/><use xlink:href="#bc" x="310.564" y="250.122"/><use xlink:href="#bf" x="318.165" y="250.122"/><use xlink:href="#bc" x="325.537" y="250.122"/><use xlink:href="#bg" x="333.138" y="250.122"/><use xlink:href="#bh" x="336.938" y="250.122"/></g><g style="fill:#262626;fill-opacity:1"><use xlink:href="#bi" x="340.26" y="250.122"/><use xlink:href="#bj" x="348.459" y="250.122"/></g><path d="M381.13 14.5h24v8.4h-24Zm0 0" style="fill-rule:nonzero;fill:coral;fill-opacity:.9;stroke-width:.5;stroke-linecap:butt;stroke-linejoin:miter;stroke:#000;stroke-opacity:.9;stroke-miterlimit:10" transform="matrix(.999 0 0 -.999 0 264.607)"/><g style="fill:#262626;fill-opacity:1"><use xlink:href="#bm" x="414.315" y="250.122"/><use xlink:href="#aU" x="423.282" y="250.122"/><use xlink:href="#bn" x="430.871" y="250.122"/><use xlink:href="#bo" x="442.547" y="250.122"/><use xlink:href="#bp" x="449.776" y="250.122"/><use xlink:href="#aV" x="456.861" y="250.122"/></g><use xlink:href="#be" x="461.538" y="250.122" style="fill:#262626;fill-opacity:1"/><path d="M493.386 14.5h24v8.4h-24Zm0 0" style="fill-rule:nonzero;fill:#3cb371;fill-opacity:.9;stroke-width:.5;stroke-linecap:butt;stroke-linejoin:miter;stroke:#000;stroke-opacity:.9;stroke-miterlimit:10" transform="matrix(.999 0 0 -.999 0 264.607)"/><g style="fill:#262626;fill-opacity:1"><use xlink:href="#bo" x="526.46" y="250.122"/><use xlink:href="#bp" x="533.689" y="250.122"/><use xlink:href="#aV" x="540.773" y="250.122"/></g><use xlink:href="#be" x="545.451" y="250.122" style="fill:#262626;fill-opacity:1"/><path d="M99.262 259.414H603.34q2.397 0 2.398-2.398v-16.41q0-2.398-2.398-2.399H99.262q-2.398 0-2.399 2.398v16.41q.001 2.399 2.399 2.4m0 0" style="stroke:none;fill-rule:nonzero;fill:#4c4c4c;fill-opacity:.5"/><g clip-path="url(#bs)"><path d="M99.36 5.198h504.581q2.4.001 2.4 2.401v16.427q0 2.4-2.4 2.4H99.361q-2.4 0-2.401-2.4V7.599q0-2.4 2.4-2.4Zm0 0" style="fill:none;stroke-width:1;stroke-linecap:butt;stroke-linejoin:miter;stroke:#4c4c4c;stroke-opacity:.5;stroke-miterlimit:10" transform="matrix(.999 0 0 -.999 0 264.607)"/></g><path d="M97.266 257.414h504.078q2.397 0 2.398-2.398v-16.407q0-2.397-2.398-2.398H97.266q-2.401 0-2.399 2.398v16.407q-.002 2.397 2.399 2.398m0 0" style="stroke:none;fill-rule:nonzero;fill:#fff;fill-opacity:1"/><g clip-path="url(#bt)"><path d="M97.363 7.2h504.58q2.4.001 2.4 2.401v16.423q0 2.4-2.4 2.4H97.363c-1.604 0-2.401-.801-2.401-2.4V9.6c0-1.599.797-2.4 2.4-2.4Zm0 0" style="fill:none;stroke-width:1;stroke-linecap:butt;stroke-linejoin:miter;stroke:#ccc;stroke-opacity:1;stroke-miterlimit:10" transform="matrix(.999 0 0 -.999 0 264.607)"/></g><path d="M99.76 14.5h12v8.4h-12Zm0 0" style="fill-rule:nonzero;fill:#00bfff;fill-opacity:.9;stroke-width:.5;stroke-linecap:butt;stroke-linejoin:miter;stroke:#000;stroke-opacity:.9;stroke-miterlimit:10" transform="matrix(.999 0 0 -.999 0 264.607)"/><path d="m117.762 23.701-1.122-3.456h-3.633l2.937-2.135-1.123-3.457 2.94 2.139 2.937-2.139-1.122 3.457 2.94 2.135h-3.632Zm0 0" style="fill-rule:nonzero;fill:gold;fill-opacity:1;stroke-width:1;stroke-linecap:butt;stroke-linejoin:bevel;stroke:#b8860b;stroke-opacity:1;stroke-miterlimit:10" transform="matrix(.999 0 0 -.999 0 264.607)"/><g style="fill:#262626;fill-opacity:1"><use xlink:href="#aT" x="133.228" y="250.122"/><use xlink:href="#aU" x="142.663" y="250.122"/><use xlink:href="#aV" x="150.251" y="250.122"/><use xlink:href="#aW" x="155.178" y="250.122"/></g><path d="M185.61 14.5h24.001v8.4h-24Zm0 0" style="fill-rule:nonzero;fill:gold;fill-opacity:.9;stroke-width:.5;stroke-linecap:butt;stroke-linejoin:miter;stroke:#000;stroke-opacity:.9;stroke-miterlimit:10" transform="matrix(.999 0 0 -.999 0 264.607)"/><g style="fill:#262626;fill-opacity:1"><use xlink:href="#aZ" x="218.993" y="250.122"/><use xlink:href="#ba" x="227.996" y="250.122"/><use xlink:href="#bb" x="235.332" y="250.122"/><use xlink:href="#bc" x="242.921" y="250.122"/><use xlink:href="#bd" x="250.521" y="250.122"/><use xlink:href="#be" x="257.103" y="250.122"/><use xlink:href="#bc" x="264.427" y="250.122"/><use xlink:href="#bf" x="272.028" y="250.122"/><use xlink:href="#bc" x="279.401" y="250.122"/><use xlink:href="#bg" x="287.001" y="250.122"/><use xlink:href="#bh" x="290.801" y="250.122"/></g><g style="fill:#262626;fill-opacity:1"><use xlink:href="#bi" x="294.123" y="250.122"/><use xlink:href="#bj" x="302.323" y="250.122"/></g><path d="M334.947 14.5h24v8.4h-24Zm0 0" style="fill-rule:nonzero;fill:coral;fill-opacity:.9;stroke-width:.5;stroke-linecap:butt;stroke-linejoin:miter;stroke:#000;stroke-opacity:.9;stroke-miterlimit:10" transform="matrix(.999 0 0 -.999 0 264.607)"/><g style="fill:#262626;fill-opacity:1"><use xlink:href="#bm" x="368.178" y="250.122"/><use xlink:href="#aU" x="377.145" y="250.122"/><use xlink:href="#bn" x="384.734" y="250.122"/><use xlink:href="#bo" x="396.41" y="250.122"/><use xlink:href="#bp" x="403.639" y="250.122"/><use xlink:href="#aV" x="410.724" y="250.122"/></g><use xlink:href="#be" x="415.401" y="250.122" style="fill:#262626;fill-opacity:1"/><path d="M447.203 14.5h24v8.4h-24Zm0 0" style="fill-rule:nonzero;fill:#3cb371;fill-opacity:.9;stroke-width:.5;stroke-linecap:butt;stroke-linejoin:miter;stroke:#000;stroke-opacity:.9;stroke-miterlimit:10" transform="matrix(.999 0 0 -.999 0 264.607)"/><g style="fill:#262626;fill-opacity:1"><use xlink:href="#bo" x="480.323" y="250.122"/><use xlink:href="#bp" x="487.552" y="250.122"/><use xlink:href="#aV" x="494.637" y="250.122"/></g><use xlink:href="#be" x="499.314" y="250.122" style="fill:#262626;fill-opacity:1"/><path d="M531.177 14.5h24v8.4h-24Zm0 0" style="fill-rule:nonzero;fill:#00008b;fill-opacity:.9;stroke-width:.5;stroke-linecap:butt;stroke-linejoin:miter;stroke:#000;stroke-opacity:.9;stroke-miterlimit:10" transform="matrix(.999 0 0 -.999 0 264.607)"/><g style="fill:#262626;fill-opacity:1"><use xlink:href="#bu" x="564.214" y="250.122"/><use xlink:href="#bf" x="573.493" y="250.122"/><use xlink:href="#bb" x="580.866" y="250.122"/><use xlink:href="#bv" x="588.454" y="250.122"/><use xlink:href="#bw" x="592.254" y="250.122"/><use xlink:href="#bx" x="595.575" y="250.122"/></g><path d="M11.59 259.414h679.426q2.397 0 2.398-2.398v-16.41q0-2.398-2.398-2.399H11.59q-2.401 0-2.399 2.398v16.41q-.002 2.399 2.399 2.4m0 0" style="stroke:none;fill-rule:nonzero;fill:#4c4c4c;fill-opacity:.5"/><g clip-path="url(#by)"><path d="M11.601 5.198h680.103q2.4.001 2.401 2.401v16.427q-.002 2.4-2.4 2.4H11.6c-1.603 0-2.4-.801-2.4-2.4V7.599c0-1.599.797-2.4 2.4-2.4Zm0 0" style="fill:none;stroke-width:1;stroke-linecap:butt;stroke-linejoin:miter;stroke:#4c4c4c;stroke-opacity:.5;stroke-miterlimit:10" transform="matrix(.999 0 0 -.999 0 264.607)"/></g><path d="M9.59 257.414h679.426q2.397 0 2.398-2.398v-16.407q0-2.397-2.398-2.398H9.59q-2.398 0-2.399 2.398v16.407q.001 2.397 2.399 2.398m0 0" style="stroke:none;fill-rule:nonzero;fill:#fff;fill-opacity:1"/><g clip-path="url(#bz)"><path d="M9.6 7.2h680.102q2.4.001 2.401 2.401v16.423q-.001 2.4-2.4 2.4H9.598q-2.4 0-2.4-2.4V9.6q0-2.4 2.4-2.4Zm0 0" style="fill:none;stroke-width:1;stroke-linecap:butt;stroke-linejoin:miter;stroke:#ccc;stroke-opacity:1;stroke-miterlimit:10" transform="matrix(.999 0 0 -.999 0 264.607)"/></g><path d="M12 14.5h12v8.4H12Zm0 0" style="fill-rule:nonzero;fill:#00bfff;fill-opacity:.9;stroke-width:.5;stroke-linecap:butt;stroke-linejoin:miter;stroke:#000;stroke-opacity:.9;stroke-miterlimit:10" transform="matrix(.999 0 0 -.999 0 264.607)"/><path d="m29.999 23.701-1.123-3.456h-3.632l2.94-2.135-1.122-3.457L30 16.792l2.94-2.139-1.122 3.457 2.936 2.135h-3.632Zm0 0" style="fill-rule:nonzero;fill:gold;fill-opacity:1;stroke-width:1;stroke-linecap:butt;stroke-linejoin:bevel;stroke:#b8860b;stroke-opacity:1;stroke-miterlimit:10" transform="matrix(.999 0 0 -.999 0 264.607)"/><g style="fill:#262626;fill-opacity:1"><use xlink:href="#aT" x="45.555" y="250.122"/><use xlink:href="#aU" x="54.989" y="250.122"/><use xlink:href="#aV" x="62.578" y="250.122"/><use xlink:href="#aW" x="67.505" y="250.122"/></g><path d="M97.851 14.5h24v8.4h-24Zm0 0" style="fill-rule:nonzero;fill:gold;fill-opacity:.9;stroke-width:.5;stroke-linecap:butt;stroke-linejoin:miter;stroke:#000;stroke-opacity:.9;stroke-miterlimit:10" transform="matrix(.999 0 0 -.999 0 264.607)"/><g style="fill:#262626;fill-opacity:1"><use xlink:href="#aZ" x="131.319" y="250.122"/><use xlink:href="#ba" x="140.322" y="250.122"/><use xlink:href="#bb" x="147.659" y="250.122"/><use xlink:href="#bc" x="155.247" y="250.122"/><use xlink:href="#bd" x="162.848" y="250.122"/><use xlink:href="#be" x="169.429" y="250.122"/><use xlink:href="#bc" x="176.754" y="250.122"/><use xlink:href="#bf" x="184.354" y="250.122"/><use xlink:href="#bc" x="191.727" y="250.122"/><use xlink:href="#bg" x="199.327" y="250.122"/><use xlink:href="#bh" x="203.128" y="250.122"/></g><g style="fill:#262626;fill-opacity:1"><use xlink:href="#bi" x="206.449" y="250.122"/><use xlink:href="#bj" x="214.649" y="250.122"/></g><path d="M247.184 14.5h24v8.4h-24Zm0 0" style="fill-rule:nonzero;fill:coral;fill-opacity:.9;stroke-width:.5;stroke-linecap:butt;stroke-linejoin:miter;stroke:#000;stroke-opacity:.9;stroke-miterlimit:10" transform="matrix(.999 0 0 -.999 0 264.607)"/><g style="fill:#262626;fill-opacity:1"><use xlink:href="#bm" x="280.505" y="250.122"/><use xlink:href="#aU" x="289.472" y="250.122"/><use xlink:href="#bn" x="297.06" y="250.122"/><use xlink:href="#bo" x="308.737" y="250.122"/><use xlink:href="#bp" x="315.966" y="250.122"/><use xlink:href="#aV" x="323.05" y="250.122"/></g><use xlink:href="#be" x="327.728" y="250.122" style="fill:#262626;fill-opacity:1"/><path d="M359.44 14.5h24v8.4h-24Zm0 0" style="fill-rule:nonzero;fill:#3cb371;fill-opacity:.9;stroke-width:.5;stroke-linecap:butt;stroke-linejoin:miter;stroke:#000;stroke-opacity:.9;stroke-miterlimit:10" transform="matrix(.999 0 0 -.999 0 264.607)"/><g style="fill:#262626;fill-opacity:1"><use xlink:href="#bo" x="392.649" y="250.122"/><use xlink:href="#bp" x="399.878" y="250.122"/><use xlink:href="#aV" x="406.963" y="250.122"/></g><use xlink:href="#be" x="411.64" y="250.122" style="fill:#262626;fill-opacity:1"/><path d="M443.414 14.5h24v8.4h-24Zm0 0" style="fill-rule:nonzero;fill:#00008b;fill-opacity:.9;stroke-width:.5;stroke-linecap:butt;stroke-linejoin:miter;stroke:#000;stroke-opacity:.9;stroke-miterlimit:10" transform="matrix(.999 0 0 -.999 0 264.607)"/><g style="fill:#262626;fill-opacity:1"><use xlink:href="#bu" x="476.541" y="250.122"/><use xlink:href="#bf" x="485.819" y="250.122"/><use xlink:href="#bb" x="493.192" y="250.122"/><use xlink:href="#bv" x="500.781" y="250.122"/><use xlink:href="#bw" x="504.581" y="250.122"/><use xlink:href="#bx" x="507.901" y="250.122"/></g><path d="M535.78 14.5h24v8.4h-24Zm0 0" style="fill-rule:nonzero;fill:#2f4f4f;fill-opacity:.9;stroke-width:.5;stroke-linecap:butt;stroke-linejoin:miter;stroke:#000;stroke-opacity:.9;stroke-miterlimit:10" transform="matrix(.999 0 0 -.999 0 264.607)"/><g style="fill:#262626;fill-opacity:1"><use xlink:href="#aZ" x="568.814" y="250.122"/><use xlink:href="#ba" x="577.817" y="250.122"/><use xlink:href="#bb" x="585.154" y="250.122"/><use xlink:href="#bc" x="592.743" y="250.122"/><use xlink:href="#bd" x="600.343" y="250.122"/><use xlink:href="#be" x="606.924" y="250.122"/><use xlink:href="#bc" x="614.249" y="250.122"/><use xlink:href="#bf" x="621.85" y="250.122"/><use xlink:href="#bc" x="629.222" y="250.122"/><use xlink:href="#bg" x="636.823" y="250.122"/><use xlink:href="#bo" x="640.623" y="250.122"/><use xlink:href="#bp" x="647.852" y="250.122"/><use xlink:href="#bA" x="654.937" y="250.122"/></g><g style="fill:#262626;fill-opacity:1"><use xlink:href="#be" x="660.22" y="250.122"/><use xlink:href="#aV" x="667.545" y="250.122"/></g><g style="fill:#262626;fill-opacity:1"><use xlink:href="#bd" x="672.222" y="250.122"/><use xlink:href="#bB" x="678.804" y="250.122"/></g></svg>