<svg xmlns="http://www.w3.org/2000/svg" xmlns:xlink="http://www.w3.org/1999/xlink" width="857pt" height="185pt" viewBox="0 0 857 185"><defs><symbol id="b" overflow="visible"><path d="M3.156 0 .046-10.469h2.267l2 7.875 2.078-7.875h2.203l2.11 7.875 1.983-7.875h2.235L11.797 0H9.53L7.47-7.812 5.437 0Zm0 0" style="stroke:none"/></symbol><symbol id="c" overflow="visible"><path d="M1.11 0v-7.594h2.062V0Zm1.03-8.578q-.562 0-.874-.281a.97.97 0 0 1-.297-.72q-.002-.434.297-.718c.207-.195.5-.297.875-.297s.66.102.859.297a.96.96 0 0 1 .297.719A1 1 0 0 1 3-8.86c-.2.187-.484.28-.86.28m0 0" style="stroke:none"/></symbol><symbol id="d" overflow="visible"><path d="M1.11 0v-7.594h1.984l.031 1.14q.374-.482 1-.859c.414-.257.957-.39 1.625-.39q1.154 0 1.781.703.64.703.64 2.063V0h-2.03v-4.672q-.001-.404-.125-.719a.95.95 0 0 0-.375-.484q-.252-.17-.657-.172c-.406 0-.761.102-1.062.297a2.9 2.9 0 0 0-.75.688V0Zm0 0" style="stroke:none"/></symbol><symbol id="e" overflow="visible"><path d="M3.719.125q-.861 0-1.547-.422c-.45-.281-.805-.71-1.063-1.297q-.39-.89-.39-2.25 0-1.311.422-2.172c.28-.57.66-1 1.14-1.28a3.2 3.2 0 0 1 1.625-.423q.797 0 1.36.328c.382.22.687.508.906.86v-3.938h2.062V0H6.266l-.094-1.078a3.1 3.1 0 0 1-1 .89q-.598.313-1.453.313m.61-1.562q.639.002 1.109-.36.481-.374.734-.86v-2.218a2.6 2.6 0 0 0-.672-.89 1.58 1.58 0 0 0-1.078-.391q-.766.001-1.188.593-.408.597-.406 1.72 0 1.219.39 1.812.406.596 1.11.594m0 0" style="stroke:none"/></symbol><symbol id="f" overflow="visible"><path d="M4.547.125c-.774 0-1.45-.148-2.031-.453a3.25 3.25 0 0 1-1.328-1.328q-.47-.873-.47-2.11 0-1.263.47-2.14A3.13 3.13 0 0 1 2.516-7.25q.872-.468 2.03-.469 1.172 0 2.032.469c.582.305 1.031.75 1.344 1.344q.482.877.484 2.14-.002 1.237-.484 2.11A3.24 3.24 0 0 1 6.578-.328c-.574.305-1.25.453-2.031.453m0-1.578q.668.002 1.062-.313.388-.31.547-.843.155-.529.157-1.157-.002-.655-.157-1.187a1.7 1.7 0 0 0-.547-.86q-.393-.328-1.062-.328-.657 0-1.031.329-.377.315-.532.859-.157.532-.156 1.187-.002.628.156 1.157.155.533.532.843.375.315 1.03.313m0 0" style="stroke:none"/></symbol><symbol id="g" overflow="visible"><path d="M2.422 0 .032-7.594h2.093l1.453 5.36 1.469-5.36h2.156l1.5 5.36 1.438-5.36h1.953L9.704 0h-2.11L6.062-5.453 4.517 0Zm0 0" style="stroke:none"/></symbol><symbol id="i" overflow="visible"><path d="M4.516.11Q3.45.111 2.578-.298a3.07 3.07 0 0 1-1.36-1.25q-.501-.857-.5-2.219 0-1.34.47-2.218.481-.874 1.343-1.297c.57-.282 1.235-.422 1.985-.422q.948 0 1.734.328.779.314 1.234.953.47.628.47 1.594h-2q-.018-.592-.391-.938c-.25-.226-.602-.343-1.047-.343q-.892.001-1.297.625-.391.61-.39 1.718c0 .48.054.891.171 1.235q.17.516.547.781c.25.18.57.266.969.266q.684 0 1.093-.375.404-.375.422-1.078h1.985q-.018 1.002-.47 1.671-.454.674-1.25 1.032-.784.344-1.78.343m0 0" style="stroke:none"/></symbol><symbol id="j" overflow="visible"><path d="M4.594.14q-1.267 0-2.14-.468a3 3 0 0 1-1.298-1.36Q.718-2.575.72-3.812q0-1.2.422-2.078.433-.873 1.265-1.343.844-.47 2.063-.47c1.133 0 2.023.337 2.672 1q.984.986.984 2.813-.002.095-.016.266-.002.158-.015.234H2.78q.011.533.188 1 .186.47.578.75.404.282 1.047.282.667 0 1.078-.282.406-.294.406-.875H8.11q-.047.892-.5 1.485-.44.597-1.218.89-.767.282-1.797.282M2.797-4.702h3.297q-.035-.78-.485-1.172-.438-.405-1.14-.406-.72 0-1.172.406c-.305.273-.469.664-.5 1.172m0 0" style="stroke:none"/></symbol><symbol id="k" overflow="visible"><path d="M4.344 0C3.57 0 2.973-.086 2.547-.266q-.628-.28-.875-.859-.234-.576-.234-1.516V-6H.172v-1.594h1.266v-1.781h2.046v1.781h1.657V-6H3.484v3.234q-.002.598.172.891.17.281.766.281h.719V0Zm0 0" style="stroke:none"/></symbol><symbol id="l" overflow="visible"><path d="M1.11 0v-7.594h1.968l.047 1.313A2.14 2.14 0 0 1 4-7.313q.593-.375 1.438-.375h.156v1.735H5.39q-.455 0-.875.078-.425.082-.766.281-.344.206-.578.547V0Zm0 0" style="stroke:none"/></symbol><symbol id="m" overflow="visible"><path d="M3.172.125a3.1 3.1 0 0 1-1.203-.234 2.07 2.07 0 0 1-.907-.75Q.719-1.375.72-2.125q-.001-1.044.625-1.578c.414-.352 1-.594 1.75-.719q1.138-.199 2.64-.234v-.39q0-.749-.359-1.016-.344-.282-.906-.282c-.407 0-.746.102-1.016.297q-.391.299-.39.953H1.14q0-.984.422-1.547.42-.561 1.171-.812c.5-.164 1.079-.25 1.735-.25q.714.001 1.312.125.609.112 1.047.406.437.299.672.813c.164.336.25.757.25 1.265V0H5.828l-.062-.984c-.325.367-.7.64-1.125.828q-.644.28-1.47.281m.672-1.406q.591 0 1.078-.297a3 3 0 0 0 .797-.703V-3.5c-1.094 0-1.86.102-2.297.297-.43.2-.64.523-.64.969q-.001.485.296.718.294.235.766.235m0 0" style="stroke:none"/></symbol><symbol id="n" overflow="visible"><path d="M2.75-3.937q-.001 2.719.875 4.484.873 1.765 2.672 2.375l-.188.594Q3.827 2.918 2.61.938C1.805-.383 1.406-1.985 1.406-3.86Q1.404-6.654 2.61-8.641q1.218-1.997 3.5-2.593l.204.593q-1.816.61-2.688 2.344-.877 1.734-.875 4.36m0 0" style="stroke:none"/></symbol><symbol id="o" overflow="visible"><path d="m5.156-10.812-.39 1.906H2.75l.422-1.906ZM3.375-2.453a6 6 0 0 0-.11.515 4 4 0 0 0-.015.391q0 .316.094.438c.07.074.172.109.297.109.144 0 .312-.07.5-.219a5 5 0 0 0 .656-.64l.562.547Q4.609-.53 4-.203a2.76 2.76 0 0 1-1.328.328c-.555 0-.953-.133-1.203-.406Q1.094-.686 1.094-1.5c0-.344.054-.75.172-1.219l.64-2.703q.188-.75.188-1.172c0-.195-.055-.336-.156-.422q-.142-.14-.594-.187l.125-.516 2.265-.078h.891Zm0 0" style="stroke:none"/></symbol><symbol id="p" overflow="visible"><path d="M2.406-1.797c.07.356.11.711.11 1.063q0 .55-.188 1a3.1 3.1 0 0 1-.594.89q-.41.452-1.125.985l-.421-.47Q.574 1.295.75 1C.875.8.96.57 1.016.313q.077-.374.078-.954 0-.592-.047-1.156Zm0 0" style="stroke:none"/></symbol><symbol id="q" overflow="visible"><path d="M5.656-10.812 5.25-8.906H3.234l.422-1.906ZM3.453-.235q-.41 1.92-1.36 2.812-.954.89-2.593.89-.375 0-.75-.093l.219-.844q.222.061.515.063c.23 0 .418-.04.563-.11a1 1 0 0 0 .39-.328q.188-.234.344-.703.155-.456.344-1.281l1.266-5.594q.17-.797.172-1.172 0-.293-.141-.422-.14-.14-.61-.187l.125-.516 2.282-.078h.875Zm0 0" style="stroke:none"/></symbol><symbol id="r" overflow="visible"><path d="M3.86-3.937q-.002-2.626-.876-4.36-.86-1.734-2.687-2.344l.203-.593q2.279.596 3.484 2.593 1.22 1.987 1.22 4.782 0 2.814-1.22 4.797Q2.78 2.918.5 3.516l-.187-.594q1.792-.61 2.671-2.375.874-1.765.875-4.484m0 0" style="stroke:none"/></symbol><symbol id="s" overflow="visible"><path d="m-.703 0 5.266-9.187h2.015L7.922 0H5.984L5.75-2.016H2.438L1.344 0Zm3.937-3.61h2.391l-.406-3.67Zm0 0" style="stroke:none"/></symbol><symbol id="t" overflow="visible"><path d="m.266 0 1.406-6.656h1.766l-.188.968q.421-.419.953-.734.53-.328 1.281-.328.671 0 1.141.328c.32.219.547.54.672.953q.2.611.016 1.485L6.469 0H4.672l.86-4q.121-.622-.079-.969-.206-.341-.687-.343-.518.001-.953.265a4.5 4.5 0 0 0-.797.61L2.063 0Zm0 0" style="stroke:none"/></symbol><symbol id="u" overflow="visible"><path d="m-.437 2.484.296-1.468h.61c.3 0 .554-.055.765-.157q.312-.14.5-.5L1.954 0 .718-6.656h1.828l.672 4.89 2.515-4.89H7.61L3.547.484c-.219.383-.43.704-.625.954q-.281.386-.61.609a2.05 2.05 0 0 1-.765.328 4.2 4.2 0 0 1-1.016.11Zm0 0" style="stroke:none"/></symbol><symbol id="w" overflow="visible"><path d="M2.766 0Q1.78.001 1.28-.25a1.16 1.16 0 0 1-.625-.812Q.546-1.608.734-2.5l1.422-6.687h1.797L2.516-2.423q-.129.535 0 .781.138.235.593.235h.407L3.219 0Zm0 0" style="stroke:none"/></symbol><symbol id="x" overflow="visible"><path d="m.266 0 1.406-6.656h1.812L2.063 0ZM2.89-7.516q-.503.002-.766-.265a.84.84 0 0 1-.266-.625q-.002-.374.266-.625.263-.265.766-.266.498.001.75.266a.83.83 0 0 1 .265.625q-.001.362-.265.625c-.168.18-.418.265-.75.265m0 0" style="stroke:none"/></symbol><symbol id="y" overflow="visible"><path d="M1.719 0 .703-6.656h1.844l.515 4.969 2.672-4.97H7.61L3.766 0Zm0 0" style="stroke:none"/></symbol><symbol id="z" overflow="visible"><path d="M3.594.11q-1.079 0-1.781-.455a2.44 2.44 0 0 1-1-1.281q-.284-.827-.11-1.953c.102-.656.313-1.223.625-1.703a3.1 3.1 0 0 1 1.219-1.094q.762-.388 1.781-.39c.688 0 1.258.156 1.719.468.469.313.789.758.969 1.328q.28.845.062 2H2.391q-.064.47.03.875.107.41.423.656.311.251.875.25.562.001.937-.25.389-.248.532-.765h1.765Q6.64-1.014 5.797-.453q-.833.562-2.203.562m-.985-4.235h2.829q.06-.435-.079-.734a1 1 0 0 0-.406-.485 1.3 1.3 0 0 0-.687-.172q-.659 0-1.094.36-.422.363-.563 1.031m0 0" style="stroke:none"/></symbol><symbol id="A" overflow="visible"><path d="M3.594.125Q2.62.127 1.906-.281A2.5 2.5 0 0 1 .844-1.516Q.498-2.324.704-3.53q.245-1.623 1.218-2.422c.656-.54 1.46-.813 2.422-.813q.902.001 1.547.313.64.316.968.89.34.564.282 1.344H5.39a1.5 1.5 0 0 0-.094-.593.96.96 0 0 0-.375-.454q-.27-.187-.703-.187c-.5 0-.899.187-1.188.562q-.423.563-.578 1.485c-.117.73-.062 1.281.156 1.656q.34.563 1.125.563.591 0 .954-.329.374-.34.484-.968h1.766c-.18.886-.547 1.543-1.11 1.968q-.83.643-2.234.641m0 0" style="stroke:none"/></symbol><symbol id="B" overflow="visible"><path d="M1.406 0 .734-6.656H2.47l.297 4.703 2.28-4.703h1.907L7.25-1.97l2.266-4.687h1.78L7.797 0H5.954l-.328-4.781L3.265 0Zm0 0" style="stroke:none"/></symbol><symbol id="C" overflow="visible"><path d="M3.234 0q-1.02 0-1.546-.281a1.27 1.27 0 0 1-.657-.828c-.086-.375-.062-.844.063-1.407l.578-2.75H.562l.297-1.39h1.11l.328-1.563h1.797l-.328 1.563h1.468l-.296 1.39h-1.47l-.593 2.844q-.112.486.016.75.123.268.593.266h.61L3.812 0Zm0 0" style="stroke:none"/></symbol><symbol id="D" overflow="visible"><path d="m.266 0 1.953-9.187h1.797l-.782 3.5c.29-.282.61-.524.954-.735q.528-.328 1.296-.328.686.002 1.157.344c.32.218.547.539.672.953q.188.61 0 1.437L6.469 0H4.672l.844-4q.139-.622-.079-.969-.205-.341-.734-.343-.315 0-.61.125-.297.128-.577.328a3.6 3.6 0 0 0-.5.422L2.046 0Zm0 0" style="stroke:none"/></symbol><symbol id="E" overflow="visible"><path d="m.453 0 1.125-5.266H.484l.297-1.39h1.094l.031-.219q.14-.654.328-1.094.2-.45.5-.718.31-.264.813-.376.497-.123 1.281-.124h.813l-.297 1.312H4.75c-.344 0-.59.086-.734.25q-.223.236-.328.766l-.047.203h1.453l-.297 1.39H3.39L2.266 0Zm0 0" style="stroke:none"/></symbol><symbol id="F" overflow="visible"><path d="m.266 0 1.406-6.656h1.75L3.203-5.5c.258-.406.563-.71.906-.922q.516-.328 1.266-.328h.25l-.312 1.531H5.14q-.411.002-.797.078-.377.064-.719.235a2.3 2.3 0 0 0-.61.484L2.063 0Zm0 0" style="stroke:none"/></symbol><symbol id="G" overflow="visible"><path d="M2.344.125Q1.669.124 1.188-.141a1.54 1.54 0 0 1-.704-.765Q.261-1.403.391-2.141q.123-.639.515-1.015.405-.389 1.031-.578a7.3 7.3 0 0 1 1.485-.25q.843-.059 1.844-.094l.062-.313q.075-.404-.031-.656a.7.7 0 0 0-.36-.375 1.5 1.5 0 0 0-.578-.11c-.367 0-.683.087-.953.25q-.408.252-.5.813H1.203q.187-1.217 1.047-1.75.855-.546 2.203-.547.621.002 1.156.157.53.14.907.468.375.331.515.86.14.533-.031 1.312L6.172 0H4.5l.125-.86a3.7 3.7 0 0 1-.984.735q-.535.248-1.297.25M3-1.125q.405.001.75-.156.358-.171.64-.407.281-.233.438-.437l.219-.953q-1.471.018-2.14.234-.657.207-.75.781c-.055.293 0 .524.155.688.157.168.383.25.688.25m0 0" style="stroke:none"/></symbol><symbol id="H" overflow="visible"><path d="M3.61.125q-1.08 0-1.813-.469A2.47 2.47 0 0 1 .766-1.656q-.3-.856-.047-2.047Q1.029-5.201 2-5.984q.967-.781 2.39-.782c.72 0 1.32.157 1.813.47q.732.468 1.031 1.343.294.862.047 2.047c-.21 1-.636 1.758-1.281 2.265q-.956.767-2.39.766m.124-1.312q.762.001 1.172-.532.404-.546.578-1.39.14-.593.079-1.125-.065-.547-.375-.875-.298-.342-.907-.344-.516.001-.875.266-.346.252-.562.687a4.2 4.2 0 0 0-.344 1c-.094.406-.117.79-.062 1.14q.075.517.374.844.313.33.922.329m0 0" style="stroke:none"/></symbol><symbol id="I" overflow="visible"><path d="M2.563 2.578q-1.175 0-1.844-.281-.673-.27-.906-.703A1.3 1.3 0 0 1-.36.704Q-.266.14.344-.235q.623-.374 1.812-.532l.375-.64h.938c1.101 0 1.875.18 2.312.531q.668.518.516 1.469-.175.903-1.125 1.437-.938.547-2.61.547m.14-1.14q.89 0 1.328-.235.436-.234.485-.562a.55.55 0 0 0-.078-.39c-.062-.094-.195-.172-.39-.234a3 3 0 0 0-.781-.078H2.063q-.284.107-.485.296a.8.8 0 0 0-.234.407q-.049.311.25.547c.207.164.578.25 1.11.25M2.078-.157q-.69-.076-1.094-.28-.41-.219-.562-.5a.96.96 0 0 1-.11-.61q.06-.356.422-.625.358-.278 1.032-.5l.89.344q-.376.081-.64.203-.251.127-.297.313-.035.126.093.218.124.095.47.14a8 8 0 0 0 .984.048Zm1.328-1.969q-.955 0-1.578-.328-.61-.329-.86-.89a2.02 2.02 0 0 1-.124-1.235c.07-.383.234-.738.484-1.063q.375-.498 1.031-.796.657-.295 1.594-.297 1.435 0 2.078.703.64.69.453 1.734A2.6 2.6 0 0 1 6-3.219q-.375.486-1.031.797-.644.298-1.563.297m.078-1.078q.516 0 .86-.297.357-.311.468-.875.123-.669-.171-.969-.3-.311-.797-.312-.517 0-.875.312-.346.299-.453.86-.083.438.046.718a.86.86 0 0 0 .376.422q.264.14.546.14m2.282-2.5-.407-.703a2.11 2.11 0 0 1 1.39-1.125c.302-.07.63-.11.985-.11l-.218 1.313q-.582.002-1.016.11-.441.11-.734.515m0 0" style="stroke:none"/></symbol><symbol id="J" overflow="visible"><path d="M4.313.125Q3.607.124 3.077-.141a2.2 2.2 0 0 1-.828-.78L1.984 0H.266l1.953-9.187h1.797L3.28-5.75q.374-.421.875-.719c.344-.195.766-.297 1.266-.297q.808.001 1.36.454.544.44.75 1.296.198.844-.048 2.063Q7.14-1.388 6.297-.625q-.847.75-1.984.75M4.077-1.25q.591.001 1-.484.405-.496.61-1.47.233-1.075-.032-1.624-.269-.563-.906-.563-.394.001-.734.172-.345.159-.61.422c-.18.18-.328.36-.453.547l-.375 1.922q.153.456.563.765.405.315.937.313m0 0" style="stroke:none"/></symbol><symbol id="K" overflow="visible"><path d="M3.234.125q-.879 0-1.546-.234Q1.015-.343.64-.83C.397-1.161.296-1.58.327-2.08H2q-.001.55.344.782.34.234.937.234c.32 0 .578-.054.766-.171q.28-.17.344-.47a.58.58 0 0 0-.063-.421q-.095-.186-.406-.344a10 10 0 0 0-.89-.36c-.75-.25-1.29-.562-1.61-.937Q.95-4.34 1.125-5.203q.153-.763.89-1.156.748-.406 1.907-.407c.55 0 1.035.086 1.453.25q.639.253.984.735c.227.312.329.695.297 1.14H4.984q.014-.45-.265-.687c-.188-.164-.477-.25-.86-.25q-.41.001-.656.125a.52.52 0 0 0-.297.375q-.064.329.281.547.342.203 1.282.531 1.077.361 1.468.922.406.55.266 1.36a1.94 1.94 0 0 1-.86 1.359q-.72.485-2.109.484m0 0" style="stroke:none"/></symbol><symbol id="L" overflow="visible"><path d="M2.766.125q-.798 0-1.36-.437c-.367-.29-.617-.72-.75-1.282Q.468-2.438.72-3.656q.329-1.56 1.172-2.328a2.83 2.83 0 0 1 1.984-.782c.457 0 .863.102 1.219.297q.527.283.843.782l.75-3.5H8.47L6.516 0H4.813l.093-.89a2.8 2.8 0 0 1-.89.734q-.517.28-1.25.281m.672-1.375q.405.002.734-.172.34-.17.61-.422.28-.265.468-.547l.375-1.906a1.7 1.7 0 0 0-.344-.547 1.7 1.7 0 0 0-.515-.39 1.4 1.4 0 0 0-.641-.157q-.626.001-1.047.5-.41.503-.61 1.47-.157.721-.093 1.202.059.487.328.735c.188.156.43.234.735.234m0 0" style="stroke:none"/></symbol><symbol id="M" overflow="visible"><path d="M-.234 0 .03-1.25l3.86-2.969q.497-.387.812-.703.327-.327.5-.625.17-.312.234-.64.094-.53-.14-.907-.223-.375-.844-.375c-.46 0-.82.133-1.078.39q-.376.396-.5 1.157H1.141q.232-1.546 1.109-2.344.874-.795 2.375-.796.984.002 1.64.39.657.394.938 1.063.28.672.11 1.562a3.05 3.05 0 0 1-.516 1.14 5 5 0 0 1-.906.97q-.534.456-1.172.937L2.75-1.531h3.86L6.265 0Zm0 0" style="stroke:none"/></symbol><symbol id="N" overflow="visible"><path d="m-.031 2.11-.063-.891q.497-.143.86-.438.373-.299.547-.781l.078.094C1.035.082.773-.04.609-.281Q.357-.64.484-1.187A1.23 1.23 0 0 1 .86-1.86c.196-.176.454-.266.766-.266q.622 0 .922.469.31.456.14 1.312-.175.78-.624 1.281a3 3 0 0 1-1 .782 4.6 4.6 0 0 1-1.094.39m0 0" style="stroke:none"/></symbol><symbol id="O" overflow="visible"><path d="M2.61.094q-.676 0-1.157-.344a1.75 1.75 0 0 1-.672-.953c-.125-.414-.133-.914-.015-1.5l.843-3.953h1.829l-.86 4q-.142.628.063.969.216.327.75.328.326.001.625-.125.292-.123.562-.328a5 5 0 0 0 .531-.438l.922-4.406h1.797L6.422 0h-1.75l.172-1a6 6 0 0 1-.61.531q-.315.253-.718.407a2.6 2.6 0 0 1-.907.156m0 0" style="stroke:none"/></symbol><symbol id="P" overflow="visible"><path d="m.266 0 1.406-6.656h1.766l-.188.968q.422-.419.938-.734.528-.328 1.28-.328.688.002 1.157.344.469.327.656.937.187.612.016 1.422L6.437 0H4.626l.86-4q.139-.622-.079-.969-.204-.341-.718-.343-.488.001-.891.265a4.7 4.7 0 0 0-.781.61L2.063 0Zm8.75 0 .843-4q.14-.622-.078-.969-.204-.341-.703-.343c-.219 0-.43.042-.625.125q-.298.128-.578.328a7 7 0 0 0-.547.437l-.14-1.047a5.7 5.7 0 0 1 1.234-.922q.655-.358 1.422-.359c.445 0 .828.117 1.14.344.32.218.547.531.672.937q.2.612.016 1.422L10.797 0Zm0 0" style="stroke:none"/></symbol><symbol id="Q" overflow="visible"><path d="M3.328.11q-1.502 0-2.312-.72-.814-.715-.657-2.187h1.704c-.024.45.078.805.296 1.063.22.25.57.375 1.063.375q.64 0 1.015-.282c.25-.195.407-.5.47-.906q.12-.715-.266-1.062c-.25-.239-.586-.36-1-.36h-.578l.218-1.406h.61q.67 0 1.093-.297c.282-.195.446-.469.5-.812q.078-.498-.203-.797-.28-.295-.843-.297-.645 0-1.032.328-.376.33-.453.906H1.25q.218-1.371 1.063-2.047.855-.67 2.25-.671.81.002 1.468.296.671.301 1 .875.341.563.219 1.391-.13.72-.656 1.188c-.344.304-.79.507-1.328.609q.497.11.859.437.373.315.547.829.186.503.062 1.171c-.125.774-.48 1.36-1.062 1.766q-.879.61-2.344.61m0 0" style="stroke:none"/></symbol><symbol id="R" overflow="visible"><path d="M1.422 0v-11.906h7.984v2.062h-5.5v2.766h4.985v2H3.906v3.016h5.5V0Zm0 0" style="stroke:none"/></symbol><symbol id="S" overflow="visible"><path d="M3.14 0 0-8.625h2.438l2.03 6.438 2.095-6.438h2.375L5.812 0Zm0 0" style="stroke:none"/></symbol><symbol id="T" overflow="visible"><path d="M5.172.14Q3.86.14 2.875-.374A3.74 3.74 0 0 1 1.344-1.89Q.81-2.875.812-4.28q-.001-1.436.532-2.438A3.6 3.6 0 0 1 2.875-8.25q.984-.53 2.297-.531c.883 0 1.656.18 2.312.531a3.64 3.64 0 0 1 1.532 1.531q.546 1.002.547 2.438-.001 1.406-.547 2.39A3.76 3.76 0 0 1 7.484-.375c-.656.344-1.43.516-2.312.516m0-1.78q.763.002 1.203-.36.436-.357.625-.953.188-.609.188-1.328 0-.75-.188-1.36a2 2 0 0 0-.625-.968q-.44-.375-1.203-.375c-.5 0-.899.125-1.188.375a2.03 2.03 0 0 0-.609.968q-.174.61-.172 1.36-.002.72.172 1.328.187.597.61.953c.288.242.687.36 1.187.36m0 0" style="stroke:none"/></symbol><symbol id="U" overflow="visible"><path d="M4.484 0Q3.17.002 2.454-.312q-.72-.312-1-.97Q1.171-1.95 1.171-3v-8.906h2.344v8.765c0 .45.054.782.172 1q.185.315.874.313h.547V0Zm0 0" style="stroke:none"/></symbol><symbol id="V" overflow="visible"><path d="M3.922.11c-.875 0-1.555-.266-2.031-.797Q1.17-1.498 1.17-3v-5.625h2.345v5.344q-.002.44.125.781.139.344.437.531.294.188.781.188c.47 0 .868-.102 1.204-.313q.499-.309.875-.765v-5.766H9.28V0H7.016l-.032-1.297q-.438.55-1.187.984-.75.423-1.875.422m0 0" style="stroke:none"/></symbol><symbol id="W" overflow="visible"><path d="M4.938 0q-1.3.002-2.032-.312-.719-.312-1-.97Q1.626-1.95 1.625-3v-3.828H.188v-1.797h1.437v-2.031h2.344v2.031h1.89v1.797H3.97v3.687q0 .674.187 1 .186.33.86.329h.843V0Zm0 0" style="stroke:none"/></symbol><symbol id="X" overflow="visible"><path d="M1.25 0v-8.625h2.344V0Zm1.188-9.766c-.438 0-.774-.109-1-.328a1.1 1.1 0 0 1-.329-.812c0-.32.11-.594.329-.813.226-.219.562-.328 1-.328q.637 0 .984.328c.226.219.344.492.344.813 0 .324-.118.594-.344.812q-.345.328-.985.328m0 0" style="stroke:none"/></symbol><symbol id="Y" overflow="visible"><path d="M1.25 0v-8.625h2.266l.03 1.281a4.2 4.2 0 0 1 1.142-.968q.716-.436 1.843-.438 1.326 0 2.047.797.717.796.719 2.344V0H6.984v-5.312q0-.469-.14-.813a1.05 1.05 0 0 0-.422-.547q-.282-.201-.75-.203-.704 0-1.203.328a3.7 3.7 0 0 0-.875.797V0Zm0 0" style="stroke:none"/></symbol><symbol id="Z" overflow="visible"><path d="M2.922 3.094A26 26 0 0 1 1.75.672a12 12 0 0 1-.734-2.328 12.8 12.8 0 0 1-.25-2.625c0-.969.078-1.867.234-2.703.156-.844.39-1.664.703-2.47a20 20 0 0 1 1.219-2.515H4.89a16.2 16.2 0 0 0-1.438 3.781 16.6 16.6 0 0 0-.484 4q0 1.923.515 3.782.527 1.858 1.407 3.5Zm0 0" style="stroke:none"/></symbol><symbol id="aa" overflow="visible"><path d="M3.61.156q-.738 0-1.376-.281a2.47 2.47 0 0 1-1.03-.86C.94-1.366.812-1.843.812-2.405q-.001-1.2.718-1.797.716-.607 2-.828 1.278-.216 3-.25v-.469q0-.842-.406-1.14-.409-.313-1.047-.313-.69 0-1.14.328-.456.328-.454 1.078H1.297q0-1.106.469-1.75.482-.656 1.343-.937.855-.282 1.97-.282.825 0 1.5.141.683.143 1.187.484.497.331.765.907.282.58.281 1.437V0H6.626l-.078-1.125a3.7 3.7 0 0 1-1.281.953q-.72.328-1.657.328m.765-1.61q.668.002 1.219-.343.562-.357.906-.797v-1.39q-1.861.002-2.61.343-.736.346-.734 1.11 0 .55.344.812c.227.18.52.266.875.266m0 0" style="stroke:none"/></symbol><symbol id="ab" overflow="visible"><path d="M1.25 3.172V-8.625h2.219l.125 1.313q.481-.704 1.156-1.079.668-.375 1.594-.375.996.002 1.781.485.779.487 1.234 1.484.453.984.454 2.531c0 1-.165 1.825-.485 2.47q-.487.971-1.312 1.468-.814.485-1.844.484-.844.013-1.5-.343a3 3 0 0 1-1.078-.985v4.344Zm4.344-4.813q.874.001 1.343-.671.47-.686.47-1.97c0-.913-.15-1.593-.438-2.03q-.439-.67-1.188-.672-.798 0-1.375.453-.564.44-.812.968v2.547q.28.564.797.97c.343.273.742.405 1.203.405m0 0" style="stroke:none"/></symbol><symbol id="ac" overflow="visible"><path d="M5.219.156q-1.44 0-2.422-.531a3.54 3.54 0 0 1-1.485-1.531Q.812-2.92.813-4.344q-.001-1.373.485-2.36A3.5 3.5 0 0 1 2.75-8.218q.95-.546 2.328-.547 1.935 0 3.047 1.125Q9.25-6.515 9.25-4.42q-.002.109-.016.296-.002.173-.015.266H3.156c.008.406.082.789.219 1.14q.217.532.656.86.45.327 1.188.328.762 0 1.218-.328c.313-.227.473-.563.485-1h2.297q-.047 1.02-.563 1.687-.503.673-1.375 1-.879.328-2.062.328m-2.032-5.5h3.735c-.024-.601-.203-1.05-.547-1.343q-.502-.453-1.297-.454-.813 0-1.328.47-.516.455-.562 1.327m0 0" style="stroke:none"/></symbol><symbol id="ad" overflow="visible"><path d="M4.234.156Q3.25.157 2.47-.328q-.77-.498-1.22-1.5C.957-2.492.813-3.344.813-4.375c0-1 .16-1.82.484-2.469q.481-.968 1.297-1.437a3.64 3.64 0 0 1 1.86-.485c.593 0 1.1.125 1.53.375a2.74 2.74 0 0 1 1.032.97v-4.485h2.343V0H7.125l-.11-1.234c-.304.43-.683.765-1.14 1.015Q5.2.156 4.235.156m.688-1.797c.488 0 .91-.132 1.266-.406q.545-.422.828-.984v-2.516a3.1 3.1 0 0 0-.766-1.016A1.8 1.8 0 0 0 5.031-7c-.574 0-1.023.227-1.343.672q-.486.675-.485 1.953-.002 1.394.453 2.063.47.672 1.266.671m0 0" style="stroke:none"/></symbol><symbol id="ae" overflow="visible"><path d="M5.125.125c-.805 0-1.531-.148-2.187-.453A3.56 3.56 0 0 1 1.39-1.766Q.81-2.733.813-4.28q-.002-1.531.546-2.516A3.47 3.47 0 0 1 2.875-8.28c.656-.32 1.406-.485 2.25-.485q1.092 0 1.984.375.891.364 1.407 1.079.515.72.53 1.812h-2.28q-.017-.655-.438-1.047c-.281-.27-.68-.406-1.187-.406-.68 0-1.172.234-1.485.703q-.454.703-.453 1.969 0 .831.203 1.406.202.58.625.89.435.299 1.11.298.779 0 1.234-.422.449-.434.484-1.22h2.266c-.023.75-.203 1.384-.547 1.892a3.3 3.3 0 0 1-1.406 1.17Q6.28.126 5.125.125m0 0" style="stroke:none"/></symbol><symbol id="af" overflow="visible"><path d="M1.25 0v-8.625H3.5l.047 1.484c.219-.507.55-.906 1-1.187q.668-.422 1.64-.422h.172v1.984h-.218q-.535 0-1.016.094a2.5 2.5 0 0 0-.86.313 2.04 2.04 0 0 0-.671.625V0Zm0 0" style="stroke:none"/></symbol><symbol id="ag" overflow="visible"><path d="M4.719.156q-.72 0-1.407-.14a3.9 3.9 0 0 1-1.25-.438 2.5 2.5 0 0 1-.874-.875Q.857-1.86.859-2.703h2.172q-.002.736.5 1.015c.344.188.742.282 1.203.282.446 0 .79-.07 1.032-.219q.375-.218.375-.734c0-.32-.149-.563-.438-.72q-.44-.232-1.531-.483a9.3 9.3 0 0 1-1.64-.532q-.721-.31-1.126-.843Q.998-5.466 1-6.328c0-.445.102-.828.313-1.14a2.3 2.3 0 0 1 .828-.75q.513-.28 1.156-.407.654-.14 1.344-.14.655 0 1.28.14.64.128 1.157.438c.344.21.617.492.828.843q.312.533.313 1.328H6.047q0-.669-.422-.921a1.8 1.8 0 0 0-.984-.266q-.628 0-.97.187-.344.175-.343.579c0 .156.07.296.219.421q.216.176.703.329c.32.105.75.218 1.281.343a7 7 0 0 1 1.5.5q.67.315 1.063.828.389.516.39 1.36 0 .767-.312 1.312a2.45 2.45 0 0 1-.844.875A3.8 3.8 0 0 1 6.125 0Q5.45.154 4.719.156m0 0" style="stroke:none"/></symbol><symbol id="am" overflow="visible"><path d="M.422 3.094A17 17 0 0 0 1.844-.672c.32-1.32.484-2.664.484-4.031 0-1.281-.18-2.535-.531-3.766a18 18 0 0 0-1.375-3.5h1.953a26 26 0 0 1 1.156 2.406q.482 1.143.735 2.344c.175.805.265 1.672.265 2.61q0 1.469-.234 2.734A13 13 0 0 1 3.578.578Q3.091 1.78 2.375 3.094Zm0 0" style="stroke:none"/></symbol><symbol id="aN" overflow="visible"><path d="M6.672.156c-1.2 0-2.234-.25-3.11-.75a5.15 5.15 0 0 1-2-2.125Q.875-4.076.876-5.937q-.002-1.858.688-3.235c.468-.914 1.132-1.625 2-2.125q1.31-.764 3.109-.765 1.406.002 2.578.484a4.63 4.63 0 0 1 1.906 1.422q.732.938.813 2.328H9.422q-.11-.733-.485-1.203a2.3 2.3 0 0 0-.953-.719 3.5 3.5 0 0 0-1.312-.234q-1.161 0-1.875.562-.72.563-1.047 1.485-.313.909-.312 2c0 .718.101 1.386.312 2A3.2 3.2 0 0 0 4.797-2.47q.714.563 1.875.563c.82 0 1.469-.207 1.937-.625q.716-.64.829-1.813h2.546q-.113 1.471-.78 2.469Q10.545-.874 9.39-.359 8.249.156 6.67.156m0 0" style="stroke:none"/></symbol><symbol id="aO" overflow="visible"><path d="M2.75 0 .031-8.625h2.375l1.672 6.094 1.656-6.094h2.47L9.89-2.547l1.64-6.078h2.219L11.031 0h-2.39L6.89-6.203 5.14 0Zm0 0" style="stroke:none"/></symbol><symbol id="aP" overflow="visible"><path d="M1.016 3.172V1.266h.765q.529 0 .875-.188.34-.187.516-.61L3.359 0 0-8.625h2.438L4.624-2.25l1.938-6.375h2.375L5.844 0l-.328.86q-.33.901-.782 1.406a2.2 2.2 0 0 1-1.078.703q-.644.201-1.594.203Zm0 0" style="stroke:none"/></symbol><symbol id="aQ" overflow="visible"><path d="m1.422-6.594-.313-1.14c.414-.145.75-.344 1-.594q.387-.374.47-1l.14.125q-.674.002-1.094-.406a1.42 1.42 0 0 1-.406-1.032q-.002-.639.406-1.03.421-.39 1.094-.392.667 0 1.078.47c.281.312.422.773.422 1.374q0 1.08-.422 1.844-.41.75-1.047 1.203-.644.438-1.328.578m0 0" style="stroke:none"/></symbol><symbol id="ah" overflow="visible"><path d="M3.125-4.469q0 3.095.984 5.094.996 2.015 3.047 2.688L6.938 4q-2.597-.688-3.97-2.937-1.375-2.25-1.374-5.454-.001-3.187 1.375-5.437 1.39-2.262 3.969-2.953l.25.687q-2.082.675-3.079 2.656-.984 1.97-.984 4.97m0 0" style="stroke:none"/></symbol><symbol id="ai" overflow="visible"><path d="m5.875-12.297-.469 2.156H3.125l.484-2.156ZM3.844-2.78q-.081.377-.11.578c-.023.137-.03.289-.03.453q-.002.344.108.484c.07.086.18.125.329.125q.246 0 .562-.234.328-.246.766-.75l.625.64q-.861.891-1.547 1.266-.691.36-1.5.36c-.625 0-1.086-.149-1.375-.453q-.439-.467-.438-1.391 0-.594.204-1.39l.734-3.079q.201-.843.203-1.328-.001-.342-.172-.484-.157-.155-.672-.203l.125-.579 2.594-.109h1.016Zm0 0" style="stroke:none"/></symbol><symbol id="aj" overflow="visible"><path d="M2.734-2.047q.124.61.125 1.219-.001.609-.218 1.125-.205.514-.672 1.016-.471.515-1.281 1.125l-.47-.532c.29-.281.505-.539.641-.765.133-.23.235-.493.297-.782.063-.293.094-.648.094-1.078q-.002-.67-.062-1.328Zm0 0" style="stroke:none"/></symbol><symbol id="ak" overflow="visible"><path d="m6.422-12.297-.453 2.156H3.672l.5-2.156ZM3.938-.28c-.325 1.469-.844 2.539-1.563 3.219Q1.297 3.952-.578 3.952q-.404-.002-.844-.11l.25-.968q.251.062.578.063c.274 0 .492-.04.657-.11q.247-.112.453-.375.198-.27.375-.797c.113-.343.242-.836.39-1.468l1.438-6.36c.133-.601.203-1.047.203-1.328q-.001-.342-.172-.484-.159-.155-.687-.203l.14-.579 2.594-.109h1Zm0 0" style="stroke:none"/></symbol><symbol id="al" overflow="visible"><path d="M4.39-4.469q-.001-3-1-4.968-.984-1.982-3.046-2.657l.234-.687q2.577.69 3.953 2.953 1.39 2.25 1.39 5.437-.002 3.205-1.374 5.454C3.629 2.563 2.305 3.539.578 4L.36 3.313Q2.405 2.639 3.391.624c.664-1.332 1-3.031 1-5.094m0 0" style="stroke:none"/></symbol><symbol id="an" overflow="visible"><path d="M4.344.125q-1.208 0-2.016-.437a2.86 2.86 0 0 1-1.234-1.282Q.67-2.437.672-3.609q-.002-1.138.406-1.953.406-.826 1.203-1.266.796-.452 1.938-.453 1.605 0 2.531.937.938.938.938 2.672c0 .063-.008.149-.016.25q-.002.142-.016.219H2.625q.011.503.188.953.17.44.546.703c.25.18.579.266.985.266.414 0 .75-.086 1-.266.258-.187.394-.46.406-.828h1.906q-.033.844-.453 1.406c-.281.367-.668.64-1.156.828Q5.31.124 4.344.125M2.64-4.437h3.11q-.017-.748-.437-1.11-.425-.375-1.094-.375-.675 0-1.11.375-.42.376-.468 1.11m0 0" style="stroke:none"/></symbol><symbol id="ao" overflow="visible"><path d="M2.61 0 0-7.172h2.031l1.688 5.36 1.734-5.36h1.969L4.828 0Zm0 0" style="stroke:none"/></symbol><symbol id="ap" overflow="visible"><path d="M4.297.125Q3.2.125 2.39-.312a3.07 3.07 0 0 1-1.266-1.25c-.305-.551-.453-1.22-.453-2 0-.79.148-1.461.453-2.016q.45-.843 1.266-1.281.809-.437 1.906-.438c.738 0 1.379.149 1.922.438q.808.438 1.265 1.28.47.833.47 2.016 0 1.174-.47 2-.456.816-1.265 1.25-.815.439-1.922.438m0-1.484q.638 0 1-.297.375-.31.516-.797c.101-.332.156-.703.156-1.11q-.002-.621-.157-1.124a1.5 1.5 0 0 0-.515-.797q-.362-.312-1-.313-.627.001-.984.313-.362.298-.5.797-.141.502-.141 1.125 0 .61.14 1.109.139.486.5.797.358.298.985.297m0 0" style="stroke:none"/></symbol><symbol id="aq" overflow="visible"><path d="M3.734 0Q2.64.001 2.047-.25c-.399-.176-.672-.445-.828-.812Q.984-1.608.984-2.5v-7.39h1.938v7.28q0 .564.14.829c.102.18.348.265.735.265h.437V0Zm0 0" style="stroke:none"/></symbol><symbol id="ar" overflow="visible"><path d="M1.047 0v-7.172h1.937V0Zm.969-8.11c-.356 0-.625-.085-.813-.265a.93.93 0 0 1-.281-.687.9.9 0 0 1 .281-.672q.28-.265.813-.266.545.001.828.266a.9.9 0 0 1 .281.672q0 .408-.281.687-.283.268-.828.266m0 0" style="stroke:none"/></symbol><symbol id="as" overflow="visible"><path d="M1.047 0v-7.172h1.875l.031 1.078q.356-.467.938-.828.592-.359 1.53-.36c.74 0 1.306.227 1.704.673q.61.672.61 1.937V0H5.796v-4.422c0-.258-.04-.484-.11-.672a.9.9 0 0 0-.359-.453q-.236-.17-.625-.172-.58 0-1 .282a3.1 3.1 0 0 0-.719.656V0Zm0 0" style="stroke:none"/></symbol><symbol id="at" overflow="visible"><path d="M3.86 2.766Q2.574 2.765 1.812 2.5q-.75-.27-1.079-.703A1.47 1.47 0 0 1 .406.875q0-.61.578-1.062.576-.452 1.844-.641l.313-.688h.968q1.795.001 2.61.5.81.487.812 1.5 0 1.014-.937 1.641c-.625.426-1.54.64-2.735.64m-.032-1.22q.982 0 1.39-.265.406-.251.407-.61a.62.62 0 0 0-.14-.405q-.14-.158-.47-.25a3.7 3.7 0 0 0-.843-.078H2.859q-.28.106-.468.312a.68.68 0 0 0-.172.469q0 .293.375.562.374.265 1.234.266M2.844-.155c-.512-.063-.93-.164-1.25-.313q-.47-.234-.688-.515a.97.97 0 0 1-.219-.594q0-.435.329-.75c.226-.207.578-.39 1.047-.547l1.015.36q-.409.093-.672.234c-.18.094-.265.203-.265.328q-.002.143.156.25.17.094.562.14.387.048 1.079.047Zm.89-2.125q-.971 0-1.656-.344-.69-.342-1.047-.906a2.36 2.36 0 0 1-.343-1.235c0-.457.117-.875.359-1.25q.356-.561 1.047-.906c.457-.226 1.02-.344 1.687-.344.676 0 1.239.118 1.688.344q.67.344 1 .906.341.564.343 1.25-.002.676-.343 1.25c-.23.375-.574.68-1.032.907q-.672.328-1.703.328m0-1.172q.544 0 .907-.328.358-.34.359-.985-.002-.669-.344-1-.328-.328-.875-.328-.55.002-.906.344-.362.329-.36.984-.002.657.36.985.374.328.86.328m2.047-2.719-.578-.734q.293-.75.89-1.032.594-.28 1.438-.296v1.422q-.564.002-1.047.109-.468.11-.703.531m0 0" style="stroke:none"/></symbol><symbol id="av" overflow="visible"><path d="M5.547.125Q4.047.126 2.969-.5a4.16 4.16 0 0 1-1.656-1.75Q.733-3.389.734-4.937q0-1.546.579-2.688a4.2 4.2 0 0 1 1.656-1.766c.719-.414 1.578-.625 2.578-.625q1.153.001 2.125.407a3.73 3.73 0 0 1 1.594 1.172q.608.785.672 1.921h-2.11q-.081-.591-.39-.984a1.85 1.85 0 0 0-.797-.594 2.9 2.9 0 0 0-1.094-.203q-.972 0-1.563.469a2.6 2.6 0 0 0-.859 1.234c-.18.5-.266 1.055-.266 1.657 0 .593.086 1.148.266 1.656q.262.766.86 1.234c.394.305.913.453 1.562.453q1.012 0 1.61-.515.592-.528.687-1.5h2.11q-.095 1.22-.642 2.047a3.5 3.5 0 0 1-1.5 1.265Q6.86.125 5.547.125m0 0" style="stroke:none"/></symbol><symbol id="aw" overflow="visible"><path d="M2.281 0 .031-7.172H2l1.39 5.063 1.376-5.063h2.047l1.406 5.063 1.36-5.063h1.843L9.172 0h-2L5.734-5.156 4.266 0Zm0 0" style="stroke:none"/></symbol><symbol id="ax" overflow="visible"><path d="M3 .125c-.406 0-.79-.078-1.14-.234A2 2 0 0 1 1-.812C.781-1.132.672-1.532.672-2c0-.664.195-1.164.594-1.5q.59-.497 1.656-.672c.719-.125 1.55-.195 2.5-.219v-.39q-.002-.686-.344-.938-.33-.264-.86-.265-.578 0-.952.28-.375.27-.375.891H1.078q0-.92.39-1.453.406-.546 1.11-.78.716-.235 1.64-.235.688.001 1.25.125.576.11.985.39.42.27.64.75.235.488.235 1.204V0H5.5l-.062-.937a2.9 2.9 0 0 1-1.063.796A3.4 3.4 0 0 1 3 .125m.64-1.344q.547 0 1.016-.281a2.6 2.6 0 0 0 .75-.656v-1.156c-1.031 0-1.758.101-2.172.296q-.609.284-.609.907 0 .455.281.672c.188.148.43.218.735.218m0 0" style="stroke:none"/></symbol><symbol id="ay" overflow="visible"><path d="M.844 2.625V1.047h.64c.29 0 .532-.055.72-.156a.9.9 0 0 0 .421-.5L2.797 0 0-7.172h2.031l1.813 5.313 1.61-5.313h1.968L4.844 0l-.266.719c-.18.5-.39.89-.64 1.172a1.85 1.85 0 0 1-.907.578c-.355.101-.793.156-1.312.156Zm0 0" style="stroke:none"/></symbol><symbol id="az" overflow="visible"><path d="m1.172-5.484-.25-.938q.527-.185.844-.5.31-.311.375-.828l.125.11q-.564 0-.922-.344A1.2 1.2 0 0 1 1-8.844q-.001-.528.344-.86.358-.327.922-.327c.375 0 .672.133.89.39q.342.394.344 1.157c0 .593-.117 1.101-.344 1.515q-.329.626-.875 1-.533.377-1.11.485m0 0" style="stroke:none"/></symbol><symbol id="aA" overflow="visible"><path d="M3.922.125c-.399 0-.79-.04-1.172-.11a3.3 3.3 0 0 1-1.031-.374 1.9 1.9 0 0 1-.735-.72C.804-1.39.72-1.772.72-2.233h1.797q0 .596.422.828.42.234 1 .234.543.002.859-.172.311-.187.312-.61 0-.405-.375-.593-.363-.2-1.265-.406a8 8 0 0 1-1.375-.453q-.598-.264-.938-.703Q.83-4.545.828-5.25q-.001-.561.25-.953.264-.389.688-.625.435-.233.968-.344c.364-.07.735-.11 1.11-.11s.734.04 1.078.11c.351.074.672.2.953.375q.436.253.688.688.264.44.265 1.109H5.016q0-.543-.36-.766-.344-.217-.812-.218-.504.002-.797.156-.281.143-.281.484c0 .125.054.242.172.344q.185.159.593.281.406.129 1.063.282.7.158 1.25.421.56.253.875.688.328.422.328 1.11-.001.657-.266 1.109a2.1 2.1 0 0 1-.687.718 3.2 3.2 0 0 1-1 .391 5.5 5.5 0 0 1-1.172.125m0 0" style="stroke:none"/></symbol><symbol id="aK" overflow="visible"><path d="M1.36 0v-5.672H.155v-1.5H1.36v-.234q-.001-.64.125-1.11.123-.482.422-.78c.207-.196.489-.345.844-.438q.528-.155 1.36-.157h.702v1.407h-.64q-.564.001-.719.265-.157.251-.156.813v.234h1.531v1.5H3.297V0Zm0 0" style="stroke:none"/></symbol><symbol id="aL" overflow="visible"><path d="M1.047 0v-7.172h1.86l.046 1.25q.265-.655.828-1c.375-.226.828-.344 1.36-.344h.14v1.641h-.187q-.424 0-.828.078c-.262.055-.5.14-.72.266a1.8 1.8 0 0 0-.562.515V0Zm0 0" style="stroke:none"/></symbol><symbol id="aM" overflow="visible"><path d="M3.516.125a2.63 2.63 0 0 1-1.453-.406c-.43-.27-.766-.68-1.016-1.235Q.672-2.34.672-3.64q-.002-1.232.406-2.046.405-.81 1.078-1.204c.457-.257.973-.39 1.547-.39q.732 0 1.266.312.543.3.86.797V-9.89H7.78V0H5.92l-.093-1.016q-.377.517-.953.829-.562.311-1.36.312m.562-1.484q.622 0 1.063-.344.45-.342.687-.813v-2.093a2.5 2.5 0 0 0-.64-.844 1.47 1.47 0 0 0-1-.36q-.74 0-1.125.563-.392.564-.391 1.61 0 1.17.375 1.734.375.549 1.031.547m0 0" style="stroke:none"/></symbol><symbol id="aB" overflow="visible"><path d="M5.156.14c-.98 0-1.808-.21-2.484-.64q-1.02-.654-1.453-1.844-.424-1.2-.172-2.828.234-1.435.937-2.531a4.9 4.9 0 0 1 1.86-1.703c.77-.414 1.687-.625 2.75-.625.5 0 .976.074 1.437.219q.701.203 1.25.624c.375.274.664.622.875 1.047q.328.628.328 1.485H8.36a1.8 1.8 0 0 0-.234-.844 1.47 1.47 0 0 0-.656-.578q-.44-.218-1.11-.219-.985 0-1.656.469a3.3 3.3 0 0 0-1.047 1.203A5.3 5.3 0 0 0 3.125-5q-.157.939 0 1.719.17.766.703 1.234.543.47 1.516.469.715.001 1.25-.25.545-.247.89-.688.358-.451.516-1.062H5.688l.28-1.64h4.438l-.219 1.109a7 7 0 0 1-.546 1.703q-.363.767-.953 1.344a4.3 4.3 0 0 1-1.47.89Q6.34.14 5.157.141m0 0" style="stroke:none"/></symbol><symbol id="aC" overflow="visible"><path d="M2.516.125q-.722 0-1.25-.281a1.67 1.67 0 0 1-.75-.813Q.28-1.512.422-2.297c.082-.469.266-.836.547-1.11q.434-.42 1.125-.609a7.7 7.7 0 0 1 1.594-.265 39 39 0 0 1 1.984-.11l.062-.328q.093-.45-.03-.718a.74.74 0 0 0-.391-.391 1.5 1.5 0 0 0-.625-.125q-.582.001-1.016.266c-.293.18-.477.468-.547.875H1.297q.2-1.312 1.125-1.891.92-.576 2.375-.578.668.002 1.25.156.575.158.969.516.405.346.562.922.155.579-.031 1.421L6.64 0H4.844l.125-.922a3.8 3.8 0 0 1-1.047.781q-.563.265-1.406.266m.703-1.344c.3 0 .578-.054.828-.172q.374-.17.672-.421.31-.263.484-.485l.234-1.015q-1.582 0-2.296.234-.707.236-.813.86-.095.469.156.734c.164.18.41.265.735.265m0 0" style="stroke:none"/></symbol><symbol id="aD" overflow="visible"><path d="m.281 0 1.531-7.172h1.891L3.5-6.125q.451-.45 1.016-.797.561-.359 1.375-.36.731 0 1.234.376.515.361.719 1.015.201.658.015 1.532L6.922 0H4.984l.938-4.312q.14-.669-.094-1.032-.235-.375-.781-.375-.517 0-.969.282-.44.27-.828.656L2.219 0Zm9.422 0 .922-4.312q.141-.669-.094-1.032-.221-.375-.765-.375-.344 0-.672.14-.316.129-.625.345-.298.222-.578.468L7.734-5.89a6.6 6.6 0 0 1 1.344-1c.469-.257.977-.39 1.531-.39q.715 0 1.22.375.513.361.718 1.015.217.658.031 1.532L11.641 0Zm0 0" style="stroke:none"/></symbol><symbol id="aE" overflow="visible"><path d="M3.875.125q-1.16.001-1.922-.484A2.68 2.68 0 0 1 .891-1.75Q.575-2.64.75-3.844q.169-1.077.672-1.844.515-.778 1.328-1.187c.55-.27 1.188-.406 1.906-.406q1.125.001 1.875.5.75.503 1.032 1.422.294.926.062 2.156H2.578q-.063.503.031.953c.07.293.22.527.438.703q.34.268.969.266.59.002 1-.266.42-.265.562-.828H7.5q-.346 1.282-1.25 1.89-.909.61-2.375.61M2.813-4.437h3.046c.04-.32.016-.594-.078-.813a1.03 1.03 0 0 0-.453-.5 1.36 1.36 0 0 0-.734-.187q-.704.002-1.172.39-.457.376-.61 1.11m0 0" style="stroke:none"/></symbol><symbol id="aG" overflow="visible"><path d="M3.89.125c-.773 0-1.421-.16-1.953-.484A2.68 2.68 0 0 1 .813-1.781Q.498-2.72.78-3.984c.219-1.07.676-1.891 1.375-2.453q1.044-.844 2.578-.844 1.155.001 1.954.5c.53.336.898.812 1.109 1.437q.328.938.047 2.203-.345 1.628-1.375 2.454Q5.437.125 3.89.125m.126-1.406q.825 0 1.265-.578.436-.576.64-1.485.141-.639.063-1.219-.063-.59-.39-.953-.328-.358-.985-.359-.562 0-.937.281-.375.27-.61.75a4.8 4.8 0 0 0-.374 1.078 3.4 3.4 0 0 0-.063 1.22c.05.374.188.683.406.921q.34.344.985.344m0 0" style="stroke:none"/></symbol><symbol id="aH" overflow="visible"><path d="m.5 0 1.203-5.672H.531l.313-1.5h1.172l.046-.234q.154-.704.36-1.172.201-.482.531-.766.327-.293.86-.422.544-.124 1.374-.125h.875l-.296 1.407h-.657q-.549.001-.78.265c-.157.18-.278.453-.36.828l-.047.22h1.562l-.312 1.5H3.64L2.438 0Zm0 0" style="stroke:none"/></symbol><symbol id="aI" overflow="visible"><path d="m.422 0 2.094-9.89h2.062L2.875-1.813h4.172L6.657 0Zm0 0" style="stroke:none"/></symbol><symbol id="aJ" overflow="visible"><path d="m.281 0 1.531-7.172H3.75L2.219 0ZM3.11-8.11q-.533 0-.828-.28A.92.92 0 0 1 2-9.063q0-.387.281-.657.295-.28.828-.281.53 0 .813.281.28.27.281.656a.92.92 0 0 1-.281.672q-.284.282-.813.282m0 0" style="stroke:none"/></symbol><symbol id="aS" overflow="visible"><path d="M6.203.172Q4.435.174 3.22-.61q-1.222-.778-1.75-2.22-.518-1.433-.203-3.39.264-1.734 1.109-3.047a5.95 5.95 0 0 1 2.25-2.062q1.39-.733 3.313-.735c.601 0 1.18.086 1.734.25a4.7 4.7 0 0 1 1.5.75 3.5 3.5 0 0 1 1.047 1.266q.389.767.39 1.797h-2.562c0-.375-.09-.71-.266-1.016q-.27-.45-.797-.703c-.343-.176-.789-.265-1.328-.265q-1.19 0-2 .562A3.94 3.94 0 0 0 4.392-7.97a6.7 6.7 0 0 0-.625 1.953c-.125.743-.125 1.422 0 2.047q.199.938.843 1.5.656.563 1.829.563.855 0 1.5-.297a2.8 2.8 0 0 0 1.078-.828q.42-.545.609-1.266H6.859l.329-1.984h5.343l-.265 1.343a9.2 9.2 0 0 1-.657 2.032 5.4 5.4 0 0 1-1.156 1.625q-.721.69-1.765 1.078-1.05.375-2.485.375m0 0" style="stroke:none"/></symbol><symbol id="aT" overflow="visible"><path d="M3.031.156q-.861 0-1.5-.328a2 2 0 0 1-.906-1Q.344-1.828.5-2.766c.102-.562.328-1.007.672-1.343q.527-.499 1.344-.735.825-.232 1.922-.312a41 41 0 0 1 2.39-.125l.078-.407q.106-.528-.047-.859a.86.86 0 0 0-.468-.469 1.7 1.7 0 0 0-.75-.156q-.692 0-1.22.328-.532.316-.655 1.047H1.563q.246-1.56 1.359-2.266 1.108-.703 2.844-.703.808 0 1.5.188.701.187 1.187.61.481.421.656 1.124.187.691-.03 1.703L8 0H5.844l.14-1.11q-.58.6-1.265.938-.675.328-1.688.328m.844-1.61q.528.002.984-.218c.313-.144.586-.316.829-.516q.356-.31.578-.578l.28-1.218q-1.909 0-2.765.28-.861.27-.984 1.032-.111.563.187.89.31.33.891.329m0 0" style="stroke:none"/></symbol><symbol id="aU" overflow="visible"><path d="m.344 0 1.828-8.625h2.281l-.234 1.25q.545-.544 1.218-.953.669-.422 1.641-.422.891.002 1.5.438.623.438.86 1.234.247.785.03 1.828L8.345 0H6l1.125-5.187q.17-.811-.11-1.25-.281-.437-.937-.438-.628 0-1.156.328a6 6 0 0 0-1.016.797L2.672 0Zm11.344 0 1.093-5.187q.188-.811-.094-1.25c-.18-.29-.484-.438-.921-.438a2.2 2.2 0 0 0-.813.156 3.4 3.4 0 0 0-.75.422 7 7 0 0 0-.703.563l-.187-1.344a7.2 7.2 0 0 1 1.609-1.203 3.8 3.8 0 0 1 1.844-.469q.874.002 1.484.438.608.438.86 1.234.263.785.015 1.828L14 0Zm0 0" style="stroke:none"/></symbol><symbol id="aV" overflow="visible"><path d="M4.656.156Q3.262.158 2.344-.437q-.907-.591-1.281-1.657Q.7-3.17.906-4.64c.133-.851.407-1.586.813-2.203a3.96 3.96 0 0 1 1.594-1.422q.984-.499 2.296-.5 1.343 0 2.235.61.902.61 1.265 1.719.357 1.096.063 2.578H3.109a3.4 3.4 0 0 0 .032 1.14q.122.532.53.86.406.327 1.157.328.715 0 1.219-.328.497-.328.672-1h2.297c-.274 1.03-.774 1.793-1.5 2.28-.72.493-1.672.735-2.86.735m-1.281-5.5h3.688q.076-.575-.11-.968a1.23 1.23 0 0 0-.547-.61 1.67 1.67 0 0 0-.875-.219q-.861 0-1.406.47-.55.455-.75 1.327m0 0" style="stroke:none"/></symbol><symbol id="aX" overflow="visible"><path d="M4.688.156q-1.394.002-2.36-.593a3.23 3.23 0 0 1-1.344-1.72Q.61-3.262.938-4.796 1.34-6.73 2.593-7.75q1.248-1.015 3.094-1.016 1.404 0 2.359.61.951.609 1.328 1.734.389 1.112.063 2.64-.41 1.958-1.657 2.954-1.236.984-3.093.984m.156-1.687q.984 0 1.5-.703.528-.703.781-1.797.17-.764.078-1.469-.082-.703-.484-1.14-.393-.437-1.172-.438-.674.002-1.125.344a2.5 2.5 0 0 0-.75.906 5.3 5.3 0 0 0-.438 1.297 4.1 4.1 0 0 0-.078 1.468c.063.45.227.82.5 1.11q.403.422 1.188.422m0 0" style="stroke:none"/></symbol><symbol id="aY" overflow="visible"><path d="m.594 0 1.453-6.828H.64l.375-1.797h1.406l.047-.281c.125-.57.27-1.047.437-1.422a2.54 2.54 0 0 1 .64-.922q.404-.341 1.048-.5.655-.155 1.656-.156h1.047l-.36 1.703h-.78q-.674 0-.954.312-.28.316-.422 1l-.062.266h1.89l-.39 1.797H4.39L2.938 0Zm0 0" style="stroke:none"/></symbol><symbol id="aZ" overflow="visible"><path d="m.5 0 2.531-11.906h2.485L3.453-2.187h5.031L8.016 0Zm0 0" style="stroke:none"/></symbol><symbol id="ba" overflow="visible"><path d="m.344 0 1.828-8.625h2.344L2.672 0ZM3.75-9.75q-.644.001-1-.344c-.23-.226-.344-.5-.344-.812q0-.469.344-.797.356-.342 1-.344.64.002.969.344.341.328.343.797c0 .312-.117.586-.343.812q-.33.345-.969.344m0 0" style="stroke:none"/></symbol><clipPath id="a"><path d="M0 0h856.8v184.8H0Zm0 0"/></clipPath></defs><g clip-path="url(#a)"><path d="M0 0h856.8v184.8H0Zm0 0" style="stroke:none;fill-rule:nonzero;fill:#fff;fill-opacity:1"/></g><path d="M-8.096 18.732h102542.575v99714.841H-8.096Zm0 0" style="fill-rule:nonzero;fill:#000;fill-opacity:1;stroke-width:19050;stroke-linecap:butt;stroke-linejoin:miter;stroke:#042433;stroke-opacity:1;stroke-miterlimit:8" transform="translate(178.727 58.545)scale(.00008)"/><path d="M11.033 18.732h99764.45v99714.841H11.033Zm0 0" style="fill-rule:nonzero;fill:#fff;fill-opacity:1;stroke-width:19050;stroke-linecap:butt;stroke-linejoin:miter;stroke:#042433;stroke-opacity:1;stroke-miterlimit:8" transform="translate(189.855 58.545)scale(.00008)"/><path d="M-23.892 18.732h99764.45v99714.841H-23.892Zm0 0" style="fill-rule:nonzero;fill:#fff;fill-opacity:1;stroke-width:19050;stroke-linecap:butt;stroke-linejoin:miter;stroke:#042433;stroke-opacity:1;stroke-miterlimit:8" transform="translate(200.764 58.545)scale(.00008)"/><path d="M-8.096 23.892h102542.575v99714.84H-8.096Zm0 0" style="fill-rule:nonzero;fill:#fff;fill-opacity:1;stroke-width:19050;stroke-linecap:butt;stroke-linejoin:miter;stroke:#042433;stroke-opacity:1;stroke-miterlimit:8" transform="translate(178.727 69.236)scale(.00008)"/><path d="M11.033 23.892h99764.45v99714.84H11.033Zm0 0" style="fill-rule:nonzero;fill:#000;fill-opacity:1;stroke-width:19050;stroke-linecap:butt;stroke-linejoin:miter;stroke:#c04f15;stroke-opacity:1;stroke-miterlimit:8" transform="translate(189.855 69.236)scale(.00008)"/><path d="M-23.892 23.892h99764.45v99714.84H-23.892Zm0 0" style="fill-rule:nonzero;fill:#fff;fill-opacity:1;stroke-width:19050;stroke-linecap:butt;stroke-linejoin:miter;stroke:#042433;stroke-opacity:1;stroke-miterlimit:8" transform="translate(200.764 69.236)scale(.00008)"/><path d="M-8.096-18.018h102542.575v99764.45H-8.096Zm0 0" style="fill-rule:nonzero;fill:#fff;fill-opacity:1;stroke-width:19050;stroke-linecap:butt;stroke-linejoin:miter;stroke:#042433;stroke-opacity:1;stroke-miterlimit:8" transform="translate(178.727 79.927)scale(.00008)"/><path d="M11.033-18.018h99764.45v99764.45H11.033Zm0 0" style="fill-rule:nonzero;fill:#fff;fill-opacity:1;stroke-width:19050;stroke-linecap:butt;stroke-linejoin:miter;stroke:#042433;stroke-opacity:1;stroke-miterlimit:8" transform="translate(189.855 79.927)scale(.00008)"/><path d="M-23.892-18.018h99764.45v99764.45H-23.892Zm0 0" style="fill-rule:nonzero;fill:#fff;fill-opacity:1;stroke-width:19050;stroke-linecap:butt;stroke-linejoin:miter;stroke:#042433;stroke-opacity:1;stroke-miterlimit:8" transform="translate(200.764 79.927)scale(.00008)"/><g style="fill:#000;fill-opacity:1"><use xlink:href="#b" x="104.058" y="50.182"/><use xlink:href="#c" x="119.058" y="50.182"/></g><g style="fill:#000;fill-opacity:1"><use xlink:href="#d" x="123.308" y="50.182"/><use xlink:href="#e" x="132.558" y="50.182"/></g><use xlink:href="#f" x="141.936" y="50.182" style="fill:#000;fill-opacity:1"/><use xlink:href="#g" x="150.9" y="50.182" style="fill:#000;fill-opacity:1"/><use xlink:href="#h" x="163.017" y="50.182" style="fill:#000;fill-opacity:1"/><use xlink:href="#i" x="166.263" y="50.182" style="fill:#000;fill-opacity:1"/><use xlink:href="#j" x="175.02" y="50.182" style="fill:#000;fill-opacity:1"/><g style="fill:#000;fill-opacity:1"><use xlink:href="#d" x="183.889" y="50.182"/><use xlink:href="#k" x="193.139" y="50.182"/></g><use xlink:href="#j" x="198.806" y="50.182" style="fill:#000;fill-opacity:1"/><use xlink:href="#l" x="207.674" y="50.182" style="fill:#000;fill-opacity:1"/><use xlink:href="#j" x="213.373" y="50.182" style="fill:#000;fill-opacity:1"/><use xlink:href="#e" x="222.241" y="50.182" style="fill:#000;fill-opacity:1"/><use xlink:href="#h" x="231.619" y="50.182" style="fill:#000;fill-opacity:1"/><use xlink:href="#m" x="234.865" y="50.182" style="fill:#000;fill-opacity:1"/><use xlink:href="#k" x="243.638" y="50.182" style="fill:#000;fill-opacity:1"/><use xlink:href="#h" x="249.385" y="50.182" style="fill:#000;fill-opacity:1"/><use xlink:href="#n" x="252.668" y="50.182" style="fill:#000;fill-opacity:1"/><use xlink:href="#o" x="259.293" y="50.182" style="fill:#000;fill-opacity:1"/><use xlink:href="#p" x="265.293" y="50.182" style="fill:#000;fill-opacity:1"/><use xlink:href="#q" x="271.208" y="50.182" style="fill:#000;fill-opacity:1"/><use xlink:href="#r" x="277.458" y="50.182" style="fill:#000;fill-opacity:1"/><path d="M228.582 117.59h217.602v3H228.582Zm216.102-3 9 4.5-9 4.5Zm0 0" style="stroke:none;fill-rule:nonzero;fill:#156082;fill-opacity:1"/><path d="M-8.096 21.336h102542.575v99714.84H-8.096Zm0 0" style="fill-rule:nonzero;fill:#000;fill-opacity:1;stroke-width:19050;stroke-linecap:butt;stroke-linejoin:miter;stroke:#042433;stroke-opacity:1;stroke-miterlimit:8" transform="translate(178.727 100.655)scale(.00008)"/><path d="M11.033 21.336h99764.45v99714.84H11.033Zm0 0" style="fill-rule:nonzero;fill:#fff;fill-opacity:1;stroke-width:19050;stroke-linecap:butt;stroke-linejoin:miter;stroke:#042433;stroke-opacity:1;stroke-miterlimit:8" transform="translate(189.855 100.655)scale(.00008)"/><path d="M-23.892 21.336h99764.45v99714.84H-23.892Zm0 0" style="fill-rule:nonzero;fill:#000;fill-opacity:1;stroke-width:19050;stroke-linecap:butt;stroke-linejoin:miter;stroke:#042433;stroke-opacity:1;stroke-miterlimit:8" transform="translate(200.764 100.655)scale(.00008)"/><path d="M-8.096-21.336h102542.575v99764.45H-8.096Zm0 0" style="fill-rule:nonzero;fill:#fff;fill-opacity:1;stroke-width:19050;stroke-linecap:butt;stroke-linejoin:miter;stroke:#042433;stroke-opacity:1;stroke-miterlimit:8" transform="translate(178.727 111.345)scale(.00008)"/><path d="M11.033-21.336h99764.45v99764.45H11.033Zm0 0" style="fill-rule:nonzero;fill:#000;fill-opacity:1;stroke-width:19050;stroke-linecap:butt;stroke-linejoin:miter;stroke:#c04f15;stroke-opacity:1;stroke-miterlimit:8" transform="translate(189.855 111.345)scale(.00008)"/><path d="M-23.892-21.336h99764.45v99764.45H-23.892Zm0 0" style="fill-rule:nonzero;fill:#fff;fill-opacity:1;stroke-width:19050;stroke-linecap:butt;stroke-linejoin:miter;stroke:#042433;stroke-opacity:1;stroke-miterlimit:8" transform="translate(200.764 111.345)scale(.00008)"/><path d="M-8.096-8.43h102542.575v99764.45H-8.096Zm0 0" style="fill-rule:nonzero;fill:#000;fill-opacity:1;stroke-width:19050;stroke-linecap:butt;stroke-linejoin:miter;stroke:#042433;stroke-opacity:1;stroke-miterlimit:8" transform="translate(178.727 122.255)scale(.00008)"/><path d="M11.033-8.43h99764.45v99764.45H11.033Zm0 0" style="fill-rule:nonzero;fill:#fff;fill-opacity:1;stroke-width:19050;stroke-linecap:butt;stroke-linejoin:miter;stroke:#042433;stroke-opacity:1;stroke-miterlimit:8" transform="translate(189.855 122.255)scale(.00008)"/><path d="M-23.892-8.43h99764.45v99764.45H-23.892Zm0 0" style="fill-rule:nonzero;fill:#fff;fill-opacity:1;stroke-width:19050;stroke-linecap:butt;stroke-linejoin:miter;stroke:#042433;stroke-opacity:1;stroke-miterlimit:8" transform="translate(200.764 122.255)scale(.00008)"/><path d="M-8.096-15.843h102542.575v99764.45H-8.096Zm0 0" style="fill-rule:nonzero;fill:#000;fill-opacity:1;stroke-width:19050;stroke-linecap:butt;stroke-linejoin:miter;stroke:#042433;stroke-opacity:1;stroke-miterlimit:8" transform="translate(178.727 144.51)scale(.00008)"/><path d="M11.033-15.843h99764.45v99764.45H11.033Zm0 0" style="fill-rule:nonzero;fill:#fff;fill-opacity:1;stroke-width:19050;stroke-linecap:butt;stroke-linejoin:miter;stroke:#042433;stroke-opacity:1;stroke-miterlimit:8" transform="translate(189.855 144.51)scale(.00008)"/><path d="M-23.892-15.843h99764.45v99764.45H-23.892Zm0 0" style="fill-rule:nonzero;fill:#000;fill-opacity:1;stroke-width:19050;stroke-linecap:butt;stroke-linejoin:miter;stroke:#042433;stroke-opacity:1;stroke-miterlimit:8" transform="translate(200.764 144.51)scale(.00008)"/><path d="M-8.096-9.922h102542.575v102542.575H-8.096Zm0 0" style="fill-rule:nonzero;fill:#fff;fill-opacity:1;stroke-width:19050;stroke-linecap:butt;stroke-linejoin:miter;stroke:#042433;stroke-opacity:1;stroke-miterlimit:8" transform="translate(178.727 155.2)scale(.00008)"/><path d="M11.033-9.922h99764.45v102542.575H11.033Zm0 0" style="fill-rule:nonzero;fill:#000;fill-opacity:1;stroke-width:19050;stroke-linecap:butt;stroke-linejoin:miter;stroke:#c04f15;stroke-opacity:1;stroke-miterlimit:8" transform="translate(189.855 155.2)scale(.00008)"/><path d="M-23.892-9.922h99764.45v102542.575H-23.892Zm0 0" style="fill-rule:nonzero;fill:#fff;fill-opacity:1;stroke-width:19050;stroke-linecap:butt;stroke-linejoin:miter;stroke:#042433;stroke-opacity:1;stroke-miterlimit:8" transform="translate(200.764 155.2)scale(.00008)"/><path d="M-8.096 4h102542.575v99764.45H-8.096Zm0 0" style="fill-rule:nonzero;fill:#000;fill-opacity:1;stroke-width:19050;stroke-linecap:butt;stroke-linejoin:miter;stroke:#042433;stroke-opacity:1;stroke-miterlimit:8" transform="translate(178.727 166.11)scale(.00008)"/><path d="M11.033 4h99764.45v99764.45H11.033Zm0 0" style="fill-rule:nonzero;fill:#fff;fill-opacity:1;stroke-width:19050;stroke-linecap:butt;stroke-linejoin:miter;stroke:#042433;stroke-opacity:1;stroke-miterlimit:8" transform="translate(189.855 166.11)scale(.00008)"/><path d="M-23.892 4h99764.45v99764.45H-23.892Zm0 0" style="fill-rule:nonzero;fill:#000;fill-opacity:1;stroke-width:19050;stroke-linecap:butt;stroke-linejoin:miter;stroke:#042433;stroke-opacity:1;stroke-miterlimit:8" transform="translate(200.764 166.11)scale(.00008)"/><path d="M16.351 18.732h99714.84v99714.841H16.352Zm0 0" style="fill-rule:nonzero;fill:#000;fill-opacity:1;stroke-width:19050;stroke-linecap:butt;stroke-linejoin:miter;stroke:#042433;stroke-opacity:1;stroke-miterlimit:8" transform="translate(473.49 58.545)scale(.00008)"/><path d="M-12.859 18.732h99764.45v99714.841H-12.859Zm0 0" style="fill-rule:nonzero;fill:#fff;fill-opacity:1;stroke-width:19050;stroke-linecap:butt;stroke-linejoin:miter;stroke:#042433;stroke-opacity:1;stroke-miterlimit:8" transform="translate(484.618 58.545)scale(.00008)"/><path d="M1.826 18.732h99764.45v99714.841H1.826Zm0 0" style="fill-rule:nonzero;fill:#fff;fill-opacity:1;stroke-width:19050;stroke-linecap:butt;stroke-linejoin:miter;stroke:#042433;stroke-opacity:1;stroke-miterlimit:8" transform="translate(495.527 58.545)scale(.00008)"/><path d="M16.351 23.892h99714.84v99714.84H16.352Zm0 0" style="fill-rule:nonzero;fill:#fff;fill-opacity:1;stroke-width:19050;stroke-linecap:butt;stroke-linejoin:miter;stroke:#042433;stroke-opacity:1;stroke-miterlimit:8" transform="translate(473.49 69.236)scale(.00008)"/><path d="M-12.859 23.892h99764.45v99714.84H-12.859Zm0 0" style="fill-rule:nonzero;fill:#fff;fill-opacity:1;stroke-width:19050;stroke-linecap:butt;stroke-linejoin:miter;stroke:#c04f15;stroke-opacity:1;stroke-miterlimit:8" transform="translate(484.618 69.236)scale(.00008)"/><path d="M1.826 23.892h99764.45v99714.84H1.826Zm0 0" style="fill-rule:nonzero;fill:#fff;fill-opacity:1;stroke-width:19050;stroke-linecap:butt;stroke-linejoin:miter;stroke:#042433;stroke-opacity:1;stroke-miterlimit:8" transform="translate(495.527 69.236)scale(.00008)"/><path d="M16.351-18.018h99714.84v99764.45H16.352Zm0 0" style="fill-rule:nonzero;fill:#fff;fill-opacity:1;stroke-width:19050;stroke-linecap:butt;stroke-linejoin:miter;stroke:#042433;stroke-opacity:1;stroke-miterlimit:8" transform="translate(473.49 79.927)scale(.00008)"/><path d="M-12.859-18.018h99764.45v99764.45H-12.859Zm0 0" style="fill-rule:nonzero;fill:#fff;fill-opacity:1;stroke-width:19050;stroke-linecap:butt;stroke-linejoin:miter;stroke:#042433;stroke-opacity:1;stroke-miterlimit:8" transform="translate(484.618 79.927)scale(.00008)"/><path d="M1.826-18.018h99764.45v99764.45H1.826Zm0 0" style="fill-rule:nonzero;fill:#fff;fill-opacity:1;stroke-width:19050;stroke-linecap:butt;stroke-linejoin:miter;stroke:#042433;stroke-opacity:1;stroke-miterlimit:8" transform="translate(495.527 79.927)scale(.00008)"/><path d="M9.922 0h102492.965v99764.45H9.922Zm0 0" style="fill-rule:nonzero;fill:#000;fill-opacity:1;stroke-width:19050;stroke-linecap:butt;stroke-linejoin:miter;stroke:#042433;stroke-opacity:1;stroke-miterlimit:8" transform="translate(474.8 100)scale(.00008)"/><path d="M-18.018 0h99764.45v99764.45H-18.018Zm0 0" style="fill-rule:nonzero;fill:#fff;fill-opacity:1;stroke-width:19050;stroke-linecap:butt;stroke-linejoin:miter;stroke:#042433;stroke-opacity:1;stroke-miterlimit:8" transform="translate(485.927 100)scale(.00008)"/><path d="M-5.874 0h99764.45v99764.45H-5.874Zm0 0" style="fill-rule:nonzero;fill:#000;fill-opacity:1;stroke-width:19050;stroke-linecap:butt;stroke-linejoin:miter;stroke:#042433;stroke-opacity:1;stroke-miterlimit:8" transform="translate(496.836 100)scale(.00008)"/><path d="M9.922 14.05h102492.965v99714.84H9.922Zm0 0" style="fill-rule:nonzero;fill:#fff;fill-opacity:1;stroke-width:19050;stroke-linecap:butt;stroke-linejoin:miter;stroke:#042433;stroke-opacity:1;stroke-miterlimit:8" transform="translate(474.8 110.909)scale(.00008)"/><path d="M-18.018 14.05h99764.45v99714.84H-18.018Zm0 0" style="fill-rule:nonzero;fill:#000;fill-opacity:1;stroke-width:19050;stroke-linecap:butt;stroke-linejoin:miter;stroke:#c04f15;stroke-opacity:1;stroke-miterlimit:8" transform="translate(485.927 110.909)scale(.00008)"/><path d="M-5.874 14.05h99764.45v99714.84H-5.874Zm0 0" style="fill-rule:nonzero;fill:#fff;fill-opacity:1;stroke-width:19050;stroke-linecap:butt;stroke-linejoin:miter;stroke:#042433;stroke-opacity:1;stroke-miterlimit:8" transform="translate(496.836 110.909)scale(.00008)"/><path d="M9.922 19.844h102492.965v99714.84H9.922Zm0 0" style="fill-rule:nonzero;fill:#000;fill-opacity:1;stroke-width:19050;stroke-linecap:butt;stroke-linejoin:miter;stroke:#042433;stroke-opacity:1;stroke-miterlimit:8" transform="translate(474.8 121.6)scale(.00008)"/><path d="M-18.018 19.844h99764.45v99714.84H-18.018Zm0 0" style="fill-rule:nonzero;fill:#fff;fill-opacity:1;stroke-width:19050;stroke-linecap:butt;stroke-linejoin:miter;stroke:#042433;stroke-opacity:1;stroke-miterlimit:8" transform="translate(485.927 121.6)scale(.00008)"/><path d="M-5.874 19.844h99764.45v99714.84H-5.874Zm0 0" style="fill-rule:nonzero;fill:#fff;fill-opacity:1;stroke-width:19050;stroke-linecap:butt;stroke-linejoin:miter;stroke:#042433;stroke-opacity:1;stroke-miterlimit:8" transform="translate(496.836 121.6)scale(.00008)"/><path d="M-4.048-23.844h99764.45v99764.45H-4.048Zm0 0" style="fill-rule:nonzero;fill:#000;fill-opacity:1;stroke-width:19050;stroke-linecap:butt;stroke-linejoin:miter;stroke:#042433;stroke-opacity:1;stroke-miterlimit:8" transform="translate(474.364 144.29)scale(.00008)"/><path d="M9.366-23.844h99764.45v99764.45H9.366Zm0 0" style="fill-rule:nonzero;fill:#fff;fill-opacity:1;stroke-width:19050;stroke-linecap:butt;stroke-linejoin:miter;stroke:#042433;stroke-opacity:1;stroke-miterlimit:8" transform="translate(485.273 144.29)scale(.00008)"/><path d="M22.78-23.844h102492.966v99764.45H22.781Zm0 0" style="fill-rule:nonzero;fill:#000;fill-opacity:1;stroke-width:19050;stroke-linecap:butt;stroke-linejoin:miter;stroke:#042433;stroke-opacity:1;stroke-miterlimit:8" transform="translate(496.182 144.29)scale(.00008)"/><path d="M-4.048-17.034h99764.45v99764.45H-4.048Zm0 0" style="fill-rule:nonzero;fill:#fff;fill-opacity:1;stroke-width:19050;stroke-linecap:butt;stroke-linejoin:miter;stroke:#042433;stroke-opacity:1;stroke-miterlimit:8" transform="translate(474.364 154.982)scale(.00008)"/><path d="M9.366-17.034h99764.45v99764.45H9.366Zm0 0" style="fill-rule:nonzero;fill:#fff;fill-opacity:1;stroke-width:19050;stroke-linecap:butt;stroke-linejoin:miter;stroke:#c04f15;stroke-opacity:1;stroke-miterlimit:8" transform="translate(485.273 154.982)scale(.00008)"/><path d="M22.78-17.034h102492.966v99764.45H22.781Zm0 0" style="fill-rule:nonzero;fill:#fff;fill-opacity:1;stroke-width:19050;stroke-linecap:butt;stroke-linejoin:miter;stroke:#042433;stroke-opacity:1;stroke-miterlimit:8" transform="translate(496.182 154.982)scale(.00008)"/><path d="M-4.048-4.127h99764.45v99764.45H-4.048Zm0 0" style="fill-rule:nonzero;fill:#000;fill-opacity:1;stroke-width:19050;stroke-linecap:butt;stroke-linejoin:miter;stroke:#042433;stroke-opacity:1;stroke-miterlimit:8" transform="translate(474.364 165.891)scale(.00008)"/><path d="M9.366-4.127h99764.45v99764.45H9.366Zm0 0" style="fill-rule:nonzero;fill:#fff;fill-opacity:1;stroke-width:19050;stroke-linecap:butt;stroke-linejoin:miter;stroke:#042433;stroke-opacity:1;stroke-miterlimit:8" transform="translate(485.273 165.891)scale(.00008)"/><path d="M22.78-4.127h102492.966v99764.45H22.781Zm0 0" style="fill-rule:nonzero;fill:#000;fill-opacity:1;stroke-width:19050;stroke-linecap:butt;stroke-linejoin:miter;stroke:#042433;stroke-opacity:1;stroke-miterlimit:8" transform="translate(496.182 165.891)scale(.00008)"/><use xlink:href="#s" x="527.354" y="68.945" style="fill:#000;fill-opacity:1"/><use xlink:href="#t" x="535.979" y="68.945" style="fill:#000;fill-opacity:1"/><use xlink:href="#u" x="543.969" y="68.945" style="fill:#000;fill-opacity:1"/><use xlink:href="#v" x="550.845" y="68.945" style="fill:#000;fill-opacity:1"/><use xlink:href="#w" x="553.72" y="68.945" style="fill:#000;fill-opacity:1"/><use xlink:href="#x" x="557.845" y="68.945" style="fill:#000;fill-opacity:1"/><use xlink:href="#y" x="561.596" y="68.945" style="fill:#000;fill-opacity:1"/><use xlink:href="#z" x="568.471" y="68.945" style="fill:#000;fill-opacity:1"/><use xlink:href="#v" x="576.347" y="68.945" style="fill:#000;fill-opacity:1"/><g style="fill:#000;fill-opacity:1"><use xlink:href="#A" x="579.222" y="68.945"/><use xlink:href="#z" x="586.972" y="68.945"/></g><use xlink:href="#w" x="594.847" y="68.945" style="fill:#000;fill-opacity:1"/><use xlink:href="#w" x="598.972" y="68.945" style="fill:#000;fill-opacity:1"/><use xlink:href="#v" x="603.097" y="68.945" style="fill:#000;fill-opacity:1"/><use xlink:href="#B" x="605.972" y="68.945" style="fill:#000;fill-opacity:1"/><use xlink:href="#x" x="616.597" y="68.945" style="fill:#000;fill-opacity:1"/><use xlink:href="#C" x="620.348" y="68.945" style="fill:#000;fill-opacity:1"/><use xlink:href="#D" x="625.222" y="68.945" style="fill:#000;fill-opacity:1"/><use xlink:href="#v" x="633.348" y="68.945" style="fill:#000;fill-opacity:1"/><use xlink:href="#E" x="636.223" y="68.945" style="fill:#000;fill-opacity:1"/><use xlink:href="#z" x="640.613" y="68.945" style="fill:#000;fill-opacity:1"/><use xlink:href="#B" x="648.438" y="68.945" style="fill:#000;fill-opacity:1"/><use xlink:href="#z" x="659.063" y="68.945" style="fill:#000;fill-opacity:1"/><use xlink:href="#F" x="666.939" y="68.945" style="fill:#000;fill-opacity:1"/><use xlink:href="#v" x="672.063" y="68.945" style="fill:#000;fill-opacity:1"/><use xlink:href="#C" x="674.938" y="68.945" style="fill:#000;fill-opacity:1"/><use xlink:href="#D" x="679.813" y="68.945" style="fill:#000;fill-opacity:1"/><use xlink:href="#G" x="687.939" y="68.945" style="fill:#000;fill-opacity:1"/><use xlink:href="#t" x="695.688" y="68.945" style="fill:#000;fill-opacity:1"/><use xlink:href="#v" x="703.814" y="68.945" style="fill:#000;fill-opacity:1"/><use xlink:href="#C" x="706.689" y="68.945" style="fill:#000;fill-opacity:1"/><use xlink:href="#B" x="711.699" y="68.945" style="fill:#000;fill-opacity:1"/><use xlink:href="#H" x="722.324" y="68.945" style="fill:#000;fill-opacity:1"/><use xlink:href="#v" x="730.324" y="68.945" style="fill:#000;fill-opacity:1"/><use xlink:href="#w" x="733.199" y="68.945" style="fill:#000;fill-opacity:1"/><use xlink:href="#x" x="737.324" y="68.945" style="fill:#000;fill-opacity:1"/><use xlink:href="#y" x="741.074" y="68.945" style="fill:#000;fill-opacity:1"/><use xlink:href="#z" x="747.95" y="68.945" style="fill:#000;fill-opacity:1"/><use xlink:href="#v" x="755.826" y="68.945" style="fill:#000;fill-opacity:1"/><g style="fill:#000;fill-opacity:1"><use xlink:href="#t" x="527.354" y="85.745"/><use xlink:href="#z" x="535.479" y="85.745"/><use xlink:href="#x" x="543.354" y="85.745"/><use xlink:href="#I" x="547.108" y="85.745"/></g><g style="fill:#000;fill-opacity:1"><use xlink:href="#D" x="554.228" y="85.745"/><use xlink:href="#J" x="562.354" y="85.745"/></g><use xlink:href="#H" x="570.605" y="85.745" style="fill:#000;fill-opacity:1"/><use xlink:href="#F" x="578.605" y="85.745" style="fill:#000;fill-opacity:1"/><g style="fill:#000;fill-opacity:1"><use xlink:href="#K" x="583.588" y="85.745"/><use xlink:href="#v" x="590.834" y="85.745"/><use xlink:href="#L" x="593.709" y="85.745"/></g><g style="fill:#000;fill-opacity:1"><use xlink:href="#x" x="601.96" y="85.745"/><use xlink:href="#z" x="605.715" y="85.745"/><use xlink:href="#K" x="613.589" y="85.745"/></g><use xlink:href="#s" x="527.846" y="111.055" style="fill:#000;fill-opacity:1"/><use xlink:href="#t" x="536.472" y="111.055" style="fill:#000;fill-opacity:1"/><use xlink:href="#u" x="544.462" y="111.055" style="fill:#000;fill-opacity:1"/><use xlink:href="#v" x="551.338" y="111.055" style="fill:#000;fill-opacity:1"/><use xlink:href="#w" x="554.213" y="111.055" style="fill:#000;fill-opacity:1"/><use xlink:href="#x" x="558.337" y="111.055" style="fill:#000;fill-opacity:1"/><use xlink:href="#y" x="562.088" y="111.055" style="fill:#000;fill-opacity:1"/><use xlink:href="#z" x="568.964" y="111.055" style="fill:#000;fill-opacity:1"/><use xlink:href="#v" x="576.839" y="111.055" style="fill:#000;fill-opacity:1"/><g style="fill:#000;fill-opacity:1"><use xlink:href="#A" x="579.714" y="111.055"/><use xlink:href="#z" x="587.464" y="111.055"/></g><use xlink:href="#w" x="595.34" y="111.055" style="fill:#000;fill-opacity:1"/><use xlink:href="#w" x="599.465" y="111.055" style="fill:#000;fill-opacity:1"/><use xlink:href="#v" x="603.589" y="111.055" style="fill:#000;fill-opacity:1"/><use xlink:href="#B" x="606.465" y="111.055" style="fill:#000;fill-opacity:1"/><use xlink:href="#x" x="617.089" y="111.055" style="fill:#000;fill-opacity:1"/><use xlink:href="#C" x="620.84" y="111.055" style="fill:#000;fill-opacity:1"/><use xlink:href="#D" x="625.715" y="111.055" style="fill:#000;fill-opacity:1"/><use xlink:href="#v" x="633.84" y="111.055" style="fill:#000;fill-opacity:1"/><use xlink:href="#G" x="636.715" y="111.055" style="fill:#000;fill-opacity:1"/><use xlink:href="#C" x="644.376" y="111.055" style="fill:#000;fill-opacity:1"/><use xlink:href="#v" x="649.251" y="111.055" style="fill:#000;fill-opacity:1"/><use xlink:href="#w" x="652.126" y="111.055" style="fill:#000;fill-opacity:1"/><use xlink:href="#z" x="656.251" y="111.055" style="fill:#000;fill-opacity:1"/><use xlink:href="#G" x="664.126" y="111.055" style="fill:#000;fill-opacity:1"/><use xlink:href="#K" x="671.876" y="111.055" style="fill:#000;fill-opacity:1"/><use xlink:href="#C" x="679.011" y="111.055" style="fill:#000;fill-opacity:1"/><use xlink:href="#v" x="683.886" y="111.055" style="fill:#000;fill-opacity:1"/><use xlink:href="#M" x="686.761" y="111.055" style="fill:#000;fill-opacity:1"/><use xlink:href="#N" x="694.261" y="111.055" style="fill:#000;fill-opacity:1"/><use xlink:href="#v" x="698.386" y="111.055" style="fill:#000;fill-opacity:1"/><use xlink:href="#J" x="701.261" y="111.055" style="fill:#000;fill-opacity:1"/><use xlink:href="#O" x="709.511" y="111.055" style="fill:#000;fill-opacity:1"/><use xlink:href="#C" x="717.636" y="111.055" style="fill:#000;fill-opacity:1"/><use xlink:href="#v" x="722.511" y="111.055" style="fill:#000;fill-opacity:1"/><use xlink:href="#t" x="725.386" y="111.055" style="fill:#000;fill-opacity:1"/><use xlink:href="#H" x="733.511" y="111.055" style="fill:#000;fill-opacity:1"/><use xlink:href="#C" x="741.511" y="111.055" style="fill:#000;fill-opacity:1"/><use xlink:href="#v" x="746.386" y="111.055" style="fill:#000;fill-opacity:1"/><use xlink:href="#P" x="749.261" y="111.055" style="fill:#000;fill-opacity:1"/><use xlink:href="#H" x="761.761" y="111.055" style="fill:#000;fill-opacity:1"/><use xlink:href="#F" x="769.761" y="111.055" style="fill:#000;fill-opacity:1"/><use xlink:href="#z" x="774.775" y="111.055" style="fill:#000;fill-opacity:1"/><use xlink:href="#v" x="782.651" y="111.055" style="fill:#000;fill-opacity:1"/><use xlink:href="#C" x="785.526" y="111.055" style="fill:#000;fill-opacity:1"/><use xlink:href="#D" x="790.401" y="111.055" style="fill:#000;fill-opacity:1"/><use xlink:href="#G" x="798.526" y="111.055" style="fill:#000;fill-opacity:1"/><use xlink:href="#t" x="806.276" y="111.055" style="fill:#000;fill-opacity:1"/><use xlink:href="#v" x="814.401" y="111.055" style="fill:#000;fill-opacity:1"/><use xlink:href="#Q" x="817.276" y="111.055" style="fill:#000;fill-opacity:1"/><use xlink:href="#N" x="824.776" y="111.055" style="fill:#000;fill-opacity:1"/><use xlink:href="#v" x="828.901" y="111.055" style="fill:#000;fill-opacity:1"/><g style="fill:#000;fill-opacity:1"><use xlink:href="#w" x="527.846" y="127.855"/><use xlink:href="#x" x="531.971" y="127.855"/></g><use xlink:href="#y" x="535.719" y="127.855" style="fill:#000;fill-opacity:1"/><use xlink:href="#z" x="542.595" y="127.855" style="fill:#000;fill-opacity:1"/><use xlink:href="#v" x="550.476" y="127.855" style="fill:#000;fill-opacity:1"/><use xlink:href="#t" x="553.358" y="127.855" style="fill:#000;fill-opacity:1"/><use xlink:href="#z" x="561.49" y="127.855" style="fill:#000;fill-opacity:1"/><use xlink:href="#x" x="569.372" y="127.855" style="fill:#000;fill-opacity:1"/><g style="fill:#000;fill-opacity:1"><use xlink:href="#I" x="573.119" y="127.855"/><use xlink:href="#D" x="580.246" y="127.855"/></g><use xlink:href="#J" x="588.379" y="127.855" style="fill:#000;fill-opacity:1"/><use xlink:href="#H" x="596.623" y="127.855" style="fill:#000;fill-opacity:1"/><use xlink:href="#F" x="604.63" y="127.855" style="fill:#000;fill-opacity:1"/><use xlink:href="#K" x="609.62" y="127.855" style="fill:#000;fill-opacity:1"/><use xlink:href="#v" x="616.873" y="127.855" style="fill:#000;fill-opacity:1"/><use xlink:href="#K" x="619.755" y="127.855" style="fill:#000;fill-opacity:1"/><use xlink:href="#O" x="627.008" y="127.855" style="fill:#000;fill-opacity:1"/><g style="fill:#000;fill-opacity:1"><use xlink:href="#F" x="635.14" y="127.855"/><use xlink:href="#y" x="640.243" y="127.855"/></g><use xlink:href="#x" x="647.118" y="127.855" style="fill:#000;fill-opacity:1"/><use xlink:href="#y" x="650.866" y="127.855" style="fill:#000;fill-opacity:1"/><use xlink:href="#z" x="657.742" y="127.855" style="fill:#000;fill-opacity:1"/><use xlink:href="#K" x="665.623" y="127.855" style="fill:#000;fill-opacity:1"/><use xlink:href="#s" x="526.14" y="163.2" style="fill:#000;fill-opacity:1"/><use xlink:href="#t" x="534.765" y="163.2" style="fill:#000;fill-opacity:1"/><use xlink:href="#u" x="542.755" y="163.2" style="fill:#000;fill-opacity:1"/><use xlink:href="#v" x="549.631" y="163.2" style="fill:#000;fill-opacity:1"/><use xlink:href="#w" x="552.506" y="163.2" style="fill:#000;fill-opacity:1"/><use xlink:href="#x" x="556.631" y="163.2" style="fill:#000;fill-opacity:1"/><use xlink:href="#y" x="560.382" y="163.2" style="fill:#000;fill-opacity:1"/><use xlink:href="#z" x="567.257" y="163.2" style="fill:#000;fill-opacity:1"/><use xlink:href="#v" x="575.133" y="163.2" style="fill:#000;fill-opacity:1"/><g style="fill:#000;fill-opacity:1"><use xlink:href="#A" x="578.008" y="163.2"/><use xlink:href="#z" x="585.758" y="163.2"/></g><use xlink:href="#w" x="593.633" y="163.2" style="fill:#000;fill-opacity:1"/><use xlink:href="#w" x="597.758" y="163.2" style="fill:#000;fill-opacity:1"/><use xlink:href="#v" x="601.883" y="163.2" style="fill:#000;fill-opacity:1"/><use xlink:href="#B" x="604.758" y="163.2" style="fill:#000;fill-opacity:1"/><use xlink:href="#x" x="615.383" y="163.2" style="fill:#000;fill-opacity:1"/><use xlink:href="#C" x="619.134" y="163.2" style="fill:#000;fill-opacity:1"/><use xlink:href="#D" x="624.008" y="163.2" style="fill:#000;fill-opacity:1"/><use xlink:href="#v" x="632.134" y="163.2" style="fill:#000;fill-opacity:1"/><use xlink:href="#P" x="635.009" y="163.2" style="fill:#000;fill-opacity:1"/><use xlink:href="#H" x="647.509" y="163.2" style="fill:#000;fill-opacity:1"/><use xlink:href="#F" x="655.509" y="163.2" style="fill:#000;fill-opacity:1"/><use xlink:href="#z" x="660.523" y="163.2" style="fill:#000;fill-opacity:1"/><use xlink:href="#v" x="668.399" y="163.2" style="fill:#000;fill-opacity:1"/><use xlink:href="#C" x="671.274" y="163.2" style="fill:#000;fill-opacity:1"/><use xlink:href="#D" x="676.149" y="163.2" style="fill:#000;fill-opacity:1"/><use xlink:href="#G" x="684.274" y="163.2" style="fill:#000;fill-opacity:1"/><use xlink:href="#t" x="692.024" y="163.2" style="fill:#000;fill-opacity:1"/><use xlink:href="#v" x="700.149" y="163.2" style="fill:#000;fill-opacity:1"/><use xlink:href="#Q" x="703.024" y="163.2" style="fill:#000;fill-opacity:1"/><use xlink:href="#v" x="710.524" y="163.2" style="fill:#000;fill-opacity:1"/><use xlink:href="#t" x="713.399" y="163.2" style="fill:#000;fill-opacity:1"/><use xlink:href="#z" x="721.525" y="163.2" style="fill:#000;fill-opacity:1"/><use xlink:href="#x" x="729.4" y="163.2" style="fill:#000;fill-opacity:1"/><use xlink:href="#I" x="733.151" y="163.2" style="fill:#000;fill-opacity:1"/><use xlink:href="#D" x="740.277" y="163.2" style="fill:#000;fill-opacity:1"/><use xlink:href="#J" x="748.402" y="163.2" style="fill:#000;fill-opacity:1"/><use xlink:href="#H" x="756.652" y="163.2" style="fill:#000;fill-opacity:1"/><use xlink:href="#F" x="764.651" y="163.2" style="fill:#000;fill-opacity:1"/><use xlink:href="#K" x="769.642" y="163.2" style="fill:#000;fill-opacity:1"/><use xlink:href="#v" x="776.892" y="163.2" style="fill:#000;fill-opacity:1"/><use xlink:href="#L" x="779.767" y="163.2" style="fill:#000;fill-opacity:1"/><use xlink:href="#x" x="788.017" y="163.2" style="fill:#000;fill-opacity:1"/><use xlink:href="#z" x="791.767" y="163.2" style="fill:#000;fill-opacity:1"/><use xlink:href="#K" x="799.643" y="163.2" style="fill:#000;fill-opacity:1"/><g style="fill:#0e1116;fill-opacity:1"><use xlink:href="#R" x="300.881" y="104.073"/><use xlink:href="#S" x="311.381" y="104.073"/></g><use xlink:href="#T" x="320.088" y="104.073" style="fill:#0e1116;fill-opacity:1"/><use xlink:href="#U" x="330.46" y="104.073" style="fill:#0e1116;fill-opacity:1"/><use xlink:href="#V" x="335.835" y="104.073" style="fill:#0e1116;fill-opacity:1"/><use xlink:href="#W" x="346.335" y="104.073" style="fill:#0e1116;fill-opacity:1"/><use xlink:href="#X" x="352.706" y="104.073" style="fill:#0e1116;fill-opacity:1"/><use xlink:href="#T" x="357.573" y="104.073" style="fill:#0e1116;fill-opacity:1"/><use xlink:href="#Y" x="367.946" y="104.073" style="fill:#0e1116;fill-opacity:1"/><g style="fill:#0e1116;fill-opacity:1"><use xlink:href="#Z" x="254.771" y="147.491"/><use xlink:href="#aa" x="259.896" y="147.491"/></g><use xlink:href="#ab" x="269.765" y="147.491" style="fill:#0e1116;fill-opacity:1"/><use xlink:href="#ab" x="280.269" y="147.491" style="fill:#0e1116;fill-opacity:1"/><use xlink:href="#U" x="290.772" y="147.491" style="fill:#0e1116;fill-opacity:1"/><use xlink:href="#X" x="296.15" y="147.491" style="fill:#0e1116;fill-opacity:1"/><use xlink:href="#ac" x="301.022" y="147.491" style="fill:#0e1116;fill-opacity:1"/><use xlink:href="#ad" x="311.018" y="147.491" style="fill:#0e1116;fill-opacity:1"/><g style="fill:#0e1116;fill-opacity:1"><use xlink:href="#aa" x="325.146" y="147.491"/><use xlink:href="#ae" x="335.021" y="147.491"/></g><use xlink:href="#af" x="344.896" y="147.491" style="fill:#0e1116;fill-opacity:1"/><use xlink:href="#T" x="351.33" y="147.491" style="fill:#0e1116;fill-opacity:1"/><use xlink:href="#ag" x="361.712" y="147.491" style="fill:#0e1116;fill-opacity:1"/><use xlink:href="#ag" x="370.971" y="147.491" style="fill:#0e1116;fill-opacity:1"/><use xlink:href="#ah" x="383.821" y="147.491" style="fill:#000;fill-opacity:1"/><use xlink:href="#ai" x="391.321" y="147.491" style="fill:#000;fill-opacity:1"/><use xlink:href="#aj" x="397.946" y="147.491" style="fill:#000;fill-opacity:1"/><use xlink:href="#ak" x="404.696" y="147.491" style="fill:#000;fill-opacity:1"/><use xlink:href="#al" x="411.696" y="147.491" style="fill:#000;fill-opacity:1"/><use xlink:href="#am" x="419.196" y="147.491" style="fill:#000;fill-opacity:1"/><path d="M-14.224 9.922h10643095.753v1911895.642H-14.224Zm0 0" style="fill:none;stroke-width:19050;stroke-linecap:butt;stroke-linejoin:miter;stroke:#042433;stroke-opacity:1;stroke-miterlimit:8" transform="translate(1.564 32.8)scale(.00008)"/><g style="fill:#000;fill-opacity:1"><use xlink:href="#an" x="41.987" y="95.564"/><use xlink:href="#ao" x="50.312" y="95.564"/></g><use xlink:href="#ap" x="57.538" y="95.564" style="fill:#000;fill-opacity:1"/><use xlink:href="#aq" x="66.165" y="95.564" style="fill:#000;fill-opacity:1"/><use xlink:href="#ao" x="70.666" y="95.564" style="fill:#000;fill-opacity:1"/><use xlink:href="#ar" x="78.043" y="95.564" style="fill:#000;fill-opacity:1"/><use xlink:href="#as" x="82.047" y="95.564" style="fill:#000;fill-opacity:1"/><use xlink:href="#at" x="90.673" y="95.564" style="fill:#000;fill-opacity:1"/><use xlink:href="#au" x="98.291" y="95.564" style="fill:#000;fill-opacity:1"/><g style="fill:#000;fill-opacity:1"><use xlink:href="#av" x="13.597" y="113.673"/><use xlink:href="#ap" x="24.222" y="113.673"/></g><use xlink:href="#as" x="32.846" y="113.673" style="fill:#000;fill-opacity:1"/><use xlink:href="#aw" x="41.394" y="113.673" style="fill:#000;fill-opacity:1"/><use xlink:href="#ax" x="52.606" y="113.673" style="fill:#000;fill-opacity:1"/><use xlink:href="#ay" x="60.808" y="113.673" style="fill:#000;fill-opacity:1"/><use xlink:href="#az" x="68.347" y="113.673" style="fill:#000;fill-opacity:1"/><g style="fill:#000;fill-opacity:1"><use xlink:href="#aA" x="72.048" y="113.673"/><use xlink:href="#au" x="79.798" y="113.673"/></g><use xlink:href="#au" x="82.791" y="113.673" style="fill:#000;fill-opacity:1"/><g style="fill:#000;fill-opacity:1"><use xlink:href="#aB" x="85.807" y="113.673"/><use xlink:href="#aC" x="96.557" y="113.673"/></g><use xlink:href="#aD" x="104.929" y="113.673" style="fill:#000;fill-opacity:1"/><use xlink:href="#aE" x="118.299" y="113.673" style="fill:#000;fill-opacity:1"/><use xlink:href="#aF" x="126.671" y="113.673" style="fill:#000;fill-opacity:1"/><g style="fill:#000;fill-opacity:1"><use xlink:href="#aG" x="21.622" y="131.564"/><use xlink:href="#aH" x="30.247" y="131.564"/></g><use xlink:href="#aF" x="35.123" y="131.564" style="fill:#000;fill-opacity:1"/><use xlink:href="#aI" x="38.117" y="131.564" style="fill:#000;fill-opacity:1"/><g style="fill:#000;fill-opacity:1"><use xlink:href="#aJ" x="45.748" y="131.564"/><use xlink:href="#aH" x="49.751" y="131.564"/></g><use xlink:href="#aE" x="54.507" y="131.564" style="fill:#000;fill-opacity:1"/><use xlink:href="#aF" x="62.876" y="131.564" style="fill:#000;fill-opacity:1"/><g style="fill:#000;fill-opacity:1"><use xlink:href="#aK" x="65.882" y="131.564"/><use xlink:href="#ap" x="70.767" y="131.564"/></g><use xlink:href="#aL" x="79.386" y="131.564" style="fill:#000;fill-opacity:1"/><use xlink:href="#aw" x="85.114" y="131.564" style="fill:#000;fill-opacity:1"/><use xlink:href="#ax" x="96.322" y="131.564" style="fill:#000;fill-opacity:1"/><use xlink:href="#aL" x="104.58" y="131.564" style="fill:#000;fill-opacity:1"/><use xlink:href="#aM" x="109.901" y="131.564" style="fill:#000;fill-opacity:1"/><g style="fill:#000;fill-opacity:1"><use xlink:href="#aN" x="327.81" y="22.691"/><use xlink:href="#T" x="340.561" y="22.691"/></g><use xlink:href="#Y" x="350.939" y="22.691" style="fill:#000;fill-opacity:1"/><use xlink:href="#aO" x="361.227" y="22.691" style="fill:#000;fill-opacity:1"/><use xlink:href="#aa" x="374.774" y="22.691" style="fill:#000;fill-opacity:1"/><use xlink:href="#aP" x="384.591" y="22.691" style="fill:#000;fill-opacity:1"/><use xlink:href="#aQ" x="393.666" y="22.691" style="fill:#000;fill-opacity:1"/><use xlink:href="#ag" x="398.086" y="22.691" style="fill:#000;fill-opacity:1"/><use xlink:href="#aR" x="407.341" y="22.691" style="fill:#000;fill-opacity:1"/><g style="fill:#000;fill-opacity:1"><use xlink:href="#aS" x="410.955" y="22.691"/><use xlink:href="#aT" x="423.831" y="22.691"/></g><use xlink:href="#aU" x="433.827" y="22.691" style="fill:#000;fill-opacity:1"/><use xlink:href="#aV" x="449.835" y="22.691" style="fill:#000;fill-opacity:1"/><use xlink:href="#aW" x="459.958" y="22.691" style="fill:#000;fill-opacity:1"/><use xlink:href="#aX" x="463.58" y="22.691" style="fill:#000;fill-opacity:1"/><use xlink:href="#aY" x="473.957" y="22.691" style="fill:#000;fill-opacity:1"/><use xlink:href="#aW" x="479.824" y="22.691" style="fill:#000;fill-opacity:1"/><use xlink:href="#aZ" x="483.446" y="22.691" style="fill:#000;fill-opacity:1"/><use xlink:href="#ba" x="492.699" y="22.691" style="fill:#000;fill-opacity:1"/><use xlink:href="#aY" x="497.444" y="22.691" style="fill:#000;fill-opacity:1"/><use xlink:href="#aV" x="503.185" y="22.691" style="fill:#000;fill-opacity:1"/></svg>