<svg xmlns="http://www.w3.org/2000/svg" xmlns:xlink="http://www.w3.org/1999/xlink" width="1344" height="336" viewBox="0 0 1008 252"><defs><symbol id="e" overflow="visible"><path d="M1.984-1.328h2.579v-8.906l-2.797.562v-1.437l2.78-.563h1.579v10.344h2.578V0H1.984Zm0 0" style="stroke:none"/></symbol><symbol id="f" overflow="visible"><path d="M5.094-10.625q-1.221 0-1.844 1.203-.61 1.19-.61 3.594 0 2.407.61 3.61.623 1.188 1.844 1.187 1.218 0 1.828-1.188.623-1.2.625-3.61-.002-2.402-.625-3.593-.61-1.201-1.828-1.203m0-1.25q1.952 0 2.984 1.547c.695 1.031 1.047 2.531 1.047 4.5s-.352 3.476-1.047 4.516Q7.047.234 5.094.234q-1.97 0-3-1.546-1.031-1.561-1.031-4.516 0-2.953 1.03-4.5 1.032-1.547 3-1.547m0 0" style="stroke:none"/></symbol><symbol id="z" overflow="visible"><path d="M1.719-1.984h1.64V0H1.72Zm0 0" style="stroke:none"/></symbol><symbol id="A" overflow="visible"><path d="M1.734-11.672h6.188v1.328h-4.75v2.86q.34-.107.687-.172.341-.062.688-.063 1.95 0 3.094 1.078c.757.711 1.14 1.672 1.14 2.891q0 1.894-1.172 2.938C6.83-.114 5.727.234 4.313.234a8.3 8.3 0 0 1-1.5-.14 12 12 0 0 1-1.579-.375V-1.86q.704.375 1.454.562t1.593.188q1.342 0 2.125-.703.797-.717.797-1.938 0-1.218-.797-1.922c-.523-.476-1.23-.719-2.125-.719q-.645 0-1.265.141a7 7 0 0 0-1.282.438Zm0 0" style="stroke:none"/></symbol><symbol id="B" overflow="visible"><path d="M6.5-6.297q1.123.253 1.766 1.016.639.766.64 1.89Q8.904-1.667 7.72-.719 6.53.235 4.345.234 3.607.233 2.828.078a10 10 0 0 1-1.61-.437v-1.516q.655.377 1.438.578.78.188 1.64.188 1.485 0 2.25-.578.781-.591.782-1.704Q7.326-4.42 6.61-5q-.72-.593-2.015-.594h-1.36V-6.89h1.422c.782 0 1.375-.148 1.782-.453.414-.312.625-.758.625-1.343q-.001-.905-.641-1.376-.646-.482-1.828-.484c-.43 0-.89.047-1.39.14a13 13 0 0 0-1.626.438v-1.406q.89-.247 1.672-.375a10 10 0 0 1 1.484-.125q1.795.002 2.844.813c.695.542 1.047 1.277 1.047 2.203q0 .972-.562 1.64-.55.676-1.563.922m0 0" style="stroke:none"/></symbol><symbol id="C" overflow="visible"><path d="M6.047-10.297 2.063-4.062h3.984Zm-.406-1.375h1.984v7.61h1.656v1.312H7.625V0H6.047v-2.75H.78v-1.531Zm0 0" style="stroke:none"/></symbol><symbol id="aq" overflow="visible"><path d="M5.281-6.469q-1.065 0-1.687.735-.61.719-.61 1.984 0 1.267.61 2 .62.72 1.687.719 1.06 0 1.688-.719.623-.733.625-2c.002-1.267-.211-1.504-.625-1.984q-.627-.734-1.688-.735m3.14-4.937v1.437a6 6 0 0 0-1.202-.422 5 5 0 0 0-1.203-.156q-1.565.001-2.391 1.063-.814 1.049-.937 3.172A3.24 3.24 0 0 1 5.374-7.72q1.763 0 2.781 1.078c.676.711 1.016 1.672 1.016 2.891Q9.17-1.95 8.109-.86 7.045.236 5.281.235q-2.015 0-3.093-1.546-1.065-1.561-1.063-4.516 0-2.766 1.313-4.406 1.311-1.641 3.515-1.641.593.001 1.203.125.61.11 1.266.344m0 0" style="stroke:none"/></symbol><symbol id="g" overflow="visible"><path d="M2.156-.937H6V0H.828v-.937c.414-.426.985-1.004 1.703-1.735a57 57 0 0 0 1.375-1.422q.529-.59.735-1 .217-.42.218-.812 0-.655-.468-1.063-.457-.422-1.188-.422-.517 0-1.094.188a6 6 0 0 0-1.234.547v-1.11q.669-.279 1.25-.406.575-.14 1.063-.14 1.265 0 2.015.64c.508.418.766.98.766 1.688q-.002.503-.203.953c-.125.304-.352.656-.672 1.062q-.142.16-.875.922-.738.75-2.063 2.11m0 0" style="stroke:none"/></symbol><symbol id="h" overflow="visible"><path d="M4.547-4.406q.796.175 1.234.718.452.534.453 1.313 0 1.208-.843 1.875-.831.657-2.36.656Q2.514.154 1.97.046A7 7 0 0 1 .859-.25v-1.062c.301.18.633.312 1 .406q.545.14 1.141.14c.695 0 1.223-.132 1.578-.406q.546-.42.547-1.203-.001-.715-.5-1.125-.504-.405-1.406-.406h-.953v-.906h1q.81 0 1.234-.329.437-.327.438-.937-.001-.64-.454-.969c-.293-.226-.714-.344-1.265-.344-.305 0-.633.04-.985.11a9 9 0 0 0-1.14.297v-.985q.638-.168 1.187-.25a6 6 0 0 1 1.031-.094c.844 0 1.508.196 2 .579q.734.563.735 1.53c0 .462-.133.845-.39 1.157q-.395.47-1.11.64m0 0" style="stroke:none"/></symbol><symbol id="i" overflow="visible"><path d="m4.234-7.203-2.796 4.36h2.796Zm-.296-.969h1.39v5.328H6.5v.922H5.328V0H4.234v-1.922H.547V-3Zm0 0" style="stroke:none"/></symbol><symbol id="j" overflow="visible"><path d="M1.203-8.172h4.344v.938H2.219v2a5 5 0 0 1 .484-.125q.234-.047.485-.047 1.359 0 2.156.75c.539.5.812 1.18.812 2.031q0 1.33-.828 2.063-.831.719-2.312.718c-.344 0-.696-.031-1.047-.093a8 8 0 0 1-1.11-.25v-1.11q.499.268 1.016.406A4.7 4.7 0 0 0 3-.766c.625 0 1.117-.164 1.484-.5q.563-.498.563-1.359 0-.841-.563-1.344-.548-.499-1.484-.5c-.305 0-.602.04-.89.11a5 5 0 0 0-.907.297Zm0 0" style="stroke:none"/></symbol><symbol id="k" overflow="visible"><path d="M3.703-4.531q-.752 0-1.187.515-.439.517-.438 1.391 0 .891.438 1.406c.289.336.687.5 1.187.5q.732.002 1.172-.5.437-.515.438-1.406c0-.582-.149-1.047-.438-1.39q-.44-.516-1.172-.516m2.188-3.453v1a5.6 5.6 0 0 0-.844-.297 3.4 3.4 0 0 0-.828-.11c-.73 0-1.29.25-1.672.75-.387.493-.61 1.23-.672 2.22q.327-.469.813-.72.48-.264 1.078-.265 1.232 0 1.937.75c.477.5.719 1.18.719 2.031q0 1.268-.75 2.031-.738.75-1.969.75-1.424 0-2.172-1.078c-.5-.726-.75-1.781-.75-3.156q-.002-1.936.922-3.078.921-1.156 2.469-1.157.406.001.828.079.435.08.89.25m0 0" style="stroke:none"/></symbol><symbol id="l" overflow="visible"><path d="M1.656-13.125h3.782l4.765 9v-9h3.203V0H9.641L4.859-9v9H1.656Zm0 0" style="stroke:none"/></symbol><symbol id="m" overflow="visible"><path d="M1.406-3.828v-6.016h3.172v.985c0 .53-.008 1.203-.016 2.015q-.016 1.206-.015 1.61 0 1.19.062 1.718.06.516.22.75.184.3.5.47.308.173.718.171.984 0 1.547-.75.562-.761.562-2.11v-4.859h3.14V0h-3.14v-1.422q-.72.861-1.515 1.266A3.76 3.76 0 0 1 4.89.25Q3.187.25 2.297-.797q-.89-1.044-.89-3.031m0 0" style="stroke:none"/></symbol><symbol id="n" overflow="visible"><path d="M10.64-8.203q.593-.92 1.407-1.39a3.55 3.55 0 0 1 1.812-.485q1.7.002 2.579 1.047.89 1.049.89 3.031v6h-3.156v-5.375q.014-.122.015-.344c0-.695-.105-1.203-.312-1.515q-.3-.47-.984-.47-.91.002-1.391.735-.487.736-.5 2.14V0H7.828v-5.14q0-1.625-.281-2.094-.284-.47-1-.47-.909 0-1.406.75-.486.74-.485 2.11V0H1.5v-9.844h3.156v1.438q.576-.827 1.328-1.25.749-.422 1.657-.422 1.029.001 1.812.5.778.485 1.188 1.375m0 0" style="stroke:none"/></symbol><symbol id="o" overflow="visible"><path d="M6.75-2.031c.676 0 1.191-.242 1.547-.735.351-.488.531-1.203.531-2.14s-.18-1.649-.531-2.14q-.533-.75-1.547-.75-1.02 0-1.562.75-.533.735-.532 2.14c0 .93.176 1.64.532 2.14.363.493.882.735 1.562.735M4.656-8.406c.438-.57.914-.992 1.438-1.266q.796-.405 1.828-.406 1.812 0 2.984 1.453 1.172 1.44 1.172 3.719 0 2.266-1.172 3.718Q9.734.252 7.922.25 6.89.249 6.094-.156c-.524-.27-1-.692-1.438-1.266V0h-3.14v-13.672h3.14Zm0 0" style="stroke:none"/></symbol><symbol id="p" overflow="visible"><path d="M11.344-4.953v.906h-7.36q.105 1.112.797 1.656c.457.368 1.098.547 1.922.547q.983 0 2.031-.281c.696-.195 1.41-.5 2.141-.906v2.437Q9.749-.17 8.641.031C7.898.176 7.156.25 6.406.25Q3.733.25 2.25-1.11.78-2.468.781-4.905q0-2.421 1.453-3.797c.97-.914 2.301-1.375 4-1.375q2.31 0 3.704 1.406 1.406 1.394 1.406 3.719M8.109-6c0-.594-.18-1.07-.53-1.437q-.517-.546-1.36-.547-.925 0-1.5.515-.563.503-.703 1.469Zm0 0" style="stroke:none"/></symbol><symbol id="q" overflow="visible"><path d="M8.828-7.156A4 4 0 0 0 8-7.453a3.6 3.6 0 0 0-.812-.094q-1.22.001-1.875.781c-.438.524-.657 1.266-.657 2.235V0h-3.14v-9.844h3.14v1.61c.407-.633.867-1.098 1.39-1.391q.797-.451 1.891-.453c.102 0 .22.008.344.015q.187 0 .531.047Zm0 0" style="stroke:none"/></symbol><symbol id="s" overflow="visible"><path d="M6.203-7.828q-1.048 0-1.61.75-.548.752-.546 2.172-.002 1.406.547 2.156.561.75 1.61.75 1.011 0 1.562-.75.546-.75.547-2.156-.001-1.42-.547-2.172-.55-.75-1.563-.75m0-2.25q2.53.001 3.953 1.375 1.437 1.36 1.438 3.797 0 2.426-1.438 3.797Q8.734.25 6.203.25q-2.565 0-4-1.36Q.78-2.48.781-4.905q0-2.437 1.422-3.797c.957-.914 2.29-1.375 4-1.375m0 0" style="stroke:none"/></symbol><symbol id="t" overflow="visible"><path d="M7.984-13.672v2.063H6.25q-.675.002-.937.25-.268.235-.266.828v.687H7.75v2.25H5.047V0h-3.14v-7.594H.343v-2.25h1.562v-.687q0-1.607.89-2.375c.602-.508 1.532-.766 2.782-.766Zm0 0" style="stroke:none"/></symbol><symbol id="u" overflow="visible"><path d="M10.781-12.703v2.765a11.4 11.4 0 0 0-2.11-.718 8.4 8.4 0 0 0-1.937-.25c-.812 0-1.414.117-1.796.344q-.58.328-.579 1.03 0 .519.391.813.388.3 1.422.516l1.437.281q2.185.44 3.11 1.344.92.893.922 2.547-.002 2.173-1.282 3.234Q9.076.252 6.422.25A14 14 0 0 1 3.906.016a15 15 0 0 1-2.5-.703v-2.86q1.248.676 2.422 1.016 1.186.328 2.266.328c.738 0 1.304-.117 1.703-.36.394-.25.594-.601.594-1.062q-.001-.61-.407-.937-.41-.34-1.593-.61l-1.313-.281q-1.97-.42-2.875-1.344-.907-.918-.906-2.5 0-1.95 1.266-3 1.263-1.061 3.64-1.062 1.077 0 2.219.172 1.139.156 2.36.484m0 0" style="stroke:none"/></symbol><symbol id="v" overflow="visible"><path d="M5.922-4.437q-.985.002-1.484.343-.486.328-.485.985 0 .597.39.937.406.328 1.11.328.891.001 1.5-.625.61-.639.61-1.594v-.375Zm4.812-1.172V0H7.563v-1.453Q6.92-.561 6.125-.156 5.34.25 4.203.25q-1.519 0-2.469-.89Q.78-1.53.781-2.954q0-1.734 1.188-2.531 1.185-.812 3.734-.813h1.86v-.25q-.002-.749-.594-1.094-.598-.341-1.828-.343-1.019.002-1.891.203a6.7 6.7 0 0 0-1.61.593v-2.39q.997-.247 2.016-.375a17 17 0 0 1 2.047-.125q2.672.002 3.844 1.047 1.185 1.049 1.187 3.422m0 0" style="stroke:none"/></symbol><symbol id="w" overflow="visible"><path d="M4.656-1.422V3.75h-3.14V-9.844h3.14v1.438c.438-.57.914-.992 1.438-1.266q.796-.405 1.828-.406 1.812 0 2.984 1.453 1.172 1.44 1.172 3.719 0 2.266-1.172 3.718Q9.734.252 7.922.25 6.89.249 6.094-.156c-.524-.27-1-.692-1.438-1.266M6.75-7.797q-1.02 0-1.562.75-.533.736-.532 2.14c0 .93.176 1.641.532 2.141.363.493.882.735 1.562.735.676 0 1.191-.242 1.547-.735.351-.488.531-1.203.531-2.14s-.18-1.649-.531-2.14q-.533-.75-1.547-.75m0 0" style="stroke:none"/></symbol><symbol id="x" overflow="visible"><path d="M1.516-13.672h3.14V0h-3.14Zm0 0" style="stroke:none"/></symbol><symbol id="y" overflow="visible"><path d="M9.203-9.531v2.39a11.6 11.6 0 0 0-1.953-.625 8 8 0 0 0-1.781-.218c-.594 0-1.04.074-1.328.218-.293.149-.438.375-.438.688q0 .377.328.578.342.204 1.188.297l.562.078q2.403.314 3.235 1.016.843.703.843 2.203 0 1.58-1.156 2.375-1.16.783-3.469.781C4.586.25 3.914.195 3.22.094a15 15 0 0 1-2.14-.453V-2.75A9.3 9.3 0 0 0 3-2.062a9.2 9.2 0 0 0 2.016.218q.92.001 1.39-.25.47-.246.469-.75 0-.42-.328-.625-.317-.217-1.266-.328l-.562-.078c-1.399-.164-2.375-.488-2.938-.969Q.938-5.558.938-7c0-1.04.351-1.812 1.062-2.312q1.077-.764 3.297-.766.856 0 1.812.14.968.128 2.094.407m0 0" style="stroke:none"/></symbol><symbol id="D" overflow="visible"><path d="M-7.297-6.453q0-1.077-.39-1.531-.405-.47-1.313-.47-.89 0-1.281.47-.389.454-.39 1.53v1.423h3.374Zm2.328 1.422H0v3.375h-13.125v-5.172q.001-2.577.875-3.781c.586-.813 1.5-1.22 2.75-1.22.867 0 1.578.212 2.14.626q.833.626 1.22 1.89.157-.685.718-1.234.563-.545 1.688-1.11L0-13.5v3.61l-3.266 1.593q-.982.486-1.343.985-.36.486-.36 1.312Zm0 0" style="stroke:none"/></symbol><symbol id="E" overflow="visible"><path d="M-3.828-1.406h-6.016v-3.172h.985c.53 0 1.203.008 2.015.016q1.206.016 1.61.015 1.19 0 1.718-.062.516-.06.75-.22.3-.184.47-.5.173-.308.171-.718 0-.984-.75-1.547-.761-.562-2.11-.562h-4.859v-3.14H0v3.14h-1.422q.861.72 1.266 1.515.406.785.406 1.75 0 1.704-1.047 2.594-1.044.89-3.031.89m0 0" style="stroke:none"/></symbol><symbol id="F" overflow="visible"><path d="M-6-11.406h6v3.156h-4.594q-1.264.002-1.75.063-.482.063-.718.203a1.26 1.26 0 0 0-.47.5q-.17.315-.171.718c0 .657.258 1.172.766 1.547q.751.563 2.093.563H0v3.14h-9.844v-3.14h1.438q-.855-.718-1.266-1.516a3.84 3.84 0 0 1-.406-1.766q.002-1.699 1.047-2.578 1.049-.89 3.031-.89m0 0" style="stroke:none"/></symbol><symbol id="G" overflow="visible"><path d="M-12.64-4.953h2.796v-3.234h2.25v3.234h4.172q.692.002.938-.266.234-.281.234-1.078v-1.625H0v2.703q.002 1.862-.781 2.64c-.52.524-1.399.782-2.64.782h-4.173v1.563h-2.25v-1.563h-2.797Zm0 0" style="stroke:none"/></symbol><symbol id="H" overflow="visible"><path d="M-9.844-1.516v-3.14H0v3.14Zm-3.828 0v-3.14h2.563v3.14Zm0 0" style="stroke:none"/></symbol><symbol id="I" overflow="visible"><path d="M-8.203-10.64q-.92-.593-1.39-1.407a3.55 3.55 0 0 1-.485-1.812q.002-1.7 1.047-2.578 1.049-.891 3.031-.891h6v3.156h-5.375a4 4 0 0 0-.344-.015c-.695 0-1.203.105-1.515.312q-.47.3-.47.984.002.91.735 1.391.736.487 2.14.5H0v3.172h-5.14q-1.625 0-2.094.281-.47.284-.47 1 0 .909.75 1.406.74.486 2.11.485H0V-1.5h-9.844v-3.156h1.438q-.827-.576-1.25-1.328a3.3 3.3 0 0 1-.422-1.657q.001-1.029.5-1.812.485-.778 1.375-1.188m0 0" style="stroke:none"/></symbol><symbol id="J" overflow="visible"><path d="M-4.953-11.344h.906v7.36q1.112-.105 1.656-.797c.368-.457.547-1.098.547-1.922q0-.983-.281-2.031a10 10 0 0 0-.906-2.141h2.437q.424 1.126.625 2.234c.145.743.219 1.485.219 2.235q0 2.673-1.36 4.156Q-2.468-.78-4.905-.781q-2.421 0-3.797-1.453c-.914-.97-1.375-2.301-1.375-4q0-2.31 1.406-3.703 1.394-1.407 3.719-1.407M-6-8.109c-.594 0-1.07.18-1.437.53q-.546.517-.547 1.36 0 .925.515 1.5.503.563 1.469.703Zm0 0" style="stroke:none"/></symbol><symbol id="L" overflow="visible"><path d="M2.375-6.781v2.61c-1.45.898-2.82 1.558-4.125 1.984-1.3.43-2.598.64-3.89.64-1.282 0-2.579-.21-3.891-.64q-1.97-.656-4.125-1.985v-2.61q2.08 1.125 4.078 1.688 1.987.563 3.922.563a14.5 14.5 0 0 0 3.953-.563Q.28-5.656 2.375-6.78m0 0" style="stroke:none"/></symbol><symbol id="M" overflow="visible"><path d="M-9.531-9.203h2.39c-.28.68-.488 1.328-.625 1.953a8 8 0 0 0-.218 1.781c0 .594.074 1.04.218 1.328.149.293.375.438.688.438a.64.64 0 0 0 .578-.328q.204-.342.297-1.188l.078-.562q.314-2.403 1.016-3.235.703-.843 2.203-.843 1.58 0 2.375 1.156.783 1.16.781 3.469c0 .648-.055 1.32-.156 2.015a15 15 0 0 1-.453 2.14H-2.75A9.3 9.3 0 0 0-2.062-3a9.2 9.2 0 0 0 .218-2.016q.001-.92-.25-1.39-.246-.47-.75-.469-.42 0-.625.328-.217.317-.328 1.266l-.078.562c-.164 1.399-.488 2.375-.969 2.938Q-5.558-.938-7-.938c-1.04 0-1.812-.351-2.312-1.062q-.764-1.077-.766-3.297 0-.856.14-1.812.128-.968.407-2.094m0 0" style="stroke:none"/></symbol><symbol id="N" overflow="visible"><path d="M2.375-1.437C.977-2.187-.379-2.75-1.703-3.125a14.5 14.5 0 0 0-3.953-.562q-1.935 0-3.922.562-1.998.563-4.078 1.688v-2.61q2.156-1.34 4.125-1.984 1.969-.657 3.89-.657 1.94 0 3.891.657c1.305.43 2.676 1.09 4.125 1.984Zm0 0" style="stroke:none"/></symbol><symbol id="ar" overflow="visible"><path d="M-13.125-1.656v-3.375h10.563v-5.953H0v9.328Zm0 0" style="stroke:none"/></symbol><symbol id="as" overflow="visible"><path d="M-13.125-1.656v-4.297l7.031-3-7.031-3v-4.297H0v3.203h-9.594l7.078 3.016v2.14l-7.078 3.032H0v3.203Zm0 0" style="stroke:none"/></symbol><symbol id="at" overflow="visible"><path d="M-13.125-1.656v-9.125h2.563v5.75h2.437v-5.406h2.563v5.406h3v-5.953H0v9.328Zm0 0" style="stroke:none"/></symbol><symbol id="T" overflow="visible"><path d="M8.969-.656a7.6 7.6 0 0 1-1.75.625 8.7 8.7 0 0 1-1.875.203q-2.191 0-3.469-1.219Q.593-2.278.594-4.359.592-6.48 1.89-7.687q1.311-1.22 3.578-1.22c.57 0 1.125.06 1.656.173a6.6 6.6 0 0 1 1.516.484v1.797a7 7 0 0 0-1.453-.61 5.4 5.4 0 0 0-1.454-.203q-1.346 0-2.078.75-.72.75-.719 2.157 0 1.378.704 2.14.702.75 1.984.75.357.002.656-.031.311-.047.547-.14v-1.704H5.453v-1.515H8.97Zm0 0" style="stroke:none"/></symbol><symbol id="U" overflow="visible"><path d="M1.11-8.75h3.734q1.67 0 2.562.75.89.738.89 2.11 0 1.375-.89 2.124c-.593.493-1.449.735-2.562.735H3.359V0H1.11Zm2.25 1.64v2.438h1.25c.437 0 .773-.101 1.015-.312q.359-.328.36-.907-.002-.59-.36-.906-.361-.311-1.016-.312Zm0 0" style="stroke:none"/></symbol><symbol id="V" overflow="visible"><path d="M1.11-8.75h2.25v5.25q-.001 1.078.343 1.547.357.469 1.172.469.795 0 1.156-.47.36-.468.36-1.546v-5.25h2.25v5.25q0 1.863-.938 2.766-.924.907-2.828.906-1.908.002-2.844-.906-.924-.903-.922-2.766Zm0 0" style="stroke:none"/></symbol><symbol id="W" overflow="visible"><path d="M7.61-4v4H5.5v-3.062q0-.843-.047-1.157-.032-.327-.125-.484a.9.9 0 0 0-.344-.313.9.9 0 0 0-.468-.125q-.657 0-1.032.516-.375.502-.375 1.39V0H1.016v-6.562h2.093v.953q.469-.561 1-.828a2.5 2.5 0 0 1 1.188-.282c.75 0 1.32.235 1.719.703q.592.692.593 2.016m0 0" style="stroke:none"/></symbol><symbol id="X" overflow="visible"><path d="M5.469-5.61v-3.515h2.11V0h-2.11v-.953a2.85 2.85 0 0 1-.953.86 2.6 2.6 0 0 1-1.203.265c-.813 0-1.481-.32-2-.969Q.546-1.764.547-3.28q-.001-1.513.766-2.469.78-.968 2-.969.668 0 1.203.282c.351.18.672.453.953.828M4.094-1.36q.669.001 1.015-.484.36-.499.36-1.437 0-.937-.36-1.422-.346-.499-1.015-.5-.674.001-1.032.5-.344.485-.343 1.422-.001.938.344 1.437.357.486 1.03.485m0 0" style="stroke:none"/></symbol><symbol id="Y" overflow="visible"><path d="M7.563-3.297v.594H2.656q.076.736.531 1.11.45.375 1.282.374.654.001 1.343-.203a7.3 7.3 0 0 0 1.438-.594v1.61q-.75.28-1.5.422a7.3 7.3 0 0 1-1.484.156Q2.484.174 1.5-.734.516-1.64.516-3.281c0-1.063.32-1.899.968-2.516q.968-.92 2.672-.922c1.032 0 1.852.313 2.469.938q.938.925.938 2.484M5.406-4q0-.59-.36-.953-.344-.375-.905-.375-.612.002-1 .344-.375.345-.47.984Zm0 0" style="stroke:none"/></symbol><symbol id="Z" overflow="visible"><path d="M5.89-4.781a3 3 0 0 0-.562-.188q-.268-.06-.547-.062c-.531 0-.945.18-1.234.531q-.439.518-.438 1.469V0H1.016v-6.562h2.093v1.078q.406-.64.922-.938c.352-.195.774-.297 1.266-.297q.091.002.219.016.124.001.359.031Zm0 0" style="stroke:none"/></symbol><symbol id="aa" overflow="visible"><path d="M.938-2.562v-4h2.109v.656q-.002.534-.016 1.343V-3.5q0 .798.047 1.156.047.347.14.5a.8.8 0 0 0 .329.313q.216.11.484.11.657.001 1.032-.5.375-.5.375-1.407v-3.234H7.53V0H5.438v-.953q-.471.58-1 .86a2.6 2.6 0 0 1-1.172.265Q2.123.174 1.53-.516q-.594-.7-.592-2.046m0 0" style="stroke:none"/></symbol><symbol id="ab" overflow="visible"><path d="M3.297-8.422v1.86h2.172v1.5H3.297v2.78q-.002.456.172.626.185.157.734.156h1.078V0H3.484C2.648 0 2.063-.172 1.72-.516q-.516-.514-.516-1.765v-2.781H.156v-1.5h1.047v-1.86Zm0 0" style="stroke:none"/></symbol><symbol id="ac" overflow="visible"><path d="M1.016-6.562h2.093V0H1.016Zm0-2.563h2.093v1.719H1.016Zm0 0" style="stroke:none"/></symbol><symbol id="ad" overflow="visible"><path d="M1.016-9.125h2.093V0H1.016Zm0 0" style="stroke:none"/></symbol><symbol id="ae" overflow="visible"><path d="M.688-6.562h5.718v1.468L2.953-1.5h3.453V0H.546v-1.469L4-5.062H.688Zm0 0" style="stroke:none"/></symbol><symbol id="af" overflow="visible"><path d="M.063-8.75h8.062v1.703H5.219V0h-2.25v-7.047H.063Zm0 0" style="stroke:none"/></symbol><symbol id="ag" overflow="visible"><path d="M7.61-4v4H5.5v-3.047q0-.854-.047-1.172-.032-.327-.125-.484a.9.9 0 0 0-.344-.313.9.9 0 0 0-.468-.125q-.657 0-1.032.516-.375.502-.375 1.39V0H1.016v-9.125h2.093v3.516q.469-.561 1-.828a2.5 2.5 0 0 1 1.188-.282c.75 0 1.32.235 1.719.703q.592.692.593 2.016m0 0" style="stroke:none"/></symbol><symbol id="ah" overflow="visible"><path d="M4.125-5.219q-.688.001-1.062.5c-.243.336-.36.813-.36 1.438 0 .636.117 1.12.36 1.453.25.336.601.5 1.062.5.457 0 .805-.164 1.047-.5q.375-.498.375-1.453 0-.936-.375-1.438-.362-.499-1.047-.5m0-1.5q1.7.001 2.656.922.951.91.953 2.516-.002 1.628-.953 2.547-.955.907-2.656.906-1.689.002-2.656-.906-.954-.92-.953-2.547-.001-1.606.953-2.516.967-.92 2.656-.922m0 0" style="stroke:none"/></symbol><symbol id="ai" overflow="visible"><path d="M5.469-1.11a2.9 2.9 0 0 1-.953.844Q3.999.002 3.313 0 2.107 0 1.328-.937.545-1.887.547-3.36q-.002-1.468.781-2.407.779-.937 1.985-.937.686.001 1.203.266c.351.18.672.46.953.843v-.968h2.11v5.906c0 1.05-.337 1.851-1 2.406q-1.005.844-2.891.844-.612 0-1.188-.094a7 7 0 0 1-1.156-.297V.578a5 5 0 0 0 1.078.469 3.8 3.8 0 0 0 1.062.156q1.032 0 1.5-.453c.32-.305.485-.77.485-1.406ZM4.094-5.202q-.658.002-1.016.484-.361.486-.36 1.36 0 .907.345 1.375.357.454 1.03.453.655 0 1.016-.469.36-.48.36-1.36 0-.872-.36-1.359-.361-.482-1.015-.484m0 0" style="stroke:none"/></symbol><symbol id="az" overflow="visible"><path d="M3.453-1.656h3.86V0H.952v-1.656L4.14-4.484q.435-.375.64-.75.201-.374.203-.766 0-.609-.421-.984-.41-.375-1.094-.375-.534.001-1.156.218a6.8 6.8 0 0 0-1.344.672V-8.39q.762-.246 1.5-.375.749-.14 1.469-.14 1.576 0 2.437.687.874.69.875 1.938c0 .468-.125.914-.375 1.328q-.363.61-1.547 1.656Zm0 0" style="stroke:none"/></symbol><symbol id="aA" overflow="visible"><path d="M4.344-4.312q-.599.002-.89.39c-.2.25-.298.633-.298 1.14q0 .77.297 1.157.293.375.89.375.592 0 .891-.375.295-.388.297-1.156-.002-.764-.297-1.14-.299-.39-.89-.392m2.781-4.204v1.61a6 6 0 0 0-1.047-.39 4 4 0 0 0-.953-.126c-.68 0-1.203.188-1.578.563s-.594.93-.656 1.656a2.9 2.9 0 0 1 .843-.422q.452-.14.985-.14 1.341 0 2.156.78c.55.524.828 1.204.828 2.048 0 .937-.308 1.695-.922 2.265q-.923.844-2.468.844Q2.609.174 1.672-.984.748-2.14.75-4.25.749-6.419 1.844-7.656c.726-.82 1.722-1.235 2.984-1.235a7.1 7.1 0 0 1 2.297.375m0 0" style="stroke:none"/></symbol><symbol id="aB" overflow="visible"><path d="M1.219-2.266h2.11V0h-2.11Zm0 0" style="stroke:none"/></symbol><symbol id="aC" overflow="visible"><path d="M.797-8.75H7.39v1.266L3.984 0H1.781l3.235-7.094H.796Zm0 0" style="stroke:none"/></symbol><symbol id="aD" overflow="visible"><path d="M1.406-1.562h2V-7.22l-2.047.422v-1.531l2.032-.422h2.14v7.188h2V0H1.406Zm0 0" style="stroke:none"/></symbol><symbol id="aj" overflow="visible"><path d="M10.453-.766a9.4 9.4 0 0 1-2.047.735Q7.358.203 6.234.203q-2.564 0-4.046-1.422Q.7-2.655.702-5.094q0-2.466 1.518-3.875c1.008-.945 2.394-1.422 4.156-1.422q1.012 0 1.938.188.934.19 1.765.578v2.11a7.5 7.5 0 0 0-1.687-.72 6 6 0 0 0-1.703-.25q-1.566.002-2.422.876-.844.877-.844 2.515c0 1.086.27 1.922.812 2.516q.828.877 2.329.875.42 0 .765-.047.358-.06.64-.172v-1.984H6.36v-1.766h4.094Zm0 0" style="stroke:none"/></symbol><symbol id="ak" overflow="visible"><path d="M1.281-10.203h4.375q1.952.002 2.985.86c.695.573 1.047 1.398 1.047 2.468 0 1.074-.352 1.898-1.047 2.469q-1.033.86-2.985.86H3.922V0h-2.64Zm2.64 1.906v2.844h1.454c.508 0 .898-.117 1.172-.36.281-.25.422-.601.422-1.062q0-.685-.422-1.047-.41-.375-1.172-.375Zm0 0" style="stroke:none"/></symbol><symbol id="al" overflow="visible"><path d="M1.281-10.203h2.64v6.11q-.001 1.265.407 1.812.421.549 1.36.547.936.002 1.343-.547.422-.546.422-1.813v-6.11h2.625v6.11q-.002 2.175-1.094 3.235C8.266-.15 7.164.203 5.688.203c-1.493 0-2.602-.351-3.329-1.062Q1.282-1.92 1.281-4.094Zm0 0" style="stroke:none"/></symbol><symbol id="an" overflow="visible"><path d="M5.953-8.484q-1.207 0-1.875.89-.656.893-.656 2.5 0 1.61.656 2.5.668.89 1.875.89 1.201 0 1.86-.89.67-.89.671-2.5-.002-1.607-.671-2.5-.659-.89-1.86-.89m0-1.907q2.45 0 3.844 1.407 1.406 1.406 1.406 3.89 0 2.474-1.406 3.89Q8.402.204 5.953.204q-2.454 0-3.86-1.406Q.702-2.621.704-5.093q-.002-2.485 1.39-3.891 1.406-1.407 3.86-1.407m0 0" style="stroke:none"/></symbol><symbol id="ao" overflow="visible"><path d="M1.281-10.203h3.36L6.953-4.75l2.344-5.453h3.344V0h-2.485v-7.469l-2.36 5.5h-1.67l-2.344-5.5V0h-2.5Zm0 0" style="stroke:none"/></symbol><clipPath id="a"><path d="M92 42.82h360V135H92Zm0 0"/></clipPath><clipPath id="b"><path d="M92 42.82h361V135H92Zm0 0"/></clipPath><clipPath id="c"><path d="M380 42.82h77.637v140.817H380Zm0 0"/></clipPath><clipPath id="d"><path d="M379 42.82h78.637v140.817H379Zm0 0"/></clipPath><clipPath id="O"><path d="M90 42.82h328V134H90Zm0 0"/></clipPath><clipPath id="P"><path d="M89 42.82h7v140.817h-7Zm0 0"/></clipPath><clipPath id="Q"><path d="M161 42.82h7v140.817h-7Zm0 0"/></clipPath><clipPath id="R"><path d="M377 42.82h6v140.817h-6Zm0 0"/></clipPath><clipPath id="S"><path d="M450 42.82h3v140.817h-3Zm0 0"/></clipPath><clipPath id="ap"><path d="M878 42.82h78.102v140.817H878Zm0 0"/></clipPath><clipPath id="au"><path d="M584.234 56h371.868v3H584.234Zm0 0"/></clipPath><clipPath id="av"><path d="M588 42.82h7v140.817h-7Zm0 0"/></clipPath><clipPath id="aw"><path d="M660 42.82h6v140.817h-6Zm0 0"/></clipPath><clipPath id="ax"><path d="M875 42.82h7v140.817h-7Zm0 0"/></clipPath><clipPath id="ay"><path d="M949 42.82h3v140.817h-3Zm0 0"/></clipPath></defs><path d="M0 0h1008v252H0z" style="fill:#fff;fill-opacity:1;stroke:none"/><path d="M85.77 183.637h371.867V42.82H85.77Zm0 0" style="stroke:none;fill-rule:nonzero;fill:#fff;fill-opacity:1"/><g clip-path="url(#a)"><path d="M92.73 127.34v6.586l21.63-3.293 28.59 3.387 21.624-2.528 21.63 2.977 12.648-1.117 15.941.914 10.496-.899 11.129-6.847 12.652 5.918 8.977-2.551 12.648 1.941 8.977.332 6.965 1.703 10.496-4.949 11.129-.406 12.652 4.715 8.977-2.914 12.648 3.21 8.977-1.859 6.96 1.024 10.5 1.191 11.13-3.336 12.652-20.008 8.972-33.367L414.383 9.32l8.976-62.418 6.961-69.363 10.5-135.047 11.13-200.375v-4.148l-11.13 200.148-10.5 133.977-6.96 71.496-8.977 61.594-12.653 67.89-8.972 34.465-12.653 16.496-11.128 3.578-10.5-2.675-6.961-.637-8.977 1.101-12.648-.87-8.977.382-12.652-2.14-11.13.492-10.495 5.867-6.965-4.406-8.977-.946-12.648-.601-8.977.804-12.652-.613-11.129 3.883-10.496-.035-15.941-2.465-12.649 1.851-21.629-3.472-21.625 3.75-28.59-4.383Zm0 0" style="stroke:none;fill-rule:nonzero;fill:#0173b2;fill-opacity:.3"/></g><g clip-path="url(#b)"><path d="M92.73 124.66v-6.586l21.63 3.293 28.59-3.387 21.624 2.528 21.63-2.977 12.648 1.117 15.941-.914 10.496.899 11.129 6.847 12.652-5.918 8.977 2.551 12.648-1.941 8.977-.332 6.965-1.703 10.496 4.949 11.129.406 12.652-4.715 8.977 2.914 12.648-3.21 8.977 1.859 6.96-1.024 10.5-1.191 11.13 3.336 12.652 20.008 8.972 33.367 12.653 67.844 8.976 62.418 6.961 69.363 10.5 135.047 11.13 200.375v4.148l-11.13-200.148-10.5-133.977-6.96-71.496-8.977-61.594-12.653-67.89-8.972-34.465-12.653-16.496-11.128-3.578-10.5 2.675-6.961.637-8.977-1.101-12.648.87-8.977-.382-12.652 2.14-11.13-.492-10.495-5.867-6.965 4.406-8.977.946-12.648.601-8.977-.804-12.652.613-11.129-3.883-10.496.035-15.941 2.465-12.649-1.851-21.629 3.472-21.625-3.75-28.59 4.383Zm0 0" style="fill:none;stroke-width:1;stroke-linecap:butt;stroke-linejoin:round;stroke:#0173b2;stroke-opacity:.3;stroke-miterlimit:10" transform="matrix(1 0 0 -1 0 252)"/></g><g clip-path="url(#c)"><path d="M380.105 183.637h77.532V42.82h-77.532Zm0 0" style="stroke:none;fill-rule:nonzero;fill:orange;fill-opacity:.1"/></g><g clip-path="url(#d)"><path d="M380.105 68.363h77.532V209.18h-77.532Zm0 0" style="fill:none;stroke-width:1;stroke-linecap:butt;stroke-linejoin:miter;stroke:orange;stroke-opacity:.1;stroke-miterlimit:10" transform="matrix(1 0 0 -1 0 252)"/></g><path d="M164.574 68.363v-6" style="fill:none;stroke-width:1.5;stroke-linecap:butt;stroke-linejoin:round;stroke:#000;stroke-opacity:1;stroke-miterlimit:10" transform="matrix(1 0 0 -1 0 252)"/><use xlink:href="#e" x="150.076" y="205.245" style="fill:#000;fill-opacity:1"/><use xlink:href="#f" x="160.255" y="205.245" style="fill:#000;fill-opacity:1"/><use xlink:href="#g" x="170.588" y="199.12" style="fill:#000;fill-opacity:1"/><path d="M236.418 68.363v-6" style="fill:none;stroke-width:1.5;stroke-linecap:butt;stroke-linejoin:round;stroke:#000;stroke-opacity:1;stroke-miterlimit:10" transform="matrix(1 0 0 -1 0 252)"/><use xlink:href="#e" x="221.919" y="205.245" style="fill:#000;fill-opacity:1"/><use xlink:href="#f" x="232.098" y="205.245" style="fill:#000;fill-opacity:1"/><use xlink:href="#h" x="242.431" y="199.12" style="fill:#000;fill-opacity:1"/><path d="M308.262 68.363v-6" style="fill:none;stroke-width:1.5;stroke-linecap:butt;stroke-linejoin:round;stroke:#000;stroke-opacity:1;stroke-miterlimit:10" transform="matrix(1 0 0 -1 0 252)"/><use xlink:href="#e" x="293.762" y="205.103" style="fill:#000;fill-opacity:1"/><use xlink:href="#f" x="303.942" y="205.103" style="fill:#000;fill-opacity:1"/><use xlink:href="#i" x="314.274" y="198.978" style="fill:#000;fill-opacity:1"/><path d="M380.105 68.363v-6" style="fill:none;stroke-width:1.5;stroke-linecap:butt;stroke-linejoin:round;stroke:#000;stroke-opacity:1;stroke-miterlimit:10" transform="matrix(1 0 0 -1 0 252)"/><use xlink:href="#e" x="365.605" y="205.103" style="fill:#000;fill-opacity:1"/><use xlink:href="#f" x="375.785" y="205.103" style="fill:#000;fill-opacity:1"/><use xlink:href="#j" x="386.118" y="198.978" style="fill:#000;fill-opacity:1"/><path d="M451.95 68.363v-6" style="fill:none;stroke-width:1.5;stroke-linecap:butt;stroke-linejoin:round;stroke:#000;stroke-opacity:1;stroke-miterlimit:10" transform="matrix(1 0 0 -1 0 252)"/><use xlink:href="#e" x="437.448" y="205.245" style="fill:#000;fill-opacity:1"/><use xlink:href="#f" x="447.628" y="205.245" style="fill:#000;fill-opacity:1"/><use xlink:href="#k" x="457.961" y="199.12" style="fill:#000;fill-opacity:1"/><path d="M85.77 68.363v-2m3.675 2v-2m24.915 2v-2m12.652 2v-2m8.972 2v-2m6.966 2v-2m5.687 2v-2m4.808 2v-2m4.168 2v-2m3.677 2v-2m24.913 2v-2m12.649 2v-2m8.976 2v-2m6.965 2v-2m5.687 2v-2m4.81 2v-2m4.167 2v-2m3.676 2v-2m24.914 2v-2m12.648 2v-2m8.977 2v-2m6.965 2v-2m5.687 2v-2m4.809 2v-2m4.167 2v-2m3.673 2v-2m24.917 2v-2m12.65 2v-2m8.976 2v-2m6.961 2v-2m5.691 2v-2m4.809 2v-2m4.168 2v-2m3.671 2v-2m24.914 2v-2m12.653 2v-2m8.977 2v-2m6.96 2v-2m5.692 2v-2m4.808 2v-2m4.164 2v-2m3.676 2v-2" style="fill:none;stroke-width:.6;stroke-linecap:butt;stroke-linejoin:round;stroke:#000;stroke-opacity:1;stroke-miterlimit:10" transform="matrix(1 0 0 -1 0 252)"/><g style="fill:#000;fill-opacity:1"><use xlink:href="#l" x="172.118" y="226.808"/><use xlink:href="#m" x="187.166" y="226.808"/><use xlink:href="#n" x="199.964" y="226.808"/><use xlink:href="#o" x="218.702" y="226.808"/><use xlink:href="#p" x="231.572" y="226.808"/><use xlink:href="#q" x="243.776" y="226.808"/><use xlink:href="#r" x="252.65" y="226.808"/><use xlink:href="#s" x="258.914" y="226.808"/><use xlink:href="#t" x="271.28" y="226.808"/><use xlink:href="#r" x="279.11" y="226.808"/><use xlink:href="#u" x="285.374" y="226.808"/><use xlink:href="#v" x="298.334" y="226.808"/><use xlink:href="#n" x="310.466" y="226.808"/><use xlink:href="#w" x="329.204" y="226.808"/><use xlink:href="#x" x="342.074" y="226.808"/><use xlink:href="#p" x="348.23" y="226.808"/><use xlink:href="#y" x="360.434" y="226.808"/></g><path d="M85.77 85.965h-6" style="fill:none;stroke-width:1.5;stroke-linecap:butt;stroke-linejoin:round;stroke:#000;stroke-opacity:1;stroke-miterlimit:10" transform="matrix(1 0 0 -1 0 252)"/><g style="fill:#000;fill-opacity:1"><use xlink:href="#f" x="40.614" y="172.112"/><use xlink:href="#z" x="50.79" y="172.112"/><use xlink:href="#e" x="55.862" y="172.112"/><use xlink:href="#A" x="66.038" y="172.112"/></g><path d="M85.77 138.77h-6" style="fill:none;stroke-width:1.5;stroke-linecap:butt;stroke-linejoin:round;stroke:#000;stroke-opacity:1;stroke-miterlimit:10" transform="matrix(1 0 0 -1 0 252)"/><g style="fill:#000;fill-opacity:1"><use xlink:href="#f" x="40.614" y="119.307"/><use xlink:href="#z" x="50.79" y="119.307"/><use xlink:href="#B" x="55.862" y="119.307"/><use xlink:href="#f" x="66.038" y="119.307"/></g><path d="M85.77 191.578h-6" style="fill:none;stroke-width:1.5;stroke-linecap:butt;stroke-linejoin:round;stroke:#000;stroke-opacity:1;stroke-miterlimit:10" transform="matrix(1 0 0 -1 0 252)"/><g style="fill:#000;fill-opacity:1"><use xlink:href="#f" x="40.614" y="66.502"/><use xlink:href="#z" x="50.79" y="66.502"/><use xlink:href="#C" x="55.862" y="66.502"/><use xlink:href="#A" x="66.038" y="66.502"/></g><g style="fill:#000;fill-opacity:1"><use xlink:href="#D" x="32.864" y="181.94"/><use xlink:href="#E" x="32.864" y="168.08"/><use xlink:href="#F" x="32.864" y="155.282"/><use xlink:href="#G" x="32.864" y="142.484"/><use xlink:href="#H" x="32.864" y="133.88"/><use xlink:href="#I" x="32.864" y="127.724"/><use xlink:href="#J" x="32.864" y="108.986"/><use xlink:href="#K" x="32.864" y="96.782"/><use xlink:href="#L" x="32.864" y="90.518"/><use xlink:href="#I" x="32.864" y="82.292"/><use xlink:href="#M" x="32.864" y="63.554"/><use xlink:href="#N" x="32.864" y="52.844"/></g><g clip-path="url(#O)"><path d="m92.73 121.367 21.63 4.067 28.59-3.887 21.624 3.14 21.63-3.226 12.648 1.488 15.941-1.691 10.496.433 11.129 5.364 12.652-3.266 8.977 1.676 12.648-1.27 8.977-.64 6.965-3.055 10.496 5.41 11.129.45 12.652-3.426 8.977 1.644 12.648-2.039 8.977 1.48 6.96-.832 10.5-1.93 11.13 3.458 12.652 18.25 8.972 33.914 12.653 67.871 1.195 8.25" style="fill:none;stroke-width:3;stroke-linecap:square;stroke-linejoin:round;stroke:#0173b2;stroke-opacity:1;stroke-miterlimit:10" transform="matrix(1 0 0 -1 0 252)"/></g><path d="M-.002-4.001c1.063 0 2.082.422 2.832 1.172A4 4 0 0 1 3.998-.001a3.993 3.993 0 0 1-4 4 4.004 4.004 0 0 1-4-4 4.004 4.004 0 0 1 4-4Zm0 0" style="fill-rule:nonzero;fill:#0173b2;fill-opacity:1;stroke-width:1;stroke-linecap:butt;stroke-linejoin:round;stroke:#0173b2;stroke-opacity:1;stroke-miterlimit:10" transform="matrix(1 0 0 -1 92.732 130.632)"/><path d="M0-4a3.997 3.997 0 0 1 4 4 4.004 4.004 0 0 1-4 4 3.997 3.997 0 0 1-4-4 3.997 3.997 0 0 1 4-4Zm0 0" style="fill-rule:nonzero;fill:#0173b2;fill-opacity:1;stroke-width:1;stroke-linecap:butt;stroke-linejoin:round;stroke:#0173b2;stroke-opacity:1;stroke-miterlimit:10" transform="matrix(1 0 0 -1 114.36 126.567)"/><path d="M0-4.002a4.004 4.004 0 0 1 4 4A4 4 0 0 1 2.83 2.83 4 4 0 0 1 0 3.998a3.993 3.993 0 0 1-4-4 4.004 4.004 0 0 1 4-4Zm0 0" style="fill-rule:nonzero;fill:#0173b2;fill-opacity:1;stroke-width:1;stroke-linecap:butt;stroke-linejoin:round;stroke:#0173b2;stroke-opacity:1;stroke-miterlimit:10" transform="matrix(1 0 0 -1 142.949 130.451)"/><path d="M-.001-4a3.997 3.997 0 0 1 4 4 3.997 3.997 0 0 1-4 4 4.004 4.004 0 0 1-4-4 4.004 4.004 0 0 1 4-4Zm0 0" style="fill-rule:nonzero;fill:#0173b2;fill-opacity:1;stroke-width:1;stroke-linecap:butt;stroke-linejoin:round;stroke:#0173b2;stroke-opacity:1;stroke-miterlimit:10" transform="matrix(1 0 0 -1 164.576 127.312)"/><path d="M0-4.002a4.004 4.004 0 0 1 4 4A4 4 0 0 1 2.83 2.83 4 4 0 0 1 0 3.998a3.993 3.993 0 0 1-4-4 4.004 4.004 0 0 1 4-4Zm0 0" style="fill-rule:nonzero;fill:#0173b2;fill-opacity:1;stroke-width:1;stroke-linecap:butt;stroke-linejoin:round;stroke:#0173b2;stroke-opacity:1;stroke-miterlimit:10" transform="matrix(1 0 0 -1 186.202 130.537)"/><path d="M-.002-3.999a3.993 3.993 0 0 1 4 4A4 4 0 0 1 2.83 2.83a4.006 4.006 0 0 1-5.66 0A3.997 3.997 0 0 1-.002-3.999Zm0 0" style="fill-rule:nonzero;fill:#0173b2;fill-opacity:1;stroke-width:1;stroke-linecap:butt;stroke-linejoin:round;stroke:#0173b2;stroke-opacity:1;stroke-miterlimit:10" transform="matrix(1 0 0 -1 198.853 129.052)"/><path d="M.001-4a4.004 4.004 0 0 1 4 4 3.997 3.997 0 0 1-4 4 3.997 3.997 0 0 1-4-4 3.997 3.997 0 0 1 4-4Zm0 0" style="fill-rule:nonzero;fill:#0173b2;fill-opacity:1;stroke-width:1;stroke-linecap:butt;stroke-linejoin:round;stroke:#0173b2;stroke-opacity:1;stroke-miterlimit:10" transform="matrix(1 0 0 -1 214.792 130.742)"/><path d="M-.001-3.999a3.997 3.997 0 0 1 4 4 4.004 4.004 0 0 1-4 4 4.004 4.004 0 0 1-4-4 3.997 3.997 0 0 1 4-4Zm0 0" style="fill-rule:nonzero;fill:#0173b2;fill-opacity:1;stroke-width:1;stroke-linecap:butt;stroke-linejoin:round;stroke:#0173b2;stroke-opacity:1;stroke-miterlimit:10" transform="matrix(1 0 0 -1 225.29 130.31)"/><path d="M0-4.001a3.997 3.997 0 0 1 4 4 3.997 3.997 0 0 1-4 4 4.004 4.004 0 0 1-4-4 4.004 4.004 0 0 1 4-4Zm0 0" style="fill-rule:nonzero;fill:#0173b2;fill-opacity:1;stroke-width:1;stroke-linecap:butt;stroke-linejoin:round;stroke:#0173b2;stroke-opacity:1;stroke-miterlimit:10" transform="matrix(1 0 0 -1 236.419 124.944)"/><path d="M0-4a4.004 4.004 0 0 1 4 4 4.004 4.004 0 0 1-4 4 3.997 3.997 0 0 1-4-4 3.997 3.997 0 0 1 4-4Zm0 0" style="fill-rule:nonzero;fill:#0173b2;fill-opacity:1;stroke-width:1;stroke-linecap:butt;stroke-linejoin:round;stroke:#0173b2;stroke-opacity:1;stroke-miterlimit:10" transform="matrix(1 0 0 -1 249.07 128.212)"/><path d="M.001-4.002a4.004 4.004 0 0 1 4 4A4 4 0 0 1 2.83 2.83 4 4 0 0 1 .001 3.998a3.993 3.993 0 0 1-4-4 4.004 4.004 0 0 1 4-4Zm0 0" style="fill-rule:nonzero;fill:#0173b2;fill-opacity:1;stroke-width:1;stroke-linecap:butt;stroke-linejoin:round;stroke:#0173b2;stroke-opacity:1;stroke-miterlimit:10" transform="matrix(1 0 0 -1 258.046 126.533)"/><path d="M-.001-4a3.997 3.997 0 0 1 4 4 3.997 3.997 0 0 1-4 4 4.004 4.004 0 0 1-4-4 3.997 3.997 0 0 1 4-4Zm0 0" style="fill-rule:nonzero;fill:#0173b2;fill-opacity:1;stroke-width:1;stroke-linecap:butt;stroke-linejoin:round;stroke:#0173b2;stroke-opacity:1;stroke-miterlimit:10" transform="matrix(1 0 0 -1 270.697 127.805)"/><path d="M0-4.002a3.997 3.997 0 0 1 4 4 3.993 3.993 0 0 1-4 4A4 4 0 0 1-2.83 2.83a4.006 4.006 0 0 1 0-5.66A4 4 0 0 1 0-4.002Zm0 0" style="fill-rule:nonzero;fill:#0173b2;fill-opacity:1;stroke-width:1;stroke-linecap:butt;stroke-linejoin:round;stroke:#0173b2;stroke-opacity:1;stroke-miterlimit:10" transform="matrix(1 0 0 -1 279.673 128.443)"/><path d="M.002-4.001a4.004 4.004 0 0 1 4 4 3.997 3.997 0 0 1-4 4 3.993 3.993 0 0 1-4-4A4 4 0 0 1-2.83-2.83 4 4 0 0 1 .002-4.001Zm0 0" style="fill-rule:nonzero;fill:#0173b2;fill-opacity:1;stroke-width:1;stroke-linecap:butt;stroke-linejoin:round;stroke:#0173b2;stroke-opacity:1;stroke-miterlimit:10" transform="matrix(1 0 0 -1 286.635 131.499)"/><path d="M0-4a3.997 3.997 0 0 1 4 4 4.004 4.004 0 0 1-4 4 4.004 4.004 0 0 1-4-4 3.997 3.997 0 0 1 4-4Zm0 0" style="fill-rule:nonzero;fill:#0173b2;fill-opacity:1;stroke-width:1;stroke-linecap:butt;stroke-linejoin:round;stroke:#0173b2;stroke-opacity:1;stroke-miterlimit:10" transform="matrix(1 0 0 -1 297.133 126.09)"/><path d="M0-4a3.997 3.997 0 0 1 4 4 4.004 4.004 0 0 1-4 4 3.997 3.997 0 0 1-4-4 3.997 3.997 0 0 1 4-4Zm0 0" style="fill-rule:nonzero;fill:#0173b2;fill-opacity:1;stroke-width:1;stroke-linecap:butt;stroke-linejoin:round;stroke:#0173b2;stroke-opacity:1;stroke-miterlimit:10" transform="matrix(1 0 0 -1 308.262 125.64)"/><path d="M.001-3.999a4.004 4.004 0 0 1 4 4 4.004 4.004 0 0 1-4 4 3.997 3.997 0 0 1-4-4 3.997 3.997 0 0 1 4-4Zm0 0" style="fill-rule:nonzero;fill:#0173b2;fill-opacity:1;stroke-width:1;stroke-linecap:butt;stroke-linejoin:round;stroke:#0173b2;stroke-opacity:1;stroke-miterlimit:10" transform="matrix(1 0 0 -1 320.913 129.068)"/><path d="M.002-4.002a4.004 4.004 0 0 1 4 4A4 4 0 0 1 2.83 2.83 4 4 0 0 1 .002 3.998 4 4 0 0 1-2.83 2.83 4 4 0 0 1-3.998-.002 4 4 0 0 1-2.83-2.83 4 4 0 0 1 .002-4.002Zm0 0" style="fill-rule:nonzero;fill:#0173b2;fill-opacity:1;stroke-width:1;stroke-linecap:butt;stroke-linejoin:round;stroke:#0173b2;stroke-opacity:1;stroke-miterlimit:10" transform="matrix(1 0 0 -1 329.889 127.42)"/><path d="M0-4a3.997 3.997 0 0 1 4 4 3.997 3.997 0 0 1-4 4 4.004 4.004 0 0 1-4-4 4.004 4.004 0 0 1 4-4Zm0 0" style="fill-rule:nonzero;fill:#0173b2;fill-opacity:1;stroke-width:1;stroke-linecap:butt;stroke-linejoin:round;stroke:#0173b2;stroke-opacity:1;stroke-miterlimit:10" transform="matrix(1 0 0 -1 342.54 129.46)"/><path d="M0-4.002a3.997 3.997 0 0 1 4 4 3.997 3.997 0 0 1-4 4 3.997 3.997 0 0 1-4-4 4.004 4.004 0 0 1 4-4Zm0 0" style="fill-rule:nonzero;fill:#0173b2;fill-opacity:1;stroke-width:1;stroke-linecap:butt;stroke-linejoin:round;stroke:#0173b2;stroke-opacity:1;stroke-miterlimit:10" transform="matrix(1 0 0 -1 351.516 127.979)"/><path d="M-.002-4.002a3.997 3.997 0 0 1 4 4 3.993 3.993 0 0 1-4 4A4 4 0 0 1-2.83 2.83a4.006 4.006 0 0 1 0-5.66A4 4 0 0 1-.002-4.002Zm0 0" style="fill-rule:nonzero;fill:#0173b2;fill-opacity:1;stroke-width:1;stroke-linecap:butt;stroke-linejoin:round;stroke:#0173b2;stroke-opacity:1;stroke-miterlimit:10" transform="matrix(1 0 0 -1 358.478 128.81)"/><path d="M0-4a3.997 3.997 0 0 1 4 4 4.004 4.004 0 0 1-4 4 3.997 3.997 0 0 1-4-4 3.997 3.997 0 0 1 4-4Zm0 0" style="fill-rule:nonzero;fill:#0173b2;fill-opacity:1;stroke-width:1;stroke-linecap:butt;stroke-linejoin:round;stroke:#0173b2;stroke-opacity:1;stroke-miterlimit:10" transform="matrix(1 0 0 -1 368.977 130.743)"/><path d="M0-4a4.004 4.004 0 0 1 4 4 4.004 4.004 0 0 1-4 4 3.997 3.997 0 0 1-4-4 3.997 3.997 0 0 1 4-4Zm0 0" style="fill-rule:nonzero;fill:#0173b2;fill-opacity:1;stroke-width:1;stroke-linecap:butt;stroke-linejoin:round;stroke:#0173b2;stroke-opacity:1;stroke-miterlimit:10" transform="matrix(1 0 0 -1 380.105 127.286)"/><path d="M.002-4a4.004 4.004 0 0 1 4 4 3.997 3.997 0 0 1-4 4 3.993 3.993 0 0 1-4-4A4 4 0 0 1-2.83-2.83 4 4 0 0 1 .002-4Zm0 0" style="fill-rule:nonzero;fill:#0173b2;fill-opacity:1;stroke-width:1;stroke-linecap:butt;stroke-linejoin:round;stroke:#0173b2;stroke-opacity:1;stroke-miterlimit:10" transform="matrix(1 0 0 -1 392.756 109.035)"/><path d="M-.002-4.002c1.063 0 2.078.422 2.832 1.172A4 4 0 0 1 3.998-.002 4 4 0 0 1 2.83 2.83 4 4 0 0 1-.002 3.998 4 4 0 0 1-2.83 2.83 4.004 4.004 0 0 1-.002-4.002Zm0 0" style="fill-rule:nonzero;fill:#0173b2;fill-opacity:1;stroke-width:1;stroke-linecap:butt;stroke-linejoin:round;stroke:#0173b2;stroke-opacity:1;stroke-miterlimit:10" transform="matrix(1 0 0 -1 401.732 75.12)"/><g clip-path="url(#P)"><path d="M92.73 68.363V209.18" style="fill:none;stroke-width:4;stroke-linecap:square;stroke-linejoin:round;stroke:#b19cd9;stroke-opacity:.8;stroke-miterlimit:10" transform="matrix(1 0 0 -1 0 252)"/></g><g clip-path="url(#Q)"><path d="M164.574 68.363V209.18" style="fill:none;stroke-width:4;stroke-linecap:square;stroke-linejoin:round;stroke:#0173b2;stroke-opacity:.8;stroke-miterlimit:10" transform="matrix(1 0 0 -1 0 252)"/></g><g clip-path="url(#R)"><path d="M380.105 68.363V209.18" style="fill:none;stroke-width:4;stroke-linecap:square;stroke-linejoin:round;stroke:#029e73;stroke-opacity:.8;stroke-miterlimit:10" transform="matrix(1 0 0 -1 0 252)"/></g><g clip-path="url(#S)"><path d="M451.95 68.363V209.18" style="fill:none;stroke-width:2;stroke-linecap:butt;stroke-linejoin:round;stroke:red;stroke-opacity:.7;stroke-dasharray:7.4,3.2;stroke-miterlimit:10" transform="matrix(1 0 0 -1 0 252)"/></g><path d="M85.77 68.363V209.18M457.637 68.363V209.18M85.77 68.363h371.867M85.77 209.18h371.867" style="fill:none;stroke-width:1.5;stroke-linecap:square;stroke-linejoin:miter;stroke:#000;stroke-opacity:1;stroke-miterlimit:10" transform="matrix(1 0 0 -1 0 252)"/><g style="fill:gray;fill-opacity:1"><use xlink:href="#T" x="256.501" y="150.084"/><use xlink:href="#U" x="266.341" y="150.084"/><use xlink:href="#V" x="275.125" y="150.084"/></g><g style="fill:gray;fill-opacity:1"><use xlink:href="#V" x="225.056" y="163.534"/><use xlink:href="#W" x="234.8" y="163.534"/><use xlink:href="#X" x="243.332" y="163.534"/><use xlink:href="#Y" x="251.912" y="163.534"/><use xlink:href="#Z" x="260.048" y="163.534"/><use xlink:href="#aa" x="265.964" y="163.534"/><use xlink:href="#ab" x="274.496" y="163.534"/><use xlink:href="#ac" x="280.232" y="163.534"/><use xlink:href="#ad" x="284.336" y="163.534"/><use xlink:href="#ac" x="288.44" y="163.534"/><use xlink:href="#ae" x="292.544" y="163.534"/><use xlink:href="#Y" x="299.528" y="163.534"/><use xlink:href="#X" x="307.664" y="163.534"/></g><g style="fill:#ff8c00;fill-opacity:1"><use xlink:href="#T" x="400.188" y="149.99"/><use xlink:href="#U" x="410.028" y="149.99"/><use xlink:href="#V" x="418.812" y="149.99"/></g><g style="fill:#ff8c00;fill-opacity:1"><use xlink:href="#af" x="380.516" y="163.44"/><use xlink:href="#ag" x="388.7" y="163.44"/><use xlink:href="#Z" x="397.232" y="163.44"/><use xlink:href="#ah" x="403.148" y="163.44"/><use xlink:href="#ab" x="411.392" y="163.44"/><use xlink:href="#ab" x="417.128" y="163.44"/><use xlink:href="#ad" x="422.864" y="163.44"/><use xlink:href="#ac" x="426.968" y="163.44"/><use xlink:href="#W" x="431.072" y="163.44"/><use xlink:href="#ai" x="439.604" y="163.44"/></g><g style="fill:red;fill-opacity:1"><use xlink:href="#aj" x="414.066" y="32.875"/><use xlink:href="#ak" x="425.546" y="32.875"/><use xlink:href="#al" x="435.794" y="32.875"/><use xlink:href="#am" x="447.162" y="32.875"/><use xlink:href="#an" x="452.034" y="32.875"/><use xlink:href="#an" x="463.934" y="32.875"/><use xlink:href="#ao" x="475.834" y="32.875"/></g><path d="M584.234 183.637h371.868V42.82H584.234Zm0 0" style="stroke:none;fill-rule:nonzero;fill:#fff;fill-opacity:1"/><path d="M591.2 202.777V74.766l21.624 55.097 28.59 42.317 21.625 8.465 21.629 7.101 12.652.867 15.938 1.594 10.496 1.344 11.129.906 12.652.691 8.977.54 12.648.117 8.977.257 6.965.145 10.496.215 11.129-.004 12.652.07 8.976.055 12.649.039 8.976.012 6.961.02 10.5.023 11.13.023 12.652.004 8.972.012 12.653.012 8.976.003 6.961.004h10.5l11.13.004v.035l-11.13.004h-10.5l-6.96.004-8.977.004-12.653.004-8.972.004-12.653.012h-11.129l-10.5.015-6.96.012h-8.977l-12.649.008-8.976.015-12.652.008-11.13.051-10.495.086-6.965-.004-8.977-.023-12.648-.07-8.977-.075-12.652.07-11.13-.379-10.495.47-15.938-.52-12.652-.309-21.629-.074-21.625 1.379-28.59 4.449Zm0 0" style="fill-rule:nonzero;fill:#0173b2;fill-opacity:.3;stroke-width:1;stroke-linecap:butt;stroke-linejoin:round;stroke:#0173b2;stroke-opacity:.3;stroke-miterlimit:10" transform="matrix(1 0 0 -1 0 252)"/><g clip-path="url(#ap)"><path d="M878.57 68.363h77.532V209.18H878.57Zm0 0" style="fill-rule:nonzero;fill:orange;fill-opacity:.1;stroke-width:1;stroke-linecap:butt;stroke-linejoin:miter;stroke:orange;stroke-opacity:.1;stroke-miterlimit:10" transform="matrix(1 0 0 -1 0 252)"/></g><path d="M663.04 68.363v-6" style="fill:none;stroke-width:1.5;stroke-linecap:butt;stroke-linejoin:round;stroke:#000;stroke-opacity:1;stroke-miterlimit:10" transform="matrix(1 0 0 -1 0 252)"/><use xlink:href="#e" x="648.541" y="205.245" style="fill:#000;fill-opacity:1"/><use xlink:href="#f" x="658.72" y="205.245" style="fill:#000;fill-opacity:1"/><use xlink:href="#g" x="669.053" y="199.12" style="fill:#000;fill-opacity:1"/><path d="M734.883 68.363v-6" style="fill:none;stroke-width:1.5;stroke-linecap:butt;stroke-linejoin:round;stroke:#000;stroke-opacity:1;stroke-miterlimit:10" transform="matrix(1 0 0 -1 0 252)"/><use xlink:href="#e" x="720.384" y="205.245" style="fill:#000;fill-opacity:1"/><use xlink:href="#f" x="730.563" y="205.245" style="fill:#000;fill-opacity:1"/><use xlink:href="#h" x="740.896" y="199.12" style="fill:#000;fill-opacity:1"/><path d="M806.727 68.363v-6" style="fill:none;stroke-width:1.5;stroke-linecap:butt;stroke-linejoin:round;stroke:#000;stroke-opacity:1;stroke-miterlimit:10" transform="matrix(1 0 0 -1 0 252)"/><use xlink:href="#e" x="792.227" y="205.103" style="fill:#000;fill-opacity:1"/><use xlink:href="#f" x="802.407" y="205.103" style="fill:#000;fill-opacity:1"/><use xlink:href="#i" x="812.739" y="198.978" style="fill:#000;fill-opacity:1"/><path d="M878.57 68.363v-6" style="fill:none;stroke-width:1.5;stroke-linecap:butt;stroke-linejoin:round;stroke:#000;stroke-opacity:1;stroke-miterlimit:10" transform="matrix(1 0 0 -1 0 252)"/><use xlink:href="#e" x="864.07" y="205.103" style="fill:#000;fill-opacity:1"/><use xlink:href="#f" x="874.25" y="205.103" style="fill:#000;fill-opacity:1"/><use xlink:href="#j" x="884.583" y="198.978" style="fill:#000;fill-opacity:1"/><path d="M950.414 68.363v-6" style="fill:none;stroke-width:1.5;stroke-linecap:butt;stroke-linejoin:round;stroke:#000;stroke-opacity:1;stroke-miterlimit:10" transform="matrix(1 0 0 -1 0 252)"/><use xlink:href="#e" x="935.913" y="205.245" style="fill:#000;fill-opacity:1"/><use xlink:href="#f" x="946.093" y="205.245" style="fill:#000;fill-opacity:1"/><use xlink:href="#k" x="956.426" y="199.12" style="fill:#000;fill-opacity:1"/><path d="M584.234 68.363v-2m3.676 2v-2m24.914 2v-2m12.653 2v-2m8.976 2v-2m6.961 2v-2m5.688 2v-2m4.808 2v-2m4.168 2v-2m3.676 2v-2m24.914 2v-2m12.652 2v-2m8.973 2v-2m6.965 2v-2m5.687 2v-2m4.809 2v-2m4.168 2v-2m3.676 2v-2m24.914 2v-2m12.648 2v-2m8.977 2v-2m6.965 2v-2m5.688 2v-2m4.808 2v-2m4.168 2v-2m3.675 2v-2m24.914 2v-2m12.649 2v-2m8.976 2v-2m6.961 2v-2m5.692 2v-2m4.808 2v-2m4.169 2v-2m3.671 2v-2m24.914 2v-2m12.653 2v-2m8.976 2v-2m6.961 2v-2m5.692 2v-2m4.808 2v-2m4.165 2v-2m3.675 2v-2" style="fill:none;stroke-width:.6;stroke-linecap:butt;stroke-linejoin:round;stroke:#000;stroke-opacity:1;stroke-miterlimit:10" transform="matrix(1 0 0 -1 0 252)"/><g style="fill:#000;fill-opacity:1"><use xlink:href="#l" x="670.583" y="226.808"/><use xlink:href="#m" x="685.631" y="226.808"/><use xlink:href="#n" x="698.429" y="226.808"/><use xlink:href="#o" x="717.167" y="226.808"/><use xlink:href="#p" x="730.037" y="226.808"/><use xlink:href="#q" x="742.241" y="226.808"/><use xlink:href="#r" x="751.115" y="226.808"/><use xlink:href="#s" x="757.379" y="226.808"/><use xlink:href="#t" x="769.745" y="226.808"/><use xlink:href="#r" x="777.575" y="226.808"/><use xlink:href="#u" x="783.839" y="226.808"/><use xlink:href="#v" x="796.799" y="226.808"/><use xlink:href="#n" x="808.931" y="226.808"/><use xlink:href="#w" x="827.669" y="226.808"/><use xlink:href="#x" x="840.539" y="226.808"/><use xlink:href="#p" x="846.695" y="226.808"/><use xlink:href="#y" x="858.899" y="226.808"/></g><path d="M584.234 87.906h-6" style="fill:none;stroke-width:1.5;stroke-linecap:butt;stroke-linejoin:round;stroke:#000;stroke-opacity:1;stroke-miterlimit:10" transform="matrix(1 0 0 -1 0 252)"/><g style="fill:#000;fill-opacity:1"><use xlink:href="#aq" x="544.173" y="170.172"/><use xlink:href="#f" x="554.348" y="170.172"/><use xlink:href="#f" x="564.524" y="170.172"/></g><path d="M532.46 164.492h10.017v1.328H532.46Zm0 0" style="stroke:none;fill-rule:nonzero;fill:#000;fill-opacity:1"/><path d="M584.234 139.035h-6" style="fill:none;stroke-width:1.5;stroke-linecap:butt;stroke-linejoin:round;stroke:#000;stroke-opacity:1;stroke-miterlimit:10" transform="matrix(1 0 0 -1 0 252)"/><g style="fill:#000;fill-opacity:1"><use xlink:href="#B" x="544.173" y="119.042"/><use xlink:href="#f" x="554.348" y="119.042"/><use xlink:href="#f" x="564.524" y="119.042"/></g><path d="M532.46 113.363h10.017v1.328H532.46Zm0 0" style="stroke:none;fill-rule:nonzero;fill:#000;fill-opacity:1"/><path d="M584.234 190.168h-6" style="fill:none;stroke-width:1.5;stroke-linecap:butt;stroke-linejoin:round;stroke:#000;stroke-opacity:1;stroke-miterlimit:10" transform="matrix(1 0 0 -1 0 252)"/><use xlink:href="#f" x="564.548" y="67.912" style="fill:#000;fill-opacity:1"/><g style="fill:#000;fill-opacity:1"><use xlink:href="#ar" x="523.016" y="139.799"/><use xlink:href="#as" x="523.016" y="128.333"/><use xlink:href="#ar" x="523.016" y="110.423"/><use xlink:href="#at" x="523.016" y="98.957"/></g><path d="m591.2 138.77 21.624 26.097 28.59 18.934 21.625 3.543 21.629 3.59 12.652.586 15.938 1.058 10.496.438 11.129.644 12.652.309 8.977.308 12.648.09 8.977.145 6.965.074 10.496.062 11.129-.027 12.652.031 8.976.02 12.649.016 8.976.003 6.961.004 10.5.004 11.13.016 12.652-.008 8.972.004 12.653.004h8.976l6.961.004h21.63" style="fill:none;stroke-width:3;stroke-linecap:square;stroke-linejoin:round;stroke:#0173b2;stroke-opacity:1;stroke-miterlimit:10" transform="matrix(1 0 0 -1 0 252)"/><path d="M.002-4.001a4.004 4.004 0 0 1 4 4 3.997 3.997 0 0 1-4 4 3.993 3.993 0 0 1-4-4A4 4 0 0 1-2.83-2.83 4 4 0 0 1 .002-4Zm0 0" style="fill-rule:nonzero;fill:#0173b2;fill-opacity:1;stroke-width:1;stroke-linecap:butt;stroke-linejoin:round;stroke:#0173b2;stroke-opacity:1;stroke-miterlimit:10" transform="matrix(1 0 0 -1 591.197 113.229)"/><path d="M0-4.001a3.997 3.997 0 0 1 4 4 3.997 3.997 0 0 1-4 4 3.997 3.997 0 0 1-4-4 4.004 4.004 0 0 1 4-4Zm0 0" style="fill-rule:nonzero;fill:#0173b2;fill-opacity:1;stroke-width:1;stroke-linecap:butt;stroke-linejoin:round;stroke:#0173b2;stroke-opacity:1;stroke-miterlimit:10" transform="matrix(1 0 0 -1 612.824 87.131)"/><path d="M0-4.001a4.004 4.004 0 0 1 4 4 3.997 3.997 0 0 1-4 4 3.997 3.997 0 0 1-4-4 4.004 4.004 0 0 1 4-4Zm0 0" style="fill-rule:nonzero;fill:#0173b2;fill-opacity:1;stroke-width:1;stroke-linecap:butt;stroke-linejoin:round;stroke:#0173b2;stroke-opacity:1;stroke-miterlimit:10" transform="matrix(1 0 0 -1 641.414 68.198)"/><path d="M-.001-4.002a3.997 3.997 0 0 1 4 4 3.993 3.993 0 0 1-4 4A4 4 0 0 1-2.83 2.83a4.006 4.006 0 0 1 0-5.66A4 4 0 0 1 0-4.002Zm0 0" style="fill-rule:nonzero;fill:#0173b2;fill-opacity:1;stroke-width:1;stroke-linecap:butt;stroke-linejoin:round;stroke:#0173b2;stroke-opacity:1;stroke-miterlimit:10" transform="matrix(1 0 0 -1 663.04 64.654)"/><path d="M0-4a4.004 4.004 0 0 1 4 4 3.997 3.997 0 0 1-4 4 3.997 3.997 0 0 1-4-4 4.004 4.004 0 0 1 4-4Zm0 0" style="fill-rule:nonzero;fill:#0173b2;fill-opacity:1;stroke-width:1;stroke-linecap:butt;stroke-linejoin:round;stroke:#0173b2;stroke-opacity:1;stroke-miterlimit:10" transform="matrix(1 0 0 -1 684.667 61.066)"/><path d="M.002-4.001a4.004 4.004 0 0 1 4 4 3.997 3.997 0 0 1-4 4 3.993 3.993 0 0 1-4-4A4 4 0 0 1-2.83-2.83 4 4 0 0 1 .002-4Zm0 0" style="fill-rule:nonzero;fill:#0173b2;fill-opacity:1;stroke-width:1;stroke-linecap:butt;stroke-linejoin:round;stroke:#0173b2;stroke-opacity:1;stroke-miterlimit:10" transform="matrix(1 0 0 -1 697.318 60.479)"/><path d="M.001-4.001a4.004 4.004 0 0 1 4 4 3.997 3.997 0 0 1-4 4 3.997 3.997 0 0 1-4-4 4.004 4.004 0 0 1 4-4Zm0 0" style="fill-rule:nonzero;fill:#0173b2;fill-opacity:1;stroke-width:1;stroke-linecap:butt;stroke-linejoin:round;stroke:#0173b2;stroke-opacity:1;stroke-miterlimit:10" transform="matrix(1 0 0 -1 713.257 59.42)"/><path d="M-.001-4a3.997 3.997 0 0 1 4 4 3.997 3.997 0 0 1-4 4 4.004 4.004 0 0 1-4-4 3.997 3.997 0 0 1 4-4Zm0 0" style="fill-rule:nonzero;fill:#0173b2;fill-opacity:1;stroke-width:1;stroke-linecap:butt;stroke-linejoin:round;stroke:#0173b2;stroke-opacity:1;stroke-miterlimit:10" transform="matrix(1 0 0 -1 723.755 58.984)"/><path d="M0-4a3.997 3.997 0 0 1 4 4 4.004 4.004 0 0 1-4 4 4.004 4.004 0 0 1-4-4 3.997 3.997 0 0 1 4-4Zm0 0" style="fill-rule:nonzero;fill:#0173b2;fill-opacity:1;stroke-width:1;stroke-linecap:butt;stroke-linejoin:round;stroke:#0173b2;stroke-opacity:1;stroke-miterlimit:10" transform="matrix(1 0 0 -1 734.884 58.34)"/><path d="M0-4a4.004 4.004 0 0 1 4 4 4.004 4.004 0 0 1-4 4 3.997 3.997 0 0 1-4-4 3.997 3.997 0 0 1 4-4Zm0 0" style="fill-rule:nonzero;fill:#0173b2;fill-opacity:1;stroke-width:1;stroke-linecap:butt;stroke-linejoin:round;stroke:#0173b2;stroke-opacity:1;stroke-miterlimit:10" transform="matrix(1 0 0 -1 747.535 58.032)"/><path d="M.001-3.999a4.004 4.004 0 0 1 4 4 4.004 4.004 0 0 1-4 4 3.997 3.997 0 0 1-4-4 3.997 3.997 0 0 1 4-4Zm0 0" style="fill-rule:nonzero;fill:#0173b2;fill-opacity:1;stroke-width:1;stroke-linecap:butt;stroke-linejoin:round;stroke:#0173b2;stroke-opacity:1;stroke-miterlimit:10" transform="matrix(1 0 0 -1 756.51 57.724)"/><path d="M-.002-4.002a3.997 3.997 0 0 1 4 4 3.993 3.993 0 0 1-4 4A4 4 0 0 1-2.83 2.83a4.006 4.006 0 0 1 0-5.66A4 4 0 0 1-.002-4.002Zm0 0" style="fill-rule:nonzero;fill:#0173b2;fill-opacity:1;stroke-width:1;stroke-linecap:butt;stroke-linejoin:round;stroke:#0173b2;stroke-opacity:1;stroke-miterlimit:10" transform="matrix(1 0 0 -1 769.162 57.63)"/><path d="M0-3.998a3.993 3.993 0 0 1 4 4 4.004 4.004 0 0 1-4 4 4.004 4.004 0 0 1-4-4c0-1.063.42-2.082 1.17-2.832A4 4 0 0 1 0-3.998Zm0 0" style="fill-rule:nonzero;fill:#0173b2;fill-opacity:1;stroke-width:1;stroke-linecap:butt;stroke-linejoin:round;stroke:#0173b2;stroke-opacity:1;stroke-miterlimit:10" transform="matrix(1 0 0 -1 778.138 57.49)"/><path d="M.002-4a4.004 4.004 0 0 1 4 4 4.004 4.004 0 0 1-4 4 3.997 3.997 0 0 1-4-4 3.98 3.98 0 0 1 1.171-2.827A4 4 0 0 1 .002-4Zm0 0" style="fill-rule:nonzero;fill:#0173b2;fill-opacity:1;stroke-width:1;stroke-linecap:butt;stroke-linejoin:round;stroke:#0173b2;stroke-opacity:1;stroke-miterlimit:10" transform="matrix(1 0 0 -1 785.1 57.415)"/><path d="M0-4a3.997 3.997 0 0 1 4 4 4.004 4.004 0 0 1-4 4 4.004 4.004 0 0 1-4-4 3.997 3.997 0 0 1 4-4Zm0 0" style="fill-rule:nonzero;fill:#0173b2;fill-opacity:1;stroke-width:1;stroke-linecap:butt;stroke-linejoin:round;stroke:#0173b2;stroke-opacity:1;stroke-miterlimit:10" transform="matrix(1 0 0 -1 795.598 57.352)"/><path d="M0-4a3.997 3.997 0 0 1 4 4 3.997 3.997 0 0 1-4 4 4.004 4.004 0 0 1-4-4 4.004 4.004 0 0 1 4-4Zm0 0" style="fill-rule:nonzero;fill:#0173b2;fill-opacity:1;stroke-width:1;stroke-linecap:butt;stroke-linejoin:round;stroke:#0173b2;stroke-opacity:1;stroke-miterlimit:10" transform="matrix(1 0 0 -1 806.727 57.378)"/><path d="M.001-3.999a4.004 4.004 0 0 1 4 4 4.004 4.004 0 0 1-4 4 3.997 3.997 0 0 1-4-4 3.997 3.997 0 0 1 4-4Zm0 0" style="fill-rule:nonzero;fill:#0173b2;fill-opacity:1;stroke-width:1;stroke-linecap:butt;stroke-linejoin:round;stroke:#0173b2;stroke-opacity:1;stroke-miterlimit:10" transform="matrix(1 0 0 -1 819.378 57.35)"/><path d="M.002-4.001a4.004 4.004 0 0 1 4 4 3.997 3.997 0 0 1-4 4 4 4 0 0 1-2.829-1.172A3.98 3.98 0 0 1-3.998-.001a3.997 3.997 0 0 1 4-4Zm0 0" style="fill-rule:nonzero;fill:#0173b2;fill-opacity:1;stroke-width:1;stroke-linecap:butt;stroke-linejoin:round;stroke:#0173b2;stroke-opacity:1;stroke-miterlimit:10" transform="matrix(1 0 0 -1 828.354 57.327)"/><path d="M-.001-4a3.997 3.997 0 0 1 4 4 4.004 4.004 0 0 1-4 4 4.004 4.004 0 0 1-4-4 3.997 3.997 0 0 1 4-4Zm0 0" style="fill-rule:nonzero;fill:#0173b2;fill-opacity:1;stroke-width:1;stroke-linecap:butt;stroke-linejoin:round;stroke:#0173b2;stroke-opacity:1;stroke-miterlimit:10" transform="matrix(1 0 0 -1 841.005 57.313)"/><path d="M0-4.001a3.997 3.997 0 0 1 4 4 3.997 3.997 0 0 1-4 4 4.004 4.004 0 0 1-4-4 4.004 4.004 0 0 1 4-4Zm0 0" style="fill-rule:nonzero;fill:#0173b2;fill-opacity:1;stroke-width:1;stroke-linecap:butt;stroke-linejoin:round;stroke:#0173b2;stroke-opacity:1;stroke-miterlimit:10" transform="matrix(1 0 0 -1 849.98 57.307)"/><path d="M-.002-4.002c1.063 0 2.082.422 2.832 1.172A4 4 0 0 1 3.998-.002 4 4 0 0 1 2.83 2.83 4 4 0 0 1-.002 3.998 4 4 0 0 1-2.83 2.83a4.006 4.006 0 0 1 0-5.66A4 4 0 0 1-.002-4.002Zm0 0" style="fill-rule:nonzero;fill:#0173b2;fill-opacity:1;stroke-width:1;stroke-linecap:butt;stroke-linejoin:round;stroke:#0173b2;stroke-opacity:1;stroke-miterlimit:10" transform="matrix(1 0 0 -1 856.943 57.303)"/><path d="M0-4.001a3.997 3.997 0 0 1 4 4 3.997 3.997 0 0 1-4 4 3.997 3.997 0 0 1-4-4 4.004 4.004 0 0 1 4-4Zm0 0" style="fill-rule:nonzero;fill:#0173b2;fill-opacity:1;stroke-width:1;stroke-linecap:butt;stroke-linejoin:round;stroke:#0173b2;stroke-opacity:1;stroke-miterlimit:10" transform="matrix(1 0 0 -1 867.442 57.3)"/><path d="M0-3.998a3.98 3.98 0 0 1 2.828 1.171 3.997 3.997 0 0 1 0 5.657 3.997 3.997 0 0 1-5.656 0 3.997 3.997 0 0 1 0-5.656A3.98 3.98 0 0 1 0-3.999Zm0 0" style="fill-rule:nonzero;fill:#0173b2;fill-opacity:1;stroke-width:1;stroke-linecap:butt;stroke-linejoin:round;stroke:#0173b2;stroke-opacity:1;stroke-miterlimit:10" transform="matrix(1 0 0 -1 878.57 57.287)"/><path d="M.002-4.001a4.004 4.004 0 0 1 4 4 3.997 3.997 0 0 1-4 4 3.997 3.997 0 0 1-4-4 4.004 4.004 0 0 1 4-4Zm0 0" style="fill-rule:nonzero;fill:#0173b2;fill-opacity:1;stroke-width:1;stroke-linecap:butt;stroke-linejoin:round;stroke:#0173b2;stroke-opacity:1;stroke-miterlimit:10" transform="matrix(1 0 0 -1 891.221 57.292)"/><path d="M-.002-4.001c1.063 0 2.082.422 2.832 1.172A4 4 0 0 1 3.998-.001a3.993 3.993 0 0 1-4 4 4.004 4.004 0 0 1-4-4 4.004 4.004 0 0 1 4-4Zm0 0" style="fill-rule:nonzero;fill:#0173b2;fill-opacity:1;stroke-width:1;stroke-linecap:butt;stroke-linejoin:round;stroke:#0173b2;stroke-opacity:1;stroke-miterlimit:10" transform="matrix(1 0 0 -1 900.197 57.288)"/><path d="M0-4.002a3.997 3.997 0 0 1 4 4 4 4 0 0 1-1.172 2.828A3.98 3.98 0 0 1 0 3.998 3.997 3.997 0 0 1-2.828-2.83 4 4 0 0 1 0-4.002Zm0 0" style="fill-rule:nonzero;fill:#0173b2;fill-opacity:1;stroke-width:1;stroke-linecap:butt;stroke-linejoin:round;stroke:#0173b2;stroke-opacity:1;stroke-miterlimit:10" transform="matrix(1 0 0 -1 912.848 57.284)"/><path d="M0-4.002a3.997 3.997 0 0 1 4 4 3.993 3.993 0 0 1-4 4 3.993 3.993 0 0 1-4-4 4.004 4.004 0 0 1 4-4Zm0 0" style="fill-rule:nonzero;fill:#0173b2;fill-opacity:1;stroke-width:1;stroke-linecap:butt;stroke-linejoin:round;stroke:#0173b2;stroke-opacity:1;stroke-miterlimit:10" transform="matrix(1 0 0 -1 921.824 57.283)"/><path d="M-.001-3.998a3.993 3.993 0 0 1 4 4 4.004 4.004 0 0 1-4 4 4.004 4.004 0 0 1-4-4c0-1.063.422-2.078 1.172-2.832A4 4 0 0 1-.001-3.998Zm0 0" style="fill-rule:nonzero;fill:#0173b2;fill-opacity:1;stroke-width:1;stroke-linecap:butt;stroke-linejoin:round;stroke:#0173b2;stroke-opacity:1;stroke-miterlimit:10" transform="matrix(1 0 0 -1 928.786 57.283)"/><path d="M0-3.999a4.004 4.004 0 0 1 4 4 4.004 4.004 0 0 1-4 4 3.997 3.997 0 0 1-4-4 3.997 3.997 0 0 1 4-4Zm0 0" style="fill-rule:nonzero;fill:#0173b2;fill-opacity:1;stroke-width:1;stroke-linecap:butt;stroke-linejoin:round;stroke:#0173b2;stroke-opacity:1;stroke-miterlimit:10" transform="matrix(1 0 0 -1 939.285 57.282)"/><path d="M0-4a4.004 4.004 0 0 1 4 4 4.004 4.004 0 0 1-4 4 3.997 3.997 0 0 1-4-4 3.997 3.997 0 0 1 4-4Zm0 0" style="fill-rule:nonzero;fill:#0173b2;fill-opacity:1;stroke-width:1;stroke-linecap:butt;stroke-linejoin:round;stroke:#0173b2;stroke-opacity:1;stroke-miterlimit:10" transform="matrix(1 0 0 -1 950.413 57.282)"/><g clip-path="url(#au)"><path d="M584.234 194.719h371.868" style="fill:none;stroke-width:2;stroke-linecap:butt;stroke-linejoin:round;stroke:gray;stroke-opacity:.7;stroke-dasharray:7.4,3.2;stroke-miterlimit:10" transform="matrix(1 0 0 -1 0 252)"/></g><g clip-path="url(#av)"><path d="M591.2 68.363V209.18" style="fill:none;stroke-width:4;stroke-linecap:square;stroke-linejoin:round;stroke:#b19cd9;stroke-opacity:.8;stroke-miterlimit:10" transform="matrix(1 0 0 -1 0 252)"/></g><g clip-path="url(#aw)"><path d="M663.04 68.363V209.18" style="fill:none;stroke-width:4;stroke-linecap:square;stroke-linejoin:round;stroke:#0173b2;stroke-opacity:.8;stroke-miterlimit:10" transform="matrix(1 0 0 -1 0 252)"/></g><g clip-path="url(#ax)"><path d="M878.57 68.363V209.18" style="fill:none;stroke-width:4;stroke-linecap:square;stroke-linejoin:round;stroke:#029e73;stroke-opacity:.8;stroke-miterlimit:10" transform="matrix(1 0 0 -1 0 252)"/></g><g clip-path="url(#ay)"><path d="M950.414 68.363V209.18" style="fill:none;stroke-width:2;stroke-linecap:butt;stroke-linejoin:round;stroke:red;stroke-opacity:.7;stroke-dasharray:7.4,3.2;stroke-miterlimit:10" transform="matrix(1 0 0 -1 0 252)"/></g><path d="M584.234 68.363V209.18M956.102 68.363V209.18M584.234 68.363h371.868M584.234 209.18h371.868" style="fill:none;stroke-width:1.5;stroke-linecap:square;stroke-linejoin:miter;stroke:#000;stroke-opacity:1;stroke-miterlimit:10" transform="matrix(1 0 0 -1 0 252)"/><g style="fill:gray;fill-opacity:1"><use xlink:href="#az" x="613.974" y="60.595"/><use xlink:href="#aA" x="622.314" y="60.595"/><use xlink:href="#aB" x="630.654" y="60.595"/><use xlink:href="#aC" x="635.202" y="60.595"/><use xlink:href="#aD" x="643.542" y="60.595"/></g><g style="fill:red;fill-opacity:1"><use xlink:href="#aj" x="912.531" y="32.875"/><use xlink:href="#ak" x="924.011" y="32.875"/><use xlink:href="#al" x="934.259" y="32.875"/><use xlink:href="#am" x="945.627" y="32.875"/><use xlink:href="#an" x="950.499" y="32.875"/><use xlink:href="#an" x="962.399" y="32.875"/><use xlink:href="#ao" x="974.299" y="32.875"/></g></svg>