<svg xmlns="http://www.w3.org/2000/svg" xmlns:xlink="http://www.w3.org/1999/xlink" width="1109.76" height="339.705" viewBox="0 0 832.32 254.779"><defs><symbol id="c" overflow="visible"><path d="M1.672-15.187h3.5V0h-3.5Zm0 0" style="stroke:none"/></symbol><symbol id="d" overflow="visible"><path d="M6.875-8.687q-1.158 0-1.766.828-.609.83-.609 2.406 0 1.564.61 2.406c.406.555.992.828 1.765.828.758 0 1.344-.273 1.75-.828q.61-.842.61-2.406 0-1.575-.61-2.406-.611-.827-1.75-.828m0-2.5q2.825 0 4.406 1.53 1.594 1.52 1.594 4.204 0 2.69-1.594 4.219Q9.7.282 6.875.28q-2.83 0-4.422-1.515Q.86-2.764.86-5.454q0-2.683 1.594-4.202 1.593-1.53 4.422-1.531m0 0" style="stroke:none"/></symbol><symbol id="e" overflow="visible"><path d="M9.11-1.86q-.721.973-1.594 1.423-.864.438-2 .437C4.18 0 3.078-.523 2.203-1.578Q.891-3.154.891-5.594q0-2.45 1.312-4.015 1.31-1.561 3.313-1.563 1.136 0 2 .453.873.44 1.593 1.406v-1.609h3.516v9.813q-.001 2.636-1.672 4.03-1.658 1.391-4.812 1.392a12.5 12.5 0 0 1-1.985-.157 12 12 0 0 1-1.922-.484V.953q.92.529 1.797.781A6 6 0 0 0 5.797 2q1.717 0 2.516-.75.795-.749.796-2.36ZM6.812-8.655q-1.08 0-1.688.797c-.406.53-.61 1.289-.61 2.265q0 1.501.579 2.282c.394.523.968.78 1.718.78q1.09 0 1.688-.796.61-.811.61-2.266c0-.976-.204-1.734-.61-2.265q-.597-.797-1.687-.797m0 0" style="stroke:none"/></symbol><symbol id="g" overflow="visible"><path d="M5.172-1.578v5.734h-3.5v-15.078h3.5v1.594q.715-.95 1.594-1.406.89-.452 2.03-.453c1.345 0 2.446.539 3.313 1.609q1.297 1.593 1.297 4.125c0 1.687-.433 3.07-1.297 4.14C11.242-.25 10.141.282 8.797.282q-1.142 0-2.031-.453-.88-.451-1.594-1.406M7.5-8.656q-1.125 0-1.734.828c-.399.555-.594 1.344-.594 2.375s.195 1.824.594 2.375c.406.555.984.828 1.734.828q1.107 0 1.703-.812.593-.827.594-2.391-.002-1.56-.594-2.375-.596-.826-1.703-.828m0 0" style="stroke:none"/></symbol><symbol id="h" overflow="visible"><path d="M2.125-9.625h12.5v2.281h-12.5Zm0 4.438h12.5v2.312h-12.5Zm0 0" style="stroke:none"/></symbol><symbol id="i" overflow="visible"><path d="M1.078-7.172h6.14v2.844h-6.14Zm0 0" style="stroke:none"/></symbol><symbol id="j" overflow="visible"><path d="M2.125-14.562h9.328v2.75H5.11v2.265q.437-.123.86-.187.435-.061.906-.063 2.67.002 4.156 1.328 1.484 1.33 1.485 3.719-.001 2.362-1.625 3.703Q9.278.283 6.406.281q-1.235 0-2.453-.234a12 12 0 0 1-2.406-.734v-2.954q1.184.692 2.25 1.032 1.078.328 2.015.328 1.372 0 2.157-.656.78-.67.781-1.813-.001-1.156-.781-1.812-.785-.67-2.157-.672-.813.001-1.734.218-.909.207-1.953.641Zm0 0" style="stroke:none"/></symbol><symbol id="k" overflow="visible"><path d="M2.047-3.781h3.5V0h-3.5Zm0 0" style="stroke:none"/></symbol><symbol id="l" overflow="visible"><path d="M9.313-7.86q1.465.392 2.234 1.329.764.938.765 2.39-.002 2.174-1.656 3.297Q9 .281 5.812.281q-1.125 0-2.25-.187-1.127-.17-2.218-.531v-2.907q1.044.533 2.078.797a8.2 8.2 0 0 0 2.047.266q1.5 0 2.297-.516.796-.514.797-1.484-.001-.985-.829-1.5-.815-.516-2.39-.516H3.828v-2.422h1.594q1.404.001 2.094-.437.703-.451.703-1.36c0-.55-.227-.976-.672-1.28q-.676-.47-1.906-.47-.909.002-1.844.204a9.5 9.5 0 0 0-1.828.609v-2.75a17 17 0 0 1 2.203-.469 15.5 15.5 0 0 1 2.14-.156q2.843 0 4.25.937c.938.618 1.407 1.547 1.407 2.797 0 .856-.227 1.555-.672 2.094q-.674.814-1.985 1.14m0 0" style="stroke:none"/></symbol><symbol id="m" overflow="visible"><path d="M5.75-2.766h6.422V0H1.578v-2.766l5.328-4.687q.703-.64 1.047-1.25.342-.622.344-1.297 0-1.014-.688-1.64-.69-.624-1.828-.626-.879 0-1.922.375-1.05.375-2.234 1.125v-3.203a18 18 0 0 1 2.5-.64 14 14 0 0 1 2.438-.22q2.608.002 4.062 1.157 1.453 1.142 1.453 3.203-.001 1.188-.625 2.219-.609 1.032-2.578 2.75Zm0 0" style="stroke:none"/></symbol><symbol id="o" overflow="visible"><path d="M1.344-14.562h10.969v2.109L6.64 0H2.969l5.39-11.812H1.344Zm0 0" style="stroke:none"/></symbol><symbol id="q" overflow="visible"><path d="M2.344-2.594h3.312v-9.422l-3.406.704v-2.547l3.39-.703h3.58v11.968h3.312V0H2.344Zm0 0" style="stroke:none"/></symbol><clipPath id="a"><path d="M.02 0h831.6v254.559H.02Zm0 0"/></clipPath><clipPath id="b"><path d="M3.617 11h261.856v177H3.617Zm0 0"/></clipPath><clipPath id="n"><path d="M284.895 11h261.851v197H284.895Zm0 0"/></clipPath><clipPath id="p"><path d="M566.168 11h261.855v197H566.168Zm0 0"/></clipPath></defs><g clip-path="url(#a)"><path d="M.02 254.559h831.6V0H.02Zm0 0" style="stroke:none;fill-rule:nonzero;fill:#fff;fill-opacity:1"/></g><path d="M3.617 214.95h261.856V3.597H3.617Zm0 0" style="stroke:none;fill-rule:nonzero;fill:#fff;fill-opacity:1"/><g clip-path="url(#b)"><path d="m3.6 99.25 5.258-3.91 5.262-3.632 5.258-3.359 5.259-3.076 5.258-2.804 5.259-2.525 5.258-2.248 5.263-1.97 5.258-1.698 5.259-1.415 4.382-.97 4.383-.774 4.383-.586 4.382-.391 4.383-.2 4.383-.003 4.383.183 4.382.38 4.383.57 4.383.763 4.382.954 4.383 1.15 5.259 1.63 5.258 1.911 5.259 2.186 5.258 2.463 5.258 2.74 5.263 3.019 5.258 3.292 5.259 3.573 5.258 3.847 5.259 4.129 5.258 4.402 5.263 4.68 5.258 4.957 5.258 5.235 5.259 5.513 6.138 6.78 6.134 7.158 6.135 7.534 6.138 7.913 6.134 8.288 6.134 8.668 6.138 9.043 6.134 9.418 6.135 9.802 6.138 10.173 7.01 12.092 7.014 12.581 2.63 4.848" style="fill:none;stroke-width:3;stroke-linecap:square;stroke-linejoin:round;stroke:#0173b2;stroke-opacity:.9;stroke-miterlimit:10" transform="matrix(.99913 0 0 -.99913 .021 254.558)"/></g><path d="M3.6 39.643v211.535M265.682 39.643v211.535M3.6 39.643h262.082M3.6 251.178h262.082" style="fill:none;stroke-width:1.5;stroke-linecap:square;stroke-linejoin:miter;stroke:#000;stroke-opacity:1;stroke-miterlimit:10" transform="matrix(.99913 0 0 -.99913 .021 254.558)"/><g style="fill:#000;fill-opacity:1"><use xlink:href="#c" x="62.334" y="246.652"/><use xlink:href="#d" x="69.168" y="246.652"/><use xlink:href="#e" x="82.896" y="246.652"/><use xlink:href="#f" x="97.183" y="246.652"/><use xlink:href="#g" x="104.137" y="246.652"/><use xlink:href="#f" x="118.425" y="246.652"/><use xlink:href="#h" x="125.379" y="246.652"/><use xlink:href="#f" x="142.104" y="246.652"/><use xlink:href="#i" x="149.058" y="246.652"/><use xlink:href="#j" x="157.351" y="246.652"/><use xlink:href="#k" x="171.239" y="246.652"/><use xlink:href="#l" x="178.813" y="246.652"/><use xlink:href="#m" x="192.7" y="246.652"/></g><path d="M.001-5.001c1.326 0 2.596.527 3.535 1.466A4.998 4.998 0 0 1 0 4.999a5 5 0 0 1-3.538-1.462 5.01 5.01 0 0 1 0-7.073A5 5 0 0 1 .001-5Zm0 0" style="fill-rule:nonzero;fill:#c31;fill-opacity:.8;stroke-width:2;stroke-linecap:butt;stroke-linejoin:round;stroke:#fff;stroke-opacity:.8;stroke-miterlimit:10" transform="matrix(.99913 0 0 -.99913 29.803 141.019)"/><path d="M.002-5.002a5 5 0 0 1 4.996 5c0 1.326-.523 2.6-1.462 3.539a5.01 5.01 0 0 1-7.072 0A5.004 5.004 0 0 1 .002-5.002Zm0 0" style="fill-rule:nonzero;fill:#c31;fill-opacity:.8;stroke-width:2;stroke-linecap:butt;stroke-linejoin:round;stroke:#fff;stroke-opacity:.8;stroke-miterlimit:10" transform="matrix(.99913 0 0 -.99913 82.174 205.343)"/><path d="M-.001-5A5 5 0 1 1 0 5 5 5 0 0 1 0-5Zm0 0" style="fill-rule:nonzero;fill:#c31;fill-opacity:.8;stroke-width:2;stroke-linecap:butt;stroke-linejoin:round;stroke:#fff;stroke-opacity:.8;stroke-miterlimit:10" transform="matrix(.99913 0 0 -.99913 134.544 160.32)"/><path d="M0-5.002c1.324 0 2.599.528 3.537 1.467a5.01 5.01 0 0 1 0 7.072 5.01 5.01 0 0 1-7.073 0 5 5 0 0 1 0-7.073A5 5 0 0 1 0-5.001Zm0 0" style="fill-rule:nonzero;fill:#c31;fill-opacity:.8;stroke-width:2;stroke-linecap:butt;stroke-linejoin:round;stroke:#fff;stroke-opacity:.8;stroke-miterlimit:10" transform="matrix(.99913 0 0 -.99913 186.915 158.897)"/><path d="M0-5.002c1.325 0 2.6.528 3.534 1.466a4.998 4.998 0 1 1-7.069 7.073 5 5 0 0 1 0-7.073A5 5 0 0 1 0-5.002Zm0 0" style="fill-rule:nonzero;fill:#c31;fill-opacity:.8;stroke-width:2;stroke-linecap:butt;stroke-linejoin:round;stroke:#fff;stroke-opacity:.8;stroke-miterlimit:10" transform="matrix(.99913 0 0 -.99913 239.285 46.046)"/><path d="M284.895 214.95h261.851V3.597H284.895Zm0 0" style="stroke:none;fill-rule:nonzero;fill:#fff;fill-opacity:1"/><g clip-path="url(#n)"><path d="m285.12 49.257 12.273 12.03 12.268 11.729 12.273 11.432 12.272 11.138 12.269 10.838 12.272 10.54 12.272 10.247 12.273 9.95 12.268 9.65 12.272 9.355 12.273 9.055 11.393 8.147 11.396 7.886 11.393 7.632 11.396 7.377 11.397 7.12 11.393 6.865 11.396 6.607 11.393 6.354 11.397 6.095 11.392 5.84 11.397 5.584 1.751.836" style="fill:none;stroke-width:3;stroke-linecap:square;stroke-linejoin:round;stroke:#0173b2;stroke-opacity:.9;stroke-miterlimit:10" transform="matrix(.99913 0 0 -.99913 .021 254.558)"/></g><path d="M285.12 39.643v211.535M547.2 39.643v211.535M285.12 39.643H547.2M285.12 251.178H547.2" style="fill:none;stroke-width:1.5;stroke-linecap:square;stroke-linejoin:miter;stroke:#000;stroke-opacity:1;stroke-miterlimit:10" transform="matrix(.99913 0 0 -.99913 .021 254.558)"/><g style="fill:#000;fill-opacity:1"><use xlink:href="#c" x="343.61" y="246.652"/><use xlink:href="#d" x="350.444" y="246.652"/><use xlink:href="#e" x="364.172" y="246.652"/><use xlink:href="#f" x="378.459" y="246.652"/><use xlink:href="#g" x="385.413" y="246.652"/><use xlink:href="#f" x="399.701" y="246.652"/><use xlink:href="#h" x="406.655" y="246.652"/><use xlink:href="#f" x="423.38" y="246.652"/><use xlink:href="#i" x="430.334" y="246.652"/><use xlink:href="#m" x="438.627" y="246.652"/><use xlink:href="#k" x="452.515" y="246.652"/><use xlink:href="#o" x="460.088" y="246.652"/><use xlink:href="#o" x="473.976" y="246.652"/></g><path d="M-.001-5c1.325 0 2.6.528 3.538 1.463a5.01 5.01 0 0 1 0 7.073 5 5 0 0 1-7.073 0A4.998 4.998 0 0 1 0-5Zm0 0" style="fill-rule:nonzero;fill:#c31;fill-opacity:.8;stroke-width:2;stroke-linecap:butt;stroke-linejoin:round;stroke:#fff;stroke-opacity:.8;stroke-miterlimit:10" transform="matrix(.99913 0 0 -.99913 311.08 126.942)"/><path d="M0-5.001c1.325 0 2.6.527 3.534 1.466a4.998 4.998 0 1 1-7.069 7.072 5 5 0 0 1 0-7.073A5 5 0 0 1 0-5Zm0 0" style="fill-rule:nonzero;fill:#c31;fill-opacity:.8;stroke-width:2;stroke-linecap:butt;stroke-linejoin:round;stroke:#fff;stroke-opacity:.8;stroke-miterlimit:10" transform="matrix(.99913 0 0 -.99913 363.45 132.1)"/><path d="M0-5c1.325 0 2.596.529 3.534 1.463a5 5 0 0 1 0 7.073A5 5 0 0 1 0 5.002a5 5 0 0 1-3.534-1.466A4.998 4.998 0 0 1 0-5Zm0 0" style="fill-rule:nonzero;fill:#c31;fill-opacity:.8;stroke-width:2;stroke-linecap:butt;stroke-linejoin:round;stroke:#fff;stroke-opacity:.8;stroke-miterlimit:10" transform="matrix(.99913 0 0 -.99913 415.82 120.65)"/><path d="M0-5c1.326 0 2.597.527 3.535 1.465a4.99 4.99 0 0 1 0 7.069 4.99 4.99 0 0 1-7.069 0 4.99 4.99 0 0 1 0-7.069A5 5 0 0 1 .001-5Zm0 0" style="fill-rule:nonzero;fill:#c31;fill-opacity:.8;stroke-width:2;stroke-linecap:butt;stroke-linejoin:round;stroke:#fff;stroke-opacity:.8;stroke-miterlimit:10" transform="matrix(.99913 0 0 -.99913 468.19 100.754)"/><path d="M.001-4.999a5 5 0 0 1 3.534 8.535 5.004 5.004 0 0 1-7.073 0 5.01 5.01 0 0 1 0-7.073 5 5 0 0 1 3.54-1.462Zm0 0" style="fill-rule:nonzero;fill:#c31;fill-opacity:.8;stroke-width:2;stroke-linecap:butt;stroke-linejoin:round;stroke:#fff;stroke-opacity:.8;stroke-miterlimit:10" transform="matrix(.99913 0 0 -.99913 520.561 40.341)"/><path d="M566.168 214.95h261.855V3.597H566.168Zm0 0" style="stroke:none;fill-rule:nonzero;fill:#fff;fill-opacity:1"/><g clip-path="url(#p)"><path d="m566.638 235.59 5.263 1.494 5.258 1.278 5.258 1.064 5.259.848 5.258.637 5.259.423 5.262.207 5.259-.008 5.258-.223 5.259-.434 5.258-.649 5.262-.864 5.259-1.079 5.258-1.294 5.259-1.505 5.258-1.72 5.259-1.936 5.262-2.15 5.259-2.365 5.258-2.58 5.259-2.792 6.134-3.527 6.138-3.823 6.134-4.113 6.138-4.402 6.135-4.696 6.134-4.989 6.138-5.278 6.134-5.57 6.134-5.861 6.138-6.154 6.135-6.447 6.134-6.737 7.014-8.057 7.014-8.437 7.01-8.82 7.014-9.2 7.01-9.578 7.013-9.962 7.01-10.345 7.014-10.72 7.01-11.108 7.014-11.482 7.89-13.379" style="fill:none;stroke-width:3;stroke-linecap:square;stroke-linejoin:round;stroke:#0173b2;stroke-opacity:.9;stroke-miterlimit:10" transform="matrix(.99913 0 0 -.99913 .021 254.558)"/></g><path d="M566.638 39.643v211.535M828.72 39.643v211.535M566.638 39.643h262.083M566.638 251.178h262.083" style="fill:none;stroke-width:1.5;stroke-linecap:square;stroke-linejoin:miter;stroke:#000;stroke-opacity:1;stroke-miterlimit:10" transform="matrix(.99913 0 0 -.99913 .021 254.558)"/><g style="fill:#000;fill-opacity:1"><use xlink:href="#c" x="624.885" y="246.652"/><use xlink:href="#d" x="631.719" y="246.652"/><use xlink:href="#e" x="645.448" y="246.652"/><use xlink:href="#f" x="659.735" y="246.652"/><use xlink:href="#g" x="666.689" y="246.652"/><use xlink:href="#f" x="680.977" y="246.652"/><use xlink:href="#h" x="687.931" y="246.652"/><use xlink:href="#f" x="704.656" y="246.652"/><use xlink:href="#i" x="711.61" y="246.652"/><use xlink:href="#q" x="719.903" y="246.652"/><use xlink:href="#k" x="733.791" y="246.652"/><use xlink:href="#j" x="741.364" y="246.652"/><use xlink:href="#m" x="755.252" y="246.652"/></g><path d="M0-4.998a4.998 4.998 0 1 1 0 9.997 5 5 0 0 1-3.534-8.535A5 5 0 0 1 0-4.998Zm0 0" style="fill-rule:nonzero;fill:#c31;fill-opacity:.8;stroke-width:2;stroke-linecap:butt;stroke-linejoin:round;stroke:#fff;stroke-opacity:.8;stroke-miterlimit:10" transform="matrix(.99913 0 0 -.99913 592.355 18.787)"/><path d="M0-5a5 5 0 0 1 3.535 1.463 5 5 0 0 1 0 7.073A4.998 4.998 0 0 1-5 0c0-1.325.528-2.6 1.463-3.538A5.02 5.02 0 0 1 0-5Zm0 0" style="fill-rule:nonzero;fill:#c31;fill-opacity:.8;stroke-width:2;stroke-linecap:butt;stroke-linejoin:round;stroke:#fff;stroke-opacity:.8;stroke-miterlimit:10" transform="matrix(.99913 0 0 -.99913 644.726 13.392)"/><path d="M.001-4.998a4.998 4.998 0 1 1 0 9.997 4.997 4.997 0 0 1-5-5 4.995 4.995 0 0 1 5-4.997Zm0 0" style="fill-rule:nonzero;fill:#c31;fill-opacity:.8;stroke-width:2;stroke-linecap:butt;stroke-linejoin:round;stroke:#fff;stroke-opacity:.8;stroke-miterlimit:10" transform="matrix(.99913 0 0 -.99913 697.096 78.174)"/><path d="M-.002-5c1.33 0 2.6.528 3.538 1.463A5.004 5.004 0 0 1-.002 5a5 5 0 0 1-4.996-5c0-1.326.523-2.6 1.462-3.538A5 5 0 0 1-.002-5Zm0 0" style="fill-rule:nonzero;fill:#c31;fill-opacity:.8;stroke-width:2;stroke-linecap:butt;stroke-linejoin:round;stroke:#fff;stroke-opacity:.8;stroke-miterlimit:10" transform="matrix(.99913 0 0 -.99913 749.467 105.567)"/><path d="M-.001-5A5 5 0 1 1 0 5 5 5 0 0 1 0-5Zm0 0" style="fill-rule:nonzero;fill:#c31;fill-opacity:.8;stroke-width:2;stroke-linecap:butt;stroke-linejoin:round;stroke:#fff;stroke-opacity:.8;stroke-miterlimit:10" transform="matrix(.99913 0 0 -.99913 801.837 166.906)"/></svg>