<?xml version="1.0" encoding="UTF-8"?>
<svg xmlns="http://www.w3.org/2000/svg" width="780" height="240" viewBox="0 0 780 240" role="img" shape-rendering="geometricPrecision">

  <!-- ===== Left: Commutative Diagram ===== -->

  <!-- Top-left box: Generative model code -->
  <rect x="15" y="25" width="155" height="38" rx="3" fill="#fff" stroke="#333" stroke-width="1"/>
  <text x="92" y="49" text-anchor="middle" font-family="'Source Sans 3', sans-serif" font-size="10.5" fill="#333">Generative model code</text>

  <!-- Top-right box: Generative model code -->
  <rect x="250" y="25" width="155" height="38" rx="3" fill="#fff" stroke="#333" stroke-width="1"/>
  <text x="327" y="49" text-anchor="middle" font-family="'Source Sans 3', sans-serif" font-size="10.5" fill="#333">Generative model code</text>

  <!-- Top horizontal arrow: vmap -->
  <line x1="170" y1="44" x2="246" y2="44" stroke="#666" stroke-width="1.2"/>
  <polygon points="242,40 250,44 242,48" fill="#666"/>
  <text x="210" y="37" text-anchor="middle" font-family="'Source Code Pro', monospace" font-size="10" font-weight="600" fill="#333">vmap</text>

  <!-- Bottom-left box: Inference code -->
  <rect x="15" y="145" width="155" height="38" rx="3" fill="#fff" stroke="#333" stroke-width="1"/>
  <text x="92" y="169" text-anchor="middle" font-family="'Source Sans 3', sans-serif" font-size="10.5" fill="#333">Inference code</text>

  <!-- Bottom-right box: Inference code -->
  <rect x="250" y="145" width="155" height="38" rx="3" fill="#fff" stroke="#333" stroke-width="1"/>
  <text x="327" y="169" text-anchor="middle" font-family="'Source Sans 3', sans-serif" font-size="10.5" fill="#333">Inference code</text>

  <!-- Bottom horizontal arrow: vmap -->
  <line x1="170" y1="164" x2="246" y2="164" stroke="#666" stroke-width="1.2"/>
  <polygon points="242,160 250,164 242,168" fill="#666"/>
  <text x="210" y="157" text-anchor="middle" font-family="'Source Code Pro', monospace" font-size="10" font-weight="600" fill="#333">vmap</text>

  <!-- Left vertical arrow: inference interfaces -->
  <line x1="92" y1="63" x2="92" y2="141" stroke="#666" stroke-width="1.2"/>
  <polygon points="88,137 92,145 96,137" fill="#666"/>
  <text x="82" y="97" text-anchor="end" font-family="'Source Sans 3', sans-serif" font-size="9" fill="#586069">inference</text>
  <text x="82" y="109" text-anchor="end" font-family="'Source Sans 3', sans-serif" font-size="9" fill="#586069">interfaces</text>

  <!-- Right vertical arrow: inference interfaces -->
  <line x1="327" y1="63" x2="327" y2="141" stroke="#666" stroke-width="1.2"/>
  <polygon points="323,137 327,145 331,137" fill="#666"/>
  <text x="337" y="97" font-family="'Source Sans 3', sans-serif" font-size="9" fill="#586069">inference</text>
  <text x="337" y="109" font-family="'Source Sans 3', sans-serif" font-size="9" fill="#586069">interfaces</text>

  <!-- Caption below diagram -->
  <text x="210" y="205" text-anchor="middle" font-family="'Source Sans 3', sans-serif" font-size="10" font-style="italic" fill="#586069">Inference on vectorized models can be implemented</text>
  <text x="210" y="219" text-anchor="middle" font-family="'Source Sans 3', sans-serif" font-size="10" font-style="italic" fill="#586069">by vectorizing inference (Cor. 3.4).</text>


  <!-- ===== Right: GenJAX Features Table ===== -->

  <!-- Table header -->
  <rect x="455" y="25" width="320" height="30" rx="3" fill="#24292e"/>
  <text x="615" y="45" text-anchor="middle" font-family="'Source Sans 3', sans-serif" font-size="12" font-weight="700" fill="#fff">GenJAX Features</text>

  <!-- Column headers -->
  <rect x="455" y="55" width="160" height="26" fill="#f5f5f5" stroke="#ddd" stroke-width="0.5"/>
  <rect x="615" y="55" width="160" height="26" fill="#f5f5f5" stroke="#ddd" stroke-width="0.5"/>
  <text x="535" y="73" text-anchor="middle" font-family="'Source Sans 3', sans-serif" font-size="10" font-weight="600" fill="#333">Modeling &amp; inference</text>
  <text x="695" y="73" text-anchor="middle" font-family="'Source Sans 3', sans-serif" font-size="10" font-weight="600" fill="#333">Performance</text>

  <!-- Row 1 -->
  <rect x="455" y="81" width="160" height="26" fill="#fff" stroke="#eee" stroke-width="0.5"/>
  <rect x="615" y="81" width="160" height="26" fill="#fff" stroke="#eee" stroke-width="0.5"/>
  <text x="465" y="99" font-family="'Source Sans 3', sans-serif" font-size="10" fill="#333">Stochastic branching &#xa7;2,4</text>
  <text x="625" y="99" font-family="'Source Sans 3', sans-serif" font-size="10" fill="#333">Struct-of-array traces &#xa7;2,4</text>

  <!-- Row 2 -->
  <rect x="455" y="107" width="160" height="26" fill="#fafafa" stroke="#eee" stroke-width="0.5"/>
  <rect x="615" y="107" width="160" height="26" fill="#fafafa" stroke="#eee" stroke-width="0.5"/>
  <text x="465" y="125" font-family="'Source Sans 3', sans-serif" font-size="10" fill="#333">Programmable SMC &#xa7;5.2</text>
  <text x="625" y="125" font-family="'Source Sans 3', sans-serif" font-size="10" fill="#333">GPU acceleration &#xa7;4</text>

  <!-- Row 3 -->
  <rect x="455" y="133" width="160" height="26" fill="#fff" stroke="#eee" stroke-width="0.5"/>
  <rect x="615" y="133" width="160" height="26" fill="#fff" stroke="#eee" stroke-width="0.5"/>
  <text x="465" y="151" font-family="'Source Sans 3', sans-serif" font-size="10" fill="#333">Programmable MCMC &#xa7;5.2</text>
  <text x="625" y="151" font-family="'Source Sans 3', sans-serif" font-size="10" fill="#333">Efficient abstractions &#xa7;4</text>

</svg>
