<svg xmlns="http://www.w3.org/2000/svg" xmlns:xlink="http://www.w3.org/1999/xlink" width="1302.084" height="244.094" viewBox="0 0 976.563 183.07"><defs><symbol id="c" overflow="visible"><path d="M5.063-10.578q-1.219 0-1.829 1.203-.609 1.188-.609 3.578 0 2.392.61 3.594.609 1.188 1.828 1.187 1.218.001 1.828-1.187.609-1.201.609-3.594 0-2.39-.61-3.578-.609-1.201-1.827-1.203m0-1.235q1.951 0 2.984 1.547 1.03 1.535 1.031 4.47 0 2.938-1.031 4.484Q7.014.22 5.062.218c-1.304 0-2.296-.507-2.984-1.53-.687-1.032-1.031-2.524-1.031-4.485q0-2.934 1.031-4.469c.688-1.03 1.68-1.546 2.985-1.546m0 0" style="stroke:none"/></symbol><symbol id="e" overflow="visible"><path d="M1.719-11.61H7.89v1.329H3.156v2.844q.341-.125.688-.172.34-.062.687-.063 1.937.001 3.063 1.063 1.139 1.064 1.14 2.89 0 1.875-1.171 2.907Q6.402.218 4.28.218q-.738 0-1.5-.124a10 10 0 0 1-1.547-.36v-1.578q.687.375 1.438.563a6.5 6.5 0 0 0 1.578.187q1.342 0 2.125-.703.797-.714.797-1.922 0-1.218-.797-1.922-.784-.716-2.125-.718-.628 0-1.25.14a7 7 0 0 0-1.281.438Zm0 0" style="stroke:none"/></symbol><symbol id="g" overflow="visible"><path d="M1.969-1.328h2.578v-8.844l-2.797.563v-1.438l2.781-.562h1.563v10.28h2.562V0H1.97Zm0 0" style="stroke:none"/></symbol><symbol id="j" overflow="visible"><path d="M3.063-1.328H8.53V0H1.17v-1.328c.595-.613 1.4-1.438 2.423-2.469q1.545-1.558 1.953-2.015.75-.843 1.047-1.438c.195-.395.297-.781.297-1.156q0-.921-.657-1.5c-.43-.395-.984-.594-1.671-.594a5.2 5.2 0 0 0-1.579.266 9 9 0 0 0-1.734.765v-1.578c.625-.25 1.21-.437 1.766-.562a6.5 6.5 0 0 1 1.515-.203q1.794.002 2.86.906 1.078.892 1.078 2.406-.001.703-.266 1.36c-.18.43-.5.93-.969 1.5a59 59 0 0 1-1.25 1.312c-.687.719-1.664 1.719-2.921 3m0 0" style="stroke:none"/></symbol><symbol id="m" overflow="visible"><path d="M6.453-6.266q1.138.253 1.766 1.016.64.75.64 1.875-.002 1.72-1.187 2.656-1.19.938-3.36.938-.737 0-1.515-.14a11 11 0 0 1-1.578-.423v-1.515q.638.377 1.422.578.78.187 1.625.187 1.482.001 2.25-.578.78-.59.78-1.703-.001-1.03-.718-1.61-.721-.575-2-.577h-1.36v-1.282h1.423q1.155 0 1.765-.468t.61-1.329q-.001-.903-.641-1.375-.626-.482-1.797-.484-.657 0-1.39.14c-.493.094-1.032.243-1.626.438v-1.39q.89-.247 1.672-.376a9.6 9.6 0 0 1 1.485-.124Q6.5-11.81 7.53-11q1.046.815 1.047 2.188 0 .972-.547 1.64c-.367.438-.89.742-1.578.906m0 0" style="stroke:none"/></symbol><symbol id="p" overflow="visible"><path d="m6.016-10.234-3.97 6.187h3.97Zm-.407-1.375h1.97v7.562h1.655v1.313H7.578V0H6.016v-2.734H.78V-4.25Zm0 0" style="stroke:none"/></symbol><symbol id="D" overflow="visible"><path d="M11.156-8.547 7.61-4.984l3.547 3.547-.922.953-3.562-3.578L3.109-.485l-.921-.953 3.546-3.547-3.546-3.563.921-.953 3.563 3.578L10.234-9.5Zm0 0" style="stroke:none"/></symbol><symbol id="E" overflow="visible"><path d="M5.25-6.422q-1.05.002-1.672.719-.61.719-.61 1.984 0 1.253.61 1.985.622.719 1.672.718 1.062.001 1.672-.718.623-.732.625-1.985-.002-1.265-.625-1.984-.61-.717-1.672-.719m3.125-4.922v1.422a6 6 0 0 0-1.203-.422 4.8 4.8 0 0 0-1.188-.156q-1.547 0-2.375 1.063-.814 1.048-.937 3.156.466-.669 1.156-1.032.684-.358 1.516-.359 1.746.001 2.765 1.063 1.015 1.064 1.016 2.89 0 1.781-1.062 2.86Q7.013.219 5.25.219 3.233.22 2.172-1.312C1.46-2.344 1.109-3.836 1.109-5.797q-.002-2.747 1.297-4.375 1.313-1.64 3.516-1.64.59 0 1.187.124.61.111 1.266.344m0 0" style="stroke:none"/></symbol><symbol id="F" overflow="visible"><path d="M5.063-5.516q-1.126 0-1.766.61c-.43.398-.64.945-.64 1.64 0 .7.21 1.25.64 1.657.426.398 1.015.593 1.765.593s1.336-.195 1.766-.593q.64-.609.64-1.657 0-1.043-.64-1.64-.643-.61-1.766-.61m-1.579-.671c-.668-.157-1.187-.461-1.562-.922q-.563-.704-.563-1.703 0-1.39.985-2.188.984-.811 2.719-.812 1.734.002 2.718.812.985.798.985 2.188 0 1-.563 1.703-.564.688-1.562.922 1.137.269 1.765 1.046.64.768.64 1.875c0 1.125-.343 1.993-1.03 2.594q-1.032.89-2.953.89-1.922 0-2.954-.89c-.687-.601-1.03-1.469-1.03-2.594 0-.738.21-1.363.64-1.875q.64-.779 1.765-1.046m-.562-2.47q0 .892.562 1.407c.375.336.899.5 1.579.5.675 0 1.203-.164 1.578-.5.382-.344.578-.812.578-1.406 0-.602-.196-1.07-.578-1.406q-.564-.516-1.578-.516-1.018 0-1.579.515-.562.504-.562 1.407m0 0" style="stroke:none"/></symbol><symbol id="aj" overflow="visible"><path d="M9.484-1.656v-3.125H6.906v-1.282h4.125v4.985a6.8 6.8 0 0 1-2 .969 8.1 8.1 0 0 1-2.344.328Q3.97.22 2.423-1.36C1.398-2.422.89-3.9.89-5.797c0-1.894.507-3.367 1.53-4.422q1.548-1.593 4.267-1.594 1.136 0 2.156.282 1.012.282 1.89.812v1.672a6.5 6.5 0 0 0-1.859-1.11 5.7 5.7 0 0 0-2.062-.374q-2.126 0-3.204 1.203Q2.546-8.14 2.547-5.797c0 1.574.351 2.758 1.062 3.547q1.078 1.189 3.204 1.188c.562 0 1.054-.047 1.484-.141a4.5 4.5 0 0 0 1.187-.453m0 0" style="stroke:none"/></symbol><symbol id="ak" overflow="visible"><path d="M3.14-10.312v4.359h1.97q1.089 0 1.687-.563.61-.574.61-1.625 0-1.044-.61-1.609-.598-.562-1.688-.562ZM1.563-11.61H5.11q1.952 0 2.954.89c.664.586 1 1.446 1 2.578 0 1.149-.336 2.012-1 2.594-.668.586-1.653.875-2.954.875H3.141V0H1.563Zm0 0" style="stroke:none"/></symbol><symbol id="al" overflow="visible"><path d="M1.39-11.61h1.58v7.047q-.002 1.876.672 2.704.668.813 2.187.812 1.512 0 2.188-.812c.445-.551.672-1.453.672-2.703v-7.047h1.578v7.25q0 2.267-1.125 3.422Q8.015.22 5.828.218 3.625.22 2.5-.937 1.389-2.091 1.39-4.36Zm0 0" style="stroke:none"/></symbol><symbol id="am" overflow="visible"><path d="M10.25-10.719v1.656a5.5 5.5 0 0 0-1.687-1.093 4.9 4.9 0 0 0-1.907-.375q-1.986 0-3.047 1.219-1.063 1.218-1.062 3.515c0 1.531.351 2.703 1.062 3.516q1.06 1.219 3.047 1.219a5 5 0 0 0 1.907-.36 5.6 5.6 0 0 0 1.687-1.11V-.89a6.3 6.3 0 0 1-1.734.844A7 7 0 0 1 6.563.22q-2.644 0-4.157-1.611Q.89-2.996.891-5.797q0-2.795 1.515-4.406c1.008-1.07 2.395-1.61 4.156-1.61q1.043 0 1.97.282a6 6 0 0 1 1.718.812m0 0" style="stroke:none"/></symbol><symbol id="q" overflow="visible"><path d="M.094-13.047h12.031v2.531H7.797V0H4.422v-10.516H.094Zm0 0" style="stroke:none"/></symbol><symbol id="r" overflow="visible"><path d="M1.5-9.797h3.14V0H1.5Zm0-3.812h3.14v2.562H1.5Zm0 0" style="stroke:none"/></symbol><symbol id="s" overflow="visible"><path d="M10.578-8.172q.592-.903 1.406-1.375a3.5 3.5 0 0 1 1.797-.484q1.686.002 2.563 1.047c.593.687.89 1.695.89 3.015V0h-3.14v-5.11q.014-.105.015-.234v-.343q0-1.046-.312-1.516-.299-.47-.985-.469c-.593 0-1.054.246-1.374.734q-.488.739-.5 2.125V0H7.797v-5.11q0-1.622-.281-2.093-.284-.47-1-.469-.91 0-1.391.75-.485.738-.484 2.11V0H1.484v-9.797h3.157v1.438q.573-.828 1.312-1.25.749-.422 1.656-.422 1.014.001 1.782.5.779.486 1.187 1.36m0 0" style="stroke:none"/></symbol><symbol id="t" overflow="visible"><path d="M11.281-4.922v.89H3.953q.123 1.113.797 1.657.687.549 1.906.547.998 0 2.032-.281A10.4 10.4 0 0 0 10.812-3v2.406Q9.7-.17 8.595.031 7.482.25 6.375.25c-1.773 0-3.152-.445-4.14-1.344Q.764-2.454.764-4.89q0-2.39 1.44-3.766c.969-.914 2.3-1.375 4-1.375q2.295.001 3.688 1.39 1.389 1.393 1.39 3.72m-3.22-1.048c0-.593-.18-1.07-.53-1.437q-.518-.546-1.344-.547c-.618 0-1.11.172-1.485.516Q4.14-6.921 4-5.97Zm0 0" style="stroke:none"/></symbol><symbol id="v" overflow="visible"><path d="M4.64-1.422v5.14H1.5V-9.796h3.14v1.438q.639-.856 1.423-1.266.793-.405 1.812-.406 1.81 0 2.969 1.437 1.172 1.442 1.172 3.703 0 2.267-1.172 3.704Q9.684.252 7.875.25c-.68 0-1.281-.137-1.812-.406Q5.278-.561 4.64-1.422M6.72-7.75q-1.02.001-1.547.734-.533.739-.531 2.125c0 .93.175 1.641.53 2.141.352.492.868.734 1.548.734.664 0 1.176-.242 1.531-.734q.53-.733.531-2.14c0-.926-.18-1.633-.531-2.126q-.534-.733-1.531-.734m0 0" style="stroke:none"/></symbol><symbol id="w" overflow="visible"><path d="M8.781-7.125a4 4 0 0 0-.828-.281 3.6 3.6 0 0 0-.812-.094c-.805 0-1.422.262-1.86.781-.43.512-.64 1.246-.64 2.203V0H1.5v-9.797h3.14v1.61q.591-.95 1.376-1.391.78-.451 1.875-.453c.101 0 .218.008.343.015q.186.017.532.063Zm0 0" style="stroke:none"/></symbol><symbol id="x" overflow="visible"><path d="M13.375-.969c-.836.407-1.703.715-2.61.922A13.3 13.3 0 0 1 7.97.25Q4.7.252 2.798-1.562C1.523-2.782.89-4.43.89-6.516q0-3.151 1.938-4.968 1.951-1.812 5.328-1.813c.864 0 1.692.086 2.485.25q1.2.253 2.25.735v2.687a10 10 0 0 0-2.172-.906 7.8 7.8 0 0 0-2.156-.313q-2.018 0-3.11 1.125-1.078 1.113-1.078 3.203 0 2.08 1.047 3.204 1.043 1.124 2.984 1.124c.344 0 .664-.019.969-.062q.45-.062.813-.203V-5H8.124v-2.25h5.25Zm0 0" style="stroke:none"/></symbol><symbol id="y" overflow="visible"><path d="M6.719-2.016c.664 0 1.176-.242 1.531-.734q.53-.733.531-2.14c0-.926-.18-1.633-.531-2.126q-.534-.733-1.531-.734-1.02.001-1.547.734-.533.739-.531 2.125c0 .93.175 1.641.53 2.141.352.492.868.734 1.548.734M4.64-8.359q.637-.856 1.422-1.266.793-.405 1.812-.406 1.81 0 2.969 1.437 1.172 1.442 1.172 3.703 0 2.267-1.172 3.704Q9.684.252 7.875.25c-.68 0-1.281-.137-1.812-.406Q5.278-.561 4.64-1.422V0H1.5v-13.61h3.14Zm0 0" style="stroke:none"/></symbol><symbol id="z" overflow="visible"><path d="M9.156-9.484v2.375a11 11 0 0 0-1.937-.625 8 8 0 0 0-1.766-.22q-.893 0-1.328.235c-.293.149-.437.375-.437.688q0 .377.328.578.327.189 1.172.297l.562.078q2.403.298 3.234 1 .828.705.829 2.187Q9.812-1.31 8.656-.53 7.497.252 5.22.25C4.562.25 3.89.195 3.203.094A15 15 0 0 1 1.078-.36v-2.375A9.3 9.3 0 0 0 3-2.047a9 9 0 0 0 2 .219q.905.001 1.375-.25.47-.246.469-.75 0-.42-.328-.625-.317-.2-1.266-.328l-.562-.063q-2.08-.265-2.922-.969-.844-.714-.844-2.156c0-1.039.351-1.812 1.062-2.312q1.08-.75 3.282-.75.856 0 1.812.14.951.128 2.078.407m0 0" style="stroke:none"/></symbol><symbol id="A" overflow="visible"><path d="M.625-9.797h3.047l1.64 6.75 1.657-6.75h2.61l1.64 6.688 1.656-6.688h3.047L13.344 0H9.922L8.266-6.734 6.625 0H3.203Zm0 0" style="stroke:none"/></symbol><symbol id="B" overflow="visible"><path d="M6.75 2.36H4.156Q2.81.203 2.172-1.735a12.3 12.3 0 0 1-.64-3.875c0-1.27.21-2.555.64-3.86q.655-1.968 1.984-4.125H6.75Q5.625-11.513 5.063-9.53a14.6 14.6 0 0 0-.547 3.906q-.002 1.94.547 3.922Q5.625.282 6.75 2.359m0 0" style="stroke:none"/></symbol><symbol id="C" overflow="visible"><path d="M1.438 2.36Q2.546.28 3.109-1.704a14.3 14.3 0 0 0 .563-3.922q0-1.92-.563-3.906-.563-1.981-1.671-4.063H4.03Q5.356-11.437 6-9.469q.64 1.956.64 3.86 0 1.922-.64 3.875Q5.373.205 4.031 2.359Zm0 0" style="stroke:none"/></symbol><symbol id="G" overflow="visible"><path d="M-8-6.875q.001-.795-.344-1.203-.357-.405-1.031-.406-.685 0-1.031.406-.36.408-.36 1.203v1.86H-8Zm5.703-.11q0-1.012-.422-1.515c-.281-.344-.71-.516-1.297-.516q-.843.001-1.265.5-.423.502-.422 1.532v1.968h3.406Zm-4.687-3.124q.315-1.09 1.172-1.688.845-.592 2.078-.594 1.875.002 2.812 1.282Q.002-9.844 0-7.234v5.593h-13.047v-5.062q0-2.719.828-3.938.814-1.218 2.625-1.218.957 0 1.625.453.657.44.985 1.297m0 0" style="stroke:none"/></symbol><symbol id="H" overflow="visible"><path d="M-7.797-6.156q0 1.032.75 1.578.75.549 2.156.547 1.407.002 2.157-.547.75-.545.75-1.578 0-1.03-.75-1.563-.75-.546-2.157-.547-1.406.001-2.156.547-.75.532-.75 1.563m-2.234 0q.001-2.53 1.375-3.953c.906-.946 2.164-1.422 3.765-1.422 1.618 0 2.875.476 3.782 1.422Q.25-8.687.25-6.156q0 2.532-1.36 3.968c-.906.95-2.163 1.422-3.78 1.422q-2.405.001-3.766-1.421c-.914-.958-1.375-2.282-1.375-3.97m0 0" style="stroke:none"/></symbol><symbol id="I" overflow="visible"><path d="M-4.406-5.89q.002.985.343 1.484.33.485.97.484.597 0 .937-.39.328-.406.328-1.11.001-.889-.625-1.484-.639-.61-1.594-.61h-.36Zm-1.188-4.782H0v3.156h-1.453q.892.626 1.297 1.422.406.784.406 1.907Q.251-2.67-.625-1.72q-.89.954-2.312.953-1.719.001-2.516-1.187-.812-1.186-.813-3.719v-1.844h-.25q-.732.002-1.078.594-.359.581-.36 1.813c0 .68.071 1.304.204 1.875q.205.86.61 1.609h-2.391a18 18 0 0 1-.375-2.016 17 17 0 0 1-.125-2.03q.002-2.656 1.047-3.829 1.048-1.172 3.39-1.172m0 0" style="stroke:none"/></symbol><symbol id="J" overflow="visible"><path d="M-7.125-8.781a4 4 0 0 0-.281.828 3.6 3.6 0 0 0-.094.812c0 .805.262 1.422.781 1.86.512.43 1.246.64 2.203.64H0V-1.5h-9.797v-3.14h1.61q-.95-.591-1.391-1.376-.451-.78-.453-1.875c0-.101.008-.218.015-.343q.017-.186.063-.532Zm0 0" style="stroke:none"/></symbol><symbol id="K" overflow="visible"><path d="M-8.36-8.172h-5.25v-3.14H0v3.14h-1.422q.878.658 1.281 1.438c.258.511.391 1.109.391 1.797q.002 1.814-1.437 2.984Q-2.623-.795-4.892-.797q-2.261.002-3.703-1.156-1.436-1.17-1.437-2.984 0-1.013.406-1.797.41-.78 1.266-1.438m6.344 2.063c0-.664-.242-1.176-.734-1.532q-.733-.528-2.14-.53-1.388.002-2.126.53-.733.535-.734 1.532.001 1.003.734 1.53.739.533 2.125.532 1.408 0 2.141-.531c.492-.352.734-.863.734-1.531m0 0" style="stroke:none"/></symbol><symbol id="M" overflow="visible"><path d="M-9.484-9.156h2.375a11 11 0 0 0-.625 1.937 8 8 0 0 0-.22 1.766q0 .893.235 1.328c.149.293.375.438.688.438a.64.64 0 0 0 .578-.329q.189-.327.297-1.171l.078-.563q.298-2.403 1-3.234.705-.827 2.187-.828 1.581 0 2.36 1.156Q.252-7.497.25-5.22c0 .657-.055 1.328-.156 2.016A15 15 0 0 1-.36-1.078h-2.375A9.3 9.3 0 0 0-2.047-3a9 9 0 0 0 .219-2q.001-.904-.25-1.375-.246-.468-.75-.469-.42 0-.625.328-.2.317-.328 1.266l-.063.563q-.265 2.079-.969 2.921-.714.844-2.156.844c-1.039 0-1.812-.351-2.312-1.062q-.75-1.08-.75-3.282 0-.856.14-1.812.128-.951.407-2.078m0 0" style="stroke:none"/></symbol><symbol id="N" overflow="visible"><path d="M-9.797-1.5v-3.14H0v3.14Zm-3.812 0v-3.14h2.562v3.14Zm0 0" style="stroke:none"/></symbol><symbol id="O" overflow="visible"><path d="M-9.797-1.016v-8.546h2.188l5.375 5.156v-5.156H0v8.765h-2.187l-5.36-5.172v4.953Zm0 0" style="stroke:none"/></symbol><symbol id="P" overflow="visible"><path d="M-4.922-11.281h.89v7.328q1.113-.123 1.657-.797.549-.687.547-1.906 0-.998-.281-2.032A10.4 10.4 0 0 0-3-10.811h2.406Q-.17-9.7.031-8.594.25-7.482.25-6.375c0 1.773-.445 3.152-1.344 4.14q-1.36 1.47-3.797 1.47-2.389.002-3.765-1.438c-.914-.969-1.375-2.3-1.375-4q.001-2.295 1.39-3.688 1.393-1.389 3.72-1.39m-1.047 3.219c-.593 0-1.07.18-1.437.53q-.546.518-.547 1.345 0 .923.516 1.484.516.563 1.468.703Zm0 0" style="stroke:none"/></symbol><symbol id="aa" overflow="visible"><path d="M1.86-2.062h2.656v-7.5l-2.72.546v-2.03L4.5-11.61h2.844v9.547h2.64V0H1.86Zm0 0" style="stroke:none"/></symbol><symbol id="ab" overflow="visible"><path d="M1.063-11.61h8.75v1.688L5.28 0H2.375l4.281-9.406H1.063Zm0 0" style="stroke:none"/></symbol><symbol id="ac" overflow="visible"><path d="M1.625-3.016h2.797V0H1.625Zm0 0" style="stroke:none"/></symbol><symbol id="ad" overflow="visible"><path d="M7.328-5.812c0-1.446-.14-2.47-.422-3.063q-.41-.89-1.36-.89-.97 0-1.39.89-.408.892-.406 3.063c0 1.468.133 2.507.406 3.109.282.594.742.89 1.39.89q.95 0 1.36-.89.422-.904.422-3.11m2.984.015q0 2.895-1.25 4.453Q7.827.22 5.547.22 3.249.219 2-1.344.765-2.902.766-5.797.765-8.686 2-10.25q1.25-1.561 3.547-1.562 2.28.002 3.516 1.562 1.249 1.564 1.25 4.453m0 0" style="stroke:none"/></symbol><symbol id="ae" overflow="visible"><path d="M11.344-8.36 7.969-4.983l3.375 3.359-1.297 1.313-3.375-3.36-3.375 3.36-1.313-1.313 3.375-3.36-3.375-3.374 1.313-1.297 3.375 3.36 3.375-3.36Zm0 0" style="stroke:none"/></symbol><symbol id="af" overflow="visible"><path d="M4.594-2.203h5.094V0H1.265v-2.203L5.5-5.937c.375-.344.648-.676.828-1A2.07 2.07 0 0 0 6.61-7.97q0-.809-.546-1.297-.551-.499-1.454-.5c-.468 0-.984.102-1.546.297-.555.2-1.141.496-1.766.89v-2.562a14.5 14.5 0 0 1 1.984-.5 11.6 11.6 0 0 1 1.938-.171q2.091 0 3.234.921 1.156.908 1.156 2.547-.002.955-.484 1.781-.487.816-2.062 2.188Zm0 0" style="stroke:none"/></symbol><symbol id="ag" overflow="visible"><path d="M5.547-5.187q-.845 0-1.297.453c-.305.304-.453.742-.453 1.312 0 .574.148 1.012.453 1.313q.451.454 1.297.453.826.002 1.266-.453.452-.452.453-1.313-.002-.855-.453-1.312-.44-.452-1.266-.453m-2.188-1q-1.066-.313-1.593-.97c-.356-.445-.532-1-.532-1.655q0-1.466 1.094-2.235 1.09-.764 3.219-.765 2.108.002 3.203.765 1.092.769 1.094 2.235-.001.986-.547 1.656-.534.657-1.594.968 1.184.33 1.781 1.063.61.737.61 1.86-.001 1.72-1.156 2.609Q7.796.22 5.547.219 3.28.22 2.125-.656C1.352-1.25.969-2.117.969-3.266c0-.75.195-1.367.594-1.859q.608-.733 1.796-1.062M4.063-8.5q0 .689.375 1.063.386.375 1.109.375.703 0 1.078-.375Q7-7.81 7-8.5c0-.469-.125-.82-.375-1.062q-.376-.376-1.078-.376-.722 0-1.11.376-.375.376-.375 1.062m0 0" style="stroke:none"/></symbol><symbol id="ah" overflow="visible"><path d="M7.422-6.266q1.172.315 1.781 1.063.61.751.61 1.906c0 1.149-.446 2.024-1.329 2.625q-1.313.89-3.843.89-.91 0-1.813-.14a12 12 0 0 1-1.765-.422v-2.312a8.6 8.6 0 0 0 1.671.64q.828.205 1.625.204c.79 0 1.395-.133 1.813-.407q.64-.421.64-1.187 0-.795-.656-1.203c-.43-.27-1.062-.407-1.906-.407H3.063v-1.921h1.25c.75 0 1.304-.118 1.671-.36q.563-.357.563-1.078Q6.546-9.043 6-9.406q-.533-.36-1.5-.36-.737.002-1.469.157-.737.157-1.469.484v-2.187q.89-.247 1.75-.376a12 12 0 0 1 1.72-.124c1.507 0 2.64.25 3.39.75q1.125.737 1.125 2.218Q9.546-7.826 9-7.172q-.534.659-1.578.906m0 0" style="stroke:none"/></symbol><symbol id="ai" overflow="visible"><path d="M1.688-11.61h7.437v2.204H4.078v1.797q.341-.095.688-.141.341-.061.718-.062c1.414 0 2.516.355 3.297 1.062Q9.967-5.685 9.97-3.781 9.968-1.905 8.672-.844 7.389.221 5.109.22q-.985 0-1.953-.188a10 10 0 0 1-1.922-.578v-2.36c.625.368 1.22.641 1.782.829.57.18 1.113.265 1.625.265q1.077.001 1.703-.53.623-.53.625-1.438-.002-.92-.625-1.453-.627-.53-1.703-.532-.658.001-1.391.172-.72.176-1.562.516Zm0 0" style="stroke:none"/></symbol><clipPath id="a"><path d="M2.25 0h971.629v182.145H2.25Zm0 0"/></clipPath><clipPath id="b"><path d="M110.754 3.582H112v128.809h-1.246Zm0 0"/></clipPath><clipPath id="d"><path d="M208 3.582h2v128.809h-2Zm0 0"/></clipPath><clipPath id="f"><path d="M306 3.582h2v128.809h-2Zm0 0"/></clipPath><clipPath id="h"><path d="M404 3.582h2v128.809h-2Zm0 0"/></clipPath><clipPath id="i"><path d="M502 3.582h2v128.809h-2Zm0 0"/></clipPath><clipPath id="k"><path d="M600 3.582h2v128.809h-2Zm0 0"/></clipPath><clipPath id="l"><path d="M698 3.582h2v128.809h-2Zm0 0"/></clipPath><clipPath id="n"><path d="M796 3.582h2v128.809h-2Zm0 0"/></clipPath><clipPath id="o"><path d="M894 3.582h2v128.809h-2Zm0 0"/></clipPath><clipPath id="Q"><path d="M110.754 109H152v9h-41.246Zm0 0"/></clipPath><clipPath id="R"><path d="M110.754 84H125v9h-14.246Zm0 0"/></clipPath><clipPath id="S"><path d="M110.754 59H119v9h-8.246Zm0 0"/></clipPath><clipPath id="T"><path d="M110.754 34H119v10h-8.246Zm0 0"/></clipPath><clipPath id="U"><path d="M110.754 9H117v10h-6.246Zm0 0"/></clipPath><clipPath id="V"><path d="M110.754 117H799v10H110.754Zm0 0"/></clipPath><clipPath id="W"><path d="M110.754 92H276v10H110.754Zm0 0"/></clipPath><clipPath id="X"><path d="M110.754 67H171v10h-60.246Zm0 0"/></clipPath><clipPath id="Y"><path d="M110.754 43H137v9h-26.246Zm0 0"/></clipPath><clipPath id="Z"><path d="M110.754 18H120v9h-9.246Zm0 0"/></clipPath></defs><g clip-path="url(#a)"><path d="M2.25 182.145h971.629V0H2.25Zm0 0" style="stroke:none;fill-rule:nonzero;fill:#fff;fill-opacity:1"/></g><path d="M110.754 132.39h859.543V3.583H110.754Zm0 0" style="stroke:none;fill-rule:nonzero;fill:#fff;fill-opacity:1"/><g clip-path="url(#b)"><path d="M109.055 50.007V179.47" style="fill:none;stroke-width:.8;stroke-linecap:square;stroke-linejoin:round;stroke:#b0b0b0;stroke-opacity:.3;stroke-miterlimit:10" transform="matrix(.99495 0 0 -.99495 2.25 182.145)"/></g><path d="M109.055 50.007v-5.999" style="fill:none;stroke-width:1.5;stroke-linecap:butt;stroke-linejoin:round;stroke:#000;stroke-opacity:1;stroke-miterlimit:10" transform="matrix(.99495 0 0 -.99495 2.25 182.145)"/><use xlink:href="#c" x="105.684" y="153.938" style="fill:#000;fill-opacity:1"/><g clip-path="url(#d)"><path d="M207.56 50.007V179.47" style="fill:none;stroke-width:.8;stroke-linecap:square;stroke-linejoin:round;stroke:#b0b0b0;stroke-opacity:.3;stroke-miterlimit:10" transform="matrix(.99495 0 0 -.99495 2.25 182.145)"/></g><path d="M207.56 50.007v-5.999" style="fill:none;stroke-width:1.5;stroke-linecap:butt;stroke-linejoin:round;stroke:#000;stroke-opacity:1;stroke-miterlimit:10" transform="matrix(.99495 0 0 -.99495 2.25 182.145)"/><use xlink:href="#e" x="203.693" y="153.938" style="fill:#000;fill-opacity:1"/><g clip-path="url(#f)"><path d="M306.066 50.007V179.47" style="fill:none;stroke-width:.8;stroke-linecap:square;stroke-linejoin:round;stroke:#b0b0b0;stroke-opacity:.3;stroke-miterlimit:10" transform="matrix(.99495 0 0 -.99495 2.25 182.145)"/></g><path d="M306.066 50.007v-5.999" style="fill:none;stroke-width:1.5;stroke-linecap:butt;stroke-linejoin:round;stroke:#000;stroke-opacity:1;stroke-miterlimit:10" transform="matrix(.99495 0 0 -.99495 2.25 182.145)"/><g style="fill:#000;fill-opacity:1"><use xlink:href="#g" x="296.635" y="153.938"/><use xlink:href="#c" x="306.759" y="153.938"/></g><g clip-path="url(#h)"><path d="M404.576 50.007V179.47" style="fill:none;stroke-width:.8;stroke-linecap:square;stroke-linejoin:round;stroke:#b0b0b0;stroke-opacity:.3;stroke-miterlimit:10" transform="matrix(.99495 0 0 -.99495 2.25 182.145)"/></g><path d="M404.576 50.007v-5.999" style="fill:none;stroke-width:1.5;stroke-linecap:butt;stroke-linejoin:round;stroke:#000;stroke-opacity:1;stroke-miterlimit:10" transform="matrix(.99495 0 0 -.99495 2.25 182.145)"/><g style="fill:#000;fill-opacity:1"><use xlink:href="#g" x="394.644" y="153.938"/><use xlink:href="#e" x="404.769" y="153.938"/></g><g clip-path="url(#i)"><path d="M503.081 50.007V179.47" style="fill:none;stroke-width:.8;stroke-linecap:square;stroke-linejoin:round;stroke:#b0b0b0;stroke-opacity:.3;stroke-miterlimit:10" transform="matrix(.99495 0 0 -.99495 2.25 182.145)"/></g><path d="M503.081 50.007v-5.999" style="fill:none;stroke-width:1.5;stroke-linecap:butt;stroke-linejoin:round;stroke:#000;stroke-opacity:1;stroke-miterlimit:10" transform="matrix(.99495 0 0 -.99495 2.25 182.145)"/><g style="fill:#000;fill-opacity:1"><use xlink:href="#j" x="492.654" y="153.938"/><use xlink:href="#c" x="502.778" y="153.938"/></g><g clip-path="url(#k)"><path d="M601.59 50.007V179.47" style="fill:none;stroke-width:.8;stroke-linecap:square;stroke-linejoin:round;stroke:#b0b0b0;stroke-opacity:.3;stroke-miterlimit:10" transform="matrix(.99495 0 0 -.99495 2.25 182.145)"/></g><path d="M601.59 50.007v-5.999" style="fill:none;stroke-width:1.5;stroke-linecap:butt;stroke-linejoin:round;stroke:#000;stroke-opacity:1;stroke-miterlimit:10" transform="matrix(.99495 0 0 -.99495 2.25 182.145)"/><g style="fill:#000;fill-opacity:1"><use xlink:href="#j" x="590.663" y="153.938"/><use xlink:href="#e" x="600.788" y="153.938"/></g><g clip-path="url(#l)"><path d="M700.096 50.007V179.47" style="fill:none;stroke-width:.8;stroke-linecap:square;stroke-linejoin:round;stroke:#b0b0b0;stroke-opacity:.3;stroke-miterlimit:10" transform="matrix(.99495 0 0 -.99495 2.25 182.145)"/></g><path d="M700.096 50.007v-5.999" style="fill:none;stroke-width:1.5;stroke-linecap:butt;stroke-linejoin:round;stroke:#000;stroke-opacity:1;stroke-miterlimit:10" transform="matrix(.99495 0 0 -.99495 2.25 182.145)"/><g style="fill:#000;fill-opacity:1"><use xlink:href="#m" x="688.672" y="153.938"/><use xlink:href="#c" x="698.797" y="153.938"/></g><g clip-path="url(#n)"><path d="M798.602 50.007V179.47" style="fill:none;stroke-width:.8;stroke-linecap:square;stroke-linejoin:round;stroke:#b0b0b0;stroke-opacity:.3;stroke-miterlimit:10" transform="matrix(.99495 0 0 -.99495 2.25 182.145)"/></g><path d="M798.602 50.007v-5.999" style="fill:none;stroke-width:1.5;stroke-linecap:butt;stroke-linejoin:round;stroke:#000;stroke-opacity:1;stroke-miterlimit:10" transform="matrix(.99495 0 0 -.99495 2.25 182.145)"/><g style="fill:#000;fill-opacity:1"><use xlink:href="#m" x="786.682" y="153.938"/><use xlink:href="#e" x="796.806" y="153.938"/></g><g clip-path="url(#o)"><path d="M897.111 50.007V179.47" style="fill:none;stroke-width:.8;stroke-linecap:square;stroke-linejoin:round;stroke:#b0b0b0;stroke-opacity:.3;stroke-miterlimit:10" transform="matrix(.99495 0 0 -.99495 2.25 182.145)"/></g><path d="M897.111 50.007v-5.999" style="fill:none;stroke-width:1.5;stroke-linecap:butt;stroke-linejoin:round;stroke:#000;stroke-opacity:1;stroke-miterlimit:10" transform="matrix(.99495 0 0 -.99495 2.25 182.145)"/><g style="fill:#000;fill-opacity:1"><use xlink:href="#p" x="884.691" y="153.938"/><use xlink:href="#c" x="894.816" y="153.938"/></g><g style="fill:#000;fill-opacity:1"><use xlink:href="#q" x="402.988" y="174.832"/><use xlink:href="#r" x="415.202" y="174.832"/><use xlink:href="#s" x="421.327" y="174.832"/><use xlink:href="#t" x="439.971" y="174.832"/><use xlink:href="#u" x="452.113" y="174.832"/><use xlink:href="#v" x="458.345" y="174.832"/><use xlink:href="#t" x="471.15" y="174.832"/><use xlink:href="#w" x="483.293" y="174.832"/><use xlink:href="#u" x="492.122" y="174.832"/><use xlink:href="#x" x="498.354" y="174.832"/><use xlink:href="#r" x="513.04" y="174.832"/><use xlink:href="#y" x="519.164" y="174.832"/><use xlink:href="#y" x="531.969" y="174.832"/><use xlink:href="#z" x="544.774" y="174.832"/><use xlink:href="#u" x="555.43" y="174.832"/><use xlink:href="#z" x="561.663" y="174.832"/><use xlink:href="#A" x="572.319" y="174.832"/><use xlink:href="#t" x="588.849" y="174.832"/><use xlink:href="#t" x="600.991" y="174.832"/><use xlink:href="#v" x="613.133" y="174.832"/><use xlink:href="#u" x="625.938" y="174.832"/><use xlink:href="#B" x="632.171" y="174.832"/><use xlink:href="#s" x="640.355" y="174.832"/><use xlink:href="#z" x="658.998" y="174.832"/><use xlink:href="#C" x="669.654" y="174.832"/></g><path d="M109.055 64.655h-6.003" style="fill:none;stroke-width:1.5;stroke-linecap:butt;stroke-linejoin:round;stroke:#000;stroke-opacity:1;stroke-miterlimit:10" transform="matrix(.99495 0 0 -.99495 2.25 182.145)"/><g style="fill:#000;fill-opacity:1"><use xlink:href="#e" x="27.145" y="123.864"/><use xlink:href="#g" x="37.27" y="123.864"/><use xlink:href="#j" x="47.395" y="123.864"/><use xlink:href="#D" x="57.519" y="123.864"/><use xlink:href="#e" x="70.843" y="123.864"/><use xlink:href="#g" x="80.968" y="123.864"/><use xlink:href="#j" x="91.093" y="123.864"/></g><path d="M109.055 89.696h-6.003" style="fill:none;stroke-width:1.5;stroke-linecap:butt;stroke-linejoin:round;stroke:#000;stroke-opacity:1;stroke-miterlimit:10" transform="matrix(.99495 0 0 -.99495 2.25 182.145)"/><g style="fill:#000;fill-opacity:1"><use xlink:href="#j" x="27.145" y="98.949"/><use xlink:href="#e" x="37.27" y="98.949"/><use xlink:href="#E" x="47.395" y="98.949"/><use xlink:href="#D" x="57.519" y="98.949"/><use xlink:href="#j" x="70.843" y="98.949"/><use xlink:href="#e" x="80.968" y="98.949"/><use xlink:href="#E" x="91.093" y="98.949"/></g><path d="M109.055 114.737h-6.003" style="fill:none;stroke-width:1.5;stroke-linecap:butt;stroke-linejoin:round;stroke:#000;stroke-opacity:1;stroke-miterlimit:10" transform="matrix(.99495 0 0 -.99495 2.25 182.145)"/><g style="fill:#000;fill-opacity:1"><use xlink:href="#g" x="27.145" y="74.034"/><use xlink:href="#j" x="37.27" y="74.034"/><use xlink:href="#F" x="47.395" y="74.034"/><use xlink:href="#D" x="57.519" y="74.034"/><use xlink:href="#g" x="70.843" y="74.034"/><use xlink:href="#j" x="80.968" y="74.034"/><use xlink:href="#F" x="91.093" y="74.034"/></g><path d="M109.055 139.781h-6.003" style="fill:none;stroke-width:1.5;stroke-linecap:butt;stroke-linejoin:round;stroke:#000;stroke-opacity:1;stroke-miterlimit:10" transform="matrix(.99495 0 0 -.99495 2.25 182.145)"/><g style="fill:#000;fill-opacity:1"><use xlink:href="#E" x="47.417" y="49.119"/><use xlink:href="#p" x="57.542" y="49.119"/><use xlink:href="#D" x="67.667" y="49.119"/><use xlink:href="#E" x="80.991" y="49.119"/><use xlink:href="#p" x="91.116" y="49.119"/></g><path d="M109.055 164.822h-6.003" style="fill:none;stroke-width:1.5;stroke-linecap:butt;stroke-linejoin:round;stroke:#000;stroke-opacity:1;stroke-miterlimit:10" transform="matrix(.99495 0 0 -.99495 2.25 182.145)"/><g style="fill:#000;fill-opacity:1"><use xlink:href="#m" x="47.417" y="24.204"/><use xlink:href="#j" x="57.542" y="24.204"/><use xlink:href="#D" x="67.667" y="24.204"/><use xlink:href="#m" x="80.991" y="24.204"/><use xlink:href="#j" x="91.116" y="24.204"/></g><g style="fill:#000;fill-opacity:1"><use xlink:href="#G" x="19.435" y="120.641"/><use xlink:href="#H" x="19.435" y="106.994"/><use xlink:href="#I" x="19.435" y="94.691"/><use xlink:href="#J" x="19.435" y="82.62"/><use xlink:href="#K" x="19.435" y="73.791"/><use xlink:href="#L" x="19.435" y="60.986"/><use xlink:href="#M" x="19.435" y="54.754"/><use xlink:href="#N" x="19.435" y="44.098"/><use xlink:href="#O" x="19.435" y="37.973"/><use xlink:href="#P" x="19.435" y="27.55"/></g><g clip-path="url(#Q)"><path d="M110.754 117.816h40.45v-8.718h-40.45Zm0 0" style="stroke:none;fill-rule:nonzero;fill:#de8f05;fill-opacity:.8"/></g><g clip-path="url(#R)"><path d="M110.754 92.902h13.738V84.18h-13.738Zm0 0" style="stroke:none;fill-rule:nonzero;fill:#de8f05;fill-opacity:.8"/></g><g clip-path="url(#S)"><path d="M110.754 67.988h7.457v-8.722h-7.457Zm0 0" style="stroke:none;fill-rule:nonzero;fill:#de8f05;fill-opacity:.8"/></g><g clip-path="url(#T)"><path d="M110.754 43.07h7.383v-8.718h-7.383Zm0 0" style="stroke:none;fill-rule:nonzero;fill:#de8f05;fill-opacity:.8"/></g><g clip-path="url(#U)"><path d="M110.754 18.156h5.887V9.438h-5.887Zm0 0" style="stroke:none;fill-rule:nonzero;fill:#de8f05;fill-opacity:.8"/></g><g clip-path="url(#V)"><path d="M110.754 126.535h687.633v-8.719H110.754Zm0 0" style="stroke:none;fill-rule:nonzero;fill:#0173b2;fill-opacity:.8"/></g><g clip-path="url(#W)"><path d="M110.754 101.621H275.64v-8.719H110.754Zm0 0" style="stroke:none;fill-rule:nonzero;fill:#0173b2;fill-opacity:.8"/></g><g clip-path="url(#X)"><path d="M110.754 76.707h59.683v-8.719h-59.683Zm0 0" style="stroke:none;fill-rule:nonzero;fill:#0173b2;fill-opacity:.8"/></g><g clip-path="url(#Y)"><path d="M110.754 51.793h25.844V43.07h-25.844Zm0 0" style="stroke:none;fill-rule:nonzero;fill:#0173b2;fill-opacity:.8"/></g><g clip-path="url(#Z)"><path d="M110.754 26.879h8.828v-8.723h-8.828Zm0 0" style="stroke:none;fill-rule:nonzero;fill:#0173b2;fill-opacity:.8"/></g><path d="M109.055 50.007h863.908" style="fill:none;stroke-width:2;stroke-linecap:square;stroke-linejoin:miter;stroke:#000;stroke-opacity:1;stroke-miterlimit:10" transform="matrix(.99495 0 0 -.99495 2.25 182.145)"/><g style="fill:#c31;fill-opacity:1"><use xlink:href="#aa" x="837.592" y="126.568"/><use xlink:href="#ab" x="848.655" y="126.568"/><use xlink:href="#ac" x="859.719" y="126.568"/><use xlink:href="#ad" x="865.753" y="126.568"/><use xlink:href="#ae" x="876.816" y="126.568"/></g><g style="fill:#c31;fill-opacity:1"><use xlink:href="#aa" x="314.843" y="101.653"/><use xlink:href="#af" x="325.907" y="101.653"/><use xlink:href="#ac" x="336.971" y="101.653"/><use xlink:href="#ad" x="343.004" y="101.653"/><use xlink:href="#ae" x="354.068" y="101.653"/></g><g style="fill:#c31;fill-opacity:1"><use xlink:href="#ag" x="209.641" y="76.739"/><use xlink:href="#ac" x="220.704" y="76.739"/><use xlink:href="#ad" x="226.738" y="76.739"/><use xlink:href="#ae" x="237.802" y="76.739"/></g><g style="fill:#c31;fill-opacity:1"><use xlink:href="#ah" x="175.801" y="51.824"/><use xlink:href="#ac" x="186.865" y="51.824"/><use xlink:href="#ai" x="192.898" y="51.824"/><use xlink:href="#ae" x="203.962" y="51.824"/></g><g style="fill:#c31;fill-opacity:1"><use xlink:href="#aa" x="158.787" y="26.909"/><use xlink:href="#ac" x="169.851" y="26.909"/><use xlink:href="#ai" x="175.884" y="26.909"/><use xlink:href="#ae" x="186.948" y="26.909"/></g><path d="M443.844 149.66h194.33q3.199 0 3.2 3.199v21.884q-.001 3.199-3.2 3.2h-194.33q-3.199-.001-3.2-3.2v-21.884q.001-3.199 3.2-3.2Zm0 0" style="fill-rule:nonzero;fill:#fff;fill-opacity:.8;stroke-width:1;stroke-linecap:butt;stroke-linejoin:miter;stroke:#ccc;stroke-opacity:.8;stroke-miterlimit:10" transform="matrix(.99495 0 0 -.99495 2.25 182.145)"/><path d="M447.035 23.563h31.84V12.422h-31.84Zm0 0" style="stroke:none;fill-rule:nonzero;fill:#de8f05;fill-opacity:.8"/><g style="fill:#000;fill-opacity:1"><use xlink:href="#aj" x="491.609" y="23.563"/><use xlink:href="#ak" x="503.93" y="23.563"/><use xlink:href="#al" x="513.529" y="23.563"/></g><path d="M557.059 23.563h31.836V12.422h-31.836Zm0 0" style="stroke:none;fill-rule:nonzero;fill:#0173b2;fill-opacity:.8"/><g style="fill:#000;fill-opacity:1"><use xlink:href="#am" x="601.631" y="23.563"/><use xlink:href="#ak" x="612.743" y="23.563"/><use xlink:href="#al" x="622.342" y="23.563"/></g></svg>