<svg xmlns="http://www.w3.org/2000/svg" xmlns:xlink="http://www.w3.org/1999/xlink" width="1887.36" height="397.938" viewBox="0 0 1415.52 298.454"><defs><symbol id="c" overflow="visible"><path d="M4.938-12.61v2.782h3.234v2.25H4.937v4.172q-.002.675.266.922c.188.156.55.234 1.094.234h1.61V0H5.218q-1.862.001-2.64-.766c-.524-.52-.782-1.398-.782-2.64v-4.172H.234v-2.25h1.563v-2.781Zm0 0" style="stroke:none"/></symbol><symbol id="e" overflow="visible"><path d="M1.906-8.656h11.25v2.062H1.906Zm0 3.984h11.25v2.078H1.906Zm0 0" style="stroke:none"/></symbol><symbol id="f" overflow="visible"><path d="M8.266-6.562q0-2.45-.47-3.454Q7.34-11.03 6.25-11.03q-1.078.001-1.547 1.015-.468 1.002-.469 3.454 0 2.485.47 3.5c.312.68.827 1.015 1.546 1.015q1.078.002 1.547-1.015.468-1.015.469-3.5m3.375.03q0 3.253-1.407 5.016Q8.83.252 6.25.25c-1.719 0-3.047-.586-3.984-1.766Q.859-3.279.859-6.53q0-3.263 1.407-5.031 1.406-1.782 3.984-1.782t3.984 1.781q1.407 1.769 1.407 5.032m0 0" style="stroke:none"/></symbol><symbol id="A" overflow="visible"><path d="M1.906-13.094h8.39v2.485H4.595v2.015q.388-.092.781-.156.389-.061.813-.062 2.39 0 3.718 1.203 1.343 1.206 1.344 3.343 0 2.111-1.453 3.313C8.828-.148 7.484.25 5.766.25Q4.652.25 3.563.031a11 11 0 0 1-2.172-.64v-2.657a10.8 10.8 0 0 0 2.015.922q.967.298 1.828.297c.813 0 1.454-.195 1.922-.594q.717-.607.719-1.625-.002-1.043-.719-1.64Q6.453-6.5 5.234-6.5q-.737 0-1.562.188c-.555.125-1.14.32-1.766.578Zm0 0" style="stroke:none"/></symbol><symbol id="B" overflow="visible"><path d="M2.11-2.328h2.984v-8.469l-3.063.625v-2.297l3.047-.625h3.203v10.766h2.985V0H2.109Zm0 0" style="stroke:none"/></symbol><symbol id="D" overflow="visible"><path d="M6.5-6.469c-.594 0-1.04.196-1.328.578q-.439.581-.438 1.72 0 1.159.438 1.734.435.561 1.328.562.89 0 1.328-.562.451-.574.453-1.735 0-1.138-.453-1.719c-.293-.382-.734-.578-1.328-.578m4.172-6.281v2.422a8.4 8.4 0 0 0-1.563-.594 5.8 5.8 0 0 0-1.437-.187q-1.517 0-2.36.843-.843.832-.984 2.485.575-.435 1.25-.64a4.9 4.9 0 0 1 1.484-.22q2.016 0 3.235 1.172 1.232 1.174 1.234 3.078-.001 2.11-1.375 3.375Q8.778.25 6.47.25C4.758.25 3.437-.32 2.5-1.469c-.93-1.144-1.39-2.773-1.39-4.89q0-3.247 1.64-5.094 1.639-1.858 4.484-1.86a10.7 10.7 0 0 1 3.438.563m0 0" style="stroke:none"/></symbol><symbol id="i" overflow="visible"><path d="M-.047-10.187h8.625v1.156H4.953V0H3.578v-9.031H-.047Zm0 0" style="stroke:none"/></symbol><symbol id="j" overflow="visible"><path d="M5.75-6.469a1.6 1.6 0 0 0-.469-.172 2.4 2.4 0 0 0-.547-.062q-1.065 0-1.64.703-.563.69-.563 1.969V0H1.266v-7.64H2.53v1.187q.388-.685 1.016-1.031.638-.342 1.562-.344c.082 0 .176.008.282.016q.154.015.343.062Zm0 0" style="stroke:none"/></symbol><symbol id="k" overflow="visible"><path d="M1.188-3.016V-7.64h1.25v4.579q0 1.078.421 1.624c.282.368.707.547 1.282.547.675 0 1.207-.21 1.593-.64q.593-.656.594-1.781V-7.64h1.25V0h-1.25v-1.172c-.305.461-.656.805-1.062 1.031q-.597.342-1.391.344-1.33 0-2.016-.812-.672-.826-.671-2.407m3.156-4.812" style="stroke:none"/></symbol><symbol id="l" overflow="visible"><path d="M7.844-4.14v.624H2.078c.05.868.313 1.528.781 1.985.47.449 1.118.672 1.954.672q.715.002 1.39-.172a6.4 6.4 0 0 0 1.36-.547v1.187a8.4 8.4 0 0 1-1.391.438 6.8 6.8 0 0 1-1.438.156c-1.218 0-2.187-.351-2.906-1.062C1.118-1.58.766-2.54.766-3.75Q.764-5.624 1.78-6.719q1.013-1.109 2.735-1.11c1.03 0 1.843.337 2.437 1 .594.657.89 1.556.89 2.688m-1.25-.36q-.017-1.03-.578-1.64-.563-.624-1.485-.626-1.048.002-1.687.594c-.418.399-.656.953-.719 1.672Zm0 0" style="stroke:none"/></symbol><symbol id="n" overflow="visible"><path d="M6.344-6.484v-4.125h1.25V0h-1.25v-1.14q-.392.674-1 1.015-.61.328-1.453.328c-.918 0-1.668-.367-2.25-1.11Q.764-2.013.766-3.811c0-1.196.289-2.165.875-2.907q.873-1.109 2.25-1.11c.562 0 1.047.118 1.453.345q.608.329 1 1M2.063-3.812q0 1.394.562 2.171c.383.524.91.782 1.578.782.664 0 1.188-.258 1.563-.782.382-.52.578-1.242.578-2.171 0-.926-.196-1.649-.578-2.172-.375-.52-.899-.782-1.563-.782q-1.003.001-1.578.782-.562.784-.562 2.172m0 0" style="stroke:none"/></symbol><symbol id="o" overflow="visible"><path d="M1.313-7.64h1.265V0H1.313Zm0-2.97h1.265v1.579H1.313Zm0 0" style="stroke:none"/></symbol><symbol id="p" overflow="visible"><path d="M6.188-7.422v1.188a5 5 0 0 0-1.11-.391 5 5 0 0 0-1.187-.14q-.937 0-1.407.28-.454.284-.453.86 0 .44.328.688c.22.167.664.324 1.344.468l.438.094c.882.2 1.515.469 1.89.813q.563.515.563 1.453 0 1.066-.844 1.687c-.562.418-1.336.625-2.312.625Q2.826.202 2.156.078A12 12 0 0 1 .75-.282v-1.296q.703.361 1.375.547.669.174 1.344.172.89 0 1.36-.297a.95.95 0 0 0 .484-.86c0-.343-.118-.601-.344-.78q-.345-.264-1.516-.532l-.437-.094q-1.172-.246-1.688-.75-.516-.516-.516-1.406-.001-1.078.766-1.656c.508-.395 1.235-.594 2.172-.594q.686.002 1.297.11a5.4 5.4 0 0 1 1.14.296m0 0" style="stroke:none"/></symbol><symbol id="q" overflow="visible"><path d="M2.563-9.812v2.171H5.14v.985H2.563v4.14q-.001.939.25 1.204c.164.18.515.265 1.046.265h1.282V0H3.859Q2.407 0 1.844-.531q-.549-.545-.547-1.985v-4.14H.375v-.985h.922v-2.171Zm0 0" style="stroke:none"/></symbol><symbol id="r" overflow="visible"><path d="M4.781-3.844q-1.517 0-2.11.36-.578.345-.577 1.172-.001.674.437 1.062.436.391 1.203.39 1.044.002 1.672-.734c.414-.488.625-1.144.625-1.968v-.282Zm2.516-.515V0H6.03v-1.156q-.42.69-1.06 1.031c-.43.219-.953.328-1.578.328q-1.174 0-1.86-.656Q.843-1.121.844-2.22q-.001-1.295.86-1.953.855-.656 2.577-.656h1.75v-.11Q6.03-5.81 5.453-6.28c-.375-.32-.902-.485-1.578-.485-.437 0-.867.055-1.281.157q-.628.156-1.203.484v-1.172a9 9 0 0 1 1.343-.39Q3.391-7.828 4-7.828q1.654.002 2.469.86.827.861.828 2.609m0 0" style="stroke:none"/></symbol><symbol id="s" overflow="visible"><path d="M7.672-4.61V0H6.406v-4.562q0-1.091-.422-1.625-.421-.546-1.265-.547-1.019 0-1.61.656-.579.643-.578 1.766V0H1.266v-7.64H2.53v1.187q.452-.685 1.063-1.031A2.84 2.84 0 0 1 5-7.828q1.312 0 1.984.828.687.815.688 2.39m0 0" style="stroke:none"/></symbol><symbol id="t" overflow="visible"><path d="M6.813-7.344v1.172a4.8 4.8 0 0 0-1.063-.437 4 4 0 0 0-1.078-.157q-1.237.001-1.906.782-.673.766-.672 2.172-.002 1.394.672 2.171c.445.524 1.082.782 1.906.782A4.2 4.2 0 0 0 5.75-1a5 5 0 0 0 1.063-.453v1.156a5 5 0 0 1-1.094.375A5.6 5.6 0 0 1 4.53.203q-1.735 0-2.75-1.078C1.101-1.602.766-2.582.766-3.812q0-1.873 1.03-2.938Q2.829-7.828 4.61-7.828q.575.001 1.125.125c.375.086.735.203 1.079.36m0 0" style="stroke:none"/></symbol><symbol id="u" overflow="visible"><path d="M1.375-10.187h1.844l4.515 8.515v-8.515h1.344V0h-1.86L2.704-8.516V0H1.375Zm0 0" style="stroke:none"/></symbol><symbol id="v" overflow="visible"><path d="M4.281-6.766q-1.019 0-1.61.797-.578.785-.577 2.157-.001 1.375.578 2.171c.394.524.93.782 1.61.782q.995 0 1.577-.797.593-.797.594-2.157-.002-1.358-.594-2.156-.58-.797-1.578-.797m0-1.062q1.624 0 2.563 1.078.937 1.064.937 2.938T6.844-.86Q5.906.205 4.28.203c-1.105 0-1.968-.351-2.593-1.062C1.07-1.58.766-2.562.766-3.812s.304-2.227.922-2.938q.937-1.078 2.593-1.078m0 0" style="stroke:none"/></symbol><symbol id="w" overflow="visible"><path d="M4.5.703q-.532 1.371-1.047 1.781c-.336.282-.781.422-1.344.422h-1V1.86h.735c.343 0 .61-.086.797-.25q.294-.252.64-1.156L3.5-.125.422-7.641H1.75l2.39 5.97 2.376-5.97h1.328Zm0 0" style="stroke:none"/></symbol><symbol id="x" overflow="visible"><path d="M6.797-3.812Q6.795-5.2 6.219-5.985q-.562-.781-1.547-.782-1.003.001-1.578.782-.563.784-.563 2.172 0 1.394.563 2.171c.383.524.91.782 1.578.782.656 0 1.172-.258 1.547-.782q.576-.779.578-2.171M2.53-6.485a2.56 2.56 0 0 1 1-1q.607-.342 1.438-.344 1.388 0 2.265 1.11.874 1.112.875 2.906-.001 1.798-.875 2.906Q6.356.206 4.97.204q-.83 0-1.438-.329a2.63 2.63 0 0 1-1-1.016V0H1.266v-10.61H2.53Zm0 0" style="stroke:none"/></symbol><symbol id="y" overflow="visible"><path d="M.422-7.64H1.75l2.39 6.406 2.376-6.407h1.328L4.984 0H3.281Zm0 0" style="stroke:none"/></symbol><symbol id="z" overflow="visible"><path d="M6.203-4.781q.436.158.86.656.42.487.843 1.344L9.296 0H7.829L6.516-2.61q-.504-1.03-.985-1.359c-.312-.219-.742-.328-1.281-.328h-1.5V0H1.375v-10.187h3.11q1.746.001 2.609.734c.57.492.86 1.226.86 2.203q-.001.971-.454 1.61c-.305.417-.734.702-1.297.859M2.75-9.047v3.61h1.734q.996.002 1.5-.454.516-.468.516-1.359 0-.89-.516-1.344-.504-.451-1.5-.453Zm0 0" style="stroke:none"/></symbol><clipPath id="a"><path d="M1.055 0h1412.933v297.91H1.055Zm0 0"/></clipPath><clipPath id="b"><path d="M45 7.188h14V22H45Zm0 0"/></clipPath><clipPath id="g"><path d="M9 202h105v88.723H9Zm0 0"/></clipPath><clipPath id="h"><path d="M139 203h212v94.91H139Zm0 0"/></clipPath><clipPath id="C"><path d="M1396 26h10.8v14H1396Zm0 0"/></clipPath><clipPath id="E"><path d="M1338 7.188h68.8V78H1338Zm0 0"/></clipPath></defs><g clip-path="url(#a)"><path d="M1.055 297.91h1412.933V0H1.055Zm0 0" style="stroke:none;fill-rule:nonzero;fill:#fff;fill-opacity:1"/></g><path d="M8.238 290.723h335.09V7.188H8.238Zm0 0" style="stroke:none;fill-rule:nonzero;fill:#fff;fill-opacity:1"/><path d="M20.112 20.113h309.875v258.23H20.112Zm0 0" style="fill:none;stroke-width:3;stroke-linecap:butt;stroke-linejoin:miter;stroke:#000;stroke-opacity:1;stroke-miterlimit:10" transform="matrix(.99817 0 0 -.99817 1.053 297.909)"/><path d="M123.403 20.113V97.58m0 51.648v129.115m103.294-258.23v103.29m0 51.646v103.294m-77.47-77.47h51.645m51.645-129.114h25.825m0 0v25.82m0 .001h-25.825m0 0V71.758" style="fill:none;stroke-width:2;stroke-linecap:square;stroke-linejoin:round;stroke:#000;stroke-opacity:.8;stroke-miterlimit:10" transform="matrix(.99817 0 0 -.99817 1.053 297.909)"/><path d="M51.099 51.1h72.304m-72.304 0 149.773 149.773M51.099 51.1v227.243m0-227.243L20.112 82.086M51.099 51.1H20.112m30.987 0L20.112 20.113M51.099 51.1V20.113m0 30.987 30.99-30.987" style="fill:none;stroke-width:2;stroke-linecap:square;stroke-linejoin:round;stroke:#a9a9a9;stroke-opacity:.3;stroke-miterlimit:10" transform="matrix(.99817 0 0 -.99817 1.053 297.909)"/><path d="M123.403 44.776a6.324 6.324 0 1 1-4.47 10.797 6.32 6.32 0 0 1 0-8.946 6.32 6.32 0 0 1 4.47-1.851Zm77.469 149.774a6.324 6.324 0 1 1 0 12.647 6.324 6.324 0 0 1-6.324-6.324 6.324 6.324 0 0 1 6.324-6.324ZM51.099 272.019a6.324 6.324 0 1 1 0 12.648 6.33 6.33 0 0 1-4.473-1.851 6.33 6.33 0 0 1 0-8.946 6.33 6.33 0 0 1 4.473-1.851ZM20.112 75.762c1.675 0 3.284.665 4.473 1.851a6.34 6.34 0 0 1 1.851 4.473 6.324 6.324 0 1 1-12.648 0 6.34 6.34 0 0 1 1.851-4.473 6.32 6.32 0 0 1 4.473-1.851Zm0-30.986c1.675 0 3.284.665 4.473 1.85a6.33 6.33 0 0 1 0 8.946 6.34 6.34 0 0 1-4.473 1.852 6.324 6.324 0 1 1 0-12.648Zm0-30.991a6.324 6.324 0 0 1 4.473 10.797 6.34 6.34 0 0 1-4.473 1.855A6.327 6.327 0 0 1 15.64 15.64a6.33 6.33 0 0 1 4.473-1.855Zm30.987 0a6.327 6.327 0 0 1 4.473 10.797 6.33 6.33 0 0 1-4.473 1.855 6.33 6.33 0 0 1-4.473-1.855 6.32 6.32 0 0 1 0-8.942 6.33 6.33 0 0 1 4.473-1.855Zm30.99 0c1.675 0 3.283.67 4.469 1.855a6.33 6.33 0 0 1 1.855 4.473 6.33 6.33 0 0 1-1.855 4.47 6.33 6.33 0 0 1-4.47 1.854 6.33 6.33 0 0 1-4.472-1.855 6.33 6.33 0 0 1-1.855-4.469c0-1.678.67-3.287 1.855-4.473a6.33 6.33 0 0 1 4.473-1.855Zm0 0" style="fill-rule:nonzero;fill:#000;fill-opacity:.8;stroke-width:1;stroke-linecap:butt;stroke-linejoin:round;stroke:#000;stroke-opacity:.8;stroke-miterlimit:10" transform="matrix(.99817 0 0 -.99817 1.053 297.909)"/><path d="M124.154 44.776a6.324 6.324 0 1 1 0 12.648 6.324 6.324 0 1 1 0-12.648Zm76.366 149.421a6.324 6.324 0 1 1 0 12.648 6.324 6.324 0 1 1 0-12.648Zm0 0" style="fill-rule:nonzero;fill:orange;fill-opacity:.8;stroke-width:1;stroke-linecap:butt;stroke-linejoin:round;stroke:#000;stroke-opacity:.8;stroke-miterlimit:10" transform="matrix(.99817 0 0 -.99817 1.053 297.909)"/><path d="M52.059 21.012a6.312 6.312 0 1 0 0-12.625 6.31 6.31 0 0 0-6.312 6.313 6.31 6.31 0 0 0 6.312 6.312m0 0" style="stroke:none;fill-rule:nonzero;fill:orange;fill-opacity:.8"/><g clip-path="url(#b)"><path d="M51.099 277.404a6.324 6.324 0 1 1 0 12.648 6.324 6.324 0 0 1-6.324-6.324 6.324 6.324 0 0 1 6.324-6.324Zm0 0" style="fill:none;stroke-width:1;stroke-linecap:butt;stroke-linejoin:round;stroke:#000;stroke-opacity:.8;stroke-miterlimit:10" transform="matrix(.99817 0 0 -.99817 1.053 297.909)"/></g><path d="M21.404 74.47a6.324 6.324 0 1 1 0 12.649 6.34 6.34 0 0 1-4.473-1.851 6.34 6.34 0 0 1-1.851-4.473 6.324 6.324 0 0 1 6.324-6.325Zm-1.296-29.694a6.324 6.324 0 1 1 0 12.648 6.33 6.33 0 0 1-4.473-1.851 6.33 6.33 0 0 1 0-8.946 6.33 6.33 0 0 1 4.473-1.851Zm-3.115-34.11c1.675 0 3.284.666 4.47 1.855a6.33 6.33 0 0 1 1.854 4.47 6.327 6.327 0 0 1-10.797 4.473 6.33 6.33 0 0 1-1.855-4.473 6.33 6.33 0 0 1 1.855-4.47 6.3 6.3 0 0 1 4.473-1.855Zm34.106.29a6.324 6.324 0 1 1-4.473 10.793 6.32 6.32 0 0 1 0-8.942 6.33 6.33 0 0 1 4.473-1.851Zm30.27 3.549a6.324 6.324 0 1 1 0 12.649 6.324 6.324 0 1 1 0-12.649Zm0 0" style="fill-rule:nonzero;fill:orange;fill-opacity:.8;stroke-width:1;stroke-linecap:butt;stroke-linejoin:round;stroke:#000;stroke-opacity:.8;stroke-miterlimit:10" transform="matrix(.99817 0 0 -.99817 1.053 297.909)"/><path d="M23.987 254.229h48.749q5.4 0 5.4 5.4v17.422q0 5.4-5.4 5.401h-48.75q-5.4 0-5.4-5.4v-17.423q0-5.4 5.4-5.4Zm0 0" style="fill-rule:nonzero;fill:#fff;fill-opacity:.8;stroke-width:1;stroke-linecap:butt;stroke-linejoin:miter;stroke:#000;stroke-opacity:.8;stroke-miterlimit:10" transform="matrix(.99817 0 0 -.99817 1.053 297.909)"/><g style="fill:#000;fill-opacity:1"><use xlink:href="#c" x="24.994" y="35.011"/><use xlink:href="#d" x="33.583" y="35.011"/><use xlink:href="#e" x="39.835" y="35.011"/><use xlink:href="#d" x="54.874" y="35.011"/><use xlink:href="#f" x="61.126" y="35.011"/></g><path d="m71.39 246.902-3.867 1.934v-1.922H52.06v-.023h15.464v-1.922Zm0 0" style="stroke:none;fill-rule:nonzero;fill:red;fill-opacity:.8"/><g clip-path="url(#g)"><path d="m70.466 51.1-3.874-1.937v1.925H51.099v.023h15.493v1.926Zm0 0" style="fill:none;stroke-width:3;stroke-linecap:butt;stroke-linejoin:miter;stroke:red;stroke-opacity:.8;stroke-miterlimit:10" transform="matrix(.99817 0 0 -.99817 1.053 297.909)"/></g><path d="M51.099 44.975c1.624 0 3.181.646 4.332 1.793a6.14 6.14 0 0 1 1.792 4.332 6.123 6.123 0 0 1-10.453 4.328 6.1 6.1 0 0 1-1.796-4.328 6.126 6.126 0 0 1 6.125-6.125Zm0 0" style="fill-rule:nonzero;fill:red;fill-opacity:1;stroke-width:1;stroke-linecap:butt;stroke-linejoin:round;stroke:red;stroke-opacity:1;stroke-miterlimit:10" transform="matrix(.99817 0 0 -.99817 1.053 297.909)"/><path d="M156.04 283.734h177.503q2.796 0 2.797-2.793V220.81q-.001-2.794-2.797-2.793H156.039q-2.796 0-2.797 2.793v60.132q.001 2.794 2.797 2.793m0 0" style="stroke:none;fill-rule:nonzero;fill:#fff;fill-opacity:.9"/><g clip-path="url(#h)"><path d="M155.27 14.2h177.828q2.801 0 2.802 2.798v60.243q0 2.8-2.802 2.798H155.27q-2.8.001-2.802-2.798V16.998q.002-2.798 2.802-2.798Zm0 0" style="fill:none;stroke-width:1;stroke-linecap:butt;stroke-linejoin:miter;stroke:#ccc;stroke-opacity:.9;stroke-miterlimit:10" transform="matrix(.99817 0 0 -.99817 1.053 297.909)"/></g><path d="M158.068 68.698h28" style="fill:none;stroke-width:1.5;stroke-linecap:square;stroke-linejoin:round;stroke:#fff;stroke-opacity:1;stroke-miterlimit:10" transform="matrix(.99817 0 0 -.99817 1.053 297.909)"/><path d="M172.07 63.7a4.997 4.997 0 0 1 4.997 4.997 5 5 0 1 1-4.997-4.996Zm0 0" style="fill-rule:nonzero;fill:#000;fill-opacity:1;stroke-width:1;stroke-linecap:butt;stroke-linejoin:round;stroke:#fff;stroke-opacity:1;stroke-miterlimit:10" transform="matrix(.99817 0 0 -.99817 1.053 297.909)"/><use xlink:href="#i" x="197.962" y="234.225" style="fill:#000;fill-opacity:1"/><g style="fill:#000;fill-opacity:1"><use xlink:href="#j" x="204.443" y="234.225"/><use xlink:href="#k" x="210.186" y="234.225"/><use xlink:href="#l" x="219.032" y="234.225"/><use xlink:href="#m" x="227.626" y="234.225"/><use xlink:href="#n" x="232.056" y="234.225"/><use xlink:href="#o" x="240.916" y="234.225"/><use xlink:href="#p" x="244.787" y="234.225"/><use xlink:href="#q" x="252.054" y="234.225"/><use xlink:href="#r" x="257.532" y="234.225"/><use xlink:href="#s" x="266.084" y="234.225"/><use xlink:href="#t" x="274.93" y="234.225"/><use xlink:href="#l" x="282.602" y="234.225"/><use xlink:href="#p" x="291.196" y="234.225"/></g><path d="M158.068 48.153h28" style="fill:none;stroke-width:1.5;stroke-linecap:square;stroke-linejoin:round;stroke:#fff;stroke-opacity:1;stroke-miterlimit:10" transform="matrix(.99817 0 0 -.99817 1.053 297.909)"/><path d="M172.07 43.152c1.326 0 2.598.528 3.533 1.467a4.98 4.98 0 0 1 1.464 3.534 5 5 0 1 1-8.535-3.534 5 5 0 0 1 3.538-1.467Zm0 0" style="fill-rule:nonzero;fill:orange;fill-opacity:1;stroke-width:1;stroke-linecap:butt;stroke-linejoin:round;stroke:#fff;stroke-opacity:1;stroke-miterlimit:10" transform="matrix(.99817 0 0 -.99817 1.053 297.909)"/><g style="fill:#000;fill-opacity:1"><use xlink:href="#u" x="197.962" y="254.735"/><use xlink:href="#v" x="208.415" y="254.735"/><use xlink:href="#o" x="216.953" y="254.735"/><use xlink:href="#p" x="220.824" y="254.735"/><use xlink:href="#w" x="228.091" y="254.735"/><use xlink:href="#m" x="236.349" y="254.735"/><use xlink:href="#v" x="240.779" y="254.735"/><use xlink:href="#x" x="249.318" y="254.735"/><use xlink:href="#p" x="258.177" y="254.735"/><use xlink:href="#l" x="265.444" y="254.735"/><use xlink:href="#j" x="274.038" y="254.735"/><use xlink:href="#y" x="279.782" y="254.735"/><use xlink:href="#r" x="288.041" y="254.735"/><use xlink:href="#q" x="296.593" y="254.735"/><use xlink:href="#o" x="302.071" y="254.735"/><use xlink:href="#v" x="305.942" y="254.735"/><use xlink:href="#s" x="314.48" y="254.735"/><use xlink:href="#p" x="323.326" y="254.735"/></g><path d="M158.068 27.608h28" style="fill:none;stroke-width:1.5;stroke-linecap:square;stroke-linejoin:round;stroke:#fff;stroke-opacity:1;stroke-miterlimit:10" transform="matrix(.99817 0 0 -.99817 1.053 297.909)"/><path d="M172.07 21.604a6.002 6.002 0 0 1 0 12.003 6 6 0 0 1-6-6c0-1.592.63-3.118 1.758-4.242a6 6 0 0 1 4.242-1.76Zm0 0" style="fill-rule:nonzero;fill:red;fill-opacity:1;stroke-width:1;stroke-linecap:butt;stroke-linejoin:round;stroke:#fff;stroke-opacity:1;stroke-miterlimit:10" transform="matrix(.99817 0 0 -.99817 1.053 297.909)"/><use xlink:href="#z" x="197.962" y="275.244" style="fill:#000;fill-opacity:1"/><g style="fill:#000;fill-opacity:1"><use xlink:href="#v" x="207.036" y="275.244"/><use xlink:href="#x" x="215.574" y="275.244"/><use xlink:href="#v" x="224.434" y="275.244"/><use xlink:href="#q" x="232.973" y="275.244"/></g><path d="M362.73 290.723h335.086V7.188H362.73Zm0 0" style="stroke:none;fill-rule:nonzero;fill:#fff;fill-opacity:1"/><path d="M375.253 20.113h309.875v258.23H375.253Zm0 0" style="fill:none;stroke-width:3;stroke-linecap:butt;stroke-linejoin:miter;stroke:#000;stroke-opacity:1;stroke-miterlimit:10" transform="matrix(.99817 0 0 -.99817 1.053 297.909)"/><path d="M478.544 20.113V97.58m0 51.648v129.115m103.294-258.23v103.29m0 51.646v103.294m-77.47-77.47h51.645m51.645-129.114h25.825m0 0v25.82m0 .001h-25.825m0 0V71.758" style="fill:none;stroke-width:2;stroke-linecap:square;stroke-linejoin:round;stroke:#000;stroke-opacity:.8;stroke-miterlimit:10" transform="matrix(.99817 0 0 -.99817 1.053 297.909)"/><path d="m406.24 51.1 7.744 7.744" style="fill:none;stroke-width:2;stroke-linecap:square;stroke-linejoin:round;stroke:gray;stroke-opacity:.32;stroke-miterlimit:10" transform="matrix(.99817 0 0 -.99817 1.053 297.909)"/><path d="M413.984 58.844 439.81 84.67" style="fill:none;stroke-width:2;stroke-linecap:square;stroke-linejoin:round;stroke:gray;stroke-opacity:.44;stroke-miterlimit:10" transform="matrix(.99817 0 0 -.99817 1.053 297.909)"/><path d="m439.809 84.669 25.824 25.824" style="fill:none;stroke-width:2;stroke-linecap:square;stroke-linejoin:round;stroke:gray;stroke-opacity:.56;stroke-miterlimit:10" transform="matrix(.99817 0 0 -.99817 1.053 297.909)"/><path d="m465.633 110.493 10.328 12.91" style="fill:none;stroke-width:2;stroke-linecap:square;stroke-linejoin:round;stroke:gray;stroke-opacity:.68;stroke-miterlimit:10" transform="matrix(.99817 0 0 -.99817 1.053 297.909)"/><path d="M481.126 123.404h100.712m-100.712 0 100.712 100.71m-100.712-100.71v154.939m0-154.939L375.253 229.277m105.873-105.873H375.253m105.873 0L377.832 20.114m103.294 103.29V20.114m0 103.29L581.838 22.692" style="fill:none;stroke-width:2;stroke-linecap:square;stroke-linejoin:round;stroke:#a9a9a9;stroke-opacity:.3;stroke-miterlimit:10" transform="matrix(.99817 0 0 -.99817 1.053 297.909)"/><path d="M581.838 117.08a6.327 6.327 0 0 1 6.324 6.324 6.327 6.327 0 0 1-10.797 4.473 6.33 6.33 0 0 1-1.855-4.473 6.327 6.327 0 0 1 6.328-6.324Zm0 100.71a6.327 6.327 0 0 1 6.324 6.324 6.34 6.34 0 0 1-1.855 4.474 6.32 6.32 0 0 1-8.942 0 6.34 6.34 0 0 1-1.855-4.473 6.327 6.327 0 0 1 6.328-6.324Zm-100.712 54.229a6.324 6.324 0 1 1 0 12.648 6.324 6.324 0 1 1 0-12.648Zm-105.873-49.066c1.675 0 3.284.669 4.47 1.855a6.33 6.33 0 0 1 1.854 4.469 6.33 6.33 0 0 1-1.855 4.473 6.33 6.33 0 0 1-4.469 1.855 6.33 6.33 0 0 1-4.473-1.855 6.33 6.33 0 0 1-1.855-4.473 6.33 6.33 0 0 1 1.855-4.47 6.33 6.33 0 0 1 4.473-1.854Zm0-105.873a6.327 6.327 0 0 1 6.324 6.324 6.327 6.327 0 0 1-10.797 4.473 6.33 6.33 0 0 1-1.855-4.473 6.327 6.327 0 0 1 6.328-6.324Zm2.579-103.295c1.68 0 3.287.67 4.473 1.855a6.33 6.33 0 0 1 1.855 4.473 6.33 6.33 0 0 1-1.855 4.47 6.33 6.33 0 0 1-4.473 1.854 6.33 6.33 0 0 1-4.469-1.855 6.33 6.33 0 0 1-1.855-4.469c0-1.678.67-3.287 1.855-4.473a6.33 6.33 0 0 1 4.47-1.855Zm103.294 0a6.327 6.327 0 0 1 4.473 10.797 6.33 6.33 0 0 1-4.473 1.855 6.327 6.327 0 0 1-4.473-10.797 6.33 6.33 0 0 1 4.473-1.855Zm100.712 2.583c1.675 0 3.283.67 4.469 1.855a6.33 6.33 0 0 1 1.855 4.47c0 1.678-.67 3.287-1.855 4.472a6.33 6.33 0 0 1-4.47 1.855 6.33 6.33 0 0 1-4.472-1.855 6.33 6.33 0 0 1-1.855-4.473c0-1.675.669-3.283 1.855-4.469a6.33 6.33 0 0 1 4.473-1.855Zm0 0" style="fill-rule:nonzero;fill:#000;fill-opacity:.8;stroke-width:1;stroke-linecap:butt;stroke-linejoin:round;stroke:#000;stroke-opacity:.8;stroke-miterlimit:10" transform="matrix(.99817 0 0 -.99817 1.053 297.909)"/><path d="M582.135 117.08a6.324 6.324 0 0 1 6.324 6.324 6.324 6.324 0 1 1-12.648 0 6.324 6.324 0 0 1 6.324-6.324Zm-2.141 98.868a6.327 6.327 0 0 1 6.324 6.324 6.33 6.33 0 0 1-1.854 4.469 6.33 6.33 0 0 1-4.47 1.855 6.33 6.33 0 0 1-4.473-1.855 6.33 6.33 0 0 1-1.854-4.47 6.327 6.327 0 0 1 6.327-6.323Zm-98.868 47.861a6.327 6.327 0 0 1 4.473 10.797 6.33 6.33 0 0 1-4.473 1.855 6.327 6.327 0 0 1-4.473-10.798 6.33 6.33 0 0 1 4.473-1.854Zm-106.765-39.964a6.324 6.324 0 1 1-4.47 10.793 6.3 6.3 0 0 1-1.854-4.469 6.3 6.3 0 0 1 1.855-4.473 6.32 6.32 0 0 1 4.469-1.851Zm1.099-106.765a6.324 6.324 0 0 1 6.324 6.324 6.324 6.324 0 1 1-12.647 0 6.324 6.324 0 0 1 6.324-6.324Zm-.43-106.097a6.327 6.327 0 0 1 4.473 10.798 6.33 6.33 0 0 1-4.473 1.854 6.33 6.33 0 0 1-4.469-1.854 6.3 6.3 0 0 1-1.855-4.474 6.3 6.3 0 0 1 1.855-4.469 6.33 6.33 0 0 1 4.47-1.855Zm106.096 2.947a6.327 6.327 0 0 1 4.473 10.797 6.33 6.33 0 0 1-4.473 1.855 6.327 6.327 0 0 1-4.473-10.797 6.33 6.33 0 0 1 4.473-1.855Zm99.205 3.945a6.324 6.324 0 1 1 0 12.648 6.33 6.33 0 0 1-4.473-1.851 6.33 6.33 0 0 1 0-8.946 6.33 6.33 0 0 1 4.473-1.851Zm0 0" style="fill-rule:nonzero;fill:orange;fill-opacity:.8;stroke-width:1;stroke-linecap:butt;stroke-linejoin:round;stroke:#000;stroke-opacity:.8;stroke-miterlimit:10" transform="matrix(.99817 0 0 -.99817 1.053 297.909)"/><path d="M379.124 254.229h48.753q5.395 0 5.396 5.4v17.422q-.001 5.4-5.396 5.401h-48.753q-5.4 0-5.4-5.4v-17.423q0-5.4 5.4-5.4Zm0 0" style="fill-rule:nonzero;fill:#fff;fill-opacity:.8;stroke-width:1;stroke-linecap:butt;stroke-linejoin:miter;stroke:#000;stroke-opacity:.8;stroke-miterlimit:10" transform="matrix(.99817 0 0 -.99817 1.053 297.909)"/><g style="fill:#000;fill-opacity:1"><use xlink:href="#c" x="379.486" y="35.011"/><use xlink:href="#d" x="388.074" y="35.011"/><use xlink:href="#e" x="394.327" y="35.011"/><use xlink:href="#d" x="409.365" y="35.011"/><use xlink:href="#A" x="415.618" y="35.011"/></g><path d="m500.494 123.404-3.874-1.938v1.926h-15.494v.023h15.494v1.926Zm0 0" style="fill-rule:nonzero;fill:red;fill-opacity:.8;stroke-width:3;stroke-linecap:butt;stroke-linejoin:miter;stroke:red;stroke-opacity:.8;stroke-miterlimit:10" transform="matrix(.99817 0 0 -.99817 1.053 297.909)"/><path d="M481.126 117.28a6.1 6.1 0 0 1 4.329 1.795 6.1 6.1 0 0 1 1.796 4.329 6.126 6.126 0 0 1-10.457 4.332 6.14 6.14 0 0 1-1.792-4.332 6.123 6.123 0 0 1 6.124-6.125Zm0 0" style="fill-rule:nonzero;fill:red;fill-opacity:1;stroke-width:1;stroke-linecap:butt;stroke-linejoin:round;stroke:red;stroke-opacity:1;stroke-miterlimit:10" transform="matrix(.99817 0 0 -.99817 1.053 297.909)"/><path d="M717.223 290.723h335.086V7.188H717.223Zm0 0" style="stroke:none;fill-rule:nonzero;fill:#fff;fill-opacity:1"/><path d="M730.39 20.113h309.879v258.23H730.39Zm0 0" style="fill:none;stroke-width:3;stroke-linecap:butt;stroke-linejoin:miter;stroke:#000;stroke-opacity:1;stroke-miterlimit:10" transform="matrix(.99817 0 0 -.99817 1.053 297.909)"/><path d="M833.684 20.113V97.58m0 51.648v129.115m103.291-258.23v103.29m0 51.646v103.294m-77.47-77.47h51.649M962.8 71.759h25.824m0 0v25.82m0 .001h-25.825m.001 0V71.758" style="fill:none;stroke-width:2;stroke-linecap:square;stroke-linejoin:round;stroke:#000;stroke-opacity:.8;stroke-miterlimit:10" transform="matrix(.99817 0 0 -.99817 1.053 297.909)"/><path d="m761.38 51.1 7.745 7.744" style="fill:none;stroke-width:2;stroke-linecap:square;stroke-linejoin:round;stroke:gray;stroke-opacity:.254545;stroke-miterlimit:10" transform="matrix(.99817 0 0 -.99817 1.053 297.909)"/><path d="M769.125 58.844 794.95 84.67" style="fill:none;stroke-width:2;stroke-linecap:square;stroke-linejoin:round;stroke:gray;stroke-opacity:.309091;stroke-miterlimit:10" transform="matrix(.99817 0 0 -.99817 1.053 297.909)"/><path d="m794.95 84.669 25.824 25.824" style="fill:none;stroke-width:2;stroke-linecap:square;stroke-linejoin:round;stroke:gray;stroke-opacity:.363636;stroke-miterlimit:10" transform="matrix(.99817 0 0 -.99817 1.053 297.909)"/><path d="m820.774 110.493 10.328 12.91" style="fill:none;stroke-width:2;stroke-linecap:square;stroke-linejoin:round;stroke:gray;stroke-opacity:.418182;stroke-miterlimit:10" transform="matrix(.99817 0 0 -.99817 1.053 297.909)"/><path d="M831.102 123.404h5.165" style="fill:none;stroke-width:2;stroke-linecap:square;stroke-linejoin:round;stroke:gray;stroke-opacity:.472727;stroke-miterlimit:10" transform="matrix(.99817 0 0 -.99817 1.053 297.909)"/><path d="M836.267 123.404h10.328" style="fill:none;stroke-width:2;stroke-linecap:square;stroke-linejoin:round;stroke:gray;stroke-opacity:.527273;stroke-miterlimit:10" transform="matrix(.99817 0 0 -.99817 1.053 297.909)"/><path d="m846.595 123.404 25.824 5.165" style="fill:none;stroke-width:2;stroke-linecap:square;stroke-linejoin:round;stroke:gray;stroke-opacity:.581818;stroke-miterlimit:10" transform="matrix(.99817 0 0 -.99817 1.053 297.909)"/><path d="m872.42 128.57 25.82 7.744" style="fill:none;stroke-width:2;stroke-linecap:square;stroke-linejoin:round;stroke:gray;stroke-opacity:.636364;stroke-miterlimit:10" transform="matrix(.99817 0 0 -.99817 1.053 297.909)"/><path d="m898.24 136.314 25.824 12.914" style="fill:none;stroke-width:2;stroke-linecap:square;stroke-linejoin:round;stroke:gray;stroke-opacity:.690909;stroke-miterlimit:10" transform="matrix(.99817 0 0 -.99817 1.053 297.909)"/><path d="M924.064 149.228h10.332" style="fill:none;stroke-width:2;stroke-linecap:square;stroke-linejoin:round;stroke:gray;stroke-opacity:.745455;stroke-miterlimit:10" transform="matrix(.99817 0 0 -.99817 1.053 297.909)"/><path d="M939.557 149.228h100.712m-100.712 0 100.712 100.708M939.557 149.228v129.115m0-129.115-51.645 51.645m51.645-51.645H730.39m209.167 0L833.684 43.351m105.873 105.877V20.113m0 129.115L1040.27 48.517" style="fill:none;stroke-width:2;stroke-linecap:square;stroke-linejoin:round;stroke:#a9a9a9;stroke-opacity:.3;stroke-miterlimit:10" transform="matrix(.99817 0 0 -.99817 1.053 297.909)"/><path d="M1040.269 142.904a6.324 6.324 0 1 1 0 12.648 6.3 6.3 0 0 1-4.473-1.855 6.32 6.32 0 0 1 0-8.942 6.32 6.32 0 0 1 4.473-1.85Zm0 100.707a6.327 6.327 0 0 1 4.473 10.798 6.32 6.32 0 0 1-4.473 1.85 6.324 6.324 0 1 1 0-12.648Zm-100.712 28.408a6.324 6.324 0 1 1 0 12.648 6.34 6.34 0 0 1-4.473-1.851 6.33 6.33 0 0 1 0-8.946 6.34 6.34 0 0 1 4.473-1.851Zm-51.645-77.469a6.324 6.324 0 1 1 0 12.647 6.324 6.324 0 1 1 0-12.648ZM730.39 142.904a6.324 6.324 0 1 1-4.469 10.793 6.3 6.3 0 0 1-1.855-4.469 6.3 6.3 0 0 1 1.855-4.473 6.32 6.32 0 0 1 4.47-1.85ZM833.684 37.027c1.675 0 3.288.665 4.473 1.855a6.32 6.32 0 0 1 0 8.942 6.33 6.33 0 0 1-8.946 0 6.324 6.324 0 0 1 0-8.942 6.3 6.3 0 0 1 4.473-1.855Zm105.873-23.242a6.327 6.327 0 0 1 4.474 10.797 6.33 6.33 0 0 1-4.474 1.855 6.34 6.34 0 0 1-4.473-1.855 6.32 6.32 0 0 1 0-8.942 6.34 6.34 0 0 1 4.473-1.855Zm100.712 28.408a6.324 6.324 0 1 1 0 12.648 6.324 6.324 0 1 1 0-12.648Zm0 0" style="fill-rule:nonzero;fill:#000;fill-opacity:.8;stroke-width:1;stroke-linecap:butt;stroke-linejoin:round;stroke:#000;stroke-opacity:.8;stroke-miterlimit:10" transform="matrix(.99817 0 0 -.99817 1.053 297.909)"/><path d="M1038.797 142.904a6.324 6.324 0 1 1 0 12.648 6.3 6.3 0 0 1-4.473-1.855 6.32 6.32 0 0 1 0-8.942 6.32 6.32 0 0 1 4.473-1.85Zm.728 99.964a6.327 6.327 0 0 1 4.473 10.797 6.33 6.33 0 0 1-4.473 1.855 6.327 6.327 0 0 1-4.473-10.797 6.33 6.33 0 0 1 4.473-1.855Zm-99.968 31.331a6.324 6.324 0 1 1 0 12.648 6.324 6.324 0 0 1-6.324-6.324 6.324 6.324 0 0 1 6.324-6.324Zm-50.478-80.816a6.324 6.324 0 1 1-4.47 10.793 6.3 6.3 0 0 1-1.854-4.469 6.3 6.3 0 0 1 1.854-4.473 6.32 6.32 0 0 1 4.47-1.851Zm-156.802-50.479a6.324 6.324 0 1 1-4.473 10.793 6.32 6.32 0 0 1 0-8.942 6.34 6.34 0 0 1 4.473-1.85Zm99.709-107.575a6.327 6.327 0 0 1 6.324 6.324 6.327 6.327 0 0 1-10.797 4.473 6.32 6.32 0 0 1-1.851-4.473 6.324 6.324 0 0 1 6.324-6.324Zm107.571-23.172a6.324 6.324 0 1 1 0 12.649 6.324 6.324 0 0 1-6.324-6.324 6.324 6.324 0 0 1 6.324-6.325Zm103.792 26.952c1.678 0 3.287.67 4.473 1.855a6.33 6.33 0 0 1 1.855 4.47 6.33 6.33 0 0 1-1.855 4.472 6.33 6.33 0 0 1-4.473 1.855 6.33 6.33 0 0 1-4.47-1.855 6.33 6.33 0 0 1-1.854-4.473c0-1.675.669-3.283 1.855-4.469a6.33 6.33 0 0 1 4.469-1.855Zm0 0" style="fill-rule:nonzero;fill:orange;fill-opacity:.8;stroke-width:1;stroke-linecap:butt;stroke-linejoin:round;stroke:#000;stroke-opacity:.8;stroke-miterlimit:10" transform="matrix(.99817 0 0 -.99817 1.053 297.909)"/><path d="M734.265 254.229h61.28q5.4 0 5.4 5.4v17.422q0 5.4-5.4 5.401h-61.28q-5.4 0-5.401-5.4v-17.423q0-5.4 5.4-5.4Zm0 0" style="fill-rule:nonzero;fill:#fff;fill-opacity:.8;stroke-width:1;stroke-linecap:butt;stroke-linejoin:miter;stroke:#000;stroke-opacity:.8;stroke-miterlimit:10" transform="matrix(.99817 0 0 -.99817 1.053 297.909)"/><g style="fill:#000;fill-opacity:1"><use xlink:href="#c" x="733.977" y="35.011"/><use xlink:href="#d" x="742.565" y="35.011"/><use xlink:href="#e" x="748.818" y="35.011"/><use xlink:href="#d" x="763.856" y="35.011"/><use xlink:href="#B" x="770.109" y="35.011"/><use xlink:href="#B" x="782.596" y="35.011"/></g><path d="m958.925 149.228-3.874-1.937v1.921h-15.494v.028h15.494v1.925Zm0 0" style="fill-rule:nonzero;fill:red;fill-opacity:.8;stroke-width:3;stroke-linecap:butt;stroke-linejoin:miter;stroke:red;stroke-opacity:.8;stroke-miterlimit:10" transform="matrix(.99817 0 0 -.99817 1.053 297.909)"/><path d="M939.557 143.104c1.625 0 3.182.645 4.333 1.792a6.14 6.14 0 0 1 1.792 4.332 6.123 6.123 0 0 1-10.453 4.328 6.1 6.1 0 0 1-1.796-4.328 6.126 6.126 0 0 1 6.124-6.124Zm0 0" style="fill-rule:nonzero;fill:red;fill-opacity:1;stroke-width:1;stroke-linecap:butt;stroke-linejoin:round;stroke:red;stroke-opacity:1;stroke-miterlimit:10" transform="matrix(.99817 0 0 -.99817 1.053 297.909)"/><path d="M1071.715 290.723H1406.8V7.188h-335.086Zm0 0" style="stroke:none;fill-rule:nonzero;fill:#fff;fill-opacity:1"/><path d="M1085.531 20.113h309.879v258.23h-309.88Zm0 0" style="fill:none;stroke-width:3;stroke-linecap:butt;stroke-linejoin:miter;stroke:#000;stroke-opacity:1;stroke-miterlimit:10" transform="matrix(.99817 0 0 -.99817 1.053 297.909)"/><path d="M1188.825 20.113V97.58m0 51.648v129.115m103.291-258.23v103.29m0 51.646v103.294m-77.47-77.47h51.649m51.645-129.114h25.82m0 0v25.82m0 .001h-25.82m0 0V71.758" style="fill:none;stroke-width:2;stroke-linecap:square;stroke-linejoin:round;stroke:#000;stroke-opacity:.8;stroke-miterlimit:10" transform="matrix(.99817 0 0 -.99817 1.053 297.909)"/><path d="m1116.517 51.1 7.749 7.744" style="fill:none;stroke-width:2;stroke-linecap:square;stroke-linejoin:round;stroke:gray;stroke-opacity:.2375;stroke-miterlimit:10" transform="matrix(.99817 0 0 -.99817 1.053 297.909)"/><path d="m1124.266 58.844 25.824 25.825" style="fill:none;stroke-width:2;stroke-linecap:square;stroke-linejoin:round;stroke:gray;stroke-opacity:.275;stroke-miterlimit:10" transform="matrix(.99817 0 0 -.99817 1.053 297.909)"/><path d="m1150.09 84.669 25.821 25.824" style="fill:none;stroke-width:2;stroke-linecap:square;stroke-linejoin:round;stroke:gray;stroke-opacity:.3125;stroke-miterlimit:10" transform="matrix(.99817 0 0 -.99817 1.053 297.909)"/><path d="m1175.911 110.493 10.331 12.91" style="fill:none;stroke-width:2;stroke-linecap:square;stroke-linejoin:round;stroke:gray;stroke-opacity:.35;stroke-miterlimit:10" transform="matrix(.99817 0 0 -.99817 1.053 297.909)"/><path d="M1186.242 123.404h5.162" style="fill:none;stroke-width:2;stroke-linecap:square;stroke-linejoin:round;stroke:gray;stroke-opacity:.3875;stroke-miterlimit:10" transform="matrix(.99817 0 0 -.99817 1.053 297.909)"/><path d="M1191.404 123.404h10.332" style="fill:none;stroke-width:2;stroke-linecap:square;stroke-linejoin:round;stroke:gray;stroke-opacity:.425;stroke-miterlimit:10" transform="matrix(.99817 0 0 -.99817 1.053 297.909)"/><path d="m1201.736 123.404 25.824 5.165" style="fill:none;stroke-width:2;stroke-linecap:square;stroke-linejoin:round;stroke:gray;stroke-opacity:.4625;stroke-miterlimit:10" transform="matrix(.99817 0 0 -.99817 1.053 297.909)"/><path d="m1227.56 128.57 25.82 7.744" style="fill:none;stroke-width:2;stroke-linecap:square;stroke-linejoin:round;stroke:gray;stroke-opacity:.5;stroke-miterlimit:10" transform="matrix(.99817 0 0 -.99817 1.053 297.909)"/><path d="m1253.38 136.314 25.825 12.914" style="fill:none;stroke-width:2;stroke-linecap:square;stroke-linejoin:round;stroke:gray;stroke-opacity:.5375;stroke-miterlimit:10" transform="matrix(.99817 0 0 -.99817 1.053 297.909)"/><path d="M1279.205 149.228h10.328" style="fill:none;stroke-width:2;stroke-linecap:square;stroke-linejoin:round;stroke:gray;stroke-opacity:.575;stroke-miterlimit:10" transform="matrix(.99817 0 0 -.99817 1.053 297.909)"/><path d="M1289.533 149.228h5.165" style="fill:none;stroke-width:2;stroke-linecap:square;stroke-linejoin:round;stroke:gray;stroke-opacity:.6125;stroke-miterlimit:10" transform="matrix(.99817 0 0 -.99817 1.053 297.909)"/><path d="M1294.698 149.228h10.328" style="fill:none;stroke-width:2;stroke-linecap:square;stroke-linejoin:round;stroke:gray;stroke-opacity:.65;stroke-miterlimit:10" transform="matrix(.99817 0 0 -.99817 1.053 297.909)"/><path d="m1305.026 149.228 25.824 25.82" style="fill:none;stroke-width:2;stroke-linecap:square;stroke-linejoin:round;stroke:gray;stroke-opacity:.6875;stroke-miterlimit:10" transform="matrix(.99817 0 0 -.99817 1.053 297.909)"/><path d="m1330.85 175.049 25.825 38.735" style="fill:none;stroke-width:2;stroke-linecap:square;stroke-linejoin:round;stroke:gray;stroke-opacity:.725;stroke-miterlimit:10" transform="matrix(.99817 0 0 -.99817 1.053 297.909)"/><path d="m1356.675 213.784 12.91 25.824" style="fill:none;stroke-width:2;stroke-linecap:square;stroke-linejoin:round;stroke:gray;stroke-opacity:.7625;stroke-miterlimit:10" transform="matrix(.99817 0 0 -.99817 1.053 297.909)"/><path d="M1382.495 265.433h12.915m-12.915 0 12.915 12.91m-12.915-12.91v12.91m0-12.91-12.91 12.91m12.91-12.91h-90.38m90.38 0L1199.9 82.833m182.595 182.6V20.113m0 245.32 12.915-12.915" style="fill:none;stroke-width:2;stroke-linecap:square;stroke-linejoin:round;stroke:#a9a9a9;stroke-opacity:.3;stroke-miterlimit:10" transform="matrix(.99817 0 0 -.99817 1.053 297.909)"/><path d="M1395.41 259.105c1.675 0 3.283.669 4.469 1.855a6.3 6.3 0 0 1 1.855 4.473 6.3 6.3 0 0 1-1.855 4.469 6.33 6.33 0 0 1-4.47 1.855 6.327 6.327 0 0 1-4.472-10.797 6.33 6.33 0 0 1 4.473-1.855Zm0 12.914c1.675 0 3.283.665 4.469 1.85a6.32 6.32 0 0 1 0 8.946 6.32 6.32 0 0 1-8.942 0 6.33 6.33 0 0 1 0-8.945 6.32 6.32 0 0 1 4.473-1.851Zm0 0" style="fill-rule:nonzero;fill:#000;fill-opacity:.8;stroke-width:1;stroke-linecap:butt;stroke-linejoin:round;stroke:#000;stroke-opacity:.8;stroke-miterlimit:10" transform="matrix(.99817 0 0 -.99817 1.053 297.909)"/><path d="M1382.495 272.019a6.324 6.324 0 1 1-4.469 10.797 6.33 6.33 0 0 1-1.855-4.473 6.327 6.327 0 0 1 6.324-6.324Zm0 0" style="fill-rule:nonzero;fill:#000;fill-opacity:.8;stroke-width:1;stroke-linecap:butt;stroke-linejoin:round;stroke:#000;stroke-opacity:.8;stroke-miterlimit:10" transform="matrix(.99817 0 0 -.99817 1.053 297.909)"/><path d="M1369.585 272.019a6.324 6.324 0 1 1 0 12.648 6.324 6.324 0 1 1 0-12.648Zm-77.469-12.914a6.327 6.327 0 0 1 4.473 10.797 6.33 6.33 0 0 1-4.473 1.855 6.33 6.33 0 0 1-4.473-1.855 6.32 6.32 0 0 1 0-8.942 6.33 6.33 0 0 1 4.473-1.855ZM1199.9 76.51a6.324 6.324 0 1 1 0 12.647 6.324 6.324 0 1 1 0-12.648Zm182.595-62.725a6.327 6.327 0 0 1 4.473 10.797 6.33 6.33 0 0 1-4.473 1.855 6.33 6.33 0 0 1-4.469-1.855 6.33 6.33 0 0 1-1.855-4.469c0-1.678.67-3.287 1.855-4.473a6.33 6.33 0 0 1 4.47-1.855Zm12.915 232.409a6.324 6.324 0 1 1 0 12.651 6.324 6.324 0 0 1 0-12.65Zm0 0" style="fill-rule:nonzero;fill:#000;fill-opacity:.8;stroke-width:1;stroke-linecap:butt;stroke-linejoin:round;stroke:#000;stroke-opacity:.8;stroke-miterlimit:10" transform="matrix(.99817 0 0 -.99817 1.053 297.909)"/><g clip-path="url(#C)"><path d="M1404.782 259.105a6.327 6.327 0 0 1 4.473 10.797 6.33 6.33 0 0 1-4.473 1.855 6.33 6.33 0 0 1-4.469-1.855 6.3 6.3 0 0 1-1.855-4.47 6.3 6.3 0 0 1 1.855-4.472 6.33 6.33 0 0 1 4.47-1.855Zm0 0" style="fill-rule:nonzero;fill:orange;fill-opacity:.8;stroke-width:1;stroke-linecap:butt;stroke-linejoin:round;stroke:#000;stroke-opacity:.8;stroke-miterlimit:10" transform="matrix(.99817 0 0 -.99817 1.053 297.909)"/></g><path d="M1394.991 271.6a6.327 6.327 0 0 1 4.473 10.797 6.33 6.33 0 0 1-4.473 1.855 6.324 6.324 0 0 1-4.473-10.797 6.34 6.34 0 0 1 4.473-1.855Zm0 0" style="fill-rule:nonzero;fill:orange;fill-opacity:.8;stroke-width:1;stroke-linecap:butt;stroke-linejoin:round;stroke:#000;stroke-opacity:.8;stroke-miterlimit:10" transform="matrix(.99817 0 0 -.99817 1.053 297.909)"/><path d="M1382.495 269.835a6.327 6.327 0 0 1 4.473 10.797 6.33 6.33 0 0 1-4.473 1.855 6.33 6.33 0 0 1-4.469-1.855 6.33 6.33 0 0 1-1.855-4.473c0-1.675.67-3.283 1.855-4.469a6.33 6.33 0 0 1 4.47-1.855Zm0 0" style="fill-rule:nonzero;fill:orange;fill-opacity:.8;stroke-width:1;stroke-linecap:butt;stroke-linejoin:round;stroke:#000;stroke-opacity:.8;stroke-miterlimit:10" transform="matrix(.99817 0 0 -.99817 1.053 297.909)"/><path d="M1371.949 269.655a6.324 6.324 0 0 1 6.324 6.324 6.324 6.324 0 1 1-12.648 0 6.324 6.324 0 0 1 6.324-6.324Zm-82.679-10.55c1.675 0 3.284.669 4.47 1.855a6.33 6.33 0 0 1 1.855 4.473c0 1.675-.67 3.283-1.855 4.469a6.33 6.33 0 0 1-4.47 1.855 6.327 6.327 0 0 1-4.473-10.797 6.33 6.33 0 0 1 4.474-1.855Zm-89.745-182.971a6.327 6.327 0 0 1 4.473 10.797 6.33 6.33 0 0 1-4.473 1.855 6.33 6.33 0 0 1-4.47-1.855 6.33 6.33 0 0 1-1.855-4.47c0-1.678.67-3.287 1.855-4.472a6.33 6.33 0 0 1 4.47-1.855Zm182.97-63.214a6.327 6.327 0 0 1 4.473 10.798 6.33 6.33 0 0 1-4.473 1.855 6.33 6.33 0 0 1-4.469-1.855 6.33 6.33 0 0 1-1.855-4.47c0-1.678.67-3.287 1.855-4.472a6.33 6.33 0 0 1 4.47-1.855Zm13.361 232.828a6.324 6.324 0 1 1 0 12.648 6.324 6.324 0 1 1 0-12.648Zm0 0" style="fill-rule:nonzero;fill:orange;fill-opacity:.8;stroke-width:1;stroke-linecap:butt;stroke-linejoin:round;stroke:#000;stroke-opacity:.8;stroke-miterlimit:10" transform="matrix(.99817 0 0 -.99817 1.053 297.909)"/><path d="M1089.405 254.229h61.28q5.4 0 5.4 5.4v17.422q0 5.4-5.4 5.401h-61.28q-5.4 0-5.4-5.4v-17.423q0-5.4 5.4-5.4Zm0 0" style="fill-rule:nonzero;fill:#fff;fill-opacity:.8;stroke-width:1;stroke-linecap:butt;stroke-linejoin:miter;stroke:#000;stroke-opacity:.8;stroke-miterlimit:10" transform="matrix(.99817 0 0 -.99817 1.053 297.909)"/><g style="fill:#000;fill-opacity:1"><use xlink:href="#c" x="1088.468" y="35.011"/><use xlink:href="#d" x="1097.057" y="35.011"/><use xlink:href="#e" x="1103.309" y="35.011"/><use xlink:href="#d" x="1118.348" y="35.011"/><use xlink:href="#B" x="1124.6" y="35.011"/><use xlink:href="#D" x="1137.087" y="35.011"/></g><path d="m1400.355 32.96-3.863 1.935v-1.918h-15.469v-.028h15.47v-1.918Zm0 0" style="stroke:none;fill-rule:nonzero;fill:red;fill-opacity:.8"/><g clip-path="url(#E)"><path d="m1401.863 265.433-3.87-1.938v1.922h-15.498v.027h15.498v1.922Zm0 0" style="fill:none;stroke-width:3;stroke-linecap:butt;stroke-linejoin:miter;stroke:red;stroke-opacity:.8;stroke-miterlimit:10" transform="matrix(.99817 0 0 -.99817 1.053 297.909)"/></g><path d="M1382.495 259.308c1.625 0 3.182.646 4.333 1.792a6.13 6.13 0 0 1 1.792 4.333 6.123 6.123 0 0 1-12.245 0 6.115 6.115 0 0 1 6.12-6.125Zm0 0" style="fill-rule:nonzero;fill:red;fill-opacity:1;stroke-width:1;stroke-linecap:butt;stroke-linejoin:round;stroke:red;stroke-opacity:1;stroke-miterlimit:10" transform="matrix(.99817 0 0 -.99817 1.053 297.909)"/></svg>